<svg width="16" height="18" viewBox="0 0 16 18" fill="none" xmlns="http://www.w3.org/2000/svg">
<path d="M15.9328 7.03703C15.8157 6.78151 15.5644 6.61832 15.2882 6.61832H8.80624L9.51601 0.817364C9.55521 0.49709 9.38304 0.188735 9.09317 0.060204C8.80328 -0.0683975 8.46527 0.0137274 8.26299 0.261684L0.164971 10.1891C-0.0118103 10.4058 -0.0499403 10.7075 0.0672028 10.963C0.184346 11.2184 0.435598 11.3817 0.711765 11.3817H7.19373L6.48395 17.1827C6.44479 17.5029 6.61696 17.8113 6.90679 17.9398C6.99829 17.9805 7.09462 18 7.18998 18C7.39656 18 7.59857 17.908 7.73701 17.7384L15.8351 7.81096C16.0118 7.59418 16.0499 7.29254 15.9328 7.03703ZM8.19753 14.9021L8.70623 10.7448C8.73156 10.5378 8.66868 10.3297 8.53358 10.1734C8.39847 10.017 8.20414 9.9275 8 9.9275H2.23136L7.80243 3.09788L7.29373 7.25528C7.26841 7.46224 7.33128 7.6703 7.46639 7.82663C7.60149 7.98297 7.79582 8.07252 7.99996 8.07252H13.7686L8.19753 14.9021Z" fill="#8FA4B5"/>
</svg>
