<svg width="174" height="166" fill="none" xmlns="http://www.w3.org/2000/svg"><g clip-path="url(#clip0)"><path d="M45.795 146.378l.071.326c.334 1.566.611 3.071.834 4.513a82.551 82.551 0 01-21.781-20.52 32.04 32.04 0 003.92-.618 79.026 79.026 0 0016.956 16.299zM91.431.55c45.446 0 82.291 36.669 82.291 81.907 0 18.148-5.929 34.916-15.964 48.492l-1.532-3.873c8.824-12.665 13.994-28.041 13.994-44.619 0-43.298-35.273-78.403-78.789-78.403-9.578 0-18.757 1.7-27.248 4.815l-3.872-2.26C69.912 2.703 80.42.55 91.431.55z" fill="url(#paint0_linear)"/><path d="M20.49 76.098l11.203 29.876c3.186.549 5.148 1.298 5.148 2.123v.016l-.006-.016.019.072a2.77 2.77 0 01-.033 1.128l.02.001-.061.169a5.421 5.421 0 01-.406 1.036c-2.97 7.019-9.533 11.971-17.61 11.971-7.95 0-14.74-4.8-17.814-11.647l.18.32c-.364-.625-.611-1.194-.742-1.707l-.05-.142.016-.001a2.88 2.88 0 01-.056-.976l.04-.224.009-.093c.147-.82 2.23-1.558 5.513-2.092l11.18-29.814c.538-1.447 2.908-1.447 3.45 0zm59.099-.004l11.201 29.87c3.034.518 4.973 1.215 5.19 1.988l-.032-.063c.178.341.23.734.155 1.179l-.047.226a4.162 4.162 0 01-.298.795c-2.893 7.239-9.661 12.381-17.894 12.381-8.146 0-15.072-5.037-18.033-12.151a4.44 4.44 0 01-.386-.989l-.007-.033v-.003l-.023-.142a3.3 3.3 0 01.047-.911l.045-.24-.004.02a.723.723 0 01.007-.041l.005-.015h.002c.203-.799 2.244-1.518 5.435-2.042L76.14 76.094c.538-1.446 2.908-1.446 3.45 0zm-60.824 5.911l-8.777 23.402a98.004 98.004 0 018.601-.359l.558.001c3.05.015 5.91.156 8.406.391l-8.788-23.435zm59.099 0l-8.78 23.407a98.033 98.033 0 018.664-.364l.558.001c3.024.015 5.864.153 8.345.385l-8.787-23.429zm-29.29-40.562s4.37 13.713 4.37 16.142c0 1.673-.965 3.085-2.34 3.827a6.654 6.654 0 012.904 1.877c1.736-1.514 4.294-2.919 7.964-2.919 4.198 0 7.806 1.836 10.99 3.456 1.013.516 1.997 1.009 2.908 1.395a3.682 3.682 0 012.686-1.18c2.057 0 3.722 1.676 3.722 3.746 0 2.069-1.665 3.745-3.722 3.745-1.67 0-3.03-1.124-3.5-2.648-1.22-.467-2.47-1.097-3.756-1.75-2.816-1.431-6.011-3.056-9.328-3.056-3.188 0-5.178 1.487-6.313 2.745.044.318.096.634.096.964 0 3.712-2.992 6.723-6.681 6.723-3.69 0-6.682-3.011-6.682-6.723 0-.33.052-.65.096-.968-1.139-1.261-3.13-2.74-6.313-2.74-3.317 0-6.512 1.627-9.331 3.059-1.283.652-2.532 1.283-3.752 1.75-.472 1.524-1.832 2.648-3.501 2.648-2.057 0-3.722-1.68-3.722-3.75 0-2.069 1.665-3.745 3.722-3.745 1.061 0 2.008.464 2.686 1.18.91-.382 1.891-.876 2.904-1.395 3.185-1.62 6.796-3.456 10.994-3.456 3.67 0 6.228 1.406 7.964 2.919a6.62 6.62 0 012.904-1.877c-1.375-.742-2.34-2.15-2.34-3.827 0-2.429 4.37-16.142 4.37-16.142z" fill="url(#paint1_linear)"/><path d="M100.812 36.874s-4.534.39-7.538 2.013c0 0 11.947-.065 17.508 4.606 0 0-13.523-4.155-29.284 6.164 0 0 25.068-4.803 36.952 5.386 0 0-3.835-7.098-11.901-8.626 0 0 9.177-.366 12.32 1.162 0 0-2.714-5.848-5.791-7.241v-4.169c0-.844-4.596-5.136-12.266-5.86v6.565z" fill="url(#paint2_linear)"/><path d="M98.773 55.513s1.934 1.686 2.752 3.245c0 0-1.767 1.747-3.457 2.607 0 0 5.118 1.612 6.466 3.518-2.729-.857-7.389-.536-8.511 1.781 3.115-.336 5.023.47 5.424 1.663 0 0-.741 1.067-3.009 1.541-2.415.506-3.032 1.51-3.032 2.912 0 1.403 1.834 2.685 5.165 2.58 3.327-.105 12.4-1.478 13.086-18.644-.686-1.614-8.974-4.91-14.905-4.874l.02 3.67zM116.51 74.511c4.073-6.338 6.301-11.861 6.685-16.569 6.03 6.701 5.668 14.547 4.643 20.55-.691-1.931-1.582-3.919-2.674-5.961.722 9.257-2.019 14.269-8.221 15.035-.726-4.276-.87-8.627-.433-13.055zM41.248 17.015c-1.131 1.74-2.79 6.581-4.977 14.522-4.913 5.622-9.719 13.338-14.418 23.148-2.32.722-4.781 1.74-7.384 3.055 6.674-12.27 13.204-21.534 19.59-27.79 1.475-4.904 3.871-9.215 7.19-12.935zM54.703 30.705l-16.514 7.79c4.706.08 8.443-.776 11.211-2.566 2.768-1.79 4.536-3.532 5.303-5.224zM48.61 27.864c-.094-3.405-.537-5.319-1.33-5.741-.882-.394-1.395-1.242-.882-2.791.316-.985.22-2.08-.286-3.288l4.48-2.992 5.04 3.178c.177 1.12-.19 2.155-1.098 3.102 1.098 1.189 1.098 2.723-.175 4.496.036.439.06.87.074 1.291.021.64-.004 1.555-.074 2.745h-5.75z" fill="#fff"/><path d="M110.807 80.319c-.79 14.394 2.274 22.574 9.194 24.54 10.378 2.949 24.261 3.81 28.036 25.669.938 2.956.481 5.673 1.258 8.336a82.738 82.738 0 01-9.868 8.893c-3.45-8.342-7.763-13.493-13.826-17.229-23.896-14.886-28.828-31.623-14.794-50.21zM50.648 126.131c12.512 31.413 32.543 11.285 48.017 18.644 7.075 3.364 10.934 9.54 11.578 18.528a82.69 82.69 0 01-18.776 2.147c-12.523 0-24.396-2.788-35.036-7.779-.04-9.456-1.968-19.969-5.783-31.54zM117.458 32.14c5.047 8.026 7.401 13.962 7.062 17.81-.129 1.39-.74 2.94-1.833 4.652 3.84-.342 5.76-2.704 5.76-7.085 0-4.38-3.663-9.506-10.989-15.376zM73.6 41.186c3.246-.897 5.9-2.921 7.959-6.075-.13 1.878-.6 3.494-1.41 4.848 9.38-1.687 16.662-7.372 21.842-17.053-9.552-5.194-19.398-1.65-24.676 4.81-3.518 4.308-4.756 8.798-3.715 13.47z" fill="#fff"/></g><defs><linearGradient id="paint0_linear" x1="99.32" y1="66.688" x2="99.32" y2="151.217" gradientUnits="userSpaceOnUse"><stop stop-color="#fff"/><stop offset="1" stop-color="#fff" stop-opacity="0"/></linearGradient><linearGradient id="paint1_linear" x1=".278" y1="110.802" x2="223.693" y2="-85.791" gradientUnits="userSpaceOnUse"><stop stop-color="#FFD4AB"/><stop offset="1" stop-color="#FF7C7C"/></linearGradient><linearGradient id="paint2_linear" x1="81.498" y1="51.48" x2="149.787" y2="-25.269" gradientUnits="userSpaceOnUse"><stop stop-color="#FFD4AB"/><stop offset="1" stop-color="#FF7C7C"/></linearGradient><clipPath id="clip0"><path fill="#fff" d="M.278.55h173.443v164.9H.278z"/></clipPath></defs></svg>