<svg width="25" height="25" fill="none" xmlns="http://www.w3.org/2000/svg"><path d="M13.467 17.744a6.947 6.947 0 006.943-6.951 6.947 6.947 0 00-6.943-6.951 6.947 6.947 0 00-6.943 6.95 6.947 6.947 0 006.943 6.952z" fill="url(#paint0_linear)"/><path d="M18.413 8.896c.497.675.689 1.284.689 2.111 0 1.004-.414 1.931-1.118 2.682l.428 1.602h1.302l1.37-1.555.367-2.277.077-1.356-1.355-1.533c-1.204-.145-1.791-.036-1.76.326z" fill="url(#paint1_linear)"/><mask id="a" maskUnits="userSpaceOnUse" x="3" y="6" width="18" height="19"><path d="M3.264 15.476l.237.943s2.802 5.755 9.11 7.893c0 0 5.738-2.452 8.287-6.614l-3.519-3.073s-1.684 1.341-4.187 1.341-5.901-1.494-5.901-4.575c0-3.082 3.52-4.208 3.52-4.208l-1.5-.368H5.476l-2.434 5.87.222 2.79z" fill="#fff"/></mask><g mask="url(#a)"><path d="M12.97 22.787c5.494 0 9.946-4.453 9.946-9.946 0-5.493-4.452-9.945-9.945-9.945S3.025 7.348 3.025 12.84s4.453 9.946 9.946 9.946z" fill="url(#paint2_linear)"/></g><mask id="b" maskUnits="userSpaceOnUse" x="0" y="0" width="25" height="19"><path d="M24.46 9.006c-.107-.107-1.07-5.069-9.59-8.004-.27-.185-9.262-1.635-7.889.325C-.932 3.347.868 8.74.868 9.006c0 .265 1.133 4.255 1.868 5.88.061.137 1.041 1.87 1.769 2.813-.429-.943-.896-1.763-.896-3.173 0-3.978 3.077-7.212 6.927-7.35.092 0 .191 0 .284.008l-.92-.92s3.698-.62 8.444 2.253c0 0 .069.146 0 .575 0 0 2.235.965 2.426 2.843.192 1.878-.995 2.951-1.952 3.104 0 0 .498-.774-.268-1.188a1.014 1.014 0 00-.544-.122c-1.461 0-1.63 1.67-1.63 1.67-.016.085-.016.17-.016.253 0 0-.244 2.446 4.103 2.4 0 0 2.205-2.5 2.787-4.745.214-.827.367-1.448.467-1.908.244-.651.482-1.611.712-2.308l.031-.085z" fill="#fff"/></mask><g mask="url(#b)"><path d="M12.8 22.929c5.4 0 9.777-4.506 9.777-10.065 0-5.559-4.378-10.065-9.778-10.065S3.022 7.305 3.022 12.864c0 5.559 4.377 10.065 9.777 10.065z" fill="#000"/></g><path d="M16.453 9.26c.06-.03.26-.13.49-.368.459.061.91.207.91.207-.834-.506-1.974-.805-3.238-.797 0 0 .483.69 1.822.973l.016-.015z" fill="#000"/><path d="M12.782 22.51c5.474 0 9.912-4.439 9.912-9.913s-4.438-9.912-9.912-9.912c-5.474 0-9.912 4.438-9.912 9.912 0 5.474 4.438 9.912 9.912 9.912z" stroke="#000"/><defs><linearGradient id="paint0_linear" x1="13.467" y1="3.842" x2="13.467" y2="17.744" gradientUnits="userSpaceOnUse"><stop stop-color="#00DBE2"/><stop offset="1" stop-color="#02A9D6"/></linearGradient><linearGradient id="paint1_linear" x1="19.756" y1="10.023" x2="20.272" y2="16.46" gradientUnits="userSpaceOnUse"><stop stop-color="#00FFF3"/><stop offset="1" stop-color="#01D3E2"/></linearGradient><linearGradient id="paint2_linear" x1="9.096" y1="7.521" x2="13.673" y2="22.787" gradientUnits="userSpaceOnUse"><stop stop-color="#00FFEB"/><stop offset="1" stop-color="#02B4E4"/></linearGradient></defs></svg>