<svg xmlns="http://www.w3.org/2000/svg" viewBox="0 0 25 25"><linearGradient id="a" gradientUnits="userSpaceOnUse" x1="306.5" y1="-366.8" x2="306.5" y2="-383.1" gradientTransform="matrix(1 0 0 -1 -294 -358)"><stop offset="0" stop-color="#01e8f8"/><stop offset="1" stop-color="#01e8f8" stop-opacity="0"/></linearGradient><circle cx="12.5" cy="12.5" r="12.3" fill="url(#a)" fill-opacity=".1"/><linearGradient id="b" gradientUnits="userSpaceOnUse" x1="314.2" y1="-367.9" x2="314.7" y2="-373.9" gradientTransform="matrix(1 0 0 -1 -294 -358)"><stop offset="0" stop-color="#01e8f7"/><stop offset="1" stop-color="#00c2ff"/></linearGradient><path d="M22.1 11.7c.1-1.8-1.2-2.9-2.5-3.7l-.9 5.3c.6 0 .9.2 1 .3.1.1.5.6.1 1.2.8-.1 2.2-1 2.3-3.1z" fill="url(#b)"/><linearGradient id="c" gradientUnits="userSpaceOnUse" x1="303.4" y1="-364" x2="309.7" y2="-374" gradientTransform="matrix(1 0 0 -1 -294 -358)"><stop offset="0" stop-color="#01e8f7"/><stop offset="1" stop-color="#00b3ec"/></linearGradient><path d="M10.2 5.5L9.1 4.4c1.6-.2 5.9.1 10.1 2.7v.7l.3.2c.3.4.8 1.7.5 3.1-.4 1.5-1 2.1-1.3 2.2-.6 0-1.5.3-1.8 1.8s-.9 1.7-1.2 1.7l-6.1.1-4-2.4-.6-5L6.2 8l2.1-1.7 1.5-.6.4-.2zm7.3 2l-.6.5c-1.6-.3-2.1-1.2-2.1-1.2 1.5 0 2.8.3 3.8.9-.1.1-.6-.1-1.1-.2z" fill-rule="evenodd" clip-rule="evenodd" fill="url(#c)"/><linearGradient id="d" gradientUnits="userSpaceOnUse" x1="306" y1="-368.7" x2="306.5" y2="-384.9" gradientTransform="matrix(1 0 0 -1 -294 -358)"><stop offset="0" stop-color="#01e8f7"/><stop offset="1" stop-color="#00c2ff"/></linearGradient><path d="M16.9 15a9 9 0 01-3.7.8c-3.9 0-7-2.4-7-5.4 0-2.2 1.7-4.1 4.2-5C5.7 5.7 2 9.4 2 14c0 5.3 4.8 9.8 10.6 9.8 4.4 0 8-2.5 9.9-5.9-2.7.6-5.8-.5-5.6-2.9z" fill-rule="evenodd" clip-rule="evenodd" fill="url(#d)"/></svg>