<svg xmlns="http://www.w3.org/2000/svg" xmlns:xlink="http://www.w3.org/1999/xlink" width="70" height="70" viewBox="0 0 70 70"><defs><linearGradient id="a" x1="34.97" y1="66" x2="34.97" gradientTransform="matrix(1, 0, 0, -1, 0, 68)" gradientUnits="userSpaceOnUse"><stop offset="0" stop-color="#ff7c7c"/><stop offset="1" stop-color="#ff7c7c" stop-opacity="0"/></linearGradient><linearGradient id="b" x1="35" x2="35" xlink:href="#a"/><linearGradient id="c" x1="35" y1="55.5" x2="35" y2="-27" xlink:href="#a"/></defs><g opacity="0.3"><path d="M54.34,24.18v9.34L35,22.71,13.89,34.56V46.8L35,58.6,64.44,42.1v9.4L35,68,5.5,51.5V29.86L35,13.31Z" fill="url(#a)"/><path d="M15.66,36.48v9.39L35,56.64,64.5,40.19V18.55L35,2,5.5,18.55V27.9L35,11.34,56.06,23.2V35.49L35,47.29Z" fill="url(#b)"/></g><path d="M53.84,32.67,35.27,22.27,35,22.13l-.25.14L13.64,34.13l-.25.14V47.09l.26.15L34.78,59l.25.14.24-.14L63.94,43v8.25L35,67.43,6,51.21v-21L35,13.88,53.84,24.47ZM35.22,10.91,35,10.77l-.24.14L6,27V18.85L35,2.57,64,18.85v21L35,56.06,16.16,45.58V37.33l18.62,10.4.25.14.24-.14,21-11.8.26-.15V22.91l-.26-.15Z" fill="none" stroke="url(#c)"/></svg>