<svg xmlns="http://www.w3.org/2000/svg" xmlns:xlink="http://www.w3.org/1999/xlink" width="70" height="70" viewBox="0 0 70 70"><defs><linearGradient id="a" x1="8.18" y1="56.15" x2="66.73" y2="22.35" gradientUnits="userSpaceOnUse"><stop offset="0" stop-color="#ffc58f"/><stop offset="0.13" stop-color="#ffba8c"/><stop offset="0.71" stop-color="#ff8d81"/><stop offset="1" stop-color="#ff7c7c"/></linearGradient><linearGradient id="b" x1="13.35" y1="41.87" x2="71.89" y2="8.07" xlink:href="#a"/></defs><polygon points="13.89 46.8 13.89 34.56 35.03 22.71 54.34 33.52 54.34 24.18 34.97 13.31 5.5 29.86 5.5 51.5 35.03 68 64.44 51.5 64.44 42.1 35.03 58.6 13.89 46.8" fill="url(#a)"/><polygon points="35.03 2 5.5 18.55 5.5 27.9 34.97 11.34 56.06 23.2 56.06 35.49 35.03 47.29 15.65 36.48 15.65 45.87 35.03 56.64 64.5 40.19 64.5 18.55 35.03 2" fill="url(#b)"/></svg>