<svg width="68" height="69" fill="none" xmlns="http://www.w3.org/2000/svg"><path d="M18.667 56.19l.024.11c.11.522.203 1.023.277 1.504a27.516 27.516 0 01-7.26-6.84c.48-.048.915-.117 1.306-.206a26.33 26.33 0 005.653 5.432zM33.879 7.581c15.148 0 27.43 12.223 27.43 27.303 0 6.049-1.976 11.638-5.321 16.164l-.51-1.291a25.926 25.926 0 004.664-14.873c0-14.433-11.758-26.135-26.263-26.135-3.193 0-6.252.567-9.083 1.605l-1.29-.753a27.463 27.463 0 0110.373-2.02z" fill="#CBD7E9" stroke="#CBD7E9"/><path d="M10.476 32.646l3.762 10.013c1.07.184 1.728.435 1.728.711v.004a.913.913 0 01-.006.398h.006l-.02.06a1.815 1.815 0 01-.135.342c-.997 2.354-3.201 4.014-5.914 4.014-2.673 0-4.955-1.612-5.985-3.91a2.076 2.076 0 01-.186-.46l-.016-.045h.006a.94.94 0 01-.016-.355l.01-.048.001-.02c.032-.279.736-.53 1.853-.712l3.754-9.992c.18-.485.976-.485 1.158 0zm19.843-.001l3.761 10.01c1.02.174 1.671.408 1.743.667l-.007-.013.015.033a.67.67 0 01.017.43 1.4 1.4 0 01-.1.267c-.971 2.425-3.244 4.148-6.008 4.148-2.734 0-5.059-1.687-6.054-4.07a1.498 1.498 0 01-.13-.334l-.002-.01v-.002l-.005-.027a1.104 1.104 0 01.018-.356l.008-.04v-.006l.003-.013c.065-.27.752-.511 1.828-.688l3.755-9.996c.18-.485.976-.485 1.158 0zm-6.74 10.684l-.003.013.003-.013zM9.897 34.626l-2.946 7.843c.86-.077 1.843-.12 2.887-.12h.118c1.05.003 2.035.05 2.892.13l-2.951-7.853zm19.843 0l-2.947 7.844a32.865 32.865 0 012.908-.122h.118c1.041.004 2.02.05 2.871.13l-2.95-7.852zm-9.834-13.594s1.467 4.596 1.467 5.41a1.46 1.46 0 01-.786 1.282c.38.123.714.34.976.629.582-.507 1.441-.978 2.674-.978 1.409 0 2.62.615 3.69 1.158.34.173.67.338.976.467.227-.24.545-.395.902-.395.69 0 1.25.562 1.25 1.256 0 .693-.56 1.255-1.25 1.255-.56 0-1.017-.377-1.176-.888a13.72 13.72 0 01-1.26-.586c-.946-.48-2.019-1.024-3.133-1.024-1.07 0-1.738.498-2.12.92.016.106.033.212.033.323a2.249 2.249 0 01-2.243 2.253 2.249 2.249 0 01-2.244-2.253c0-.111.018-.218.032-.325-.382-.422-1.05-.918-2.12-.918-1.113 0-2.186.545-3.132 1.025-.431.219-.85.43-1.26.587-.158.51-.615.887-1.176.887-.69 0-1.25-.563-1.25-1.256 0-.694.56-1.256 1.25-1.256.357 0 .675.156.902.395.306-.128.635-.293.976-.467 1.069-.543 2.281-1.158 3.69-1.158 1.233 0 2.092.471 2.675.978.26-.29.595-.507.975-.629a1.458 1.458 0 01-.786-1.282c0-.814 1.468-5.41 1.468-5.41z" fill="url(#paint0_linear)"/><path d="M37.446 19.501s-1.523.13-2.531.675c0 0 4.011-.022 5.878 1.544 0 0-4.54-1.393-9.832 2.065 0 0 8.417-1.61 12.407 1.805 0 0-1.288-2.379-3.996-2.89 0 0 3.081-.123 4.137.389 0 0-.912-1.96-1.945-2.427v-1.397c0-.283-1.543-1.722-4.118-1.964v2.2z" fill="url(#paint1_linear)"/><path d="M36.76 25.748s.65.565.924 1.087c0 0-.593.586-1.16.874 0 0 1.718.54 2.17 1.18-.916-.288-2.48-.18-2.857.596 1.046-.112 1.686.157 1.821.557 0 0-.249.358-1.01.517-.811.17-1.018.506-1.018.976s.615.9 1.734.865c1.117-.036 4.163-.496 4.394-6.249-.23-.54-3.013-1.645-5.005-1.633l.007 1.23zM42.136 32.114c1.367-2.124 2.115-3.975 2.244-5.552 2.025 2.245 1.903 4.875 1.56 6.887a14.871 14.871 0 00-.899-1.998c.242 3.102-.678 4.782-2.76 5.039a16.375 16.375 0 01-.145-4.376zM17.446 12.846c-.38.584-.937 2.206-1.671 4.867-1.752 2.002-3.464 4.795-5.135 8.38-.81.274-1.67.651-2.58 1.133 2.379-4.477 4.703-7.825 6.972-10.045a11.324 11.324 0 012.414-4.335zM21.964 17.434l-5.545 2.611c1.58.026 2.835-.26 3.764-.86.93-.6 1.523-1.184 1.78-1.751z" fill="#CBD7E9"/><path d="M19.918 16.482c-.031-1.142-.18-1.783-.447-1.925-.296-.132-.468-.416-.296-.935.106-.33.074-.697-.096-1.102l1.504-1.002 1.693 1.064c.06.376-.064.723-.369 1.04.369.399.369.913-.058 1.507.011.147.02.291.024.433.007.214-.001.52-.024.92h-1.931z" fill="#fff"/><path d="M40.8 34.062c-.264 4.824.765 7.566 3.088 8.224 3.485.989 9.68 1.12 9.284 8.603.315.99.602 1.932.863 2.825a27.652 27.652 0 01-3.313 2.98c-1.159-2.795-2.918-4.553-4.954-5.805-8.023-4.989-9.68-10.598-4.967-16.827zM20.338 49.414c4.202 10.528 10.927 3.783 16.123 6.249 2.375 1.127 3.671 3.197 3.887 6.21a27.83 27.83 0 01-6.304.719 27.67 27.67 0 01-11.764-2.607c-.013-3.17-.66-6.693-1.942-10.57zM28.308 20.946c1.09-.3 1.98-.979 2.672-2.036-.043.63-.201 1.17-.473 1.625 3.15-.566 5.594-2.47 7.334-5.715-3.207-1.74-6.513-.553-8.285 1.612-1.182 1.443-1.597 2.948-1.248 4.514z" fill="#CBD7E9"/><defs><linearGradient id="paint0_linear" x1="3.69" y1="44.277" x2="33.522" y2="20.205" gradientUnits="userSpaceOnUse"><stop stop-color="#FFC58F"/><stop offset="1" stop-color="#FF7C7C"/></linearGradient><linearGradient id="paint1_linear" x1="30.961" y1="24.396" x2="40.273" y2="14.799" gradientUnits="userSpaceOnUse"><stop stop-color="#FFC58F"/><stop offset="1" stop-color="#FF7C7C"/></linearGradient></defs></svg>