<svg width="68" height="69" fill="none" xmlns="http://www.w3.org/2000/svg"><circle cx="34" cy="34.691" r="34" fill="url(#paint0_linear)"/><path d="M12.117 31.401l3.89 10.354c1.106.19 1.787.45 1.787.736v.004a.944.944 0 01-.007.412h.007l-.022.061c-.03.112-.076.23-.139.354-1.03 2.434-3.31 4.151-6.115 4.151-2.764 0-5.123-1.667-6.189-4.044a2.145 2.145 0 01-.192-.474c-.005-.016-.01-.032-.017-.048h.006a.973.973 0 01-.016-.366l.01-.05.002-.02c.032-.29.76-.55 1.916-.737L10.919 31.4c.187-.5 1.01-.5 1.198 0zm20.52 0l3.888 10.35c1.055.18 1.728.422 1.802.69l-.007-.013.016.033c.054.129.06.277.017.445a1.45 1.45 0 01-.104.276c-1.004 2.508-3.354 4.29-6.212 4.29-2.827 0-5.231-1.745-6.26-4.209a1.546 1.546 0 01-.135-.345l-.002-.01v-.002l-.005-.028a1.136 1.136 0 01.019-.368l.008-.041v-.008l.004-.013c.066-.278.777-.528 1.89-.71L31.437 31.4c.187-.501 1.01-.501 1.198 0zm-6.971 11.047l-.003.013.003-.013zm-14.148-9l-3.047 8.11c.89-.079 1.907-.124 2.986-.124h.122a33.48 33.48 0 012.99.136l-3.05-8.121zm20.52 0L28.99 41.56c.894-.08 1.919-.126 3.007-.126h.122c1.077.004 2.088.052 2.969.134l-3.05-8.12zm-10.17-14.056s1.517 4.752 1.517 5.594c0 .58-.335 1.069-.812 1.326.392.127.738.35 1.008.65.603-.524 1.49-1.011 2.765-1.011 1.457 0 2.71.636 3.816 1.198.352.178.693.35 1.01.483a1.28 1.28 0 01.932-.409c.714 0 1.292.581 1.292 1.298 0 .717-.578 1.298-1.292 1.298-.58 0-1.052-.39-1.216-.917a14.21 14.21 0 01-1.303-.607c-.978-.496-2.087-1.059-3.239-1.059-1.107 0-1.798.515-2.192.951.015.11.034.22.034.334a2.325 2.325 0 01-2.32 2.33 2.325 2.325 0 01-2.32-2.33c0-.114.018-.225.033-.335-.395-.437-1.086-.95-2.192-.95-1.151 0-2.26.564-3.24 1.06-.445.227-.879.445-1.302.607-.164.528-.636.917-1.216.917a1.296 1.296 0 01-1.292-1.299c0-.717.578-1.298 1.292-1.298.369 0 .698.16.933.409.316-.133.656-.303 1.008-.483 1.106-.562 2.36-1.198 3.817-1.198 1.275 0 2.163.487 2.765 1.011a2.3 2.3 0 011.009-.65 1.507 1.507 0 01-.813-1.326c0-.842 1.518-5.594 1.518-5.594zM38.563 16.386s-1.697.145-2.82.751c0 0 4.47-.024 6.55 1.72 0 0-5.06-1.551-10.956 2.302 0 0 9.378-1.794 13.824 2.01 0 0-1.435-2.65-4.452-3.22 0 0 3.433-.136 4.609.434 0 0-1.016-2.183-2.167-2.704v-1.556c0-.316-1.719-1.918-4.588-2.189v2.452z" fill="#fff"/><path d="M37.8 23.347s.723.63 1.029 1.211c0 0-.662.653-1.294.974 0 0 1.915.602 2.42 1.314-1.021-.32-2.765-.2-3.185.665 1.166-.126 1.88.175 2.03.62 0 0-.278.4-1.126.576-.904.189-1.134.564-1.134 1.087 0 .524.686 1.003 1.932.964 1.244-.04 4.639-.552 4.895-6.962-.256-.603-3.357-1.833-5.576-1.82l.008 1.37zM43.788 30.439c1.523-2.367 2.357-4.43 2.5-6.187 2.256 2.502 2.12 5.431 1.737 7.673a16.58 16.58 0 00-1-2.226c.27 3.457-.755 5.328-3.076 5.614a18.248 18.248 0 01-.161-4.874zM17.256 10.672c-.423.65-1.044 2.457-1.861 5.422-1.953 2.23-3.86 5.343-5.722 9.337A19.49 19.49 0 006.8 26.693c2.65-4.988 5.239-8.719 7.767-11.191a12.619 12.619 0 012.69-4.83zM22.29 15.782l-6.178 2.91c1.76.029 3.158-.29 4.194-.959 1.036-.668 1.697-1.319 1.984-1.95zM20.01 14.722c-.035-1.271-.2-1.986-.497-2.144-.33-.147-.522-.463-.33-1.042.118-.367.083-.776-.107-1.227l1.676-1.118 1.886 1.187c.066.419-.071.805-.411 1.158.41.444.41 1.017-.066 1.68.014.163.023.324.028.482.008.238-.001.58-.028 1.024h-2.15z" fill="#fff" fill-opacity=".6"/><path d="M42.057 32.887c-.265 4.878.764 7.65 3.086 8.316 3.483.999 9.676 1.132 9.28 8.698.314 1.002.602 1.953.863 2.856a27.75 27.75 0 01-3.312 3.013c-1.158-2.826-2.917-4.603-4.952-5.87-8.02-5.043-9.675-10.715-4.965-17.013zM19.502 49.714c4.681 11.73 12.175 4.214 17.963 6.962 2.647 1.256 4.09 3.563 4.332 6.919a31.002 31.002 0 01-7.024.801 30.829 30.829 0 01-13.107-2.904c-.015-3.532-.736-7.457-2.164-11.778zM28.383 17.997c1.214-.335 2.206-1.091 2.977-2.268-.05.7-.225 1.304-.528 1.81 3.51-.63 6.233-2.753 8.171-6.368-3.573-1.94-7.256-.616-9.23 1.796-1.317 1.609-1.78 3.285-1.39 5.03z" fill="#fff" fill-opacity=".6"/><defs><linearGradient id="paint0_linear" x1="105.188" y1="-29.909" x2="-2.693" y2="51.811" gradientUnits="userSpaceOnUse"><stop stop-color="#FFB36D"/><stop offset="1" stop-color="#F88"/></linearGradient></defs></svg>