<svg fill="none" height="319" viewBox="0 0 422 319" width="422" xmlns="http://www.w3.org/2000/svg" xmlns:xlink="http://www.w3.org/1999/xlink"><linearGradient id="a"><stop offset="0" stop-color="#ffc58f"/><stop offset="1" stop-color="#ff7c7c"/></linearGradient><linearGradient id="b" gradientUnits="userSpaceOnUse" x1="194.21" x2="139.954" xlink:href="#a" y1="91.4204" y2="180.965"/><linearGradient id="c" gradientUnits="userSpaceOnUse" x1="71.2244" x2="206.102" xlink:href="#a" y1="239.682" y2="56.844"/><linearGradient id="d" gradientUnits="userSpaceOnUse" x1="81" x2="303.711" xlink:href="#a" y1="206" y2="53.2854"/><linearGradient id="e" gradientUnits="userSpaceOnUse" x1="34" x2="284.352" xlink:href="#a" y1="200" y2="219.747"/><linearGradient id="f" gradientUnits="userSpaceOnUse" x1="58.2786" x2="247.686" y1="182.59" y2="-28.6589"><stop offset="0" stop-color="#ffc58f" stop-opacity="0"/><stop offset="1" stop-color="#ff7c7c" stop-opacity=".84"/></linearGradient><linearGradient id="g" gradientUnits="userSpaceOnUse" x1="81.088" x2="348.643" y1="222.298" y2="-285.737"><stop offset="0" stop-color="#ffc58f" stop-opacity=".78"/><stop offset="1" stop-color="#ff7c7c" stop-opacity="0"/></linearGradient><linearGradient id="h" gradientUnits="userSpaceOnUse" x1="41" x2="451" y1="-39" y2="394"><stop offset="0" stop-color="#ff8989"/><stop offset="1" stop-color="#ff8989" stop-opacity="0"/></linearGradient><path d="m83 184.5-2.5285 3.09-3.3436-23.118 24.3471-29.819 27.489-33.772 31.022-37.3057h1.964l102.493-1.178 30.237 37.3059-10.21 14.1368-3.534-4.319.393-13.352-20.42-25.5252-96.603-1.178-30.63 38.8762-23.169 28.667-29.507 35.491z" fill="url(#b)" opacity=".5"/><path d="m185.271 119.47-50.858 66.579-1.13-1.131-1.571-1.952-3.534-5.902-2.356-4.712 4.584-6.283 54.865-69.7169 96.058-.5758-.813 23.6937z" fill="url(#c)" fill-opacity=".5"/><g fill="url(#d)" opacity=".2"><path d="m137.603 191.594-1.033-15.717 21.846 30.639h105.242l45.945-68.329 18.849-28.274 7.547-9.862-2.466 18.186-63.985 96.133h-117.416z"/><path d="m84.4786 194.987-3.3906-22.501 12.9257 19.108 34.1643 56.155 164.932-1.178 23.169-36.128 29.844-47.123 18.541-28.747-4.007 22.193-69.661 111.581h-161.515z"/></g><g fill="url(#d)" opacity=".2"><path d="m137.603 191.594-1.033-15.717 21.846 30.639h105.242l45.945-68.329 18.849-28.274 7.547-9.862-2.466 18.186-63.985 96.133h-117.416z"/><path d="m84.4786 194.987-3.3906-22.501 12.9257 19.108 34.1643 56.155 164.932-1.178 23.169-36.128 29.844-47.123 18.541-28.747-4.007 22.193-69.661 111.581h-161.515z"/></g><path d="m62.2856 158.307-4.007-22.501 18.8493 28.692 3.3436 23.4z" fill="url(#e)" opacity=".5"/><path d="m158.147 207.009-21.268-31.44 103.875-.925 53.016-74.9013-29.282-36.3717-104.184.9247-83.2231 101.4093-18.8023-29.899 82.9154-98.3268h143.021l51.784 62.2635-71.819 107.2663z" fill="url(#f)"/><path d="m158.545 206.259-20.262-29.953 102.478-.912.383-.004.222-.313 53.016-74.901.328-.4623-.356-.4413-29.282-36.3718-.228-.2828-.363.0032-104.183.9247-.351.0031-.222.2711-82.5634 100.6051-17.9564-28.554 82.3368-97.6418h142.321l51.2 61.5621-71.284 106.4677z" stroke="#ff8989" stroke-width="1.5"/><path d="m260.789 69.5357 20.96 26.5082-96.786 1.2329-58.564 75.2092 26.508 40.996h116.513l71.819-107.575 23.734 28.666-71.511 112.814-165.522.617-46.852-75.518 83.224-102.9503z" fill="url(#g)"/><g stroke-width="1.5"><path d="m260.426 70.2857 19.789 25.0277-95.261 1.2135-.361.0046-.221.2846-58.565 75.2089-.328.421.29.447 26.508 40.996.222.343h.408 116.513.401l.223-.334 71.259-106.737 22.745 27.471-70.999 112.007-164.693.613-46.3499-74.709 82.6639-102.2573z" stroke="#ff8989"/><path d="m421.25 159.5c0 43.758-23.462 83.429-61.503 112.185-38.041 28.757-90.629 46.565-148.747 46.565s-110.706-17.808-148.7473-46.565c-38.0411-28.756-61.5027-68.427-61.5027-112.185s23.4616-83.429 61.5027-112.1852c38.0413-28.7566 90.6293-46.5648 148.7473-46.5648s110.706 17.8082 148.747 46.5648c38.041 28.7562 61.503 68.4272 61.503 112.1852z" stroke="url(#h)"/></g></svg>