<svg fill="none" height="389" viewBox="0 0 481 389" width="481" xmlns="http://www.w3.org/2000/svg" xmlns:xlink="http://www.w3.org/1999/xlink"><linearGradient id="a"><stop offset="0" stop-color="#ff8989"/><stop offset="1" stop-color="#ff8989" stop-opacity="0"/></linearGradient><linearGradient id="b" gradientUnits="userSpaceOnUse" x1="29.0167" x2="403.897" xlink:href="#a" y1="-36.5133" y2="262.765"/><linearGradient id="c" gradientUnits="userSpaceOnUse" x1="174.71" x2="-146.718" y1="144.788" y2="18.3397"><stop offset="0" stop-color="#ffc58f" stop-opacity="0"/><stop offset="1" stop-color="#ff7c7c" stop-opacity=".84"/></linearGradient><linearGradient id="d" gradientUnits="userSpaceOnUse" x1="347.705" x2="84.1116" y1="253.562" y2="14.0505"><stop offset="0" stop-color="#ffc58f" stop-opacity="0"/><stop offset="1" stop-color="#fed0a8"/></linearGradient><linearGradient id="e" gradientUnits="userSpaceOnUse" x1="208.553" x2="583.433" xlink:href="#a" y1="51.3245" y2="350.602"/><circle cx="149.33" cy="149.33" r="148.58" stroke="url(#b)" stroke-width="1.5"/><circle cx="149.131" cy="149.131" fill="url(#c)" opacity=".7" r="124.035"/><circle cx="328.668" cy="236.969" fill="url(#d)" opacity=".4" r="124.035" transform="matrix(-.96592583 .25881905 -.25881905 -.96592583 707.469 380.797939)"/><circle cx="328.866" cy="237.168" r="148.58" stroke="url(#e)" stroke-width="1.5"/><g stroke="#ff8378"><path d="m282.207 96.1715 9.652 9.6525" opacity=".6"/><path d="m269.658 100.032 26.062 26.062" opacity=".6"/><path d="m259.041 105.824 39.575 39.575" opacity=".6"/><path d="m248.423 111.615 49.228 49.228" opacity=".6"/></g><g stroke="#fe9f97"><path d="m238.77 118.372 56.95 56.95" opacity=".6"/><path d="m230.083 126.094 62.741 62.741" opacity=".6"/><path d="m222.361 134.781 66.602 66.603" opacity=".6"/><path d="m213.674 142.503 70.463 70.464" opacity=".5"/><path d="m206.917 152.156 71.429 71.428" opacity=".5"/><path d="m200.16 161.808 72.394 72.394" opacity=".5"/><path d="m194.369 172.426 70.463 70.463" opacity=".5"/><path d="m189.543 184.009 67.567 67.568" opacity=".5"/><path d="m185.682 196.557 63.706 63.707" opacity=".4"/><path d="m182.786 210.071 56.95 56.95" opacity=".4"/><path d="m180.855 224.55 49.228 49.227" opacity=".4"/><path d="m179.89 239.994 40.541 40.54" opacity=".4"/><path d="m181.821 258.333 27.027 27.028" opacity=".4"/><path d="m185.682 278.604 11.583 11.583" opacity=".4"/></g></svg>