<svg width="50" height="50" viewBox="0 0 50 50" fill="none" xmlns="http://www.w3.org/2000/svg">
<circle cx="25" cy="25" r="25" fill="url(#paint0_linear)"/>
<path fill-rule="evenodd" clip-rule="evenodd" d="M29.5835 27.4961C29.5848 27.4953 29.5862 27.4945 29.5876 27.4937C29.5878 27.4936 29.5879 27.4935 29.5881 27.4934C29.5886 27.4932 29.589 27.4929 29.5894 27.4927C29.5871 27.494 29.5851 27.4951 29.5835 27.4961Z" fill="#2B2C2A"/>
<path fill-rule="evenodd" clip-rule="evenodd" d="M29.5919 27.4915C29.5921 27.4913 29.5924 27.4912 29.5926 27.4911C29.5973 27.4883 29.5998 27.4869 29.6007 27.4864C29.601 27.4863 29.601 27.4862 29.6011 27.4862C29.5977 27.4882 29.5945 27.49 29.5919 27.4915Z" fill="#2B2C2A"/>
<path fill-rule="evenodd" clip-rule="evenodd" d="M34.0032 24.9997C30.502 26.978 29.7405 27.4082 29.6028 27.4861C29.6029 27.486 29.6027 27.4862 29.6022 27.4863C29.6009 27.4871 29.5974 27.4892 29.5933 27.4915C29.5922 27.4921 29.5909 27.4928 29.5896 27.4935C29.5893 27.4936 29.5891 27.4938 29.5889 27.4939C29.5861 27.4956 29.5826 27.4975 29.5786 27.4997C29.5782 27.4999 29.578 27.5001 29.5778 27.5002C29.5775 27.5004 29.5772 27.5006 29.5769 27.5007C29.575 27.5018 29.5754 27.5016 29.5769 27.5007C29.5771 27.5006 29.5775 27.5004 29.5778 27.5002C29.5779 27.5002 29.578 27.5001 29.5781 27.5C29.4474 27.5739 28.7019 27.995 25.2062 29.9703C19.7913 26.9089 21.5994 27.9308 16.4102 24.9994C18.092 24.0492 23.5281 20.9776 25.2072 20.0289C30.6416 23.1014 28.5694 21.9302 34.0032 24.9997ZM12.0116 17.5441C12.0109 29.4491 12.0135 21.5061 12.0121 32.4552C22.1873 38.203 15.0727 34.1863 25.2067 39.9107C26.5444 39.1551 36.8681 33.3219 38.4018 32.4552C38.4024 20.5501 38.3998 28.4931 38.4012 17.5441C28.1431 11.7496 35.2752 15.7759 25.2067 10.0885C16.1838 15.1866 19.5312 13.2952 12.0116 17.5441Z" fill="#2B2C2A"/>
<path fill-rule="evenodd" clip-rule="evenodd" d="M25.2068 39.9106C26.5442 39.155 36.8682 33.3216 38.4015 32.4552L38.4021 27.4845C36.7751 28.4037 26.8336 34.0211 25.2074 34.9398C23.9348 34.221 17.6873 30.6919 16.4095 29.9701L16.4101 24.9993C18.0947 24.0476 23.5253 20.9791 25.2072 20.0288C30.6135 23.0853 28.5877 21.9405 34.0032 24.9996L34.0038 20.0289C32.7311 19.31 26.4836 15.7809 25.2059 15.0591C23.7958 15.8558 13.3812 21.7404 12.0112 22.5145C12.0129 28.6234 12.0127 26.37 12.012 32.4549C22.1873 38.2027 15.0727 34.186 25.2068 39.9106Z" fill="url(#paint1_linear)"/>
<path opacity="0.2" fill-rule="evenodd" clip-rule="evenodd" d="M25.2068 39.9106C26.5442 39.155 36.8682 33.3216 38.4015 32.4552L38.4021 27.4845C36.7751 28.4037 26.8336 34.0211 25.2074 34.9398C23.9348 34.221 17.6873 30.6919 16.4095 29.9701L16.4101 24.9993C18.0947 24.0476 23.5253 20.9791 25.2072 20.0288C30.6135 23.0853 28.5877 21.9405 34.0032 24.9996L34.0038 20.0289C32.7311 19.31 26.4836 15.7809 25.2059 15.0591C23.7958 15.8558 13.3812 21.7404 12.0112 22.5145C12.0129 28.6234 12.0127 26.37 12.012 32.4549C22.1873 38.2027 15.0727 34.186 25.2068 39.9106Z" fill="white"/>
<path fill-rule="evenodd" clip-rule="evenodd" d="M25.2059 15.0592C26.4785 15.7781 32.726 19.3072 34.0038 20.029L34.0032 24.9997C24.9694 30.1041 34.2425 24.8645 25.2061 29.9703C19.8011 26.9144 21.795 28.0414 16.4101 24.9994L16.4095 29.9702C17.6822 30.6891 23.9297 34.2182 25.2074 34.9399C26.8339 34.021 36.7758 28.4035 38.4021 27.4846C38.4004 21.3757 38.4006 23.6291 38.4013 17.5442C28.143 11.7494 35.2752 15.7761 25.2065 10.0885C16.1837 15.1866 19.5312 13.2952 12.0118 17.5439L12.0112 22.5146C13.3689 21.7474 23.9014 15.7963 25.2059 15.0592Z" fill="url(#paint2_linear)"/>
<path opacity="0.5" fill-rule="evenodd" clip-rule="evenodd" d="M25.2059 15.0592C26.4785 15.7781 32.726 19.3072 34.0038 20.029L34.0032 24.9997C24.9694 30.1041 34.2425 24.8645 25.2061 29.9703C19.8011 26.9144 21.795 28.0414 16.4101 24.9994L16.4095 29.9702C17.6822 30.6891 23.9297 34.2182 25.2074 34.9399C26.8339 34.021 36.7758 28.4035 38.4021 27.4846C38.4004 21.3757 38.4006 23.6291 38.4013 17.5442C28.143 11.7494 35.2752 15.7761 25.2065 10.0885C16.1837 15.1866 19.5312 13.2952 12.0118 17.5439L12.0112 22.5146C13.3689 21.7474 23.9014 15.7963 25.2059 15.0592Z" fill="white"/>
<defs>
<linearGradient id="paint0_linear" x1="77.3438" y1="-22.5" x2="-1.98011" y2="37.5882" gradientUnits="userSpaceOnUse">
<stop stop-color="#FFB36D"/>
<stop offset="1" stop-color="#FF8888"/>
</linearGradient>
<linearGradient id="paint1_linear" x1="35.8868" y1="19.8179" x2="15.7592" y2="39.0702" gradientUnits="userSpaceOnUse">
<stop stop-color="#FF8989"/>
<stop offset="1" stop-color="#FFB170"/>
</linearGradient>
<linearGradient id="paint2_linear" x1="35.8868" y1="14.8473" x2="15.7593" y2="34.0996" gradientUnits="userSpaceOnUse">
<stop stop-color="#FF8989"/>
<stop offset="1" stop-color="#FFB170"/>
</linearGradient>
</defs>
</svg>
