<svg fill="none" height="534" viewBox="0 0 782 534" width="782" xmlns="http://www.w3.org/2000/svg" xmlns:xlink="http://www.w3.org/1999/xlink"><filter id="a" color-interpolation-filters="sRGB" filterUnits="userSpaceOnUse" height="534" width="782" x="0" y="0"><feFlood flood-opacity="0" result="BackgroundImageFix"/><feColorMatrix in="SourceAlpha" type="matrix" values="0 0 0 0 0 0 0 0 0 0 0 0 0 0 0 0 0 0 127 0"/><feOffset dy="3"/><feGaussianBlur stdDeviation="8.5"/><feColorMatrix type="matrix" values="0 0 0 0 0 0 0 0 0 0 0 0 0 0 0 0 0 0 0.1 0"/><feBlend in2="BackgroundImageFix" mode="normal" result="effect1_dropShadow"/><feBlend in="SourceGraphic" in2="effect1_dropShadow" mode="normal" result="shape"/></filter><linearGradient id="b" gradientUnits="userSpaceOnUse" x1="750" x2="687.559" y1="408.937" y2="649.81"><stop offset="0" stop-color="#fff8f0"/><stop offset="1" stop-color="#fff3f1"/></linearGradient><mask id="c" height="500" maskUnits="userSpaceOnUse" width="748" x="17" y="14"><rect fill="#fff" height="500" rx="6" width="748" x="17" y="14"/></mask><g filter="url(#a)"><rect fill="#fff" height="500" rx="6" width="748" x="17" y="14"/></g><g mask="url(#c)" stroke="#ffa776" stroke-width="1.5"><circle cx="391.5" cy="213.5" opacity=".2" r="223.216"/><circle cx="391.5" cy="213.5" opacity=".15" r="255.045"/><circle cx="391.5" cy="213.5" opacity=".1" r="286.098"/><circle cx="391.5" cy="213.5" opacity=".05" r="317.75"/></g><rect fill="url(#b)" height="109" rx="4" width="718" x="32" y="391"/><path d="m57.6 418.52-3.54-5.8h-1.72l4.44 7.22v5.06h1.56v-5.06l4.48-7.22h-1.68zm13.1233 2.04c0-2.72-1.66-4.62-4.08-4.62-2.44 0-4.08 1.9-4.08 4.62s1.64 4.62 4.08 4.62c2.42 0 4.08-1.9 4.08-4.62zm-1.52 0c0 1.94-.96 3.3-2.56 3.3s-2.56-1.36-2.56-3.3.96-3.3 2.56-3.3 2.56 1.36 2.56 3.3zm10.6308-4.44h-1.52v6.02c-.32.96-1.18 1.66-2.22 1.66-1.34 0-1.94-.86-1.94-2.1v-5.58h-1.52v5.82c0 1.94 1.08 3.24 3.1 3.24 1.14 0 2.08-.6 2.58-1.3v1.12h1.52zm13.5201 8.88v-5.92c0-1.94-1.26-3.14-3.38-3.14-1.7 0-3.02 1.02-3.32 2.52h1.48c.28-.82.88-1.22 1.82-1.22 1.28 0 1.96.8 1.96 1.9v1.12c-.38-.34-1.32-.72-2.24-.72-1.9 0-3.4 1.12-3.4 2.78 0 1.76 1.5 2.84 3.3 2.84 1.06 0 2-.46 2.34-.82v.66zm-1.44-2.2c-.26.66-1.16 1.1-2.08 1.1-1.08 0-2.12-.5-2.12-1.58 0-1.06 1.04-1.54 2.12-1.54.92 0 1.82.44 2.08 1.1zm4.0039 2.2h1.5v-6.02c.32-.96 1.22-1.66 2.26-1.66 1.3399 0 1.9599.86 1.9599 2.1v5.58h1.52v-5.82c0-1.94-1.1-3.24-3.12-3.24-1.1399 0-2.0999.6-2.6199 1.3v-1.12h-1.5zm15.6449 0h1.52v-13h-1.52v5.16c-.44-.64-1.4-1.22-2.5-1.22-2.6 0-4 2.12-4 4.62 0 2.52 1.4 4.62 4 4.62 1.1 0 2.06-.58 2.5-1.22zm0-2.64c-.46.92-1.34 1.46-2.28 1.46-1.7 0-2.7-1.38-2.7-3.26s1-3.26 2.7-3.26c.94 0 1.82.54 2.28 1.46zm16.113-1.8c0-2.72-1.66-4.62-4.08-4.62-2.44 0-4.08 1.9-4.08 4.62s1.64 4.62 4.08 4.62c2.42 0 4.08-1.9 4.08-4.62zm-1.52 0c0 1.94-.96 3.3-2.56 3.3s-2.56-1.36-2.56-3.3.96-3.3 2.56-3.3 2.56 1.36 2.56 3.3zm3.551 4.44h1.5v-6.02c.32-.96 1.22-1.66 2.26-1.66 1.34 0 1.96.86 1.96 2.1v5.58h1.52v-5.82c0-1.94-1.1-3.24-3.12-3.24-1.14 0-2.1.6-2.62 1.3v-1.12h-1.5zm15.385-2.66c-.24 1-1.06 1.56-2.16 1.56-1.5 0-2.56-1.16-2.58-3.06h6.28v-.54c0-2.58-1.3-4.36-3.74-4.36-2.42 0-4.04 1.98-4.04 4.64 0 2.74 1.66 4.6 4.08 4.6 2 0 3.26-1.16 3.58-2.84zm-2.18-5.12c1.48 0 2.18 1.16 2.2 2.48h-4.72c.22-1.56 1.18-2.48 2.52-2.48zm17.655 3.34c0-2.72-1.66-4.62-4.08-4.62-2.44 0-4.08 1.9-4.08 4.62s1.64 4.62 4.08 4.62c2.42 0 4.08-1.9 4.08-4.62zm-1.52 0c0 1.94-.96 3.3-2.56 3.3s-2.56-1.36-2.56-3.3.96-3.3 2.56-3.3 2.56 1.36 2.56 3.3zm3.971 2.2c0 1.64 1 2.42 2.44 2.42.54 0 1.06-.12 1.4-.3v-1.4c-.3.2-.74.36-1.16.36-.76 0-1.18-.38-1.18-1.24v-5.2h2.14v-1.28h-2.14v-2.34h-1.5v2.34h-1.44v1.28h1.44zm5.927 2.24h1.5v-6.02c.32-.96 1.22-1.66 2.26-1.66 1.34 0 1.96.86 1.96 2.1v5.58h1.52v-5.82c0-1.94-1.1-3.24-3.12-3.24-1.14 0-2.1.6-2.62 1.3v-5.24h-1.5zm15.386-2.66c-.24 1-1.06 1.56-2.16 1.56-1.5 0-2.56-1.16-2.58-3.06h6.28v-.54c0-2.58-1.3-4.36-3.74-4.36-2.42 0-4.04 1.98-4.04 4.64 0 2.74 1.66 4.6 4.08 4.6 2 0 3.26-1.16 3.58-2.84zm-2.18-5.12c1.48 0 2.18 1.16 2.2 2.48h-4.72c.22-1.56 1.18-2.48 2.52-2.48zm10.28-1.14c-.16-.08-.48-.14-.86-.14-.98 0-1.82.58-2.2 1.34v-1.16h-1.5v8.88h1.5v-5.96c.3-1.04 1.12-1.66 2.06-1.66.38 0 .76.08 1 .24zm7.78.04h-1.5v9.8c0 1-.42 1.36-1.2 1.36-.18 0-.4-.04-.52-.06v1.28c.16.06.46.08.64.08 1.66 0 2.58-.9 2.58-2.56zm.22-2.68c0-.54-.44-.96-.98-.96-.52 0-.96.42-.96.96 0 .52.44.96.96.96.54 0 .98-.44.98-.96zm9.501 2.68h-1.52v6.02c-.32.96-1.18 1.66-2.22 1.66-1.34 0-1.94-.86-1.94-2.1v-5.58h-1.52v5.82c0 1.94 1.08 3.24 3.1 3.24 1.14 0 2.08-.6 2.58-1.3v1.12h1.52zm7.226-.04c-.16-.08-.48-.14-.86-.14-.98 0-1.82.58-2.2 1.34v-1.16h-1.5v8.88h1.5v-5.96c.3-1.04 1.12-1.66 2.06-1.66.38 0 .76.08 1 .24zm9.132 4.48c0-2.72-1.66-4.62-4.08-4.62-2.44 0-4.08 1.9-4.08 4.62s1.64 4.62 4.08 4.62c2.42 0 4.08-1.9 4.08-4.62zm-1.52 0c0 1.94-.96 3.3-2.56 3.3s-2.56-1.36-2.56-3.3.96-3.3 2.56-3.3 2.56 1.36 2.56 3.3zm8.11-4.48c-.16-.08-.48-.14-.86-.14-.98 0-1.82.58-2.2 1.34v-1.16h-1.5v8.88h1.5v-5.96c.3-1.04 1.12-1.66 2.06-1.66.38 0 .76.08 1 .24zm12.14 8.92h1.52v-13h-1.52v5.16c-.44-.64-1.4-1.22-2.5-1.22-2.6 0-4 2.12-4 4.62 0 2.52 1.4 4.62 4 4.62 1.1 0 2.06-.58 2.5-1.22zm0-2.64c-.46.92-1.34 1.46-2.28 1.46-1.7 0-2.7-1.38-2.7-3.26s1-3.26 2.7-3.26c.94 0 1.82.54 2.28 1.46zm9.779-.02c-.24 1-1.06 1.56-2.16 1.56-1.5 0-2.56-1.16-2.58-3.06h6.28v-.54c0-2.58-1.3-4.36-3.74-4.36-2.42 0-4.04 1.98-4.04 4.64 0 2.74 1.66 4.6 4.08 4.6 2 0 3.26-1.16 3.58-2.84zm-2.18-5.12c1.48 0 2.18 1.16 2.2 2.48h-4.72c.22-1.56 1.18-2.48 2.52-2.48zm5.12 3.34c0 2.76 1.66 4.62 4.04 4.62 2 0 3.26-1.16 3.56-2.86h-1.54c-.2.96-.96 1.54-2.02 1.54-1.52 0-2.52-1.36-2.52-3.3s1-3.3 2.52-3.3c1.06 0 1.82.58 2.02 1.54h1.54c-.3-1.7-1.56-2.86-3.56-2.86-2.38 0-4.04 1.86-4.04 4.62zm11.066-4.44h-1.5v8.88h1.5zm.22-2.68c0-.54-.44-.96-.98-.96-.52 0-.96.42-.96.96 0 .52.44.96.96.96.54 0 .98-.44.98-.96zm8.32 11.56h1.52v-13h-1.52v5.16c-.44-.64-1.4-1.22-2.5-1.22-2.6 0-4 2.12-4 4.62 0 2.52 1.4 4.62 4 4.62 1.1 0 2.06-.58 2.5-1.22zm0-2.64c-.46.92-1.34 1.46-2.28 1.46-1.7 0-2.7-1.38-2.7-3.26s1-3.26 2.7-3.26c.94 0 1.82.54 2.28 1.46zm9.779-.02c-.24 1-1.06 1.56-2.16 1.56-1.5 0-2.56-1.16-2.58-3.06h6.28v-.54c0-2.58-1.3-4.36-3.74-4.36-2.42 0-4.04 1.98-4.04 4.64 0 2.74 1.66 4.6 4.08 4.6 2 0 3.26-1.16 3.58-2.84zm-2.18-5.12c1.48 0 2.18 1.16 2.2 2.48h-4.72c.22-1.56 1.18-2.48 2.52-2.48zm10.554 5.54c0 1.64 1 2.42 2.44 2.42.54 0 1.06-.12 1.4-.3v-1.4c-.3.2-.74.36-1.16.36-.76 0-1.18-.38-1.18-1.24v-5.2h2.14v-1.28h-2.14v-2.34h-1.5v2.34h-1.44v1.28h1.44zm13.35-2.2c0-2.72-1.66-4.62-4.08-4.62-2.44 0-4.08 1.9-4.08 4.62s1.64 4.62 4.08 4.62c2.42 0 4.08-1.9 4.08-4.62zm-1.52 0c0 1.94-.96 3.3-2.56 3.3s-2.56-1.36-2.56-3.3.96-3.3 2.56-3.3 2.56 1.36 2.56 3.3zm11.905 4.44 3.46-8.88h-1.58l-2.58 6.98-2.6-6.98h-1.62l3.44 8.88zm12.525-4.44c0-2.72-1.66-4.62-4.08-4.62-2.44 0-4.08 1.9-4.08 4.62s1.64 4.62 4.08 4.62c2.42 0 4.08-1.9 4.08-4.62zm-1.52 0c0 1.94-.96 3.3-2.56 3.3s-2.56-1.36-2.56-3.3.96-3.3 2.56-3.3 2.56 1.36 2.56 3.3zm3.971 2.2c0 1.64 1 2.42 2.44 2.42.54 0 1.06-.12 1.4-.3v-1.4c-.3.2-.74.36-1.16.36-.76 0-1.18-.38-1.18-1.24v-5.2h2.14v-1.28h-2.14v-2.34h-1.5v2.34h-1.44v1.28h1.44zm11.43-.42c-.24 1-1.06 1.56-2.16 1.56-1.5 0-2.56-1.16-2.58-3.06h6.28v-.54c0-2.58-1.3-4.36-3.74-4.36-2.42 0-4.04 1.98-4.04 4.64 0 2.74 1.66 4.6 4.08 4.6 2 0 3.26-1.16 3.58-2.84zm-2.18-5.12c1.48 0 2.18 1.16 2.2 2.48h-4.72c.22-1.56 1.18-2.48 2.52-2.48zm11.635-1.1h-1.5v8.88h1.5zm.22-2.68c0-.54-.44-.96-.98-.96-.52 0-.96.42-.96.96 0 .52.44.96.96.96.54 0 .98-.44.98-.96zm2.46 11.56h1.5v-6.02c.32-.96 1.22-1.66 2.26-1.66 1.34 0 1.96.86 1.96 2.1v5.58h1.52v-5.82c0-1.94-1.1-3.24-3.12-3.24-1.14 0-2.1.6-2.62 1.3v-1.12h-1.5zm18.639-12.98c-.34-.14-.68-.2-1.16-.2-1.56 0-2.72 1.04-2.72 2.82v1.48h-1.5v1.28h1.5v7.6h1.48v-7.6h2v-1.28h-2v-1.36c0-1.06.58-1.62 1.46-1.62.32 0 .66.06.94.24zm7.586 12.98v-5.92c0-1.94-1.26-3.14-3.38-3.14-1.7 0-3.02 1.02-3.32 2.52h1.48c.28-.82.88-1.22 1.82-1.22 1.28 0 1.96.8 1.96 1.9v1.12c-.38-.34-1.32-.72-2.24-.72-1.9 0-3.4 1.12-3.4 2.78 0 1.76 1.5 2.84 3.3 2.84 1.06 0 2-.46 2.34-.82v.66zm-1.44-2.2c-.26.66-1.16 1.1-2.08 1.1-1.08 0-2.12-.5-2.12-1.58 0-1.06 1.04-1.54 2.12-1.54.92 0 1.82.44 2.08 1.1zm7.787 2.2 3.46-8.88h-1.58l-2.58 6.98-2.6-6.98h-1.62l3.44 8.88zm12.526-4.44c0-2.72-1.66-4.62-4.08-4.62-2.44 0-4.08 1.9-4.08 4.62s1.64 4.62 4.08 4.62c2.42 0 4.08-1.9 4.08-4.62zm-1.52 0c0 1.94-.96 3.3-2.56 3.3s-2.56-1.36-2.56-3.3.96-3.3 2.56-3.3 2.56 1.36 2.56 3.3zm8.111-4.48c-.16-.08-.48-.14-.86-.14-.98 0-1.82.58-2.2 1.34v-1.16h-1.5v8.88h1.5v-5.96c.3-1.04 1.12-1.66 2.06-1.66.379 0 .76.08 1 .24zm13.799 4.48c0-2.72-1.66-4.62-4.08-4.62-2.44 0-4.08 1.9-4.08 4.62s1.64 4.62 4.08 4.62c2.42 0 4.08-1.9 4.08-4.62zm-1.52 0c0 1.94-.96 3.3-2.56 3.3s-2.56-1.36-2.56-3.3.96-3.3 2.56-3.3 2.56 1.36 2.56 3.3zm7.991-8.54c-.34-.14-.68-.2-1.16-.2-1.56 0-2.72 1.04-2.72 2.82v1.48h-1.5v1.28h1.5v7.6h1.48v-7.6h2v-1.28h-2v-1.36c0-1.06.58-1.62 1.46-1.62.32 0 .66.06.94.24zm9.635.7-4.8 12.28h1.6l1.4-3.7h5.06l1.42 3.7h1.6l-4.8-12.28zm.72 1.96 2 5.24h-4zm8.815-2.68h-1.5v13h1.5zm4.179 4.12h-1.5v8.88h1.5zm.22-2.68c0-.54-.44-.96-.98-.96-.52 0-.96.42-.96.96 0 .52.44.96.96.96.54 0 .98-.44.98-.96zm1.82 7.12c0 2.76 1.66 4.62 4.04 4.62 2 0 3.26-1.16 3.56-2.86h-1.54c-.2.96-.96 1.54-2.02 1.54-1.52 0-2.52-1.36-2.52-3.3s1-3.3 2.52-3.3c1.06 0 1.82.58 2.02 1.54h1.54c-.3-1.7-1.56-2.86-3.56-2.86-2.38 0-4.04 1.86-4.04 4.62zm15.127 1.78c-.24 1-1.06 1.56-2.16 1.56-1.5 0-2.56-1.16-2.58-3.06h6.28v-.54c0-2.58-1.3-4.36-3.74-4.36-2.42 0-4.04 1.98-4.04 4.64 0 2.74 1.66 4.6 4.08 4.6 2 0 3.26-1.16 3.58-2.84zm-2.18-5.12c1.48 0 2.18 1.16 2.2 2.48h-4.72c.22-1.56 1.18-2.48 2.52-2.48zm16.574 7.78v-5.92c0-1.94-1.26-3.14-3.38-3.14-1.7 0-3.02 1.02-3.32 2.52h1.48c.28-.82.88-1.22 1.82-1.22 1.28 0 1.96.8 1.96 1.9v1.12c-.38-.34-1.32-.72-2.24-.72-1.9 0-3.4 1.12-3.4 2.78 0 1.76 1.5 2.84 3.3 2.84 1.06 0 2-.46 2.34-.82v.66zm-1.44-2.2c-.26.66-1.16 1.1-2.08 1.1-1.08 0-2.12-.5-2.12-1.58 0-1.06 1.04-1.54 2.12-1.54.92 0 1.82.44 2.08 1.1zm4.004 2.2h1.5v-6.02c.32-.96 1.22-1.66 2.26-1.66 1.34 0 1.96.86 1.96 2.1v5.58h1.52v-5.82c0-1.94-1.1-3.24-3.12-3.24-1.14 0-2.1.6-2.62 1.3v-1.12h-1.5zm15.645 0h1.52v-13h-1.52v5.16c-.44-.64-1.4-1.22-2.5-1.22-2.6 0-4 2.12-4 4.62 0 2.52 1.4 4.62 4 4.62 1.1 0 2.06-.58 2.5-1.22zm0-2.64c-.46.92-1.34 1.46-2.28 1.46-1.7 0-2.7-1.38-2.7-3.26s1-3.26 2.7-3.26c.94 0 1.82.54 2.28 1.46zm16.113-1.8c0-2.72-1.66-4.62-4.08-4.62-2.44 0-4.08 1.9-4.08 4.62s1.64 4.62 4.08 4.62c2.42 0 4.08-1.9 4.08-4.62zm-1.52 0c0 1.94-.96 3.3-2.56 3.3s-2.56-1.36-2.56-3.3.96-3.3 2.56-3.3 2.56 1.36 2.56 3.3zm3.551 4.44h1.5v-6.02c.32-.96 1.22-1.66 2.26-1.66 1.34 0 1.96.86 1.96 2.1v5.58h1.52v-5.82c0-1.94-1.1-3.24-3.12-3.24-1.14 0-2.1.6-2.62 1.3v-1.12h-1.5zm15.385-2.66c-.24 1-1.06 1.56-2.16 1.56-1.5 0-2.56-1.16-2.58-3.06h6.28v-.54c0-2.58-1.3-4.36-3.74-4.36-2.42 0-4.04 1.98-4.04 4.64 0 2.74 1.66 4.6 4.08 4.6 2 0 3.26-1.16 3.58-2.84zm-2.18-5.12c1.48 0 2.18 1.16 2.2 2.48h-4.72c.22-1.56 1.18-2.48 2.52-2.48zm14.075 7.78 3.46-8.88h-1.58l-2.58 6.98-2.6-6.98h-1.62l3.44 8.88zm12.525-4.44c0-2.72-1.66-4.62-4.08-4.62-2.44 0-4.08 1.9-4.08 4.62s1.64 4.62 4.08 4.62c2.42 0 4.08-1.9 4.08-4.62zm-1.52 0c0 1.94-.96 3.3-2.56 3.3s-2.56-1.36-2.56-3.3.96-3.3 2.56-3.3 2.56 1.36 2.56 3.3zm3.971 2.2c0 1.64 1 2.42 2.44 2.42.54 0 1.06-.12 1.4-.3v-1.4c-.3.2-.74.36-1.16.36-.76 0-1.18-.38-1.18-1.24v-5.2h2.14v-1.28h-2.14v-2.34h-1.5v2.34h-1.44v1.28h1.44zm11.43-.42c-.24 1-1.06 1.56-2.16 1.56-1.5 0-2.56-1.16-2.58-3.06h6.28v-.54c0-2.58-1.3-4.36-3.74-4.36-2.42 0-4.04 1.98-4.04 4.64 0 2.74 1.66 4.6 4.08 4.6 2 0 3.26-1.16 3.58-2.84zm-2.18-5.12c1.48 0 2.18 1.16 2.2 2.48h-4.72c.22-1.56 1.18-2.48 2.52-2.48zm5.02 5.34c.28 1.64 1.7 2.62 3.64 2.62 1.9 0 3.3-1 3.3-2.68 0-1.24-.74-2.08-2.26-2.48l-1.72-.42c-.84-.24-1.24-.52-1.24-1.12 0-.86.82-1.28 1.7-1.28 1.08 0 1.7.46 1.96 1.26h1.5c-.32-1.56-1.48-2.52-3.44-2.52-1.8 0-3.18 1.04-3.18 2.62 0 1.38.88 2.02 2.14 2.34l1.76.46c.92.24 1.32.62 1.32 1.24 0 .9-.76 1.32-1.82 1.32-1.04 0-1.82-.44-2.1-1.36zm14.935-6.44h-1.5v8.88h1.5zm.22-2.68c0-.54-.44-.96-.98-.96-.52 0-.96.42-.96.96 0 .52.44.96.96.96.54 0 .98-.44.98-.96zm2.46 11.56h1.5v-6.02c.32-.96 1.22-1.66 2.26-1.66 1.34 0 1.96.86 1.96 2.1v5.58h1.52v-5.82c0-1.94-1.1-3.24-3.12-3.24-1.14 0-2.1.6-2.62 1.3v-1.12h-1.5zm18.639-12.98c-.34-.14-.68-.2-1.16-.2-1.56 0-2.72 1.04-2.72 2.82v1.48h-1.5v1.28h1.5v7.6h1.48v-7.6h2v-1.28h-2v-1.36c0-1.06.58-1.62 1.46-1.62.32 0 .66.06.94.24zm7.586 12.98v-5.92c0-1.94-1.26-3.14-3.38-3.14-1.7 0-3.02 1.02-3.32 2.52h1.48c.28-.82.88-1.22 1.82-1.22 1.28 0 1.96.8 1.96 1.9v1.12c-.38-.34-1.32-.72-2.24-.72-1.9 0-3.4 1.12-3.4 2.78 0 1.76 1.5 2.84 3.3 2.84 1.06 0 2-.46 2.34-.82v.66zm-1.44-2.2c-.26.66-1.16 1.1-2.08 1.1-1.08 0-2.12-.5-2.12-1.58 0-1.06 1.04-1.54 2.12-1.54.92 0 1.82.44 2.08 1.1zm7.788 2.2 3.46-8.88h-1.58l-2.58 6.98-2.6-6.98h-1.62l3.44 8.88zm12.525-4.44c0-2.72-1.66-4.62-4.08-4.62-2.44 0-4.08 1.9-4.08 4.62s1.64 4.62 4.08 4.62c2.42 0 4.08-1.9 4.08-4.62zm-1.52 0c0 1.94-.96 3.3-2.56 3.3s-2.56-1.36-2.56-3.3.96-3.3 2.56-3.3 2.56 1.36 2.56 3.3zm8.111-4.48c-.16-.08-.48-.14-.86-.14-.98 0-1.82.58-2.2 1.34v-1.16h-1.5v8.88h1.5v-5.96c.3-1.04 1.12-1.66 2.06-1.66.38 0 .76.08 1 .24zm13.8 4.48c0-2.72-1.66-4.62-4.08-4.62-2.44 0-4.08 1.9-4.08 4.62s1.64 4.62 4.08 4.62c2.42 0 4.08-1.9 4.08-4.62zm-1.52 0c0 1.94-.96 3.3-2.56 3.3s-2.56-1.36-2.56-3.3.96-3.3 2.56-3.3 2.56 1.36 2.56 3.3zm7.99-8.54c-.34-.14-.68-.2-1.16-.2-1.56 0-2.72 1.04-2.72 2.82v1.48h-1.5v1.28h1.5v7.6h1.48v-7.6h2v-1.28h-2v-1.36c0-1.06.58-1.62 1.46-1.62.32 0 .66.06.94.24zm12.176 6.62c.96-.3 1.8-1.2 1.8-2.66 0-2.12-1.52-3.26-4.06-3.26h-4.04v12.28h4.44c2.52 0 4.08-1.22 4.08-3.46 0-1.38-.9-2.56-2.22-2.9zm-4.76-.58v-3.96h2.5c1.64 0 2.54.62 2.54 1.96s-.9 2-2.54 2zm0 1.32h2.9c1.66 0 2.54.82 2.54 2.12 0 1.28-.88 2.12-2.54 2.12h-2.9zm16.68 1.18c0-2.72-1.66-4.62-4.08-4.62-2.44 0-4.08 1.9-4.08 4.62s1.64 4.62 4.08 4.62c2.42 0 4.08-1.9 4.08-4.62zm-1.52 0c0 1.94-.96 3.3-2.56 3.3s-2.56-1.36-2.56-3.3.96-3.3 2.56-3.3 2.56 1.36 2.56 3.3zm5.051 3.4c.44.64 1.4 1.22 2.5 1.22 2.6 0 4-2.1 4-4.62 0-2.5-1.4-4.62-4-4.62-1.1 0-2.06.58-2.5 1.22v-5.16h-1.52v13h1.52zm0-5.2c.46-.92 1.34-1.46 2.28-1.46 1.7 0 2.7 1.38 2.7 3.26s-1 3.26-2.7 3.26c-.94 0-1.82-.54-2.28-1.46zm7.585 5.26c0 .62.48 1.08 1.08 1.08.58 0 1.06-.46 1.06-1.08s-.48-1.1-1.06-1.1c-.6 0-1.08.48-1.08 1.1zm-649.708 17.1h4.28v10.88h1.58v-10.88h4.28v-1.4h-10.14zm12.0877 10.88h1.5v-6.02c.32-.96 1.22-1.66 2.26-1.66 1.34 0 1.96.86 1.96 2.1v5.58h1.52v-5.82c0-1.94-1.1-3.24-3.12-3.24-1.14 0-2.1.6-2.62 1.3v-5.24h-1.5zm11.2851-8.88h-1.5v8.88h1.5zm.22-2.68c0-.54-.44-.96-.98-.96-.52 0-.96.42-.96.96 0 .52.44.96.96.96.54 0 .98-.44.98-.96zm1.7197 9.12c.28 1.64 1.7 2.62 3.64 2.62 1.9 0 3.3-1 3.3-2.68 0-1.24-.74-2.08-2.26-2.48l-1.72-.42c-.84-.24-1.24-.52-1.24-1.12 0-.86.82-1.28 1.7-1.28 1.08 0 1.7.46 1.96 1.26h1.5c-.32-1.56-1.48-2.52-3.44-2.52-1.8 0-3.18 1.04-3.18 2.62 0 1.38.88 2.02 2.14 2.34l1.76.46c.92.24 1.32.62 1.32 1.24 0 .9-.76 1.32-1.82 1.32-1.04 0-1.82-.44-2.1-1.36zm19.7353-5.2c-.42-.84-1.28-1.42-2.4-1.42-1.1 0-1.96.52-2.4 1.22v-1.04h-1.5v8.88h1.5v-6.12c.28-.96 1.06-1.58 1.96-1.58 1.14 0 1.68.82 1.68 2.06v5.64h1.5v-6.12c.28-.96 1.06-1.58 1.96-1.58 1.1402 0 1.6802.82 1.6802 2.06v5.64h1.52v-5.88c0-1.92-1-3.18-2.8-3.18-1.2402 0-2.1402.62-2.7002 1.42zm13.6362 4.98c-.24 1-1.06 1.56-2.16 1.56-1.5 0-2.56-1.16-2.58-3.06h6.28v-.54c0-2.58-1.3-4.36-3.74-4.36-2.42 0-4.04 1.98-4.04 4.64 0 2.74 1.66 4.6 4.08 4.6 2 0 3.26-1.16 3.58-2.84zm-2.18-5.12c1.48 0 2.18 1.16 2.2 2.48h-4.72c.22-1.56 1.18-2.48 2.52-2.48zm12.16 7.78v-5.92c0-1.94-1.26-3.14-3.38-3.14-1.7 0-3.02 1.02-3.32 2.52h1.48c.28-.82.88-1.22 1.82-1.22 1.28 0 1.96.8 1.96 1.9v1.12c-.38-.34-1.32-.72-2.24-.72-1.9 0-3.4 1.12-3.4 2.78 0 1.76 1.5 2.84 3.3 2.84 1.06 0 2-.46 2.34-.82v.66zm-1.44-2.2c-.26.66-1.16 1.1-2.08 1.1-1.08 0-2.12-.5-2.12-1.58 0-1.06 1.04-1.54 2.12-1.54.92 0 1.82.44 2.08 1.1zm4.004 2.2h1.5v-6.02c.32-.96 1.22-1.66 2.26-1.66 1.34 0 1.96.86 1.96 2.1v5.58h1.52v-5.82c0-1.94-1.1-3.24-3.12-3.24-1.14 0-2.1.6-2.62 1.3v-1.12h-1.5zm9.045-2.44c.28 1.64 1.7 2.62 3.64 2.62 1.9 0 3.3-1 3.3-2.68 0-1.24-.74-2.08-2.26-2.48l-1.72-.42c-.84-.24-1.24-.52-1.24-1.12 0-.86.82-1.28 1.7-1.28 1.08 0 1.7.46 1.96 1.26h1.5c-.32-1.56-1.48-2.52-3.44-2.52-1.8 0-3.18 1.04-3.18 2.62 0 1.38.88 2.02 2.14 2.34l1.76.46c.92.24 1.32.62 1.32 1.24 0 .9-.76 1.32-1.82 1.32-1.04 0-1.82-.44-2.1-1.36zm17.316-9.84-4.8 12.28h1.6l1.4-3.7h5.06l1.42 3.7h1.6l-4.8-12.28zm.72 1.96 2 5.24h-4zm8.814-2.68h-1.5v13h1.5zm4.18 4.12h-1.5v8.88h1.5zm.22-2.68c0-.54-.44-.96-.98-.96-.52 0-.96.42-.96.96 0 .52.44.96.96.96.54 0 .98-.44.98-.96zm1.819 7.12c0 2.76 1.66 4.62 4.04 4.62 2 0 3.26-1.16 3.56-2.86h-1.54c-.2.96-.96 1.54-2.02 1.54-1.52 0-2.52-1.36-2.52-3.3s1-3.3 2.52-3.3c1.06 0 1.82.58 2.02 1.54h1.54c-.3-1.7-1.56-2.86-3.56-2.86-2.38 0-4.04 1.86-4.04 4.62zm15.127 1.78c-.24 1-1.06 1.56-2.16 1.56-1.5 0-2.56-1.16-2.58-3.06h6.28v-.54c0-2.58-1.3-4.36-3.74-4.36-2.42 0-4.04 1.98-4.04 4.64 0 2.74 1.66 4.6 4.08 4.6 2 0 3.26-1.16 3.58-2.84zm-2.18-5.12c1.48 0 2.18 1.16 2.2 2.48h-4.72c.22-1.56 1.18-2.48 2.52-2.48zm10.135 7.78h1.5v-6.02c.32-.96 1.22-1.66 2.26-1.66 1.34 0 1.96.86 1.96 2.1v5.58h1.52v-5.82c0-1.94-1.1-3.24-3.12-3.24-1.14 0-2.1.6-2.62 1.3v-5.24h-1.5zm16.225 0v-5.92c0-1.94-1.26-3.14-3.38-3.14-1.7 0-3.02 1.02-3.32 2.52h1.48c.28-.82.88-1.22 1.82-1.22 1.28 0 1.96.8 1.96 1.9v1.12c-.38-.34-1.32-.72-2.24-.72-1.9 0-3.4 1.12-3.4 2.78 0 1.76 1.5 2.84 3.3 2.84 1.06 0 2-.46 2.34-.82v.66zm-1.44-2.2c-.26.66-1.16 1.1-2.08 1.1-1.08 0-2.12-.5-2.12-1.58 0-1.06 1.04-1.54 2.12-1.54.92 0 1.82.44 2.08 1.1zm3.264-.24c.28 1.64 1.7 2.62 3.64 2.62 1.9 0 3.3-1 3.3-2.68 0-1.24-.74-2.08-2.26-2.48l-1.72-.42c-.84-.24-1.24-.52-1.24-1.12 0-.86.82-1.28 1.7-1.28 1.08 0 1.7.46 1.96 1.26h1.5c-.32-1.56-1.48-2.52-3.44-2.52-1.8 0-3.18 1.04-3.18 2.62 0 1.38.88 2.02 2.14 2.34l1.76.46c.92.24 1.32.62 1.32 1.24 0 .9-.76 1.32-1.82 1.32-1.04 0-1.82-.44-2.1-1.36zm13.855.2c0 1.64 1 2.42 2.44 2.42.54 0 1.06-.12 1.4-.3v-1.4c-.3.2-.74.36-1.16.36-.76 0-1.18-.38-1.18-1.24v-5.2h2.14v-1.28h-2.14v-2.34h-1.5v2.34h-1.44v1.28h1.44zm5.928 2.24h1.5v-6.02c.32-.96 1.22-1.66 2.26-1.66 1.34 0 1.96.86 1.96 2.1v5.58h1.52v-5.82c0-1.94-1.1-3.24-3.12-3.24-1.14 0-2.1.6-2.62 1.3v-5.24h-1.5zm15.385-2.66c-.24 1-1.06 1.56-2.16 1.56-1.5 0-2.56-1.16-2.58-3.06h6.28v-.54c0-2.58-1.3-4.36-3.74-4.36-2.42 0-4.04 1.98-4.04 4.64 0 2.74 1.66 4.6 4.08 4.6 2 0 3.26-1.16 3.58-2.84zm-2.18-5.12c1.48 0 2.18 1.16 2.2 2.48h-4.72c.22-1.56 1.18-2.48 2.52-2.48zm16.434.14c-.42-.84-1.28-1.42-2.4-1.42-1.1 0-1.96.52-2.4 1.22v-1.04h-1.5v8.88h1.5v-6.12c.28-.96 1.06-1.58 1.96-1.58 1.14 0 1.68.82 1.68 2.06v5.64h1.5v-6.12c.28-.96 1.06-1.58 1.96-1.58 1.14 0 1.68.82 1.68 2.06v5.64h1.52v-5.88c0-1.92-1-3.18-2.8-3.18-1.24 0-2.14.62-2.7 1.42zm14.476 7.64v-5.92c0-1.94-1.26-3.14-3.38-3.14-1.7 0-3.02 1.02-3.32 2.52h1.48c.28-.82.88-1.22 1.82-1.22 1.28 0 1.96.8 1.96 1.9v1.12c-.38-.34-1.32-.72-2.24-.72-1.9 0-3.4 1.12-3.4 2.78 0 1.76 1.5 2.84 3.3 2.84 1.06 0 2-.46 2.34-.82v.66zm-1.44-2.2c-.26.66-1.16 1.1-2.08 1.1-1.08 0-2.12-.5-2.12-1.58 0-1.06 1.04-1.54 2.12-1.54.92 0 1.82.44 2.08 1.1zm5.504-6.68h-1.5v9.8c0 1-.42 1.36-1.2 1.36-.18 0-.4-.04-.52-.06v1.28c.16.06.46.08.64.08 1.66 0 2.58-.9 2.58-2.56zm.22-2.68c0-.54-.44-.96-.98-.96-.52 0-.96.42-.96.96 0 .52.44.96.96.96.54 0 .98-.44.98-.96zm9.941 7.12c0-2.72-1.66-4.62-4.08-4.62-2.44 0-4.08 1.9-4.08 4.62s1.64 4.62 4.08 4.62c2.42 0 4.08-1.9 4.08-4.62zm-1.52 0c0 1.94-.96 3.3-2.56 3.3s-2.56-1.36-2.56-3.3.96-3.3 2.56-3.3 2.56 1.36 2.56 3.3zm8.111-4.48c-.16-.08-.48-.14-.86-.14-.98 0-1.82.58-2.2 1.34v-1.16h-1.5v8.88h1.5v-5.96c.3-1.04 1.12-1.66 2.06-1.66.38 0 .76.08 1 .24zm3.366.04h-1.5v8.88h1.5zm.22-2.68c0-.54-.44-.96-.98-.96-.52 0-.96.42-.96.96 0 .52.44.96.96.96.54 0 .98-.44.98-.96zm2.879 9.32c0 1.64 1 2.42 2.44 2.42.54 0 1.06-.12 1.4-.3v-1.4c-.3.2-.74.36-1.16.36-.76 0-1.18-.38-1.18-1.24v-5.2h2.14v-1.28h-2.14v-2.34h-1.5v2.34h-1.44v1.28h1.44zm8.411 5.64 4.78-12.28h-1.56l-2.58 7-2.62-7h-1.62l3.46 8.94-1.34 3.34zm15.456-12.32c-.16-.08-.48-.14-.86-.14-.98 0-1.82.58-2.2 1.34v-1.16h-1.5v8.88h1.5v-5.96c.3-1.04 1.12-1.66 2.06-1.66.38 0 .76.08 1 .24zm7.212 6.26c-.24 1-1.06 1.56-2.16 1.56-1.5 0-2.56-1.16-2.58-3.06h6.28v-.54c0-2.58-1.3-4.36-3.74-4.36-2.42 0-4.04 1.98-4.04 4.64 0 2.74 1.66 4.6 4.08 4.6 2 0 3.26-1.16 3.58-2.84zm-2.18-5.12c1.48 0 2.18 1.16 2.2 2.48h-4.72c.22-1.56 1.18-2.48 2.52-2.48zm11.619 11.18h1.5v-12.28h-1.5v1.04c-.46-.64-1.4-1.22-2.5-1.22-2.62 0-4 2.16-4 4.62s1.38 4.62 4 4.62c1.1 0 2.04-.58 2.5-1.22zm0-6.04c-.46.92-1.34 1.46-2.28 1.46-1.7 0-2.7-1.38-2.7-3.26s1-3.26 2.7-3.26c.94 0 1.82.54 2.28 1.46zm11.259-6.24h-1.52v6.02c-.32.96-1.18 1.66-2.22 1.66-1.34 0-1.94-.86-1.94-2.1v-5.58h-1.52v5.82c0 1.94 1.08 3.24 3.1 3.24 1.14 0 2.08-.6 2.58-1.3v1.12h1.52zm4.166 0h-1.5v8.88h1.5zm.22-2.68c0-.54-.44-.96-.98-.96-.52 0-.96.42-.96.96 0 .52.44.96.96.96.54 0 .98-.44.98-.96zm7.02 2.64c-.16-.08-.48-.14-.86-.14-.98 0-1.82.58-2.2 1.34v-1.16h-1.5v8.88h1.5v-5.96c.3-1.04 1.12-1.66 2.06-1.66.38 0 .76.08 1 .24zm7.212 6.26c-.24 1-1.06 1.56-2.16 1.56-1.5 0-2.56-1.16-2.58-3.06h6.28v-.54c0-2.58-1.3-4.36-3.74-4.36-2.42 0-4.04 1.98-4.04 4.64 0 2.74 1.66 4.6 4.08 4.6 2 0 3.26-1.16 3.58-2.84zm-2.18-5.12c1.48 0 2.18 1.16 2.2 2.48h-4.72c.22-1.56 1.18-2.48 2.52-2.48zm11.62 7.78h1.52v-13h-1.52v5.16c-.44-.64-1.4-1.22-2.5-1.22-2.6 0-4 2.12-4 4.62 0 2.52 1.4 4.62 4 4.62 1.1 0 2.06-.58 2.5-1.22zm0-2.64c-.46.92-1.34 1.46-2.28 1.46-1.7 0-2.7-1.38-2.7-3.26s1-3.26 2.7-3.26c.94 0 1.82.54 2.28 1.46zm9.013.4c0 1.64 1 2.42 2.44 2.42.54 0 1.06-.12 1.4-.3v-1.4c-.3.2-.74.36-1.16.36-.76 0-1.18-.38-1.18-1.24v-5.2h2.14v-1.28h-2.14v-2.34h-1.5v2.34h-1.44v1.28h1.44zm13.35-2.2c0-2.72-1.66-4.62-4.08-4.62-2.44 0-4.08 1.9-4.08 4.62s1.64 4.62 4.08 4.62c2.42 0 4.08-1.9 4.08-4.62zm-1.52 0c0 1.94-.96 3.3-2.56 3.3s-2.56-1.36-2.56-3.3.96-3.3 2.56-3.3 2.56 1.36 2.56 3.3zm13.605-4.44h-1.34l-1.82 6.78-1.96-6.78h-1.5l2.62 8.88h1.46l1.86-6.74 1.84 6.74h1.46l2.62-8.88h-1.46l-1.96 6.78zm8.438 0h-1.5v8.88h1.5zm.22-2.68c0-.54-.44-.96-.98-.96-.52 0-.96.42-.96.96 0 .52.44.96.96.96.54 0 .98-.44.98-.96zm2.46 11.56h1.5v-6.02c.32-.96 1.22-1.66 2.26-1.66 1.34 0 1.96.86 1.96 2.1v5.58h1.52v-5.82c0-1.94-1.1-3.24-3.12-3.24-1.14 0-2.1.6-2.62 1.3v-1.12h-1.5zm14.619-2.24c0 1.64 1 2.42 2.44 2.42.54 0 1.06-.12 1.4-.3v-1.4c-.3.2-.74.36-1.16.36-.76 0-1.18-.38-1.18-1.24v-5.2h2.14v-1.28h-2.14v-2.34h-1.5v2.34h-1.44v1.28h1.44zm5.927 2.24h1.5v-6.02c.32-.96 1.22-1.66 2.26-1.66 1.34 0 1.96.86 1.96 2.1v5.58h1.52v-5.82c0-1.94-1.1-3.24-3.12-3.24-1.14 0-2.1.6-2.62 1.3v-5.24h-1.5zm11.286-8.88h-1.5v8.88h1.5zm.22-2.68c0-.54-.44-.96-.98-.96-.52 0-.96.42-.96.96 0 .52.44.96.96.96.54 0 .98-.44.98-.96zm1.719 9.12c.28 1.64 1.7 2.62 3.64 2.62 1.9 0 3.3-1 3.3-2.68 0-1.24-.74-2.08-2.26-2.48l-1.72-.42c-.84-.24-1.24-.52-1.24-1.12 0-.86.82-1.28 1.7-1.28 1.08 0 1.7.46 1.96 1.26h1.5c-.32-1.56-1.48-2.52-3.44-2.52-1.8 0-3.18 1.04-3.18 2.62 0 1.38.88 2.02 2.14 2.34l1.76.46c.92.24 1.32.62 1.32 1.24 0 .9-.76 1.32-1.82 1.32-1.04 0-1.82-.44-2.1-1.36zm17.996-6.48c-.16-.08-.48-.14-.86-.14-.98 0-1.82.58-2.2 1.34v-1.16h-1.5v8.88h1.5v-5.96c.3-1.04 1.12-1.66 2.06-1.66.38 0 .76.08 1 .24zm8.945.04h-1.52v6.02c-.32.96-1.18 1.66-2.22 1.66-1.34 0-1.94-.86-1.94-2.1v-5.58h-1.52v5.82c0 1.94 1.08 3.24 3.1 3.24 1.14 0 2.08-.6 2.58-1.3v1.12h1.52zm4.166-4.12h-1.5v13h1.5zm4.18 4.12h-1.5v8.88h1.5zm.22-2.68c0-.54-.44-.96-.98-.96-.52 0-.96.42-.96.96 0 .52.44.96.96.96.54 0 .98-.44.98-.96zm2.46 11.56h1.5v-6.02c.32-.96 1.22-1.66 2.26-1.66 1.34 0 1.96.86 1.96 2.1v5.58h1.52v-5.82c0-1.94-1.1-3.24-3.12-3.24-1.14 0-2.1.6-2.62 1.3v-1.12h-1.5zm15.605-.6c0 1.92-.84 2.92-2.44 2.92-1.22 0-2.06-.54-2.32-1.66h-1.48c.28 1.82 1.64 2.94 3.8 2.94 2.28 0 3.96-1.38 3.96-4.3v-8.18h-1.52v1c-.44-.62-1.38-1.18-2.48-1.18-2.6 0-3.98 2.14-3.98 4.5 0 2.34 1.38 4.5 3.98 4.5 1.1 0 2.04-.58 2.48-1.2zm0-2.2c-.46.84-1.3 1.38-2.26 1.38-1.68 0-2.66-1.32-2.66-3.14 0-1.84.98-3.16 2.66-3.16.96 0 1.8.54 2.26 1.38zm3.499 1.82c0 .62.48 1.08 1.08 1.08.58 0 1.06-.46 1.06-1.08s-.48-1.1-1.06-1.1c-.6 0-1.08.48-1.08 1.1zm12.413-11.3-4.8 12.28h1.6l1.4-3.7h5.06l1.42 3.7h1.6l-4.8-12.28zm.72 1.96 2 5.24h-4zm8.814-2.68h-1.5v13h1.5zm4.179 0h-1.5v13h1.5zm11.654 4.08c-.16-.08-.48-.14-.86-.14-.98 0-1.82.58-2.2 1.34v-1.16h-1.5v8.88h1.5v-5.96c.3-1.04 1.12-1.66 2.06-1.66.38 0 .76.08 1 .24zm8.946.04h-1.52v6.02c-.32.96-1.18 1.66-2.22 1.66-1.34 0-1.94-.86-1.94-2.1v-5.58h-1.52v5.82c0 1.94 1.08 3.24 3.1 3.24 1.14 0 2.08-.6 2.58-1.3v1.12h1.52zm4.166-4.12h-1.5v13h1.5zm4.18 4.12h-1.5v8.88h1.5zm.22-2.68c0-.54-.44-.96-.98-.96-.52 0-.96.42-.96.96 0 .52.44.96.96.96.54 0 .98-.44.98-.96zm2.459 11.56h1.5v-6.02c.32-.96 1.22-1.66 2.26-1.66 1.34 0 1.96.86 1.96 2.1v5.58h1.52v-5.82c0-1.94-1.1-3.24-3.12-3.24-1.14 0-2.1.6-2.62 1.3v-1.12h-1.5zm15.605-.6c0 1.92-.84 2.92-2.44 2.92-1.22 0-2.06-.54-2.32-1.66h-1.48c.28 1.82 1.64 2.94 3.8 2.94 2.28 0 3.96-1.38 3.96-4.3v-8.18h-1.52v1c-.44-.62-1.38-1.18-2.48-1.18-2.6 0-3.98 2.14-3.98 4.5 0 2.34 1.38 4.5 3.98 4.5 1.1 0 2.04-.58 2.48-1.2zm0-2.2c-.46.84-1.3 1.38-2.26 1.38-1.68 0-2.66-1.32-2.66-3.14 0-1.84.98-3.16 2.66-3.16.96 0 1.8.54 2.26 1.38zm3.46.36c.28 1.64 1.7 2.62 3.64 2.62 1.9 0 3.3-1 3.3-2.68 0-1.24-.74-2.08-2.26-2.48l-1.72-.42c-.84-.24-1.24-.52-1.24-1.12 0-.86.82-1.28 1.7-1.28 1.08 0 1.7.46 1.96 1.26h1.5c-.32-1.56-1.48-2.52-3.44-2.52-1.8 0-3.18 1.04-3.18 2.62 0 1.38.88 2.02 2.14 2.34l1.76.46c.92.24 1.32.62 1.32 1.24 0 .9-.76 1.32-1.82 1.32-1.04 0-1.82-.44-2.1-1.36zm19.875 2.44v-5.92c0-1.94-1.26-3.14-3.38-3.14-1.7 0-3.02 1.02-3.32 2.52h1.48c.28-.82.88-1.22 1.82-1.22 1.28 0 1.96.8 1.96 1.9v1.12c-.38-.34-1.32-.72-2.24-.72-1.9 0-3.4 1.12-3.4 2.78 0 1.76 1.5 2.84 3.3 2.84 1.06 0 2-.46 2.34-.82v.66zm-1.44-2.2c-.26.66-1.16 1.1-2.08 1.1-1.08 0-2.12-.5-2.12-1.58 0-1.06 1.04-1.54 2.12-1.54.92 0 1.82.44 2.08 1.1zm4.366-.04c0 1.64 1 2.42 2.44 2.42.54 0 1.06-.12 1.4-.3v-1.4c-.3.2-.74.36-1.16.36-.76 0-1.18-.38-1.18-1.24v-5.2h2.14v-1.28h-2.14v-2.34h-1.5v2.34h-1.44v1.28h1.44zm10.761 0c0 1.64 1 2.42 2.44 2.42.54 0 1.06-.12 1.4-.3v-1.4c-.3.2-.74.36-1.16.36-.76 0-1.18-.38-1.18-1.24v-5.2h2.14v-1.28h-2.14v-2.34h-1.5v2.34h-1.44v1.28h1.44zm5.928 2.24h1.5v-6.02c.32-.96 1.22-1.66 2.26-1.66 1.34 0 1.96.86 1.96 2.1v5.58h1.52v-5.82c0-1.94-1.1-3.24-3.12-3.24-1.14 0-2.1.6-2.62 1.3v-5.24h-1.5zm11.285-8.88h-1.5v8.88h1.5zm.22-2.68c0-.54-.44-.96-.98-.96-.52 0-.96.42-.96.96 0 .52.44.96.96.96.54 0 .98-.44.98-.96zm1.72 9.12c.28 1.64 1.7 2.62 3.64 2.62 1.9 0 3.3-1 3.3-2.68 0-1.24-.74-2.08-2.26-2.48l-1.72-.42c-.84-.24-1.24-.52-1.24-1.12 0-.86.82-1.28 1.7-1.28 1.08 0 1.7.46 1.96 1.26h1.5c-.32-1.56-1.48-2.52-3.44-2.52-1.8 0-3.18 1.04-3.18 2.62 0 1.38.88 2.02 2.14 2.34l1.76.46c.92.24 1.32.62 1.32 1.24 0 .9-.76 1.32-1.82 1.32-1.04 0-1.82-.44-2.1-1.36zm12.695 0c.28 1.64 1.7 2.62 3.64 2.62 1.9 0 3.3-1 3.3-2.68 0-1.24-.74-2.08-2.26-2.48l-1.72-.42c-.84-.24-1.24-.52-1.24-1.12 0-.86.82-1.28 1.7-1.28 1.08 0 1.7.46 1.96 1.26h1.5c-.32-1.56-1.48-2.52-3.44-2.52-1.8 0-3.18 1.04-3.18 2.62 0 1.38.88 2.02 2.14 2.34l1.76.46c.92.24 1.32.62 1.32 1.24 0 .9-.76 1.32-1.82 1.32-1.04 0-1.82-.44-2.1-1.36zm9.441.2c0 1.64 1 2.42 2.44 2.42.54 0 1.06-.12 1.4-.3v-1.4c-.3.2-.74.36-1.16.36-.76 0-1.18-.38-1.18-1.24v-5.2h2.14v-1.28h-2.14v-2.34h-1.5v2.34h-1.44v1.28h1.44zm12.231 2.24v-5.92c0-1.94-1.26-3.14-3.38-3.14-1.7 0-3.02 1.02-3.32 2.52h1.48c.28-.82.88-1.22 1.82-1.22 1.28 0 1.96.8 1.96 1.9v1.12c-.38-.34-1.32-.72-2.24-.72-1.9 0-3.4 1.12-3.4 2.78 0 1.76 1.5 2.84 3.3 2.84 1.06 0 2-.46 2.34-.82v.66zm-1.44-2.2c-.26.66-1.16 1.1-2.08 1.1-1.08 0-2.12-.5-2.12-1.58 0-1.06 1.04-1.54 2.12-1.54.92 0 1.82.44 2.08 1.1zm9.824 1.6c0 1.92-.84 2.92-2.44 2.92-1.22 0-2.06-.54-2.32-1.66h-1.48c.28 1.82 1.64 2.94 3.8 2.94 2.28 0 3.96-1.38 3.96-4.3v-8.18h-1.52v1c-.44-.62-1.38-1.18-2.48-1.18-2.6 0-3.98 2.14-3.98 4.5 0 2.34 1.38 4.5 3.98 4.5 1.1 0 2.04-.58 2.48-1.2zm0-2.2c-.46.84-1.3 1.38-2.26 1.38-1.68 0-2.66-1.32-2.66-3.14 0-1.84.98-3.16 2.66-3.16.96 0 1.8.54 2.26 1.38zm9.8.14c-.24 1-1.06 1.56-2.16 1.56-1.5 0-2.56-1.16-2.58-3.06h6.28v-.54c0-2.58-1.3-4.36-3.74-4.36-2.42 0-4.04 1.98-4.04 4.64 0 2.74 1.66 4.6 4.08 4.6 2 0 3.26-1.16 3.58-2.84zm-2.18-5.12c1.48 0 2.18 1.16 2.2 2.48h-4.72c.22-1.56 1.18-2.48 2.52-2.48zm16.574 7.78v-5.92c0-1.94-1.26-3.14-3.38-3.14-1.7 0-3.02 1.02-3.32 2.52h1.48c.28-.82.88-1.22 1.82-1.22 1.28 0 1.96.8 1.96 1.9v1.12c-.38-.34-1.32-.72-2.24-.72-1.9 0-3.4 1.12-3.4 2.78 0 1.76 1.5 2.84 3.3 2.84 1.06 0 2-.46 2.34-.82v.66zm-1.44-2.2c-.26.66-1.16 1.1-2.08 1.1-1.08 0-2.12-.5-2.12-1.58 0-1.06 1.04-1.54 2.12-1.54.92 0 1.82.44 2.08 1.1zm8.564-6.72c-.16-.08-.48-.14-.86-.14-.98 0-1.82.58-2.2 1.34v-1.16h-1.5v8.88h1.5v-5.96c.3-1.04 1.12-1.66 2.06-1.66.38 0 .76.08 1 .24zm7.212 6.26c-.24 1-1.06 1.56-2.16 1.56-1.5 0-2.56-1.16-2.58-3.06h6.28v-.54c0-2.58-1.3-4.36-3.74-4.36-2.42 0-4.04 1.98-4.04 4.64 0 2.74 1.66 4.6 4.08 4.6 2 0 3.26-1.16 3.58-2.84zm-2.18-5.12c1.48 0 2.18 1.16 2.2 2.48h-4.72c.22-1.56 1.18-2.48 2.52-2.48zm-668.287 33.74c.46.64 1.4 1.22 2.5 1.22 2.62 0 4-2.16 4-4.62s-1.38-4.62-4-4.62c-1.1 0-2.04.58-2.5 1.22v-1.04h-1.5v12.28h1.5zm0-5.2c.46-.92 1.34-1.46 2.28-1.46 1.7 0 2.7 1.38 2.7 3.26s-1 3.26-2.7 3.26c-.94 0-1.82-.54-2.28-1.46zm13.0991-2.68c-.16-.08-.48-.14-.86-.14-.98 0-1.82.58-2.2 1.34v-1.16h-1.5v8.88h1.5v-5.96c.3-1.04 1.12-1.66 2.06-1.66.38 0 .76.08 1 .24zm7.2118 6.26c-.24 1-1.06 1.56-2.16 1.56-1.5 0-2.56-1.16-2.58-3.06h6.28v-.54c0-2.58-1.3-4.36-3.74-4.36-2.42 0-4.04 1.98-4.04 4.64 0 2.74 1.66 4.6 4.08 4.6 2 0 3.26-1.16 3.58-2.84zm-2.18-5.12c1.48 0 2.18 1.16 2.2 2.48h-4.72c.22-1.56 1.18-2.48 2.52-2.48zm7.2207-5.22h-1.5v13h1.5zm4.1797 4.12h-1.5v8.88h1.5zm.22-2.68c0-.54-.44-.96-.98-.96-.52 0-.96.42-.96.96 0 .52.44.96.96.96.54 0 .98-.44.98-.96zm8.7596 3.92c-.42-.84-1.28-1.42-2.4-1.42-1.1 0-1.96.52-2.4 1.22v-1.04h-1.5v8.88h1.5v-6.12c.28-.96 1.06-1.58 1.96-1.58 1.14 0 1.68.82 1.68 2.06v5.64h1.5v-6.12c.28-.96 1.06-1.58 1.96-1.58 1.14 0 1.68.82 1.68 2.06v5.64h1.52v-5.88c0-1.92-1-3.18-2.8-3.18-1.24 0-2.14.62-2.7 1.42zm9.5361-1.24h-1.5v8.88h1.5zm.22-2.68c0-.54-.44-.96-.98-.96-.52 0-.96.42-.96.96 0 .52.44.96.96.96.54 0 .98-.44.98-.96zm2.46 11.56h1.5v-6.02c.32-.96 1.22-1.66 2.26-1.66 1.34 0 1.96.86 1.96 2.1v5.58h1.52v-5.82c0-1.94-1.1-3.24-3.12-3.24-1.14 0-2.1.6-2.62 1.3v-1.12h-1.5zm16.225 0v-5.92c0-1.94-1.26-3.14-3.38-3.14-1.7 0-3.02 1.02-3.32 2.52h1.48c.28-.82.88-1.22 1.82-1.22 1.28 0 1.96.8 1.96 1.9v1.12c-.38-.34-1.32-.72-2.24-.72-1.9 0-3.4 1.12-3.4 2.78 0 1.76 1.5 2.84 3.3 2.84 1.06 0 2-.46 2.34-.82v.66zm-1.44-2.2c-.26.66-1.16 1.1-2.08 1.1-1.08 0-2.12-.5-2.12-1.58 0-1.06 1.04-1.54 2.12-1.54.92 0 1.82.44 2.08 1.1zm8.564-6.72c-.16-.08-.48-.14-.86-.14-.98 0-1.82.58-2.2 1.34v-1.16h-1.5v8.88h1.5v-5.96c.3-1.04 1.12-1.66 2.06-1.66.38 0 .76.08 1 .24zm4.485 12.32 4.78-12.28h-1.56l-2.58 7-2.62-7h-1.62l3.46 8.94-1.34 3.34zm17.336-3.4v-5.92c0-1.94-1.26-3.14-3.38-3.14-1.7 0-3.02 1.02-3.32 2.52h1.48c.28-.82.88-1.22 1.82-1.22 1.28 0 1.96.8 1.96 1.9v1.12c-.38-.34-1.32-.72-2.24-.72-1.9 0-3.4 1.12-3.4 2.78 0 1.76 1.5 2.84 3.3 2.84 1.06 0 2-.46 2.34-.82v.66zm-1.44-2.2c-.26.66-1.16 1.1-2.08 1.1-1.08 0-2.12-.5-2.12-1.58 0-1.06 1.04-1.54 2.12-1.54.92 0 1.82.44 2.08 1.1zm4.004 2.2h1.5v-6.02c.32-.96 1.22-1.66 2.26-1.66 1.34 0 1.96.86 1.96 2.1v5.58h1.52v-5.82c0-1.94-1.1-3.24-3.12-3.24-1.14 0-2.1.6-2.62 1.3v-1.12h-1.5zm15.645 0h1.52v-13h-1.52v5.16c-.44-.64-1.4-1.22-2.5-1.22-2.6 0-4 2.12-4 4.62 0 2.52 1.4 4.62 4 4.62 1.1 0 2.06-.58 2.5-1.22zm0-2.64c-.46.92-1.34 1.46-2.28 1.46-1.7 0-2.7-1.38-2.7-3.26s1-3.26 2.7-3.26c.94 0 1.82.54 2.28 1.46zm7.953-1.8c0 2.76 1.66 4.62 4.04 4.62 2 0 3.26-1.16 3.56-2.86h-1.54c-.2.96-.96 1.54-2.02 1.54-1.52 0-2.52-1.36-2.52-3.3s1-3.3 2.52-3.3c1.06 0 1.82.58 2.02 1.54h1.54c-.3-1.7-1.56-2.86-3.56-2.86-2.38 0-4.04 1.86-4.04 4.62zm16.006 4.44v-5.92c0-1.94-1.26-3.14-3.38-3.14-1.7 0-3.02 1.02-3.32 2.52h1.48c.28-.82.88-1.22 1.82-1.22 1.28 0 1.96.8 1.96 1.9v1.12c-.38-.34-1.32-.72-2.24-.72-1.9 0-3.4 1.12-3.4 2.78 0 1.76 1.5 2.84 3.3 2.84 1.06 0 2-.46 2.34-.82v.66zm-1.44-2.2c-.26.66-1.16 1.1-2.08 1.1-1.08 0-2.12-.5-2.12-1.58 0-1.06 1.04-1.54 2.12-1.54.92 0 1.82.44 2.08 1.1zm4.004 2.2h1.5v-6.02c.32-.96 1.22-1.66 2.26-1.66 1.34 0 1.96.86 1.96 2.1v5.58h1.52v-5.82c0-1.94-1.1-3.24-3.12-3.24-1.14 0-2.1.6-2.62 1.3v-1.12h-1.5zm15.699-1.04c.44.64 1.4 1.22 2.5 1.22 2.6 0 4-2.1 4-4.62 0-2.5-1.4-4.62-4-4.62-1.1 0-2.06.58-2.5 1.22v-5.16h-1.52v13h1.52zm0-5.2c.46-.92 1.34-1.46 2.28-1.46 1.7 0 2.7 1.38 2.7 3.26s-1 3.26-2.7 3.26c-.94 0-1.82-.54-2.28-1.46zm14.178 3.58c-.24 1-1.06 1.56-2.16 1.56-1.5 0-2.56-1.16-2.58-3.06h6.28v-.54c0-2.58-1.3-4.36-3.74-4.36-2.42 0-4.04 1.98-4.04 4.64 0 2.74 1.66 4.6 4.08 4.6 2 0 3.26-1.16 3.58-2.84zm-2.18-5.12c1.48 0 2.18 1.16 2.2 2.48h-4.72c.22-1.56 1.18-2.48 2.52-2.48zm16.575 7.78v-5.92c0-1.94-1.26-3.14-3.38-3.14-1.7 0-3.02 1.02-3.32 2.52h1.48c.28-.82.88-1.22 1.82-1.22 1.28 0 1.96.8 1.96 1.9v1.12c-.38-.34-1.32-.72-2.24-.72-1.9 0-3.4 1.12-3.4 2.78 0 1.76 1.5 2.84 3.3 2.84 1.06 0 2-.46 2.34-.82v.66zm-1.44-2.2c-.26.66-1.16 1.1-2.08 1.1-1.08 0-2.12-.5-2.12-1.58 0-1.06 1.04-1.54 2.12-1.54.92 0 1.82.44 2.08 1.1zm5.504 1.16c.46.64 1.4 1.22 2.5 1.22 2.62 0 4-2.16 4-4.62s-1.38-4.62-4-4.62c-1.1 0-2.04.58-2.5 1.22v-1.04h-1.5v12.28h1.5zm0-5.2c.46-.92 1.34-1.46 2.28-1.46 1.7 0 2.7 1.38 2.7 3.26s-1 3.26-2.7 3.26c-.94 0-1.82-.54-2.28-1.46zm10.039 5.2c.46.64 1.4 1.22 2.5 1.22 2.62 0 4-2.16 4-4.62s-1.38-4.62-4-4.62c-1.1 0-2.04.58-2.5 1.22v-1.04h-1.5v12.28h1.5zm0-5.2c.46-.92 1.34-1.46 2.28-1.46 1.7 0 2.7 1.38 2.7 3.26s-1 3.26-2.7 3.26c-.94 0-1.82-.54-2.28-1.46zm14.178 3.58c-.24 1-1.06 1.56-2.16 1.56-1.5 0-2.56-1.16-2.58-3.06h6.28v-.54c0-2.58-1.3-4.36-3.74-4.36-2.42 0-4.04 1.98-4.04 4.64 0 2.74 1.66 4.6 4.08 4.6 2 0 3.26-1.16 3.58-2.84zm-2.18-5.12c1.48 0 2.18 1.16 2.2 2.48h-4.72c.22-1.56 1.18-2.48 2.52-2.48zm12.161 7.78v-5.92c0-1.94-1.26-3.14-3.38-3.14-1.7 0-3.02 1.02-3.32 2.52h1.48c.28-.82.88-1.22 1.82-1.22 1.28 0 1.96.8 1.96 1.9v1.12c-.38-.34-1.32-.72-2.24-.72-1.9 0-3.4 1.12-3.4 2.78 0 1.76 1.5 2.84 3.3 2.84 1.06 0 2-.46 2.34-.82v.66zm-1.44-2.2c-.26.66-1.16 1.1-2.08 1.1-1.08 0-2.12-.5-2.12-1.58 0-1.06 1.04-1.54 2.12-1.54.92 0 1.82.44 2.08 1.1zm5.504-10.8h-1.5v13h1.5zm8.279 10.34c-.24 1-1.06 1.56-2.16 1.56-1.5 0-2.56-1.16-2.58-3.06h6.28v-.54c0-2.58-1.3-4.36-3.74-4.36-2.42 0-4.04 1.98-4.04 4.64 0 2.74 1.66 4.6 4.08 4.6 2 0 3.26-1.16 3.58-2.84zm-2.18-5.12c1.48 0 2.18 1.16 2.2 2.48h-4.72c.22-1.56 1.18-2.48 2.52-2.48zm11.62 7.78h1.52v-13h-1.52v5.16c-.44-.64-1.4-1.22-2.5-1.22-2.6 0-4 2.12-4 4.62 0 2.52 1.4 4.62 4 4.62 1.1 0 2.06-.58 2.5-1.22zm0-2.64c-.46.92-1.34 1.46-2.28 1.46-1.7 0-2.7-1.38-2.7-3.26s1-3.26 2.7-3.26c.94 0 1.82.54 2.28 1.46zm10.093 1.6c.44.64 1.4 1.22 2.5 1.22 2.6 0 4-2.1 4-4.62 0-2.5-1.4-4.62-4-4.62-1.1 0-2.06.58-2.5 1.22v-5.16h-1.52v13h1.52zm0-5.2c.46-.92 1.34-1.46 2.28-1.46 1.7 0 2.7 1.38 2.7 3.26s-1 3.26-2.7 3.26c-.94 0-1.82-.54-2.28-1.46zm11.003 9.64 4.78-12.28h-1.56l-2.58 7-2.62-7h-1.62l3.46 8.94-1.34 3.34zm11.316-5.64c0 1.64 1 2.42 2.44 2.42.54 0 1.06-.12 1.4-.3v-1.4c-.3.2-.74.36-1.16.36-.76 0-1.18-.38-1.18-1.24v-5.2h2.14v-1.28h-2.14v-2.34h-1.5v2.34h-1.44v1.28h1.44zm5.927 2.24h1.5v-6.02c.32-.96 1.22-1.66 2.26-1.66 1.34 0 1.96.86 1.96 2.1v5.58h1.52v-5.82c0-1.94-1.1-3.24-3.12-3.24-1.14 0-2.1.6-2.62 1.3v-5.24h-1.5zm15.385-2.66c-.24 1-1.06 1.56-2.16 1.56-1.5 0-2.56-1.16-2.58-3.06h6.28v-.54c0-2.58-1.3-4.36-3.74-4.36-2.42 0-4.04 1.98-4.04 4.64 0 2.74 1.66 4.6 4.08 4.6 2 0 3.26-1.16 3.58-2.84zm-2.18-5.12c1.48 0 2.18 1.16 2.2 2.48h-4.72c.22-1.56 1.18-2.48 2.52-2.48zm11.635-5.22h-1.5v13h1.5zm10.2 8.56c0-2.72-1.66-4.62-4.08-4.62-2.44 0-4.08 1.9-4.08 4.62s1.64 4.62 4.08 4.62c2.42 0 4.08-1.9 4.08-4.62zm-1.52 0c0 1.94-.96 3.3-2.56 3.3s-2.56-1.36-2.56-3.3.96-3.3 2.56-3.3 2.56 1.36 2.56 3.3zm2.81 2c.28 1.64 1.7 2.62 3.64 2.62 1.9 0 3.3-1 3.3-2.68 0-1.24-.74-2.08-2.26-2.48l-1.72-.42c-.84-.24-1.24-.52-1.24-1.12 0-.86.82-1.28 1.7-1.28 1.08 0 1.7.46 1.96 1.26h1.5c-.32-1.56-1.48-2.52-3.44-2.52-1.8 0-3.18 1.04-3.18 2.62 0 1.38.88 2.02 2.14 2.34l1.76.46c.92.24 1.32.62 1.32 1.24 0 .9-.76 1.32-1.82 1.32-1.04 0-1.82-.44-2.1-1.36zm14.622-.22c-.24 1-1.06 1.56-2.16 1.56-1.5 0-2.56-1.16-2.58-3.06h6.28v-.54c0-2.58-1.3-4.36-3.74-4.36-2.42 0-4.04 1.98-4.04 4.64 0 2.74 1.66 4.6 4.08 4.6 2 0 3.26-1.16 3.58-2.84zm-2.18-5.12c1.48 0 2.18 1.16 2.2 2.48h-4.72c.22-1.56 1.18-2.48 2.52-2.48zm10.28-1.14c-.16-.08-.48-.14-.86-.14-.98 0-1.82.58-2.2 1.34v-1.16h-1.5v8.88h1.5v-5.96c.3-1.04 1.12-1.66 2.06-1.66.38 0 .76.08 1 .24zm10.72-4.06c-.34-.14-.68-.2-1.16-.2-1.56 0-2.72 1.04-2.72 2.82v1.48h-1.5v1.28h1.5v7.6h1.48v-7.6h2v-1.28h-2v-1.36c0-1.06.58-1.62 1.46-1.62.32 0 .66.06.94.24zm8.725 8.54c0-2.72-1.66-4.62-4.08-4.62-2.44 0-4.08 1.9-4.08 4.62s1.64 4.62 4.08 4.62c2.42 0 4.08-1.9 4.08-4.62zm-1.52 0c0 1.94-.96 3.3-2.56 3.3s-2.56-1.36-2.56-3.3.96-3.3 2.56-3.3 2.56 1.36 2.56 3.3zm8.111-4.48c-.16-.08-.48-.14-.86-.14-.98 0-1.82.58-2.2 1.34v-1.16h-1.5v8.88h1.5v-5.96c.3-1.04 1.12-1.66 2.06-1.66.379 0 .76.08 1 .24zm12.719 8.92v-5.92c0-1.94-1.26-3.14-3.38-3.14-1.7 0-3.02 1.02-3.32 2.52h1.48c.28-.82.88-1.22 1.82-1.22 1.28 0 1.96.8 1.96 1.9v1.12c-.38-.34-1.32-.72-2.24-.72-1.9 0-3.4 1.12-3.4 2.78 0 1.76 1.5 2.84 3.3 2.84 1.06 0 2-.46 2.34-.82v.66zm-1.44-2.2c-.26.66-1.16 1.1-2.08 1.1-1.08 0-2.12-.5-2.12-1.58 0-1.06 1.04-1.54 2.12-1.54.92 0 1.82.44 2.08 1.1zm9.864 2.2h1.52v-13h-1.52v5.16c-.44-.64-1.4-1.22-2.5-1.22-2.6 0-4 2.12-4 4.62 0 2.52 1.4 4.62 4 4.62 1.1 0 2.06-.58 2.5-1.22zm0-2.64c-.46.92-1.34 1.46-2.28 1.46-1.7 0-2.7-1.38-2.7-3.26s1-3.26 2.7-3.26c.94 0 1.82.54 2.28 1.46zm10.039 2.64h1.52v-13h-1.52v5.16c-.44-.64-1.4-1.22-2.5-1.22-2.6 0-4 2.12-4 4.62 0 2.52 1.4 4.62 4 4.62 1.1 0 2.06-.58 2.5-1.22zm0-2.64c-.46.92-1.34 1.46-2.28 1.46-1.7 0-2.7-1.38-2.7-3.26s1-3.26 2.7-3.26c.94 0 1.82.54 2.28 1.46zm5.679-6.24h-1.5v8.88h1.5zm.22-2.68c0-.54-.44-.96-.98-.96-.52 0-.96.42-.96.96 0 .52.44.96.96.96.54 0 .98-.44.98-.96zm2.88 9.32c0 1.64 1 2.42 2.44 2.42.54 0 1.06-.12 1.4-.3v-1.4c-.3.2-.74.36-1.16.36-.76 0-1.18-.38-1.18-1.24v-5.2h2.14v-1.28h-2.14v-2.34h-1.5v2.34h-1.44v1.28h1.44zm7.428-6.64h-1.5v8.88h1.5zm.22-2.68c0-.54-.44-.96-.98-.96-.52 0-.96.42-.96.96 0 .52.44.96.96.96.54 0 .98-.44.98-.96zm9.979 7.12c0-2.72-1.66-4.62-4.08-4.62-2.44 0-4.08 1.9-4.08 4.62s1.64 4.62 4.08 4.62c2.42 0 4.08-1.9 4.08-4.62zm-1.52 0c0 1.94-.96 3.3-2.56 3.3s-2.56-1.36-2.56-3.3.96-3.3 2.56-3.3 2.56 1.36 2.56 3.3zm3.551 4.44h1.5v-6.02c.32-.96 1.22-1.66 2.26-1.66 1.34 0 1.96.86 1.96 2.1v5.58h1.52v-5.82c0-1.94-1.1-3.24-3.12-3.24-1.14 0-2.1.6-2.62 1.3v-1.12h-1.5zm16.225 0v-5.92c0-1.94-1.26-3.14-3.38-3.14-1.7 0-3.02 1.02-3.32 2.52h1.48c.28-.82.88-1.22 1.82-1.22 1.28 0 1.96.8 1.96 1.9v1.12c-.38-.34-1.32-.72-2.24-.72-1.9 0-3.4 1.12-3.4 2.78 0 1.76 1.5 2.84 3.3 2.84 1.06 0 2-.46 2.34-.82v.66zm-1.44-2.2c-.26.66-1.16 1.1-2.08 1.1-1.08 0-2.12-.5-2.12-1.58 0-1.06 1.04-1.54 2.12-1.54.92 0 1.82.44 2.08 1.1zm5.504-10.8h-1.5v13h1.5zm11.534.02c-.34-.14-.68-.2-1.16-.2-1.56 0-2.72 1.04-2.72 2.82v1.48h-1.5v1.28h1.5v7.6h1.48v-7.6h2v-1.28h-2v-1.36c0-1.06.58-1.62 1.46-1.62.32 0 .66.06.94.24zm6.805 10.32c-.24 1-1.06 1.56-2.16 1.56-1.5 0-2.56-1.16-2.58-3.06h6.28v-.54c0-2.58-1.3-4.36-3.74-4.36-2.42 0-4.04 1.98-4.04 4.64 0 2.74 1.66 4.6 4.08 4.6 2 0 3.26-1.16 3.58-2.84zm-2.18-5.12c1.48 0 2.18 1.16 2.2 2.48h-4.72c.22-1.56 1.18-2.48 2.52-2.48zm11.359 5.12c-.24 1-1.06 1.56-2.16 1.56-1.5 0-2.56-1.16-2.58-3.06h6.28v-.54c0-2.58-1.3-4.36-3.74-4.36-2.42 0-4.04 1.98-4.04 4.64 0 2.74 1.66 4.6 4.08 4.6 2 0 3.26-1.16 3.58-2.84zm-2.18-5.12c1.48 0 2.18 1.16 2.2 2.48h-4.72c.22-1.56 1.18-2.48 2.52-2.48zm5.02 5.34c.28 1.64 1.7 2.62 3.64 2.62 1.9 0 3.3-1 3.3-2.68 0-1.24-.74-2.08-2.26-2.48l-1.72-.42c-.84-.24-1.24-.52-1.24-1.12 0-.86.82-1.28 1.7-1.28 1.08 0 1.7.46 1.96 1.26h1.5c-.32-1.56-1.48-2.52-3.44-2.52-1.8 0-3.18 1.04-3.18 2.62 0 1.38.88 2.02 2.14 2.34l1.76.46c.92.24 1.32.62 1.32 1.24 0 .9-.76 1.32-1.82 1.32-1.04 0-1.82-.44-2.1-1.36zm8.321 1.46c0 .62.48 1.08 1.08 1.08.58 0 1.06-.46 1.06-1.08s-.48-1.1-1.06-1.1c-.6 0-1.08.48-1.08 1.1z" fill="#1c1c1c"/><circle cx="526" cy="195" fill="#7fdfa6" fill-opacity=".2" r="39"/><circle cx="377" cy="221" fill="#ffa776" r="39"/><g fill="#f9fafc"><path d="m384.108 225.748h10.4486v8.40782h-10.4486z" transform="matrix(.70064904 -.71350608 .71350608 .70064904 -46.089472 341.641271)"/><path d="m380.536 222.455h10.4486v2.88173h-10.4486z" transform="matrix(.70064904 -.71350608 .71350608 .70064904 -44.809178 338.106865)"/><path d="m391.623 233.038h10.4486v2.88173h-10.4486z" transform="matrix(.70064904 -.71350608 .71350608 .70064904 -49.041309 349.185538)"/><path d="m383.542 229.868h3.58732v10.7917h-3.58732z" transform="matrix(.71519278 .69892725 -.69892725 .71519278 269.896541 -202.599886)"/></g><path d="m361 236.7c0-8.862 7.184-16.046 16.047-16.046" stroke="#f9fafc" stroke-width="5"/><circle cx="377.047" cy="205.551" fill="#f9fafc" r="7.5513"/><circle cx="279" cy="195" fill="#7fdfa6" fill-opacity=".2" r="39"/><circle cx="249" cy="221" fill="#ffa776" r="39"/><circle cx="279" cy="195" fill="#7fdfa6" r="16"/><path d="m271 193h16v4h-16z" fill="#fff"/><path d="m281 194h9v4h-9z" fill="#fff" transform="matrix(0 1 -1 0 475 -87)"/><path d="m281 187h4v4h-4z" fill="#fff" transform="matrix(0 1 -1 0 468 -94)"/><path d="m256.108 225.748h10.4486v8.40782h-10.4486z" fill="#f9fafc" transform="matrix(.70064904 -.71350608 .71350608 .70064904 -84.406394 250.312494)"/><path d="m252.536 222.455h10.4486v2.88173h-10.4486z" fill="#f9fafc" transform="matrix(.70064904 -.71350608 .71350608 .70064904 -83.126101 246.778087)"/><path d="m263.623 233.038h10.4486v2.88173h-10.4486z" fill="#f9fafc" transform="matrix(.70064904 -.71350608 .71350608 .70064904 -87.358231 257.85676)"/><path d="m255.542 229.868h3.58732v10.7917h-3.58732z" fill="#f9fafc" transform="matrix(.71519278 .69892725 -.69892725 .71519278 233.441216 -113.137199)"/><path d="m233 236.7c0-8.862 7.184-16.046 16.047-16.046" stroke="#f9fafc" stroke-width="5"/><circle cx="249.047" cy="205.551" fill="#f9fafc" r="7.5513"/><circle cx="498" cy="221" fill="#ffa776" r="39"/><path d="m504.108 225.748h10.4486v8.40782h-10.4486z" fill="#f9fafc" transform="matrix(.70064904 -.71350608 .71350608 .70064904 -10.167357 427.262)"/><path d="m500.536 222.455h10.4486v2.88173h-10.4486z" fill="#f9fafc" transform="matrix(.70064904 -.71350608 .71350608 .70064904 -8.887063 423.727594)"/><path d="m511.623 233.038h10.4486v2.88173h-10.4486z" fill="#f9fafc" transform="matrix(.70064904 -.71350608 .71350608 .70064904 -13.119194 434.806267)"/><path d="m503.542 229.868h3.58732v10.7917h-3.58732z" fill="#f9fafc" transform="matrix(.71519278 .69892725 -.69892725 .71519278 304.073408 -286.471156)"/><path d="m481 236.7c0-8.862 7.184-16.046 16.047-16.046" stroke="#f9fafc" stroke-width="5"/><circle cx="497.047" cy="205.551" fill="#f9fafc" r="7.5513"/><circle cx="526" cy="195" fill="#7fdfa6" r="16"/><path d="m518 193h16v4h-16z" fill="#fff"/><path d="m528 194h9v4h-9z" fill="#fff" transform="matrix(0 1 -1 0 722 -334)"/><path d="m528 187h4v4h-4z" fill="#fff" transform="matrix(0 1 -1 0 715 -341)"/><circle cx="407" cy="195" fill="#ff7c7c" r="16"/><path d="m399 193h16v4h-16z" fill="#fff"/></svg>