<svg fill="none" height="534" viewBox="0 0 782 534" width="782" xmlns="http://www.w3.org/2000/svg" xmlns:xlink="http://www.w3.org/1999/xlink"><filter id="a" color-interpolation-filters="sRGB" filterUnits="userSpaceOnUse" height="534" width="782" x="0" y="0"><feFlood flood-opacity="0" result="BackgroundImageFix"/><feColorMatrix in="SourceAlpha" type="matrix" values="0 0 0 0 0 0 0 0 0 0 0 0 0 0 0 0 0 0 127 0"/><feOffset dy="3"/><feGaussianBlur stdDeviation="8.5"/><feColorMatrix type="matrix" values="0 0 0 0 0 0 0 0 0 0 0 0 0 0 0 0 0 0 0.1 0"/><feBlend in2="BackgroundImageFix" mode="normal" result="effect1_dropShadow"/><feBlend in="SourceGraphic" in2="effect1_dropShadow" mode="normal" result="shape"/></filter><linearGradient id="b" gradientUnits="userSpaceOnUse" x1="750" x2="687.559" y1="408.937" y2="649.81"><stop offset="0" stop-color="#fff8f0"/><stop offset="1" stop-color="#fff3f1"/></linearGradient><mask id="c" height="500" maskUnits="userSpaceOnUse" width="748" x="17" y="14"><rect fill="#fff" height="500" rx="6" width="748" x="17" y="14"/></mask><g filter="url(#a)"><rect fill="#fff" height="500" rx="6" width="748" x="17" y="14"/></g><g mask="url(#c)" stroke="#ffa776" stroke-width="1.5"><circle cx="391.5" cy="213.5" opacity=".2" r="223.216"/><circle cx="391.5" cy="213.5" opacity=".15" r="255.045"/><circle cx="391.5" cy="213.5" opacity=".1" r="286.098"/><circle cx="391.5" cy="213.5" opacity=".05" r="317.75"/></g><rect fill="url(#b)" height="109" rx="4" width="718" x="32" y="391"/><path d="m59.76 418.64c.96-.3 1.8-1.2 1.8-2.66 0-2.12-1.52-3.26-4.06-3.26h-4.04v12.28h4.44c2.52 0 4.08-1.22 4.08-3.46 0-1.38-.9-2.56-2.22-2.9zm-4.76-.58v-3.96h2.5c1.64 0 2.54.62 2.54 1.96s-.9 2-2.54 2zm0 1.32h2.9c1.66 0 2.54.82 2.54 2.12 0 1.28-.88 2.12-2.54 2.12h-2.9zm16.6803 1.18c0-2.72-1.66-4.62-4.08-4.62-2.44 0-4.08 1.9-4.08 4.62s1.64 4.62 4.08 4.62c2.42 0 4.08-1.9 4.08-4.62zm-1.52 0c0 1.94-.96 3.3-2.56 3.3s-2.56-1.36-2.56-3.3.96-3.3 2.56-3.3 2.56 1.36 2.56 3.3zm5.0508 3.4c.44.64 1.4 1.22 2.5 1.22 2.6 0 4-2.1 4-4.62 0-2.5-1.4-4.62-4-4.62-1.1 0-2.06.58-2.5 1.22v-5.16h-1.52v13h1.52zm0-5.2c.46-.92 1.34-1.46 2.28-1.46 1.7 0 2.7 1.38 2.7 3.26s-1 3.26-2.7 3.26c-.94 0-1.82-.54-2.28-1.46zm18.8131 6.24h1.52v-13h-1.52v5.16c-.44-.64-1.4-1.22-2.5-1.22-2.6 0-4 2.12-4 4.62 0 2.52 1.4 4.62 4 4.62 1.1 0 2.06-.58 2.5-1.22zm0-2.64c-.46.92-1.34 1.46-2.28 1.46-1.7 0-2.7-1.38-2.7-3.26s1-3.26 2.7-3.26c.94 0 1.82.54 2.28 1.46zm9.7788-.02c-.24 1-1.06 1.56-2.16 1.56-1.5 0-2.5597-1.16-2.5797-3.06h6.2797v-.54c0-2.58-1.3-4.36-3.74-4.36-2.4197 0-4.0397 1.98-4.0397 4.64 0 2.74 1.66 4.6 4.0797 4.6 2 0 3.26-1.16 3.58-2.84zm-2.18-5.12c1.48 0 2.18 1.16 2.2 2.48h-4.7197c.22-1.56 1.1797-2.48 2.5197-2.48zm5.12 3.34c0 2.76 1.66 4.62 4.04 4.62 2 0 3.26-1.16 3.56-2.86h-1.54c-.2.96-.96 1.54-2.02 1.54-1.52 0-2.52-1.36-2.52-3.3s1-3.3 2.52-3.3c1.06 0 1.82.58 2.02 1.54h1.54c-.3-1.7-1.56-2.86-3.56-2.86-2.38 0-4.04 1.86-4.04 4.62zm11.066-4.44h-1.5v8.88h1.5zm.22-2.68c0-.54-.44-.96-.98-.96-.52 0-.96.42-.96.96 0 .52.44.96.96.96.54 0 .98-.44.98-.96zm8.319 11.56h1.52v-13h-1.52v5.16c-.44-.64-1.4-1.22-2.5-1.22-2.6 0-4 2.12-4 4.62 0 2.52 1.4 4.62 4 4.62 1.1 0 2.06-.58 2.5-1.22zm0-2.64c-.46.92-1.34 1.46-2.28 1.46-1.7 0-2.7-1.38-2.7-3.26s1-3.26 2.7-3.26c.94 0 1.82.54 2.28 1.46zm9.78-.02c-.24 1-1.061 1.56-2.16 1.56-1.5 0-2.56-1.16-2.58-3.06h6.28v-.54c0-2.58-1.3-4.36-3.74-4.36-2.42 0-4.04 1.98-4.04 4.64 0 2.74 1.66 4.6 4.08 4.6 2 0 3.26-1.16 3.58-2.84zm-2.18-5.12c1.48 0 2.18 1.16 2.2 2.48h-4.72c.22-1.56 1.18-2.48 2.52-2.48zm5.019 5.34c.28 1.64 1.7 2.62 3.64 2.62 1.9 0 3.3-1 3.3-2.68 0-1.24-.74-2.08-2.26-2.48l-1.72-.42c-.84-.24-1.24-.52-1.24-1.12 0-.86.82-1.28 1.7-1.28 1.08 0 1.7.46 1.96 1.26h1.5c-.32-1.56-1.48-2.52-3.44-2.52-1.8 0-3.18 1.04-3.18 2.62 0 1.38.88 2.02 2.14 2.34l1.76.46c.92.24 1.32.62 1.32 1.24 0 .9-.76 1.32-1.82 1.32-1.04 0-1.82-.44-2.1-1.36zm13.436 2.44h1.5v-6.02c.32-.96 1.22-1.66 2.26-1.66 1.34 0 1.96.86 1.96 2.1v5.58h1.52v-5.82c0-1.94-1.1-3.24-3.12-3.24-1.14 0-2.1.6-2.62 1.3v-1.12h-1.5zm17.305-4.44c0-2.72-1.66-4.62-4.08-4.62-2.44 0-4.08 1.9-4.08 4.62s1.64 4.62 4.08 4.62c2.42 0 4.08-1.9 4.08-4.62zm-1.52 0c0 1.94-.96 3.3-2.56 3.3s-2.56-1.36-2.56-3.3.96-3.3 2.56-3.3 2.56 1.36 2.56 3.3zm3.97 2.2c0 1.64 1 2.42 2.44 2.42.54 0 1.06-.12 1.4-.3v-1.4c-.3.2-.74.36-1.16.36-.76 0-1.18-.38-1.18-1.24v-5.2h2.14v-1.28h-2.14v-2.34h-1.5v2.34h-1.44v1.28h1.44zm10.762 0c0 1.64 1 2.42 2.44 2.42.54 0 1.06-.12 1.4-.3v-1.4c-.3.2-.74.36-1.16.36-.76 0-1.18-.38-1.18-1.24v-5.2h2.14v-1.28h-2.14v-2.34h-1.5v2.34h-1.44v1.28h1.44zm13.35-2.2c0-2.72-1.66-4.62-4.08-4.62-2.44 0-4.08 1.9-4.08 4.62s1.64 4.62 4.08 4.62c2.42 0 4.08-1.9 4.08-4.62zm-1.52 0c0 1.94-.96 3.3-2.56 3.3s-2.56-1.36-2.56-3.3.96-3.3 2.56-3.3 2.56 1.36 2.56 3.3zm14.405 4.44v-5.92c0-1.94-1.26-3.14-3.38-3.14-1.7 0-3.02 1.02-3.32 2.52h1.48c.28-.82.88-1.22 1.82-1.22 1.28 0 1.96.8 1.96 1.9v1.12c-.38-.34-1.32-.72-2.24-.72-1.9 0-3.4 1.12-3.4 2.78 0 1.76 1.5 2.84 3.3 2.84 1.06 0 2-.46 2.34-.82v.66zm-1.44-2.2c-.26.66-1.16 1.1-2.08 1.1-1.08 0-2.12-.5-2.12-1.58 0-1.06 1.04-1.54 2.12-1.54.92 0 1.82.44 2.08 1.1zm5.504 1.16c.46.64 1.4 1.22 2.5 1.22 2.62 0 4-2.16 4-4.62s-1.38-4.62-4-4.62c-1.1 0-2.04.58-2.5 1.22v-1.04h-1.5v12.28h1.5zm0-5.2c.46-.92 1.34-1.46 2.28-1.46 1.7 0 2.7 1.38 2.7 3.26s-1 3.26-2.7 3.26c-.94 0-1.82-.54-2.28-1.46zm10.039 5.2c.46.64 1.4 1.22 2.5 1.22 2.62 0 4-2.16 4-4.62s-1.38-4.62-4-4.62c-1.1 0-2.04.58-2.5 1.22v-1.04h-1.5v12.28h1.5zm0-5.2c.46-.92 1.34-1.46 2.28-1.46 1.7 0 2.7 1.38 2.7 3.26s-1 3.26-2.7 3.26c-.94 0-1.82-.54-2.28-1.46zm14.178 3.58c-.24 1-1.06 1.56-2.16 1.56-1.5 0-2.56-1.16-2.58-3.06h6.28v-.54c0-2.58-1.3-4.36-3.74-4.36-2.42 0-4.04 1.98-4.04 4.64 0 2.74 1.66 4.6 4.08 4.6 2 0 3.26-1.16 3.58-2.84zm-2.18-5.12c1.48 0 2.18 1.16 2.2 2.48h-4.72c.22-1.56 1.18-2.48 2.52-2.48zm12.161 7.78v-5.92c0-1.94-1.26-3.14-3.38-3.14-1.7 0-3.02 1.02-3.32 2.52h1.48c.28-.82.88-1.22 1.82-1.22 1.28 0 1.96.8 1.96 1.9v1.12c-.38-.34-1.32-.72-2.24-.72-1.9 0-3.4 1.12-3.4 2.78 0 1.76 1.5 2.84 3.3 2.84 1.06 0 2-.46 2.34-.82v.66zm-1.44-2.2c-.26.66-1.16 1.1-2.08 1.1-1.08 0-2.12-.5-2.12-1.58 0-1.06 1.04-1.54 2.12-1.54.92 0 1.82.44 2.08 1.1zm5.504-10.8h-1.5v13h1.5zm7.513 10.76c0 1.64 1 2.42 2.44 2.42.54 0 1.06-.12 1.4-.3v-1.4c-.3.2-.74.36-1.16.36-.76 0-1.18-.38-1.18-1.24v-5.2h2.14v-1.28h-2.14v-2.34h-1.5v2.34h-1.44v1.28h1.44zm5.928 2.24h1.5v-6.02c.32-.96 1.22-1.66 2.26-1.66 1.34 0 1.96.86 1.96 2.1v5.58h1.52v-5.82c0-1.94-1.1-3.24-3.12-3.24-1.14 0-2.1.6-2.62 1.3v-5.24h-1.5zm15.385-2.66c-.24 1-1.06 1.56-2.16 1.56-1.5 0-2.56-1.16-2.58-3.06h6.28v-.54c0-2.58-1.3-4.36-3.74-4.36-2.42 0-4.04 1.98-4.04 4.64 0 2.74 1.66 4.6 4.08 4.6 2 0 3.26-1.16 3.58-2.84zm-2.18-5.12c1.48 0 2.18 1.16 2.2 2.48h-4.72c.22-1.56 1.18-2.48 2.52-2.48zm11.635 6.74c.46.64 1.4 1.22 2.5 1.22 2.62 0 4-2.16 4-4.62s-1.38-4.62-4-4.62c-1.1 0-2.04.58-2.5 1.22v-1.04h-1.5v12.28h1.5zm0-5.2c.46-.92 1.34-1.46 2.28-1.46 1.7 0 2.7 1.38 2.7 3.26s-1 3.26-2.7 3.26c-.94 0-1.82-.54-2.28-1.46zm13.099-2.68c-.16-.08-.48-.14-.86-.14-.98 0-1.82.58-2.2 1.34v-1.16h-1.5v8.88h1.5v-5.96c.3-1.04 1.12-1.66 2.06-1.66.38 0 .76.08 1 .24zm7.212 6.26c-.24 1-1.06 1.56-2.16 1.56-1.5 0-2.56-1.16-2.58-3.06h6.28v-.54c0-2.58-1.3-4.36-3.74-4.36-2.42 0-4.04 1.98-4.04 4.64 0 2.74 1.66 4.6 4.08 4.6 2 0 3.26-1.16 3.58-2.84zm-2.18-5.12c1.48 0 2.18 1.16 2.2 2.48h-4.72c.22-1.56 1.18-2.48 2.52-2.48zm7.22-5.22h-1.5v13h1.5zm4.18 4.12h-1.5v8.88h1.5zm.22-2.68c0-.54-.44-.96-.98-.96-.52 0-.96.42-.96.96 0 .52.44.96.96.96.54 0 .98-.44.98-.96zm8.76 3.92c-.42-.84-1.28-1.42-2.4-1.42-1.1 0-1.96.52-2.4 1.22v-1.04h-1.5v8.88h1.5v-6.12c.28-.96 1.06-1.58 1.96-1.58 1.14 0 1.68.82 1.68 2.06v5.64h1.5v-6.12c.28-.96 1.06-1.58 1.96-1.58 1.14 0 1.68.82 1.68 2.06v5.64h1.52v-5.88c0-1.92-1-3.18-2.8-3.18-1.24 0-2.14.62-2.7 1.42zm9.536-1.24h-1.5v8.88h1.5zm.22-2.68c0-.54-.44-.96-.98-.96-.52 0-.96.42-.96.96 0 .52.44.96.96.96.54 0 .98-.44.98-.96zm2.459 11.56h1.5v-6.02c.32-.96 1.22-1.66 2.26-1.66 1.34 0 1.96.86 1.96 2.1v5.58h1.52v-5.82c0-1.94-1.1-3.24-3.12-3.24-1.14 0-2.1.6-2.62 1.3v-1.12h-1.5zm16.226 0v-5.92c0-1.94-1.26-3.14-3.38-3.14-1.7 0-3.02 1.02-3.32 2.52h1.48c.28-.82.88-1.22 1.82-1.22 1.28 0 1.96.8 1.96 1.9v1.12c-.38-.34-1.32-.72-2.24-.72-1.9 0-3.4 1.12-3.4 2.78 0 1.76 1.5 2.84 3.3 2.84 1.06 0 2-.46 2.34-.82v.66zm-1.44-2.2c-.26.66-1.16 1.1-2.08 1.1-1.08 0-2.12-.5-2.12-1.58 0-1.06 1.04-1.54 2.12-1.54.92 0 1.82.44 2.08 1.1zm8.564-6.72c-.16-.08-.48-.14-.86-.14-.98 0-1.82.58-2.2 1.34v-1.16h-1.5v8.88h1.5v-5.96c.3-1.04 1.12-1.66 2.06-1.66.379 0 .76.08 1 .24zm4.485 12.32 4.78-12.28h-1.56l-2.58 7-2.62-7h-1.62l3.46 8.94-1.34 3.34zm15.456-12.32c-.16-.08-.48-.14-.86-.14-.98 0-1.82.58-2.2 1.34v-1.16h-1.5v8.88h1.5v-5.96c.3-1.04 1.12-1.66 2.06-1.66.38 0 .76.08 1 .24zm8.946.04h-1.52v6.02c-.32.96-1.18 1.66-2.22 1.66-1.34 0-1.94-.86-1.94-2.1v-5.58h-1.52v5.82c0 1.94 1.08 3.24 3.1 3.24 1.14 0 2.08-.6 2.58-1.3v1.12h1.52zm4.166-4.12h-1.5v13h1.5zm4.179 4.12h-1.5v8.88h1.5zm.22-2.68c0-.54-.44-.96-.98-.96-.52 0-.96.42-.96.96 0 .52.44.96.96.96.54 0 .98-.44.98-.96zm2.46 11.56h1.5v-6.02c.32-.96 1.22-1.66 2.26-1.66 1.34 0 1.96.86 1.96 2.1v5.58h1.52v-5.82c0-1.94-1.1-3.24-3.12-3.24-1.14 0-2.1.6-2.62 1.3v-1.12h-1.5zm15.605-.6c0 1.92-.84 2.92-2.44 2.92-1.22 0-2.06-.54-2.32-1.66h-1.48c.28 1.82 1.64 2.94 3.8 2.94 2.28 0 3.96-1.38 3.96-4.3v-8.18h-1.52v1c-.44-.62-1.38-1.18-2.48-1.18-2.6 0-3.98 2.14-3.98 4.5 0 2.34 1.38 4.5 3.98 4.5 1.1 0 2.04-.58 2.48-1.2zm0-2.2c-.46.84-1.3 1.38-2.26 1.38-1.68 0-2.66-1.32-2.66-3.14 0-1.84.98-3.16 2.66-3.16.96 0 1.8.54 2.26 1.38zm14.914-4.84c-.42-.84-1.28-1.42-2.4-1.42-1.1 0-1.96.52-2.4 1.22v-1.04h-1.5v8.88h1.5v-6.12c.28-.96 1.06-1.58 1.96-1.58 1.14 0 1.68.82 1.68 2.06v5.64h1.5v-6.12c.28-.96 1.06-1.58 1.96-1.58 1.14 0 1.68.82 1.68 2.06v5.64h1.52v-5.88c0-1.92-1-3.18-2.8-3.18-1.24 0-2.14.62-2.7 1.42zm14.476 7.64v-5.92c0-1.94-1.26-3.14-3.38-3.14-1.7 0-3.02 1.02-3.32 2.52h1.48c.28-.82.88-1.22 1.82-1.22 1.28 0 1.96.8 1.96 1.9v1.12c-.38-.34-1.32-.72-2.24-.72-1.9 0-3.4 1.12-3.4 2.78 0 1.76 1.5 2.84 3.3 2.84 1.06 0 2-.46 2.34-.82v.66zm-1.44-2.2c-.26.66-1.16 1.1-2.08 1.1-1.08 0-2.12-.5-2.12-1.58 0-1.06 1.04-1.54 2.12-1.54.92 0 1.82.44 2.08 1.1zm9.844 2.2h1.84l-4.14-5.04 4-3.84h-1.98l-4.06 3.94v-8.06h-1.5v13h1.5v-3.18l.96-.92zm4.937-8.88h-1.5v8.88h1.5zm.22-2.68c0-.54-.44-.96-.98-.96-.52 0-.96.42-.96.96 0 .52.44.96.96.96.54 0 .98-.44.98-.96zm2.46 11.56h1.5v-6.02c.32-.96 1.22-1.66 2.26-1.66 1.34 0 1.96.86 1.96 2.1v5.58h1.52v-5.82c0-1.94-1.1-3.24-3.12-3.24-1.14 0-2.1.6-2.62 1.3v-1.12h-1.5zm15.605-.6c0 1.92-.84 2.92-2.44 2.92-1.22 0-2.06-.54-2.32-1.66h-1.48c.28 1.82 1.64 2.94 3.8 2.94 2.28 0 3.96-1.38 3.96-4.3v-8.18h-1.52v1c-.44-.62-1.38-1.18-2.48-1.18-2.6 0-3.98 2.14-3.98 4.5 0 2.34 1.38 4.5 3.98 4.5 1.1 0 2.04-.58 2.48-1.2zm0-2.2c-.46.84-1.3 1.38-2.26 1.38-1.68 0-2.66-1.32-2.66-3.14 0-1.84.98-3.16 2.66-3.16.96 0 1.8.54 2.26 1.38zm9.034.56c0 1.64 1 2.42 2.44 2.42.54 0 1.06-.12 1.4-.3v-1.4c-.3.2-.74.36-1.16.36-.76 0-1.18-.38-1.18-1.24v-5.2h2.14v-1.28h-2.14v-2.34h-1.5v2.34h-1.44v1.28h1.44zm5.927 2.24h1.5v-6.02c.32-.96 1.22-1.66 2.26-1.66 1.34 0 1.96.86 1.96 2.1v5.58h1.52v-5.82c0-1.94-1.1-3.24-3.12-3.24-1.14 0-2.1.6-2.62 1.3v-5.24h-1.5zm15.385-2.66c-.24 1-1.06 1.56-2.16 1.56-1.5 0-2.56-1.16-2.58-3.06h6.28v-.54c0-2.58-1.3-4.36-3.74-4.36-2.42 0-4.04 1.98-4.04 4.64 0 2.74 1.66 4.6 4.08 4.6 2 0 3.26-1.16 3.58-2.84zm-2.18-5.12c1.48 0 2.18 1.16 2.2 2.48h-4.72c.22-1.56 1.18-2.48 2.52-2.48zm14.575-5.2c-.34-.14-.68-.2-1.16-.2-1.56 0-2.72 1.04-2.72 2.82v1.48h-1.5v1.28h1.5v7.6h1.48v-7.6h2v-1.28h-2v-1.36c0-1.06.58-1.62 1.46-1.62.32 0 .66.06.94.24zm2.841 4.1h-1.5v8.88h1.5zm.22-2.68c0-.54-.44-.96-.98-.96-.52 0-.96.42-.96.96 0 .52.44.96.96.96.54 0 .98-.44.98-.96zm2.46 11.56h1.5v-6.02c.32-.96 1.22-1.66 2.26-1.66 1.34 0 1.96.86 1.96 2.1v5.58h1.52v-5.82c0-1.94-1.1-3.24-3.12-3.24-1.14 0-2.1.6-2.62 1.3v-1.12h-1.5zm16.225 0v-5.92c0-1.94-1.26-3.14-3.38-3.14-1.7 0-3.02 1.02-3.32 2.52h1.48c.28-.82.88-1.22 1.82-1.22 1.28 0 1.96.8 1.96 1.9v1.12c-.38-.34-1.32-.72-2.24-.72-1.9 0-3.4 1.12-3.4 2.78 0 1.76 1.5 2.84 3.3 2.84 1.06 0 2-.46 2.34-.82v.66zm-1.44-2.2c-.26.66-1.16 1.1-2.08 1.1-1.08 0-2.12-.5-2.12-1.58 0-1.06 1.04-1.54 2.12-1.54.92 0 1.82.44 2.08 1.1zm5.504-10.8h-1.5v13h1.5zm11.654 4.08c-.16-.08-.48-.14-.86-.14-.98 0-1.82.58-2.2 1.34v-1.16h-1.5v8.88h1.5v-5.96c.3-1.04 1.12-1.66 2.06-1.66.38 0 .76.08 1 .24zm8.946.04h-1.52v6.02c-.32.96-1.18 1.66-2.22 1.66-1.34 0-1.94-.86-1.94-2.1v-5.58h-1.52v5.82c0 1.94 1.08 3.24 3.1 3.24 1.14 0 2.08-.6 2.58-1.3v1.12h1.52zm4.166-4.12h-1.5v13h1.5zm4.179 4.12h-1.5v8.88h1.5zm.22-2.68c0-.54-.44-.96-.98-.96-.52 0-.96.42-.96.96 0 .52.44.96.96.96.54 0 .98-.44.98-.96zm2.46 11.56h1.5v-6.02c.32-.96 1.22-1.66 2.26-1.66 1.34 0 1.96.86 1.96 2.1v5.58h1.52v-5.82c0-1.94-1.1-3.24-3.12-3.24-1.14 0-2.1.6-2.62 1.3v-1.12h-1.5zm15.605-.6c0 1.92-.84 2.92-2.44 2.92-1.22 0-2.06-.54-2.32-1.66h-1.48c.28 1.82 1.64 2.94 3.8 2.94 2.28 0 3.96-1.38 3.96-4.3v-8.18h-1.52v1c-.44-.62-1.38-1.18-2.48-1.18-2.6 0-3.98 2.14-3.98 4.5 0 2.34 1.38 4.5 3.98 4.5 1.1 0 2.04-.58 2.48-1.2zm0-2.2c-.46.84-1.3 1.38-2.26 1.38-1.68 0-2.66-1.32-2.66-3.14 0-1.84.98-3.16 2.66-3.16.96 0 1.8.54 2.26 1.38zm10.114-6.08h-1.5v8.88h1.5zm.22-2.68c0-.54-.44-.96-.98-.96-.52 0-.96.42-.96.96 0 .52.44.96.96.96.54 0 .98-.44.98-.96zm2.459 11.56h1.5v-6.02c.32-.96 1.22-1.66 2.26-1.66 1.34 0 1.96.86 1.96 2.1v5.58h1.52v-5.82c0-1.94-1.1-3.24-3.12-3.24-1.14 0-2.1.6-2.62 1.3v-1.12h-1.5zm18.64-12.98c-.34-.14-.68-.2-1.16-.2-1.56 0-2.72 1.04-2.72 2.82v1.48h-1.5v1.28h1.5v7.6h1.48v-7.6h2v-1.28h-2v-1.36c0-1.06.58-1.62 1.46-1.62.32 0 .66.06.94.24zm7.586 12.98v-5.92c0-1.94-1.26-3.14-3.38-3.14-1.7 0-3.02 1.02-3.32 2.52h1.48c.28-.82.88-1.22 1.82-1.22 1.28 0 1.96.8 1.96 1.9v1.12c-.38-.34-1.32-.72-2.24-.72-1.9 0-3.4 1.12-3.4 2.78 0 1.76 1.5 2.84 3.3 2.84 1.06 0 2-.46 2.34-.82v.66zm-1.44-2.2c-.26.66-1.16 1.1-2.08 1.1-1.08 0-2.12-.5-2.12-1.58 0-1.06 1.04-1.54 2.12-1.54.92 0 1.82.44 2.08 1.1zm7.787 2.2 3.46-8.88h-1.58l-2.58 6.98-2.6-6.98h-1.62l3.44 8.88zm12.526-4.44c0-2.72-1.66-4.62-4.08-4.62-2.44 0-4.08 1.9-4.08 4.62s1.64 4.62 4.08 4.62c2.42 0 4.08-1.9 4.08-4.62zm-1.52 0c0 1.94-.96 3.3-2.56 3.3s-2.56-1.36-2.56-3.3.96-3.3 2.56-3.3 2.56 1.36 2.56 3.3zm8.11-4.48c-.16-.08-.48-.14-.86-.14-.98 0-1.82.58-2.2 1.34v-1.16h-1.5v8.88h1.5v-5.96c.3-1.04 1.12-1.66 2.06-1.66.38 0 .76.08 1 .24zm13.8 4.48c0-2.72-1.66-4.62-4.08-4.62-2.44 0-4.08 1.9-4.08 4.62s1.64 4.62 4.08 4.62c2.42 0 4.08-1.9 4.08-4.62zm-1.52 0c0 1.94-.96 3.3-2.56 3.3s-2.56-1.36-2.56-3.3.96-3.3 2.56-3.3 2.56 1.36 2.56 3.3zm7.991-8.54c-.34-.14-.68-.2-1.16-.2-1.56 0-2.72 1.04-2.72 2.82v1.48h-1.5v1.28h1.5v7.6h1.48v-7.6h2v-1.28h-2v-1.36c0-1.06.58-1.62 1.46-1.62.32 0 .66.06.94.24zm-623.685 27.7-4.8 12.28h1.6l1.4-3.7h5.06l1.42 3.7h1.6l-4.8-12.28zm.72 1.96 2 5.24h-4zm8.8141-2.68h-1.5v13h1.5zm4.1797 4.12h-1.5v8.88h1.5zm.22-2.68c0-.54-.44-.96-.98-.96-.52 0-.96.42-.96.96 0 .52.44.96.96.96.54 0 .98-.44.98-.96zm1.8196 7.12c0 2.76 1.66 4.62 4.04 4.62 2 0 3.26-1.16 3.56-2.86h-1.54c-.2.96-.96 1.54-2.02 1.54-1.52 0-2.52-1.36-2.52-3.3s1-3.3 2.52-3.3c1.06 0 1.82.58 2.02 1.54h1.54c-.3-1.7-1.56-2.86-3.56-2.86-2.38 0-4.04 1.86-4.04 4.62zm15.1268 1.78c-.24 1-1.06 1.56-2.16 1.56-1.5 0-2.56-1.16-2.58-3.06h6.28v-.54c0-2.58-1.3-4.36-3.74-4.36-2.42 0-4.04 1.98-4.04 4.64 0 2.74 1.66 4.6 4.08 4.6 2 0 3.26-1.16 3.58-2.84zm-2.18-5.12c1.48 0 2.18 1.16 2.2 2.48h-4.72c.22-1.56 1.18-2.48 2.52-2.48zm5.0206 6.8c0 .62.48 1.08 1.08 1.08.58 0 1.06-.46 1.06-1.08s-.48-1.1-1.06-1.1c-.6 0-1.08.48-1.08 1.1zm18.1922-11.3h-1.5v9.34l-6.54-9.34h-1.5002v12.28h1.5202v-9.76l6.86 9.76h1.16zm10.321 7.84c0-2.72-1.66-4.62-4.08-4.62-2.44 0-4.08 1.9-4.08 4.62s1.64 4.62 4.08 4.62c2.42 0 4.08-1.9 4.08-4.62zm-1.52 0c0 1.94-.96 3.3-2.56 3.3s-2.56-1.36-2.56-3.3.96-3.3 2.56-3.3 2.56 1.36 2.56 3.3zm9.191-4.44h-1.34l-1.82 6.78-1.96-6.78h-1.5l2.62 8.88h1.46l1.86-6.74 1.84 6.74h1.46l2.62-8.88h-1.46l-1.96 6.78zm17.792 8.88v-5.92c0-1.94-1.26-3.14-3.38-3.14-1.7 0-3.02 1.02-3.32 2.52h1.48c.28-.82.88-1.22 1.82-1.22 1.28 0 1.96.8 1.96 1.9v1.12c-.38-.34-1.32-.72-2.24-.72-1.9 0-3.4 1.12-3.4 2.78 0 1.76 1.5 2.84 3.3 2.84 1.06 0 2-.46 2.34-.82v.66zm-1.44-2.2c-.26.66-1.16 1.1-2.08 1.1-1.08 0-2.12-.5-2.12-1.58 0-1.06 1.04-1.54 2.12-1.54.92 0 1.82.44 2.08 1.1zm5.504-10.8h-1.5v13h1.5zm4.179 0h-1.5v13h1.5zm7.514 10.76c0 1.64 1 2.42 2.44 2.42.54 0 1.06-.12 1.4-.3v-1.4c-.3.2-.74.36-1.16.36-.76 0-1.18-.38-1.18-1.24v-5.2h2.14v-1.28h-2.14v-2.34h-1.5v2.34h-1.44v1.28h1.44zm5.928 2.24h1.5v-6.02c.32-.96 1.22-1.66 2.26-1.66 1.34 0 1.96.86 1.96 2.1v5.58h1.52v-5.82c0-1.94-1.1-3.24-3.12-3.24-1.14 0-2.1.6-2.62 1.3v-5.24h-1.5zm15.385-2.66c-.24 1-1.06 1.56-2.16 1.56-1.5 0-2.56-1.16-2.58-3.06h6.28v-.54c0-2.58-1.3-4.36-3.74-4.36-2.42 0-4.04 1.98-4.04 4.64 0 2.74 1.66 4.6 4.08 4.6 2 0 3.26-1.16 3.58-2.84zm-2.18-5.12c1.48 0 2.18 1.16 2.2 2.48h-4.72c.22-1.56 1.18-2.48 2.52-2.48zm16.575 7.78v-5.92c0-1.94-1.26-3.14-3.38-3.14-1.7 0-3.02 1.02-3.32 2.52h1.48c.28-.82.88-1.22 1.82-1.22 1.28 0 1.96.8 1.96 1.9v1.12c-.38-.34-1.32-.72-2.24-.72-1.9 0-3.4 1.12-3.4 2.78 0 1.76 1.5 2.84 3.3 2.84 1.06 0 2-.46 2.34-.82v.66zm-1.44-2.2c-.26.66-1.16 1.1-2.08 1.1-1.08 0-2.12-.5-2.12-1.58 0-1.06 1.04-1.54 2.12-1.54.92 0 1.82.44 2.08 1.1zm9.863 2.2h1.52v-13h-1.52v5.16c-.44-.64-1.4-1.22-2.5-1.22-2.6 0-4 2.12-4 4.62 0 2.52 1.4 4.62 4 4.62 1.1 0 2.06-.58 2.5-1.22zm0-2.64c-.46.92-1.34 1.46-2.28 1.46-1.7 0-2.7-1.38-2.7-3.26s1-3.26 2.7-3.26c.94 0 1.82.54 2.28 1.46zm5.68-6.24h-1.5v9.8c0 1-.42 1.36-1.2 1.36-.18 0-.4-.04-.52-.06v1.28c.16.06.46.08.64.08 1.66 0 2.58-.9 2.58-2.56zm.22-2.68c0-.54-.44-.96-.98-.96-.52 0-.96.42-.96.96 0 .52.44.96.96.96.54 0 .98-.44.98-.96zm9.5 2.68h-1.52v6.02c-.32.96-1.18 1.66-2.22 1.66-1.34 0-1.94-.86-1.94-2.1v-5.58h-1.52v5.82c0 1.94 1.08 3.24 3.1 3.24 1.14 0 2.08-.6 2.58-1.3v1.12h1.52zm8.526 8.88h1.52v-13h-1.52v5.16c-.44-.64-1.4-1.22-2.5-1.22-2.6 0-4 2.12-4 4.62 0 2.52 1.4 4.62 4 4.62 1.1 0 2.06-.58 2.5-1.22zm0-2.64c-.46.92-1.34 1.46-2.28 1.46-1.7 0-2.7-1.38-2.7-3.26s1-3.26 2.7-3.26c.94 0 1.82.54 2.28 1.46zm5.679-6.24h-1.5v8.88h1.5zm.22-2.68c0-.54-.44-.96-.98-.96-.52 0-.96.42-.96.96 0 .52.44.96.96.96.54 0 .98-.44.98-.96zm1.82 7.12c0 2.76 1.66 4.62 4.04 4.62 2 0 3.26-1.16 3.56-2.86h-1.54c-.2.96-.96 1.54-2.02 1.54-1.52 0-2.52-1.36-2.52-3.3s1-3.3 2.52-3.3c1.06 0 1.82.58 2.02 1.54h1.54c-.3-1.7-1.56-2.86-3.56-2.86-2.38 0-4.04 1.86-4.04 4.62zm16.006 4.44v-5.92c0-1.94-1.26-3.14-3.38-3.14-1.7 0-3.02 1.02-3.32 2.52h1.48c.28-.82.88-1.22 1.82-1.22 1.28 0 1.96.8 1.96 1.9v1.12c-.38-.34-1.32-.72-2.24-.72-1.9 0-3.4 1.12-3.4 2.78 0 1.76 1.5 2.84 3.3 2.84 1.06 0 2-.46 2.34-.82v.66zm-1.44-2.2c-.26.66-1.16 1.1-2.08 1.1-1.08 0-2.12-.5-2.12-1.58 0-1.06 1.04-1.54 2.12-1.54.92 0 1.82.44 2.08 1.1zm4.365-.04c0 1.64 1 2.42 2.44 2.42.54 0 1.06-.12 1.4-.3v-1.4c-.3.2-.74.36-1.16.36-.76 0-1.18-.38-1.18-1.24v-5.2h2.14v-1.28h-2.14v-2.34h-1.5v2.34h-1.44v1.28h1.44zm7.428-6.64h-1.5v8.88h1.5zm.22-2.68c0-.54-.44-.96-.98-.96-.52 0-.96.42-.96.96 0 .52.44.96.96.96.54 0 .98-.44.98-.96zm9.979 7.12c0-2.72-1.66-4.62-4.08-4.62-2.44 0-4.08 1.9-4.08 4.62s1.64 4.62 4.08 4.62c2.42 0 4.08-1.9 4.08-4.62zm-1.52 0c0 1.94-.96 3.3-2.56 3.3s-2.56-1.36-2.56-3.3.96-3.3 2.56-3.3 2.56 1.36 2.56 3.3zm3.551 4.44h1.5v-6.02c.32-.96 1.22-1.66 2.26-1.66 1.34 0 1.96.86 1.96 2.1v5.58h1.52v-5.82c0-1.94-1.1-3.24-3.12-3.24-1.14 0-2.1.6-2.62 1.3v-1.12h-1.5zm18.759-8.92c-.16-.08-.48-.14-.86-.14-.98 0-1.82.58-2.2 1.34v-1.16h-1.5v8.88h1.5v-5.96c.3-1.04 1.12-1.66 2.06-1.66.38 0 .76.08 1 .24zm9.132 4.48c0-2.72-1.66-4.62-4.08-4.62-2.44 0-4.08 1.9-4.08 4.62s1.64 4.62 4.08 4.62c2.42 0 4.08-1.9 4.08-4.62zm-1.52 0c0 1.94-.96 3.3-2.56 3.3s-2.56-1.36-2.56-3.3.96-3.3 2.56-3.3 2.56 1.36 2.56 3.3zm10.631-4.44h-1.52v6.02c-.32.96-1.18 1.66-2.22 1.66-1.34 0-1.94-.86-1.94-2.1v-5.58h-1.52v5.82c0 1.94 1.08 3.24 3.1 3.24 1.14 0 2.08-.6 2.58-1.3v1.12h1.52zm2.666 8.88h1.5v-6.02c.32-.96 1.22-1.66 2.26-1.66 1.34 0 1.96.86 1.96 2.1v5.58h1.52v-5.82c0-1.94-1.1-3.24-3.12-3.24-1.14 0-2.1.6-2.62 1.3v-1.12h-1.5zm15.645 0h1.52v-13h-1.52v5.16c-.44-.64-1.4-1.22-2.5-1.22-2.6 0-4 2.12-4 4.62 0 2.52 1.4 4.62 4 4.62 1.1 0 2.06-.58 2.5-1.22zm0-2.64c-.46.92-1.34 1.46-2.28 1.46-1.7 0-2.7-1.38-2.7-3.26s1-3.26 2.7-3.26c.94 0 1.82.54 2.28 1.46zm3.439.2c.28 1.64 1.7 2.62 3.64 2.62 1.9 0 3.3-1 3.3-2.68 0-1.24-.74-2.08-2.26-2.48l-1.72-.42c-.84-.24-1.24-.52-1.24-1.12 0-.86.82-1.28 1.7-1.28 1.08 0 1.7.46 1.96 1.26h1.5c-.32-1.56-1.48-2.52-3.44-2.52-1.8 0-3.18 1.04-3.18 2.62 0 1.38.88 2.02 2.14 2.34l1.76.46c.92.24 1.32.62 1.32 1.24 0 .9-.76 1.32-1.82 1.32-1.04 0-1.82-.44-2.1-1.36zm14.936-6.44h-1.5v8.88h1.5zm.22-2.68c0-.54-.44-.96-.98-.96-.52 0-.96.42-.96.96 0 .52.44.96.96.96.54 0 .98-.44.98-.96zm2.459 11.56h1.5v-6.02c.32-.96 1.22-1.66 2.26-1.66 1.34 0 1.96.86 1.96 2.1v5.58h1.52v-5.82c0-1.94-1.1-3.24-3.12-3.24-1.14 0-2.1.6-2.62 1.3v-1.12h-1.5zm14.62-2.24c0 1.64 1 2.42 2.44 2.42.54 0 1.06-.12 1.4-.3v-1.4c-.3.2-.74.36-1.16.36-.76 0-1.18-.38-1.18-1.24v-5.2h2.14v-1.28h-2.14v-2.34h-1.5v2.34h-1.44v1.28h1.44zm5.927 2.24h1.5v-6.02c.32-.96 1.22-1.66 2.26-1.66 1.34 0 1.96.86 1.96 2.1v5.58h1.52v-5.82c0-1.94-1.1-3.24-3.12-3.24-1.14 0-2.1.6-2.62 1.3v-5.24h-1.5zm15.385-2.66c-.24 1-1.06 1.56-2.16 1.56-1.5 0-2.56-1.16-2.58-3.06h6.28v-.54c0-2.58-1.3-4.36-3.74-4.36-2.42 0-4.04 1.98-4.04 4.64 0 2.74 1.66 4.6 4.08 4.6 2 0 3.26-1.16 3.58-2.84zm-2.18-5.12c1.48 0 2.18 1.16 2.2 2.48h-4.72c.22-1.56 1.18-2.48 2.52-2.48zm15.995 7.78h1.52v-13h-1.52v5.16c-.44-.64-1.4-1.22-2.5-1.22-2.6 0-4 2.12-4 4.62 0 2.52 1.4 4.62 4 4.62 1.1 0 2.06-.58 2.5-1.22zm0-2.64c-.46.92-1.34 1.46-2.28 1.46-1.7 0-2.7-1.38-2.7-3.26s1-3.26 2.7-3.26c.94 0 1.82.54 2.28 1.46zm5.679-6.24h-1.5v8.88h1.5zm.22-2.68c0-.54-.44-.96-.98-.96-.52 0-.96.42-.96.96 0 .52.44.96.96.96.54 0 .98-.44.98-.96zm1.72 9.12c.28 1.64 1.7 2.62 3.64 2.62 1.9 0 3.3-1 3.3-2.68 0-1.24-.74-2.08-2.26-2.48l-1.72-.42c-.84-.24-1.24-.52-1.24-1.12 0-.86.82-1.28 1.7-1.28 1.08 0 1.7.46 1.96 1.26h1.5c-.32-1.56-1.48-2.52-3.44-2.52-1.8 0-3.18 1.04-3.18 2.62 0 1.38.88 2.02 2.14 2.34l1.76.46c.92.24 1.32.62 1.32 1.24 0 .9-.76 1.32-1.82 1.32-1.04 0-1.82-.44-2.1-1.36zm10.521 1.4c.46.64 1.4 1.22 2.5 1.22 2.62 0 4-2.16 4-4.62s-1.38-4.62-4-4.62c-1.1 0-2.04.58-2.5 1.22v-1.04h-1.5v12.28h1.5zm0-5.2c.46-.92 1.34-1.46 2.28-1.46 1.7 0 2.7 1.38 2.7 3.26s-1 3.26-2.7 3.26c-.94 0-1.82-.54-2.28-1.46zm15.619-2.64h-1.52v6.02c-.32.96-1.18 1.66-2.22 1.66-1.34 0-1.94-.86-1.94-2.1v-5.58h-1.52v5.82c0 1.94 1.08 3.24 3.1 3.24 1.14 0 2.08-.6 2.58-1.3v1.12h1.52zm3.086 6.64c0 1.64 1 2.42 2.44 2.42.54 0 1.06-.12 1.4-.3v-1.4c-.3.2-.74.36-1.16.36-.76 0-1.18-.38-1.18-1.24v-5.2h2.14v-1.28h-2.14v-2.34h-1.5v2.34h-1.44v1.28h1.44zm11.43-.42c-.24 1-1.06 1.56-2.16 1.56-1.5 0-2.56-1.16-2.58-3.06h6.28v-.54c0-2.58-1.3-4.36-3.74-4.36-2.42 0-4.04 1.98-4.04 4.64 0 2.74 1.66 4.6 4.08 4.6 2 0 3.26-1.16 3.58-2.84zm-2.18-5.12c1.48 0 2.18 1.16 2.2 2.48h-4.72c.22-1.56 1.18-2.48 2.52-2.48zm9.495 3.34c0 2.76 1.66 4.62 4.04 4.62 2 0 3.26-1.16 3.56-2.86h-1.54c-.2.96-.96 1.54-2.02 1.54-1.52 0-2.52-1.36-2.52-3.3s1-3.3 2.52-3.3c1.06 0 1.82.58 2.02 1.54h1.54c-.3-1.7-1.56-2.86-3.56-2.86-2.38 0-4.04 1.86-4.04 4.62zm16.006 4.44v-5.92c0-1.94-1.26-3.14-3.38-3.14-1.7 0-3.02 1.02-3.32 2.52h1.48c.28-.82.88-1.22 1.82-1.22 1.28 0 1.96.8 1.96 1.9v1.12c-.38-.34-1.32-.72-2.24-.72-1.9 0-3.4 1.12-3.4 2.78 0 1.76 1.5 2.84 3.3 2.84 1.06 0 2-.46 2.34-.82v.66zm-1.44-2.2c-.26.66-1.16 1.1-2.08 1.1-1.08 0-2.12-.5-2.12-1.58 0-1.06 1.04-1.54 2.12-1.54.92 0 1.82.44 2.08 1.1zm4.004 2.2h1.5v-6.02c.32-.96 1.22-1.66 2.26-1.66 1.34 0 1.96.86 1.96 2.1v5.58h1.52v-5.82c0-1.94-1.1-3.24-3.12-3.24-1.14 0-2.1.6-2.62 1.3v-1.12h-1.5zm15.699-1.04c.44.64 1.4 1.22 2.5 1.22 2.6 0 4-2.1 4-4.62 0-2.5-1.4-4.62-4-4.62-1.1 0-2.06.58-2.5 1.22v-5.16h-1.52v13h1.52zm0-5.2c.46-.92 1.34-1.46 2.28-1.46 1.7 0 2.7 1.38 2.7 3.26s-1 3.26-2.7 3.26c-.94 0-1.82-.54-2.28-1.46zm14.178 3.58c-.24 1-1.06 1.56-2.16 1.56-1.5 0-2.56-1.16-2.58-3.06h6.28v-.54c0-2.58-1.3-4.36-3.74-4.36-2.42 0-4.04 1.98-4.04 4.64 0 2.74 1.66 4.6 4.08 4.6 2 0 3.26-1.16 3.58-2.84zm-2.18-5.12c1.48 0 2.18 1.16 2.2 2.48h-4.72c.22-1.56 1.18-2.48 2.52-2.48zm9.395 5.34c.28 1.64 1.7 2.62 3.64 2.62 1.9 0 3.3-1 3.3-2.68 0-1.24-.74-2.08-2.26-2.48l-1.72-.42c-.84-.24-1.24-.52-1.24-1.12 0-.86.82-1.28 1.7-1.28 1.08 0 1.7.46 1.96 1.26h1.5c-.32-1.56-1.48-2.52-3.44-2.52-1.8 0-3.18 1.04-3.18 2.62 0 1.38.88 2.02 2.14 2.34l1.76.46c.92.24 1.32.62 1.32 1.24 0 .9-.76 1.32-1.82 1.32-1.04 0-1.82-.44-2.1-1.36zm14.621-.22c-.24 1-1.06 1.56-2.16 1.56-1.5 0-2.56-1.16-2.58-3.06h6.28v-.54c0-2.58-1.3-4.36-3.74-4.36-2.42 0-4.04 1.98-4.04 4.64 0 2.74 1.66 4.6 4.08 4.6 2 0 3.26-1.16 3.58-2.84zm-2.18-5.12c1.48 0 2.18 1.16 2.2 2.48h-4.72c.22-1.56 1.18-2.48 2.52-2.48zm6.141 5.54c0 1.64 1 2.42 2.44 2.42.54 0 1.06-.12 1.4-.3v-1.4c-.3.2-.74.36-1.16.36-.76 0-1.18-.38-1.18-1.24v-5.2h2.14v-1.28h-2.14v-2.34h-1.5v2.34h-1.44v1.28h1.44zm6.347 0c0 1.64 1 2.42 2.44 2.42.54 0 1.06-.12 1.4-.3v-1.4c-.3.2-.74.36-1.16.36-.76 0-1.18-.38-1.18-1.24v-5.2h2.14v-1.28h-2.14v-2.34h-1.5v2.34h-1.44v1.28h1.44zm7.428-10.76h-1.5v13h1.5zm8.28 10.34c-.24 1-1.06 1.56-2.16 1.56-1.5 0-2.56-1.16-2.58-3.06h6.28v-.54c0-2.58-1.3-4.36-3.74-4.36-2.42 0-4.04 1.98-4.04 4.64 0 2.74 1.66 4.6 4.08 4.6 2 0 3.26-1.16 3.58-2.84zm-2.18-5.12c1.48 0 2.18 1.16 2.2 2.48h-4.72c.22-1.56 1.18-2.48 2.52-2.48zm11.619 7.78h1.52v-13h-1.52v5.16c-.44-.64-1.4-1.22-2.5-1.22-2.6 0-4 2.12-4 4.62 0 2.52 1.4 4.62 4 4.62 1.1 0 2.06-.58 2.5-1.22zm0-2.64c-.46.92-1.34 1.46-2.28 1.46-1.7 0-2.7-1.38-2.7-3.26s1-3.26 2.7-3.26c.94 0 1.82.54 2.28 1.46zm15.033 2.64v-5.92c0-1.94-1.26-3.14-3.38-3.14-1.7 0-3.02 1.02-3.32 2.52h1.48c.28-.82.88-1.22 1.82-1.22 1.28 0 1.96.8 1.96 1.9v1.12c-.38-.34-1.32-.72-2.24-.72-1.9 0-3.4 1.12-3.4 2.78 0 1.76 1.5 2.84 3.3 2.84 1.06 0 2-.46 2.34-.82v.66zm-1.44-2.2c-.26.66-1.16 1.1-2.08 1.1-1.08 0-2.12-.5-2.12-1.58 0-1.06 1.04-1.54 2.12-1.54.92 0 1.82.44 2.08 1.1zm4.004 2.2h1.5v-6.02c.32-.96 1.22-1.66 2.26-1.66 1.34 0 1.96.86 1.96 2.1v5.58h1.52v-5.82c0-1.94-1.1-3.24-3.12-3.24-1.14 0-2.1.6-2.62 1.3v-1.12h-1.5zm15.645 0h1.52v-13h-1.52v5.16c-.44-.64-1.4-1.22-2.5-1.22-2.6 0-4 2.12-4 4.62 0 2.52 1.4 4.62 4 4.62 1.1 0 2.06-.58 2.5-1.22zm0-2.64c-.46.92-1.34 1.46-2.28 1.46-1.7 0-2.7-1.38-2.7-3.26s1-3.26 2.7-3.26c.94 0 1.82.54 2.28 1.46zm13.154-6.28c-.16-.08-.48-.14-.86-.14-.98 0-1.82.58-2.2 1.34v-1.16h-1.5v8.88h1.5v-5.96c.3-1.04 1.12-1.66 2.06-1.66.38 0 .76.08 1 .24zm7.211 6.26c-.24 1-1.06 1.56-2.16 1.56-1.5 0-2.56-1.16-2.58-3.06h6.28v-.54c0-2.58-1.3-4.36-3.74-4.36-2.42 0-4.04 1.98-4.04 4.64 0 2.74 1.66 4.6 4.08 4.6 2 0 3.26-1.16 3.58-2.84zm-2.18-5.12c1.48 0 2.18 1.16 2.2 2.48h-4.72c.22-1.56 1.18-2.48 2.52-2.48zm11.361-1.1h-1.34l-1.82 6.78-1.96-6.78h-1.5l2.62 8.88h1.46l1.86-6.74 1.84 6.74h1.46l2.62-8.88h-1.46l-1.96 6.78zm13.32 8.88v-5.92c0-1.94-1.26-3.14-3.38-3.14-1.7 0-3.02 1.02-3.32 2.52h1.48c.28-.82.88-1.22 1.82-1.22 1.28 0 1.96.8 1.96 1.9v1.12c-.38-.34-1.32-.72-2.24-.72-1.9 0-3.4 1.12-3.4 2.78 0 1.76 1.5 2.84 3.3 2.84 1.06 0 2-.46 2.34-.82v.66zm-1.44-2.2c-.26.66-1.16 1.1-2.08 1.1-1.08 0-2.12-.5-2.12-1.58 0-1.06 1.04-1.54 2.12-1.54.92 0 1.82.44 2.08 1.1zm8.564-6.72c-.16-.08-.48-.14-.86-.14-.98 0-1.82.58-2.2 1.34v-1.16h-1.5v8.88h1.5v-5.96c.3-1.04 1.12-1.66 2.06-1.66.379 0 .76.08 1 .24zm7.471 8.92h1.52v-13h-1.52v5.16c-.44-.64-1.4-1.22-2.5-1.22-2.6 0-4 2.12-4 4.62 0 2.52 1.4 4.62 4 4.62 1.1 0 2.06-.58 2.5-1.22zm0-2.64c-.46.92-1.34 1.46-2.28 1.46-1.7 0-2.7-1.38-2.7-3.26s1-3.26 2.7-3.26c.94 0 1.82.54 2.28 1.46zm3.439.2c.28 1.64 1.7 2.62 3.64 2.62 1.9 0 3.3-1 3.3-2.68 0-1.24-.74-2.08-2.26-2.48l-1.72-.42c-.84-.24-1.24-.52-1.24-1.12 0-.86.82-1.28 1.7-1.28 1.08 0 1.7.46 1.96 1.26h1.5c-.32-1.56-1.48-2.52-3.44-2.52-1.8 0-3.18 1.04-3.18 2.62 0 1.38.88 2.02 2.14 2.34l1.76.46c.92.24 1.32.62 1.32 1.24 0 .9-.76 1.32-1.82 1.32-1.04 0-1.82-.44-2.1-1.36zm-596.843 29.44v-5.92c0-1.94-1.26-3.14-3.38-3.14-1.7 0-3.02 1.02-3.32 2.52h1.48c.28-.82.88-1.22 1.82-1.22 1.28 0 1.96.8 1.96 1.9v1.12c-.38-.34-1.32-.72-2.24-.72-1.9 0-3.4 1.12-3.4 2.78 0 1.76 1.5 2.84 3.3 2.84 1.06 0 2-.46 2.34-.82v.66zm-1.44-2.2c-.26.66-1.16 1.1-2.08 1.1-1.08 0-2.12-.5-2.12-1.58 0-1.06 1.04-1.54 2.12-1.54.92 0 1.82.44 2.08 1.1zm5.5039-10.8h-1.5v13h1.5zm4.1797 0h-1.5v13h1.5zm10.1997 8.56c0-2.72-1.66-4.62-4.08-4.62-2.44 0-4.08 1.9-4.08 4.62s1.64 4.62 4.08 4.62c2.42 0 4.08-1.9 4.08-4.62zm-1.52 0c0 1.94-.96 3.3-2.56 3.3s-2.56-1.36-2.56-3.3.96-3.3 2.56-3.3 2.56 1.36 2.56 3.3zm2.9498 0c0 2.76 1.66 4.62 4.04 4.62 2 0 3.26-1.16 3.56-2.86h-1.54c-.2.96-.96 1.54-2.02 1.54-1.52 0-2.52-1.36-2.52-3.3s1-3.3 2.52-3.3c1.06 0 1.82.58 2.02 1.54h1.54c-.3-1.7-1.56-2.86-3.56-2.86-2.38 0-4.04 1.86-4.04 4.62zm16.0058 4.44v-5.92c0-1.94-1.26-3.14-3.38-3.14-1.7 0-3.02 1.02-3.32 2.52h1.48c.28-.82.88-1.22 1.82-1.22 1.28 0 1.96.8 1.96 1.9v1.12c-.38-.34-1.32-.72-2.24-.72-1.9 0-3.4 1.12-3.4 2.78 0 1.76 1.5 2.84 3.3 2.84 1.06 0 2-.46 2.34-.82v.66zm-1.44-2.2c-.26.66-1.16 1.1-2.08 1.1-1.08 0-2.12-.5-2.12-1.58 0-1.06 1.04-1.54 2.12-1.54.92 0 1.82.44 2.08 1.1zm4.3653-.04c0 1.64 1 2.42 2.4398 2.42.54 0 1.06-.12 1.4-.3v-1.4c-.3.2-.74.36-1.16.36-.76 0-1.18-.38-1.18-1.24v-5.2h2.14v-1.28h-2.14v-2.34h-1.4998v2.34h-1.44v1.28h1.44zm11.4298-.42c-.24 1-1.06 1.56-2.16 1.56-1.5 0-2.56-1.16-2.58-3.06h6.28v-.54c0-2.58-1.3-4.36-3.74-4.36-2.42 0-4.04 1.98-4.04 4.64 0 2.74 1.66 4.6 4.08 4.6 2 0 3.26-1.16 3.58-2.84zm-2.18-5.12c1.48 0 2.18 1.16 2.2 2.48h-4.72c.22-1.56 1.18-2.48 2.52-2.48zm11.62 7.78h1.52v-13h-1.52v5.16c-.44-.64-1.4-1.22-2.5-1.22-2.6 0-4 2.12-4 4.62 0 2.52 1.4 4.62 4 4.62 1.1 0 2.06-.58 2.5-1.22zm0-2.64c-.46.92-1.34 1.46-2.28 1.46-1.7 0-2.7-1.38-2.7-3.26s1-3.26 2.7-3.26c.94 0 1.82.54 2.28 1.46zm3.479 1.66c0 .62.48 1.08 1.08 1.08.58 0 1.06-.46 1.06-1.08s-.48-1.1-1.06-1.1c-.6 0-1.08.48-1.08 1.1z" fill="#1c1c1c"/><g fill="#7fdfa6"><path d="m328 230.5 3.75-4.763v9.526z" opacity=".6"/><path d="m320 230.5 3.75-4.763v9.526z" opacity=".7"/><path d="m312 230.5 3.75-4.763v9.526z" opacity=".8"/><path d="m304 230.5 3.75-4.763v9.526z"/><path d="m296 230.5 3.75-4.763v9.526z"/><circle cx="249" cy="231" r="39"/><circle cx="249" cy="231" opacity=".2" r="69"/><circle cx="249" cy="231" opacity=".05" r="104"/></g><path d="m264.581 247.877c0-8.445-6.846-15.291-15.291-15.291-8.444 0-15.29 6.846-15.29 15.291" stroke="#f9fafc" stroke-width="5"/><circle cx="249.195" cy="218.195" fill="#f9fafc" r="7.19549"/><circle cx="533" cy="231" fill="#ff7c7c" r="39"/><path d="m548.581 247.877c0-8.445-6.846-15.291-15.291-15.291-8.444 0-15.29 6.846-15.29 15.291" stroke="#f9fafc" stroke-width="5"/><circle cx="533.195" cy="218.195" fill="#f9fafc" r="7.19549"/><circle cx="390.773" cy="230.773" fill="#8987ff" r="49.7726"/><path d="m409.094 206v37.953l-9.434 2.051-2.051 9.434h-24.609v-49.438z" fill="#bfbeff"/><path d="m409.094 206v37.953l-9.434 2.051-2.051 9.434h-24.609v-49.438z" fill="#c8c7ff"/><path d="m397.609 243.953v11.485l11.485-11.485z" fill="#eef"/><rect fill="#8987ff" fill-opacity=".6" height="3" rx="1.5" width="28" x="377" y="211"/><rect fill="#8987ff" fill-opacity=".4" height="3" rx="1.5" width="28" x="377" y="218"/><rect fill="#8987ff" height="3" opacity=".3" rx="1.5" width="28" x="377" y="225"/><rect fill="#8987ff" height="3" opacity=".2" rx="1.5" width="28" x="377" y="232"/></svg>