<svg fill="none" height="545" viewBox="0 0 782 545" width="782" xmlns="http://www.w3.org/2000/svg" xmlns:xlink="http://www.w3.org/1999/xlink"><filter id="a" color-interpolation-filters="sRGB" filterUnits="userSpaceOnUse" height="545" width="782" x="0" y="0"><feFlood flood-opacity="0" result="BackgroundImageFix"/><feColorMatrix in="SourceAlpha" type="matrix" values="0 0 0 0 0 0 0 0 0 0 0 0 0 0 0 0 0 0 127 0"/><feOffset dy="3"/><feGaussianBlur stdDeviation="8.5"/><feColorMatrix type="matrix" values="0 0 0 0 0 0 0 0 0 0 0 0 0 0 0 0 0 0 0.1 0"/><feBlend in2="BackgroundImageFix" mode="normal" result="effect1_dropShadow"/><feBlend in="SourceGraphic" in2="effect1_dropShadow" mode="normal" result="shape"/></filter><mask id="b" height="511" maskUnits="userSpaceOnUse" width="748" x="17" y="14"><rect fill="#fff" height="511" rx="6" width="748" x="17" y="14"/></mask><g filter="url(#a)"><rect fill="#fff" height="511" rx="6" width="748" x="17" y="14"/></g><g mask="url(#b)" stroke="#ffa776" stroke-width="1.5"><circle cx="392.5" cy="270.5" opacity=".5" r="223.216"/><circle cx="392.5" cy="270.5" opacity=".3" r="255.045"/><circle cx="392.5" cy="270.5" opacity=".15" r="286.098"/><circle cx="392.5" cy="270.5" opacity=".1" r="317.75"/></g><g fill="#ffa776"><path d="m391.5 172-4.763-3.75h9.526z" opacity=".6"/><path d="m391.5 180-4.763-3.75h9.526z" opacity=".7"/><path d="m391.5 188-4.763-3.75h9.526z" opacity=".8"/><path d="m391.5 196-4.763-3.75h9.526z"/><path d="m391.5 204-4.763-3.75h9.526z"/><path d="m324.421 338.318 1.337 5.913-7.398-6.001z" opacity=".6"/><path d="m329.46 332.105 1.338 5.913-7.399-6.001z" opacity=".7"/><path d="m334.5 325.891 1.337 5.913-7.399-6z" opacity=".8"/><path d="m339.539 319.678 1.337 5.913-7.399-6.001z"/><path d="m344.578 313.464 1.337 5.913-7.399-6z"/><path d="m456.428 338.318-1.337 5.913 7.399-6.001z" opacity=".6"/><path d="m451.389 332.105-1.337 5.913 7.399-6.001z" opacity=".7"/><path d="m446.35 325.891-1.337 5.913 7.399-6z" opacity=".8"/><path d="m441.311 319.678-1.338 5.913 7.399-6.001z"/><path d="m436.272 313.464-1.338 5.913 7.399-6z"/><circle cx="287" cy="385" r="39"/><circle cx="495" cy="385" r="39"/></g><circle cx="390.773" cy="263.773" fill="#8987ff" r="49.7726"/><path d="m413.094 241v37.953l-9.434 2.051-2.051 9.434h-24.609v-49.438z" fill="#bfbeff"/><path d="m413.094 241v37.953l-9.434 2.051-2.051 9.434h-24.609v-49.438z" fill="#a6a5ff" opacity=".6"/><path d="m401.609 278.953v11.485l11.485-11.485z" fill="#eef"/><rect fill="#8987ff" fill-opacity=".6" height="3" rx="1.5" width="28" x="381" y="246"/><rect fill="#8987ff" fill-opacity=".4" height="3" rx="1.5" width="28" x="381" y="253"/><rect fill="#8987ff" height="3" opacity=".3" rx="1.5" width="28" x="381" y="260"/><rect fill="#8987ff" height="3" opacity=".2" rx="1.5" width="28" x="381" y="267"/><circle cx="391" cy="119" fill="#ffa776" r="39"/><path d="m398.108 123.748h10.4486v8.40782h-10.4486z" fill="#f9fafc" transform="matrix(.70064904 -.71350608 .71350608 .70064904 30.879061 321.096559)"/><path d="m394.536 120.455h10.4486v2.88173h-10.4486z" fill="#f9fafc" transform="matrix(.70064904 -.71350608 .71350608 .70064904 32.159355 317.562152)"/><path d="m405.623 131.038h10.4486v2.88173h-10.4486z" fill="#f9fafc" transform="matrix(.70064904 -.71350608 .71350608 .70064904 27.927224 328.640825)"/><path d="m397.542 127.868h3.58732v10.7917h-3.58732z" fill="#f9fafc" transform="matrix(.71519278 .69892725 -.69892725 .71519278 202.593263 -241.435205)"/><path d="m375 134.7c0-8.862 7.184-16.046 16.047-16.046" stroke="#f9fafc" stroke-width="5"/><circle cx="391.047" cy="103.551" fill="#f9fafc" r="7.5513"/><path d="m294.108 389.748h10.4486v8.40782h-10.4486z" fill="#f9fafc" transform="matrix(.70064904 -.71350608 .71350608 .70064904 -190.046054 326.519282)"/><path d="m290.536 386.455h10.4486v2.88173h-10.4486z" fill="#f9fafc" transform="matrix(.70064904 -.71350608 .71350608 .70064904 -188.76576 322.984875)"/><path d="m301.623 397.038h10.4486v2.88173h-10.4486z" fill="#f9fafc" transform="matrix(.70064904 -.71350608 .71350608 .70064904 -192.997891 334.063548)"/><path d="m293.542 393.868h3.58732v10.7917h-3.58732z" fill="#f9fafc" transform="matrix(.71519278 .69892725 -.69892725 .71519278 358.887959 -92.988049)"/><path d="m271 400.7c0-8.862 7.184-16.046 16.047-16.046" stroke="#f9fafc" stroke-width="5"/><circle cx="287.047" cy="369.551" fill="#f9fafc" r="7.5513"/><path d="m501.108 389.748h10.4486v8.40782h-10.4486z" fill="#f9fafc" transform="matrix(.70064904 -.71350608 .71350608 .70064904 -128.080406 474.215039)"/><path d="m497.536 386.455h10.4486v2.88173h-10.4486z" fill="#f9fafc" transform="matrix(.70064904 -.71350608 .71350608 .70064904 -126.800112 470.680633)"/><path d="m508.623 397.038h10.4486v2.88173h-10.4486z" fill="#f9fafc" transform="matrix(.70064904 -.71350608 .71350608 .70064904 -131.032243 481.759306)"/><path d="m500.542 393.868h3.58732v10.7917h-3.58732z" fill="#f9fafc" transform="matrix(.71519278 .69892725 -.69892725 .71519278 417.843054 -237.665989)"/><path d="m478 400.7c0-8.862 7.184-16.046 16.047-16.046" stroke="#f9fafc" stroke-width="5"/><circle cx="494.047" cy="369.551" fill="#f9fafc" r="7.5513"/><path d="m405.094 249v37.953l-9.434 2.051-2.051 9.434h-24.609v-49.438z" fill="#c8c7ff"/><path d="m393.609 286.953v11.485l11.485-11.485z" fill="#eef"/><rect fill="#8987ff" fill-opacity=".6" height="3" rx="1.5" width="28" x="373" y="254"/><rect fill="#8987ff" fill-opacity=".4" height="3" rx="1.5" width="28" x="373" y="261"/><rect fill="#8987ff" height="3" opacity=".3" rx="1.5" width="28" x="373" y="268"/><rect fill="#8987ff" height="3" opacity=".2" rx="1.5" width="28" x="373" y="275"/></svg>