<svg width="782" height="545" viewBox="0 0 782 545" fill="none" xmlns="http://www.w3.org/2000/svg">
<g filter="url(#filter0_d)">
<rect x="17" y="14" width="748" height="511" rx="6" fill="white"/>
</g>
<mask id="mask0" mask-type="alpha" maskUnits="userSpaceOnUse" x="17" y="14" width="748" height="511">
<rect x="17" y="14" width="748" height="511" rx="6" fill="white"/>
</mask>
<g mask="url(#mask0)">
<circle opacity="0.5" cx="390.5" cy="269.5" r="223.216" stroke="#FFA776" stroke-width="1.5"/>
<circle opacity="0.3" cx="390.5" cy="269.5" r="255.045" stroke="#FFA776" stroke-width="1.5"/>
<circle opacity="0.15" cx="390.5" cy="269.5" r="286.098" stroke="#FFA776" stroke-width="1.5"/>
<circle opacity="0.1" cx="390.5" cy="269.5" r="317.75" stroke="#FFA776" stroke-width="1.5"/>
</g>
<circle cx="391" cy="270" r="39" fill="#FFA776"/>
<rect x="398.108" y="274.748" width="10.4486" height="8.40782" transform="rotate(-45.5209 398.108 274.748)" fill="#F9FAFC"/>
<rect x="394.536" y="271.455" width="10.4486" height="2.88173" transform="rotate(-45.5209 394.536 271.455)" fill="#F9FAFC"/>
<rect x="405.623" y="282.038" width="10.4486" height="2.88173" transform="rotate(-45.5209 405.623 282.038)" fill="#F9FAFC"/>
<rect x="397.542" y="278.868" width="3.58732" height="10.7917" transform="rotate(44.341 397.542 278.868)" fill="#F9FAFC"/>
<path d="M375 285.7C375 276.838 382.184 269.654 391.047 269.654" stroke="#F9FAFC" stroke-width="5"/>
<circle cx="391.047" cy="254.551" r="7.5513" fill="#F9FAFC"/>
<circle cx="270" cy="270" r="39" fill="#FFA776"/>
<rect x="277.108" y="274.748" width="10.4486" height="8.40782" transform="rotate(-45.5209 277.108 274.748)" fill="#F9FAFC"/>
<rect x="273.536" y="271.455" width="10.4486" height="2.88173" transform="rotate(-45.5209 273.536 271.455)" fill="#F9FAFC"/>
<rect x="284.623" y="282.038" width="10.4486" height="2.88173" transform="rotate(-45.5209 284.623 282.038)" fill="#F9FAFC"/>
<rect x="276.542" y="278.868" width="3.58732" height="10.7917" transform="rotate(44.341 276.542 278.868)" fill="#F9FAFC"/>
<path d="M254 285.7C254 276.838 261.184 269.654 270.047 269.654" stroke="#F9FAFC" stroke-width="5"/>
<circle cx="270.047" cy="254.551" r="7.5513" fill="#F9FAFC"/>
<circle cx="512" cy="270" r="39" fill="#FFA776"/>
<rect x="518.108" y="274.748" width="10.4486" height="8.40782" transform="rotate(-45.5209 518.108 274.748)" fill="#F9FAFC"/>
<rect x="514.536" y="271.455" width="10.4486" height="2.88173" transform="rotate(-45.5209 514.536 271.455)" fill="#F9FAFC"/>
<rect x="525.623" y="282.038" width="10.4486" height="2.88173" transform="rotate(-45.5209 525.623 282.038)" fill="#F9FAFC"/>
<rect x="517.542" y="278.868" width="3.58732" height="10.7917" transform="rotate(44.341 517.542 278.868)" fill="#F9FAFC"/>
<path d="M495 285.7C495 276.838 502.184 269.654 511.047 269.654" stroke="#F9FAFC" stroke-width="5"/>
<circle cx="511.047" cy="254.551" r="7.5513" fill="#F9FAFC"/>
<defs>
<filter id="filter0_d" x="0" y="0" width="782" height="545" filterUnits="userSpaceOnUse" color-interpolation-filters="sRGB">
<feFlood flood-opacity="0" result="BackgroundImageFix"/>
<feColorMatrix in="SourceAlpha" type="matrix" values="0 0 0 0 0 0 0 0 0 0 0 0 0 0 0 0 0 0 127 0"/>
<feOffset dy="3"/>
<feGaussianBlur stdDeviation="8.5"/>
<feColorMatrix type="matrix" values="0 0 0 0 0 0 0 0 0 0 0 0 0 0 0 0 0 0 0.1 0"/>
<feBlend mode="normal" in2="BackgroundImageFix" result="effect1_dropShadow"/>
<feBlend mode="normal" in="SourceGraphic" in2="effect1_dropShadow" result="shape"/>
</filter>
</defs>
</svg>
