<svg fill="none" height="534" viewBox="0 0 782 534" width="782" xmlns="http://www.w3.org/2000/svg" xmlns:xlink="http://www.w3.org/1999/xlink"><filter id="a" color-interpolation-filters="sRGB" filterUnits="userSpaceOnUse" height="534" width="782" x="0" y="0"><feFlood flood-opacity="0" result="BackgroundImageFix"/><feColorMatrix in="SourceAlpha" type="matrix" values="0 0 0 0 0 0 0 0 0 0 0 0 0 0 0 0 0 0 127 0"/><feOffset dy="3"/><feGaussianBlur stdDeviation="8.5"/><feColorMatrix type="matrix" values="0 0 0 0 0 0 0 0 0 0 0 0 0 0 0 0 0 0 0.1 0"/><feBlend in2="BackgroundImageFix" mode="normal" result="effect1_dropShadow"/><feBlend in="SourceGraphic" in2="effect1_dropShadow" mode="normal" result="shape"/></filter><linearGradient id="b" gradientUnits="userSpaceOnUse" x1="750" x2="687.559" y1="408.937" y2="649.81"><stop offset="0" stop-color="#fff8f0"/><stop offset="1" stop-color="#fff3f1"/></linearGradient><clipPath id="c"><path d="m370 194h56v56h-56z"/></clipPath><mask id="d" height="500" maskUnits="userSpaceOnUse" width="748" x="17" y="14"><rect fill="#fff" height="500" rx="6" width="748" x="17" y="14"/></mask><g filter="url(#a)"><rect fill="#fff" height="500" rx="6" width="748" x="17" y="14"/></g><g mask="url(#d)" stroke="#ffa776" stroke-width="1.5"><circle cx="391.5" cy="213.5" opacity=".2" r="223.216"/><circle cx="391.5" cy="213.5" opacity=".15" r="255.045"/><circle cx="391.5" cy="213.5" opacity=".1" r="286.098"/><circle cx="391.5" cy="213.5" opacity=".05" r="317.75"/></g><rect fill="url(#b)" height="109" rx="4" width="718" x="32" y="391"/><g fill="#ffa776"><path d="m394.5 136-4.763-3.75h9.526z" opacity=".7"/><path d="m394.5 144-4.763-3.75h9.526z" opacity=".8"/><path d="m394.5 152-4.763-3.75h9.526z"/><path d="m394.5 160-4.763-3.75h9.526z"/><path d="m335.46 285.105 1.338 5.913-7.399-6.001z" opacity=".7"/><path d="m340.5 278.891 1.337 5.913-7.399-6z" opacity=".8"/><path d="m345.539 272.678 1.337 5.913-7.399-6.001z"/><path d="m350.578 266.464 1.337 5.913-7.399-6z"/><path d="m451.389 285.105-1.337 5.913 7.399-6.001z" opacity=".7"/><path d="m446.35 278.891-1.337 5.913 7.399-6z" opacity=".8"/><path d="m441.311 272.678-1.338 5.913 7.399-6.001z"/><path d="m436.272 266.464-1.338 5.913 7.399-6z"/></g><circle cx="393.773" cy="219.773" fill="#8987ff" r="49.7726"/><g clip-path="url(#c)"><path d="m416.094 197v37.953l-9.434 2.051-2.051 9.434h-24.609v-49.438z" fill="#bfbeff"/><path d="m416.094 197v37.953l-9.434 2.051-2.051 9.434h-24.609v-49.438z" fill="#a6a5ff" opacity=".6"/><path d="m404.609 234.953v11.485l11.485-11.485z" fill="#eef"/><g fill="#8987ff"><rect fill-opacity=".6" height="3" rx="1.5" width="28" x="384" y="202"/><rect fill-opacity=".4" height="3" rx="1.5" width="28" x="384" y="209"/><rect height="3" opacity=".3" rx="1.5" width="28" x="384" y="216"/><rect height="3" opacity=".2" rx="1.5" width="28" x="384" y="223"/></g><path d="m410.094 204v37.953l-9.434 2.051-2.051 9.434h-24.609v-49.438z" fill="#c8c7ff"/><path d="m398.609 241.953v11.485l11.485-11.485z" fill="#eef"/><rect fill="#8987ff" fill-opacity=".6" height="3" rx="1.5" width="28" x="378" y="209"/><rect fill="#8987ff" fill-opacity=".4" height="3" rx="1.5" width="28" x="378" y="216"/><rect fill="#8987ff" height="3" opacity=".3" rx="1.5" width="28" x="378" y="223"/><rect fill="#8987ff" height="3" opacity=".2" rx="1.5" width="28" x="378" y="230"/></g><circle cx="394" cy="85" fill="#ffa776" r="39"/><path d="m401.108 89.7484h10.4486v8.40782h-10.4486z" fill="#f9fafc" transform="matrix(.70064904 -.71350608 .71350608 .70064904 56.036035 313.059264)"/><path d="m397.536 86.4552h10.4486v2.88173h-10.4486z" fill="#f9fafc" transform="matrix(.70064904 -.71350608 .71350608 .70064904 57.316472 309.524798)"/><path d="m408.623 97.0383h10.4486v2.88173h-10.4486z" fill="#f9fafc" transform="matrix(.70064904 -.71350608 .71350608 .70064904 53.08427 320.603501)"/><path d="m400.542 93.8675h3.58732v10.7917h-3.58732z" fill="#f9fafc" transform="matrix(.71519278 .69892725 -.69892725 .71519278 179.683809 -253.215575)"/><path d="m378 100.7c0-8.8618 7.184-16.0461 16.047-16.0461" stroke="#f9fafc" stroke-width="5"/><circle cx="394.047" cy="69.5513" fill="#f9fafc" r="7.5513"/><circle cx="298" cy="326" fill="#ffa776" r="39"/><path d="m305.108 330.748h10.4486v8.40782h-10.4486z" fill="#f9fafc" transform="matrix(.70064904 -.71350608 .71350608 .70064904 -144.656335 316.706142)"/><path d="m301.536 327.455h10.4486v2.88173h-10.4486z" fill="#f9fafc" transform="matrix(.70064904 -.71350608 .71350608 .70064904 -143.376042 313.171736)"/><path d="m312.623 338.038h10.4486v2.88173h-10.4486z" fill="#f9fafc" transform="matrix(.70064904 -.71350608 .71350608 .70064904 -147.608172 324.250409)"/><path d="m304.542 334.868h3.58732v10.7917h-3.58732z" fill="#f9fafc" transform="matrix(.71519278 .69892725 -.69892725 .71519278 320.784131 -117.479875)"/><path d="m282 341.7c0-8.862 7.184-16.046 16.047-16.046" stroke="#f9fafc" stroke-width="5"/><circle cx="298.047" cy="310.551" fill="#f9fafc" r="7.5513"/><circle cx="485" cy="325" fill="#ffa776" r="39"/><path d="m491.108 329.748h10.4486v8.40782h-10.4486z" fill="#f9fafc" transform="matrix(.70064904 -.71350608 .71350608 .70064904 -88.263551 449.118921)"/><path d="m487.536 326.455h10.4486v2.88173h-10.4486z" fill="#f9fafc" transform="matrix(.70064904 -.71350608 .71350608 .70064904 -86.983257 445.584515)"/><path d="m498.623 337.038h10.4486v2.88173h-10.4486z" fill="#f9fafc" transform="matrix(.70064904 -.71350608 .71350608 .70064904 -91.215388 456.663188)"/><path d="m490.542 333.868h3.58732v10.7917h-3.58732z" fill="#f9fafc" transform="matrix(.71519278 .69892725 -.69892725 .71519278 373.059347 -247.76515)"/><path d="m468 340.7c0-8.862 7.184-16.046 16.047-16.046" stroke="#f9fafc" stroke-width="5"/><circle cx="484.047" cy="309.551" fill="#f9fafc" r="7.5513"/><path d="m59.76 418.64c.96-.3 1.8-1.2 1.8-2.66 0-2.12-1.52-3.26-4.06-3.26h-4.04v12.28h4.44c2.52 0 4.08-1.22 4.08-3.46 0-1.38-.9-2.56-2.22-2.9zm-4.76-.58v-3.96h2.5c1.64 0 2.54.62 2.54 1.96s-.9 2-2.54 2zm0 1.32h2.9c1.66 0 2.54.82 2.54 2.12 0 1.28-.88 2.12-2.54 2.12h-2.9zm16.6803 1.18c0-2.72-1.66-4.62-4.08-4.62-2.44 0-4.08 1.9-4.08 4.62s1.64 4.62 4.08 4.62c2.42 0 4.08-1.9 4.08-4.62zm-1.52 0c0 1.94-.96 3.3-2.56 3.3s-2.56-1.36-2.56-3.3.96-3.3 2.56-3.3 2.56 1.36 2.56 3.3zm5.0508 3.4c.44.64 1.4 1.22 2.5 1.22 2.6 0 4-2.1 4-4.62 0-2.5-1.4-4.62-4-4.62-1.1 0-2.06.58-2.5 1.22v-5.16h-1.52v13h1.52zm0-5.2c.46-.92 1.34-1.46 2.28-1.46 1.7 0 2.7 1.38 2.7 3.26s-1 3.26-2.7 3.26c-.94 0-1.82-.54-2.28-1.46zm12.3131 1.8c0 2.76 1.66 4.62 4.04 4.62 2 0 3.26-1.16 3.56-2.86h-1.54c-.2.96-.96 1.54-2.02 1.54-1.52 0-2.52-1.36-2.52-3.3s1-3.3 2.52-3.3c1.06 0 1.82.58 2.02 1.54h1.54c-.3-1.7-1.56-2.86-3.56-2.86-2.38 0-4.04 1.86-4.04 4.62zm11.0658-8.56h-1.5v13h1.5zm9.12 13v-5.92c0-1.94-1.26-3.14-3.38-3.14-1.7 0-3.02 1.02-3.32 2.52h1.48c.28-.82.88-1.22 1.82-1.22 1.28 0 1.96.8 1.96 1.9v1.12c-.38-.34-1.32-.72-2.24-.72-1.9 0-3.4 1.12-3.4 2.78 0 1.76 1.5 2.84 3.3 2.84 1.06 0 2-.46 2.34-.82v.66zm-1.44-2.2c-.26.66-1.16 1.1-2.08 1.1-1.08 0-2.12-.5-2.12-1.58 0-1.06 1.04-1.54 2.12-1.54.92 0 1.82.44 2.08 1.1zm5.504-6.68h-1.5v8.88h1.5zm.22-2.68c0-.54-.44-.96-.98-.96-.52 0-.96.42-.96.96 0 .52.44.96.96.96.54 0 .98-.44.98-.96zm8.759 3.92c-.42-.84-1.28-1.42-2.4-1.42-1.1 0-1.96.52-2.4 1.22v-1.04h-1.5v8.88h1.5v-6.12c.28-.96 1.06-1.58 1.96-1.58 1.14 0 1.68.82 1.68 2.06v5.64h1.5v-6.12c.28-.96 1.06-1.58 1.96-1.58 1.14 0 1.68.82 1.68 2.06v5.64h1.52v-5.88c0-1.92-1-3.18-2.8-3.18-1.24 0-2.14.62-2.7 1.42zm7.296 5.2c.28 1.64 1.7 2.62 3.64 2.62 1.9 0 3.3-1 3.3-2.68 0-1.24-.74-2.08-2.26-2.48l-1.72-.42c-.84-.24-1.24-.52-1.24-1.12 0-.86.82-1.28 1.7-1.28 1.08 0 1.7.46 1.96 1.26h1.5c-.32-1.56-1.48-2.52-3.44-2.52-1.8 0-3.18 1.04-3.18 2.62 0 1.38.88 2.02 2.14 2.34l1.76.46c.92.24 1.32.62 1.32 1.24 0 .9-.76 1.32-1.82 1.32-1.04 0-1.82-.44-2.1-1.36zm13.856.2c0 1.64 1 2.42 2.44 2.42.54 0 1.06-.12 1.4-.3v-1.4c-.3.2-.74.36-1.16.36-.76 0-1.18-.38-1.18-1.24v-5.2h2.14v-1.28h-2.14v-2.34h-1.5v2.34h-1.44v1.28h1.44zm5.927 2.24h1.5v-6.02c.32-.96 1.22-1.66 2.26-1.66 1.34 0 1.96.86 1.96 2.1v5.58h1.52v-5.82c0-1.94-1.1-3.24-3.12-3.24-1.14 0-2.1.6-2.62 1.3v-5.24h-1.5zm15.385-2.66c-.24 1-1.06 1.56-2.16 1.56-1.5 0-2.56-1.16-2.58-3.06h6.28v-.54c0-2.58-1.3-4.36-3.74-4.36-2.42 0-4.04 1.98-4.04 4.64 0 2.74 1.66 4.6 4.08 4.6 2 0 3.26-1.16 3.58-2.84zm-2.18-5.12c1.48 0 2.18 1.16 2.2 2.48h-4.72c.22-1.56 1.18-2.48 2.52-2.48zm14.575-5.2c-.34-.14-.68-.2-1.16-.2-1.56 0-2.72 1.04-2.72 2.82v1.48h-1.5v1.28h1.5v7.6h1.48v-7.6h2v-1.28h-2v-1.36c0-1.06.58-1.62 1.46-1.62.32 0 .66.06.94.24zm8.421 4.1h-1.52v6.02c-.32.96-1.18 1.66-2.22 1.66-1.34 0-1.94-.86-1.94-2.1v-5.58h-1.52v5.82c0 1.94 1.08 3.24 3.1 3.24 1.14 0 2.08-.6 2.58-1.3v1.12h1.52zm2.666 8.88h1.5v-6.02c.32-.96 1.22-1.66 2.26-1.66 1.34 0 1.96.86 1.96 2.1v5.58h1.52v-5.82c0-1.94-1.1-3.24-3.12-3.24-1.14 0-2.1.6-2.62 1.3v-1.12h-1.5zm15.646 0h1.52v-13h-1.52v5.16c-.44-.64-1.4-1.22-2.5-1.22-2.6 0-4 2.12-4 4.62 0 2.52 1.4 4.62 4 4.62 1.1 0 2.06-.58 2.5-1.22zm0-2.64c-.46.92-1.34 1.46-2.28 1.46-1.7 0-2.7-1.38-2.7-3.26s1-3.26 2.7-3.26c.94 0 1.82.54 2.28 1.46zm9.013.4c0 1.64 1 2.42 2.44 2.42.54 0 1.06-.12 1.4-.3v-1.4c-.3.2-.74.36-1.16.36-.76 0-1.18-.38-1.18-1.24v-5.2h2.14v-1.28h-2.14v-2.34h-1.5v2.34h-1.44v1.28h1.44zm10.487-6.68c-.16-.08-.48-.14-.86-.14-.98 0-1.82.58-2.2 1.34v-1.16h-1.5v8.88h1.5v-5.96c.3-1.04 1.12-1.66 2.06-1.66.38 0 .76.08 1 .24zm8.072 8.92v-5.92c0-1.94-1.26-3.14-3.38-3.14-1.7 0-3.02 1.02-3.32 2.52h1.48c.28-.82.88-1.22 1.82-1.22 1.28 0 1.96.8 1.96 1.9v1.12c-.38-.34-1.32-.72-2.24-.72-1.9 0-3.4 1.12-3.4 2.78 0 1.76 1.5 2.84 3.3 2.84 1.06 0 2-.46 2.34-.82v.66zm-1.44-2.2c-.26.66-1.16 1.1-2.08 1.1-1.08 0-2.12-.5-2.12-1.58 0-1.06 1.04-1.54 2.12-1.54.92 0 1.82.44 2.08 1.1zm4.004 2.2h1.5v-6.02c.32-.96 1.22-1.66 2.26-1.66 1.34 0 1.96.86 1.96 2.1v5.58h1.52v-5.82c0-1.94-1.1-3.24-3.12-3.24-1.14 0-2.1.6-2.62 1.3v-1.12h-1.5zm9.045-2.44c.28 1.64 1.7 2.62 3.64 2.62 1.9 0 3.3-1 3.3-2.68 0-1.24-.74-2.08-2.26-2.48l-1.72-.42c-.84-.24-1.24-.52-1.24-1.12 0-.86.82-1.28 1.7-1.28 1.08 0 1.7.46 1.96 1.26h1.5c-.32-1.56-1.48-2.52-3.44-2.52-1.8 0-3.18 1.04-3.18 2.62 0 1.38.88 2.02 2.14 2.34l1.76.46c.92.24 1.32.62 1.32 1.24 0 .9-.76 1.32-1.82 1.32-1.04 0-1.82-.44-2.1-1.36zm13.461-10.54c-.34-.14-.68-.2-1.16-.2-1.56 0-2.72 1.04-2.72 2.82v1.48h-1.5v1.28h1.5v7.6h1.48v-7.6h2v-1.28h-2v-1.36c0-1.06.58-1.62 1.46-1.62.32 0 .66.06.94.24zm6.805 10.32c-.24 1-1.06 1.56-2.16 1.56-1.5 0-2.56-1.16-2.58-3.06h6.28v-.54c0-2.58-1.3-4.36-3.74-4.36-2.42 0-4.04 1.98-4.04 4.64 0 2.74 1.66 4.6 4.08 4.6 2 0 3.26-1.16 3.58-2.84zm-2.18-5.12c1.48 0 2.18 1.16 2.2 2.48h-4.72c.22-1.56 1.18-2.48 2.52-2.48zm10.28-1.14c-.16-.08-.48-.14-.86-.14-.98 0-1.82.58-2.2 1.34v-1.16h-1.5v8.88h1.5v-5.96c.3-1.04 1.12-1.66 2.06-1.66.38 0 .76.08 1 .24zm7.78.04h-1.5v8.88h1.5zm.22-2.68c0-.54-.44-.96-.98-.96-.52 0-.96.42-.96.96 0 .52.44.96.96.96.54 0 .98-.44.98-.96zm1.72 9.12c.28 1.64 1.7 2.62 3.64 2.62 1.9 0 3.3-1 3.3-2.68 0-1.24-.74-2.08-2.26-2.48l-1.72-.42c-.84-.24-1.24-.52-1.24-1.12 0-.86.82-1.28 1.7-1.28 1.08 0 1.7.46 1.96 1.26h1.5c-.32-1.56-1.48-2.52-3.44-2.52-1.8 0-3.18 1.04-3.18 2.62 0 1.38.88 2.02 2.14 2.34l1.76.46c.92.24 1.32.62 1.32 1.24 0 .9-.76 1.32-1.82 1.32-1.04 0-1.82-.44-2.1-1.36zm13.435 2.44h1.5v-6.02c.32-.96 1.22-1.66 2.26-1.66 1.34 0 1.96.86 1.96 2.1v5.58h1.52v-5.82c0-1.94-1.1-3.24-3.12-3.24-1.14 0-2.1.6-2.62 1.3v-5.24h-1.5zm11.285-8.88h-1.5v8.88h1.5zm.22-2.68c0-.54-.44-.96-.98-.96-.52 0-.96.42-.96.96 0 .52.44.96.96.96.54 0 .98-.44.98-.96zm1.72 9.12c.28 1.64 1.7 2.62 3.64 2.62 1.9 0 3.3-1 3.3-2.68 0-1.24-.74-2.08-2.26-2.48l-1.72-.42c-.84-.24-1.24-.52-1.24-1.12 0-.86.82-1.28 1.7-1.28 1.08 0 1.7.46 1.96 1.26h1.5c-.32-1.56-1.48-2.52-3.44-2.52-1.8 0-3.18 1.04-3.18 2.62 0 1.38.88 2.02 2.14 2.34l1.76.46c.92.24 1.32.62 1.32 1.24 0 .9-.76 1.32-1.82 1.32-1.04 0-1.82-.44-2.1-1.36zm16.055 5.84 4.78-12.28h-1.56l-2.58 7-2.62-7h-1.62l3.46 8.94-1.34 3.34zm11.926-6.06c-.24 1-1.061 1.56-2.16 1.56-1.5 0-2.56-1.16-2.58-3.06h6.28v-.54c0-2.58-1.3-4.36-3.74-4.36-2.42 0-4.04 1.98-4.04 4.64 0 2.74 1.66 4.6 4.08 4.6 2 0 3.26-1.16 3.58-2.84zm-2.18-5.12c1.48 0 2.18 1.16 2.2 2.48h-4.72c.22-1.56 1.18-2.48 2.52-2.48zm12.16 7.78v-5.92c0-1.94-1.26-3.14-3.38-3.14-1.7 0-3.02 1.02-3.32 2.52h1.48c.28-.82.88-1.22 1.82-1.22 1.28 0 1.96.8 1.96 1.9v1.12c-.38-.34-1.32-.72-2.24-.72-1.9 0-3.4 1.12-3.4 2.78 0 1.76 1.5 2.84 3.3 2.84 1.06 0 2-.46 2.34-.82v.66zm-1.44-2.2c-.26.66-1.16 1.1-2.08 1.1-1.08 0-2.12-.5-2.12-1.58 0-1.06 1.04-1.54 2.12-1.54.92 0 1.82.44 2.08 1.1zm8.564-6.72c-.16-.08-.48-.14-.86-.14-.98 0-1.82.58-2.2 1.34v-1.16h-1.5v8.88h1.5v-5.96c.3-1.04 1.12-1.66 2.06-1.66.38 0 .76.08 1 .24zm3.366-4.08h-1.5v13h1.5zm5.3 16.4 4.78-12.28h-1.56l-2.58 7-2.62-7h-1.62l3.46 8.94-1.34 3.34zm12.395-4.44c.44.64 1.4 1.22 2.5 1.22 2.6 0 4-2.1 4-4.62 0-2.5-1.4-4.62-4-4.62-1.1 0-2.06.58-2.5 1.22v-5.16h-1.52v13h1.52zm0-5.2c.46-.92 1.34-1.46 2.28-1.46 1.7 0 2.7 1.38 2.7 3.26s-1 3.26-2.7 3.26c-.94 0-1.82-.54-2.28-1.46zm16.098 1.8c0-2.72-1.66-4.62-4.08-4.62-2.44 0-4.08 1.9-4.08 4.62s1.64 4.62 4.08 4.62c2.42 0 4.08-1.9 4.08-4.62zm-1.52 0c0 1.94-.96 3.3-2.56 3.3s-2.56-1.36-2.56-3.3.96-3.3 2.56-3.3 2.56 1.36 2.56 3.3zm3.551 4.44h1.5v-6.02c.32-.96 1.22-1.66 2.26-1.66 1.34 0 1.96.86 1.96 2.1v5.58h1.52v-5.82c0-1.94-1.1-3.24-3.12-3.24-1.14 0-2.1.6-2.62 1.3v-1.12h-1.5zm16.865-8.88h-1.52v6.02c-.32.96-1.18 1.66-2.22 1.66-1.34 0-1.94-.86-1.94-2.1v-5.58h-1.52v5.82c0 1.94 1.08 3.24 3.1 3.24 1.14 0 2.08-.6 2.58-1.3v1.12h1.52zm1.926 6.44c.28 1.64 1.7 2.62 3.64 2.62 1.9 0 3.3-1 3.3-2.68 0-1.24-.74-2.08-2.26-2.48l-1.72-.42c-.84-.24-1.24-.52-1.24-1.12 0-.86.82-1.28 1.7-1.28 1.08 0 1.7.46 1.96 1.26h1.5c-.32-1.56-1.48-2.52-3.44-2.52-1.8 0-3.18 1.04-3.18 2.62 0 1.38.88 2.02 2.14 2.34l1.76.46c.92.24 1.32.62 1.32 1.24 0 .9-.76 1.32-1.82 1.32-1.04 0-1.82-.44-2.1-1.36zm7.942 4.58h1.02l1.06-1.76c.24-.38.44-.84.44-1.26 0-.74-.46-1.16-1.06-1.16s-1.08.44-1.08 1.06c0 .58.38.92.88 1zm8.272-6.58c0 2.76 1.66 4.62 4.04 4.62 2 0 3.26-1.16 3.56-2.86h-1.54c-.2.96-.96 1.54-2.02 1.54-1.52 0-2.52-1.36-2.52-3.3s1-3.3 2.52-3.3c1.06 0 1.82.58 2.02 1.54h1.54c-.3-1.7-1.56-2.86-3.56-2.86-2.38 0-4.04 1.86-4.04 4.62zm11.065-4.44h-1.5v8.88h1.5zm.22-2.68c0-.54-.44-.96-.98-.96-.52 0-.96.42-.96.96 0 .52.44.96.96.96.54 0 .98-.44.98-.96zm2.88 9.32c0 1.64 1 2.42 2.44 2.42.54 0 1.06-.12 1.4-.3v-1.4c-.3.2-.74.36-1.16.36-.76 0-1.18-.38-1.18-1.24v-5.2h2.14v-1.28h-2.14v-2.34h-1.5v2.34h-1.44v1.28h1.44zm7.428-6.64h-1.5v8.88h1.5zm.22-2.68c0-.54-.44-.96-.98-.96-.52 0-.96.42-.96.96 0 .52.44.96.96.96.54 0 .98-.44.98-.96zm2.459 11.56h1.5v-6.02c.32-.96 1.22-1.66 2.26-1.66 1.34 0 1.96.86 1.96 2.1v5.58h1.52v-5.82c0-1.94-1.1-3.24-3.12-3.24-1.14 0-2.1.6-2.62 1.3v-1.12h-1.5zm15.606-.6c0 1.92-.84 2.92-2.44 2.92-1.22 0-2.06-.54-2.32-1.66h-1.48c.28 1.82 1.64 2.94 3.8 2.94 2.28 0 3.96-1.38 3.96-4.3v-8.18h-1.52v1c-.44-.62-1.38-1.18-2.48-1.18-2.6 0-3.98 2.14-3.98 4.5 0 2.34 1.38 4.5 3.98 4.5 1.1 0 2.04-.58 2.48-1.2zm0-2.2c-.46.84-1.3 1.38-2.26 1.38-1.68 0-2.66-1.32-2.66-3.14 0-1.84.98-3.16 2.66-3.16.96 0 1.8.54 2.26 1.38zm8.613 2.8h1.5v-6.02c.32-.96 1.22-1.66 2.26-1.66 1.34 0 1.96.86 1.96 2.1v5.58h1.52v-5.82c0-1.94-1.1-3.24-3.12-3.24-1.14 0-2.1.6-2.62 1.3v-5.24h-1.5zm11.285-8.88h-1.5v8.88h1.5zm.22-2.68c0-.54-.44-.96-.98-.96-.52 0-.96.42-.96.96 0 .52.44.96.96.96.54 0 .98-.44.98-.96zm1.72 9.12c.28 1.64 1.7 2.62 3.64 2.62 1.9 0 3.3-1 3.3-2.68 0-1.24-.74-2.08-2.26-2.48l-1.72-.42c-.84-.24-1.24-.52-1.24-1.12 0-.86.82-1.28 1.7-1.28 1.08 0 1.7.46 1.96 1.26h1.5c-.32-1.56-1.48-2.52-3.44-2.52-1.8 0-3.18 1.04-3.18 2.62 0 1.38.88 2.02 2.14 2.34l1.76.46c.92.24 1.32.62 1.32 1.24 0 .9-.76 1.32-1.82 1.32-1.04 0-1.82-.44-2.1-1.36zm19.255 1.84c0 1.92-.84 2.92-2.44 2.92-1.22 0-2.06-.54-2.32-1.66h-1.48c.28 1.82 1.64 2.94 3.8 2.94 2.28 0 3.96-1.38 3.96-4.3v-8.18h-1.52v1c-.44-.62-1.38-1.18-2.48-1.18-2.6 0-3.98 2.14-3.98 4.5 0 2.34 1.38 4.5 3.98 4.5 1.1 0 2.04-.58 2.48-1.2zm0-2.2c-.46.84-1.3 1.38-2.26 1.38-1.68 0-2.66-1.32-2.66-3.14 0-1.84.98-3.16 2.66-3.16.96 0 1.8.54 2.26 1.38zm11.72-1.64c0-2.72-1.66-4.62-4.08-4.62-2.44 0-4.08 1.9-4.08 4.62s1.64 4.62 4.08 4.62c2.42 0 4.08-1.9 4.08-4.62zm-1.52 0c0 1.94-.96 3.3-2.56 3.3s-2.56-1.36-2.56-3.3.96-3.3 2.56-3.3 2.56 1.36 2.56 3.3zm11.11 0c0-2.72-1.66-4.62-4.08-4.62-2.44 0-4.08 1.9-4.08 4.62s1.64 4.62 4.08 4.62c2.42 0 4.08-1.9 4.08-4.62zm-1.52 0c0 1.94-.96 3.3-2.56 3.3s-2.56-1.36-2.56-3.3.96-3.3 2.56-3.3 2.56 1.36 2.56 3.3zm9.45 4.44h1.52v-13h-1.52v5.16c-.44-.64-1.4-1.22-2.5-1.22-2.6 0-4 2.12-4 4.62 0 2.52 1.4 4.62 4 4.62 1.1 0 2.06-.58 2.5-1.22zm0-2.64c-.46.92-1.34 1.46-2.28 1.46-1.7 0-2.7-1.38-2.7-3.26s1-3.26 2.7-3.26c.94 0 1.82.54 2.28 1.46zm10.093 1.6c.46.64 1.4 1.22 2.5 1.22 2.62 0 4-2.16 4-4.62s-1.38-4.62-4-4.62c-1.1 0-2.04.58-2.5 1.22v-1.04h-1.5v12.28h1.5zm0-5.2c.46-.92 1.34-1.46 2.28-1.46 1.7 0 2.7 1.38 2.7 3.26s-1 3.26-2.7 3.26c-.94 0-1.82-.54-2.28-1.46zm14.178 3.58c-.24 1-1.06 1.56-2.16 1.56-1.5 0-2.56-1.16-2.58-3.06h6.28v-.54c0-2.58-1.3-4.36-3.74-4.36-2.42 0-4.04 1.98-4.04 4.64 0 2.74 1.66 4.6 4.08 4.6 2 0 3.26-1.16 3.58-2.84zm-2.18-5.12c1.48 0 2.18 1.16 2.2 2.48h-4.72c.22-1.56 1.18-2.48 2.52-2.48zm10.28-1.14c-.16-.08-.48-.14-.86-.14-.98 0-1.82.58-2.2 1.34v-1.16h-1.5v8.88h1.5v-5.96c.3-1.04 1.12-1.66 2.06-1.66.38 0 .76.08 1 .24zm6.306-4.06c-.34-.14-.68-.2-1.16-.2-1.56 0-2.72 1.04-2.72 2.82v1.48h-1.5v1.28h1.5v7.6h1.48v-7.6h2v-1.28h-2v-1.36c0-1.06.58-1.62 1.46-1.62.32 0 .66.06.94.24zm8.725 8.54c0-2.72-1.66-4.62-4.08-4.62-2.44 0-4.08 1.9-4.08 4.62s1.64 4.62 4.08 4.62c2.42 0 4.08-1.9 4.08-4.62zm-1.52 0c0 1.94-.96 3.3-2.56 3.3s-2.56-1.36-2.56-3.3.96-3.3 2.56-3.3 2.56 1.36 2.56 3.3zm8.11-4.48c-.16-.08-.48-.14-.86-.14-.98 0-1.82.58-2.2 1.34v-1.16h-1.5v8.88h1.5v-5.96c.3-1.04 1.12-1.66 2.06-1.66.38 0 .76.08 1 .24zm8.166 1.28c-.42-.84-1.28-1.42-2.4-1.42-1.1 0-1.96.52-2.4 1.22v-1.04h-1.5v8.88h1.5v-6.12c.28-.96 1.06-1.58 1.96-1.58 1.14 0 1.68.82 1.68 2.06v5.64h1.5v-6.12c.28-.96 1.06-1.58 1.96-1.58 1.14 0 1.68.82 1.68 2.06v5.64h1.52v-5.88c0-1.92-1-3.18-2.8-3.18-1.24 0-2.14.62-2.7 1.42zm14.476 7.64v-5.92c0-1.94-1.26-3.14-3.38-3.14-1.7 0-3.02 1.02-3.32 2.52h1.48c.28-.82.88-1.22 1.82-1.22 1.28 0 1.96.8 1.96 1.9v1.12c-.38-.34-1.32-.72-2.24-.72-1.9 0-3.4 1.12-3.4 2.78 0 1.76 1.5 2.84 3.3 2.84 1.06 0 2-.46 2.34-.82v.66zm-1.44-2.2c-.26.66-1.16 1.1-2.08 1.1-1.08 0-2.12-.5-2.12-1.58 0-1.06 1.04-1.54 2.12-1.54.92 0 1.82.44 2.08 1.1zm4.004 2.2h1.5v-6.02c.32-.96 1.22-1.66 2.26-1.66 1.34 0 1.96.86 1.96 2.1v5.58h1.52v-5.82c0-1.94-1.1-3.24-3.12-3.24-1.14 0-2.1.6-2.62 1.3v-1.12h-1.5zm9.145-4.44c0 2.76 1.66 4.62 4.04 4.62 2 0 3.26-1.16 3.56-2.86h-1.54c-.2.96-.96 1.54-2.02 1.54-1.52 0-2.52-1.36-2.52-3.3s1-3.3 2.52-3.3c1.06 0 1.82.58 2.02 1.54h1.54c-.3-1.7-1.56-2.86-3.56-2.86-2.38 0-4.04 1.86-4.04 4.62zm15.127 1.78c-.24 1-1.06 1.56-2.16 1.56-1.5 0-2.56-1.16-2.58-3.06h6.28v-.54c0-2.58-1.3-4.36-3.74-4.36-2.42 0-4.04 1.98-4.04 4.64 0 2.74 1.66 4.6 4.08 4.6 2 0 3.26-1.16 3.58-2.84zm-2.18-5.12c1.48 0 2.18 1.16 2.2 2.48h-4.72c.22-1.56 1.18-2.48 2.52-2.48zm5.021 6.8c0 .62.48 1.08 1.08 1.08.58 0 1.06-.46 1.06-1.08s-.48-1.1-1.06-1.1c-.6 0-1.08.48-1.08 1.1zm12.412-11.3-4.8 12.28h1.6l1.4-3.7h5.06l1.42 3.7h1.6l-4.8-12.28zm.72 1.96 2 5.24h-4zm8.814-2.68h-1.5v13h1.5zm4.179 4.12h-1.5v8.88h1.5zm.22-2.68c0-.54-.44-.96-.98-.96-.52 0-.96.42-.96.96 0 .52.44.96.96.96.54 0 .98-.44.98-.96zm1.82 7.12c0 2.76 1.66 4.62 4.04 4.62 2 0 3.26-1.16 3.56-2.86h-1.54c-.2.96-.96 1.54-2.02 1.54-1.52 0-2.52-1.36-2.52-3.3s1-3.3 2.52-3.3c1.06 0 1.82.58 2.02 1.54h1.54c-.3-1.7-1.56-2.86-3.56-2.86-2.38 0-4.04 1.86-4.04 4.62zm15.127 1.78c-.24 1-1.06 1.56-2.16 1.56-1.5 0-2.56-1.16-2.58-3.06h6.28v-.54c0-2.58-1.3-4.36-3.74-4.36-2.42 0-4.04 1.98-4.04 4.64 0 2.74 1.66 4.6 4.08 4.6 2 0 3.26-1.16 3.58-2.84zm-2.18-5.12c1.48 0 2.18 1.16 2.2 2.48h-4.72c.22-1.56 1.18-2.48 2.52-2.48zm-630.586 32.34c.28 1.64 1.7 2.62 3.64 2.62 1.9 0 3.3-1 3.3-2.68 0-1.24-.74-2.08-2.26-2.48l-1.72-.42c-.84-.24-1.24-.52-1.24-1.12 0-.86.82-1.28 1.7-1.28 1.08 0 1.7.46 1.96 1.26h1.5c-.32-1.56-1.48-2.52-3.44-2.52-1.8 0-3.18 1.04-3.18 2.62 0 1.38.88 2.02 2.14 2.34l1.76.46c.92.24 1.32.62 1.32 1.24 0 .9-.76 1.32-1.82 1.32-1.04 0-1.82-.44-2.1-1.36zm16.1013-6.44h-1.52v6.02c-.32.96-1.18 1.66-2.22 1.66-1.34 0-1.94-.86-1.94-2.1v-5.58h-1.52v5.82c0 1.94 1.08 3.24 3.1 3.24 1.14 0 2.08-.6 2.58-1.3v1.12h1.52zm4.166 7.84c.44.64 1.4 1.22 2.5 1.22 2.6 0 4-2.1 4-4.62 0-2.5-1.4-4.62-4-4.62-1.1 0-2.06.58-2.5 1.22v-5.16h-1.52v13h1.52zm0-5.2c.46-.92 1.34-1.46 2.28-1.46 1.7 0 2.7 1.38 2.7 3.26s-1 3.26-2.7 3.26c-.94 0-1.82-.54-2.28-1.46zm14.8391-1.4c-.42-.84-1.28-1.42-2.4-1.42-1.1 0-1.96.52-2.4 1.22v-1.04h-1.5v8.88h1.5v-6.12c.28-.96 1.06-1.58 1.96-1.58 1.14 0 1.68.82 1.68 2.06v5.64h1.5v-6.12c.28-.96 1.06-1.58 1.96-1.58 1.14 0 1.68.82 1.68 2.06v5.64h1.52v-5.88c0-1.92-1-3.18-2.8-3.18-1.24 0-2.14.62-2.7 1.42zm9.5359-1.24h-1.5v8.88h1.5zm.22-2.68c0-.54-.44-.96-.98-.96-.52 0-.96.42-.96.96 0 .52.44.96.96.96.54 0 .98-.44.98-.96zm2.8797 9.32c0 1.64 1 2.42 2.44 2.42.54 0 1.06-.12 1.4-.3v-1.4c-.3.2-.74.36-1.16.36-.76 0-1.18-.38-1.18-1.24v-5.2h2.14v-1.28h-2.14v-2.34h-1.5v2.34h-1.44v1.28h1.44zm5.129-.2c.28 1.64 1.7 2.62 3.64 2.62 1.9 0 3.3-1 3.3-2.68 0-1.24-.74-2.08-2.26-2.48l-1.72-.42c-.84-.24-1.24-.52-1.24-1.12 0-.86.82-1.28 1.7-1.28 1.08 0 1.7.46 1.96 1.26h1.5c-.32-1.56-1.48-2.52-3.44-2.52-1.8 0-3.18 1.04-3.18 2.62 0 1.38.88 2.02 2.14 2.34l1.76.46c.92.24 1.32.62 1.32 1.24 0 .9-.76 1.32-1.82 1.32-1.04 0-1.82-.44-2.1-1.36zm13.855.2c0 1.64 1 2.42 2.44 2.42.54 0 1.06-.12 1.4-.3v-1.4c-.3.2-.74.36-1.16.36-.76 0-1.18-.38-1.18-1.24v-5.2h2.14v-1.28h-2.14v-2.34h-1.5v2.34h-1.44v1.28h1.44zm5.928 2.24h1.5v-6.02c.32-.96 1.22-1.66 2.26-1.66 1.34 0 1.96.86 1.96 2.1v5.58h1.52v-5.82c0-1.94-1.1-3.24-3.12-3.24-1.14 0-2.1.6-2.62 1.3v-5.24h-1.5zm15.385-2.66c-.24 1-1.06 1.56-2.16 1.56-1.5 0-2.56-1.16-2.58-3.06h6.28v-.54c0-2.58-1.3-4.36-3.74-4.36-2.42 0-4.04 1.98-4.04 4.64 0 2.74 1.66 4.6 4.08 4.6 2 0 3.26-1.16 3.58-2.84zm-2.18-5.12c1.48 0 2.18 1.16 2.2 2.48h-4.72c.22-1.56 1.18-2.48 2.52-2.48zm7.221-1.1h-1.5v8.88h1.5zm.22-2.68c0-.54-.44-.96-.98-.96-.52 0-.96.42-.96.96 0 .52.44.96.96.96.54 0 .98-.44.98-.96zm7.02 2.64c-.16-.08-.48-.14-.86-.14-.98 0-1.82.58-2.2 1.34v-1.16h-1.5v8.88h1.5v-5.96c.3-1.04 1.12-1.66 2.06-1.66.38 0 .76.08 1 .24zm11.879 6.26c-.24 1-1.06 1.56-2.16 1.56-1.5 0-2.56-1.16-2.58-3.06h6.28v-.54c0-2.58-1.3-4.36-3.74-4.36-2.42 0-4.04 1.98-4.04 4.64 0 2.74 1.66 4.6 4.08 4.6 2 0 3.26-1.16 3.58-2.84zm-2.18-5.12c1.48 0 2.18 1.16 2.2 2.48h-4.72c.22-1.56 1.18-2.48 2.52-2.48zm12.021.14c-.42-.84-1.28-1.42-2.4-1.42-1.1 0-1.96.52-2.4 1.22v-1.04h-1.5v8.88h1.5v-6.12c.28-.96 1.06-1.58 1.96-1.58 1.14 0 1.68.82 1.68 2.06v5.64h1.5v-6.12c.28-.96 1.06-1.58 1.96-1.58 1.14 0 1.68.82 1.68 2.06v5.64h1.52v-5.88c0-1.92-1-3.18-2.8-3.18-1.24 0-2.14.62-2.7 1.42zm9.536 6.6c.46.64 1.4 1.22 2.5 1.22 2.62 0 4-2.16 4-4.62s-1.38-4.62-4-4.62c-1.1 0-2.04.58-2.5 1.22v-1.04h-1.5v12.28h1.5zm0-5.2c.46-.92 1.34-1.46 2.28-1.46 1.7 0 2.7 1.38 2.7 3.26s-1 3.26-2.7 3.26c-.94 0-1.82-.54-2.28-1.46zm10.039-6.76h-1.5v13h1.5zm10.2 8.56c0-2.72-1.66-4.62-4.08-4.62-2.44 0-4.08 1.9-4.08 4.62s1.64 4.62 4.08 4.62c2.42 0 4.08-1.9 4.08-4.62zm-1.52 0c0 1.94-.96 3.3-2.56 3.3s-2.56-1.36-2.56-3.3.96-3.3 2.56-3.3 2.56 1.36 2.56 3.3zm6.014 7.84 4.78-12.28h-1.56l-2.58 7-2.62-7h-1.62l3.46 8.94-1.34 3.34zm12.782-11.04c-.42-.84-1.28-1.42-2.4-1.42-1.1 0-1.96.52-2.4 1.22v-1.04h-1.5v8.88h1.5v-6.12c.28-.96 1.06-1.58 1.96-1.58 1.14 0 1.68.82 1.68 2.06v5.64h1.5v-6.12c.28-.96 1.06-1.58 1.96-1.58 1.14 0 1.68.82 1.68 2.06v5.64h1.52v-5.88c0-1.92-1-3.18-2.8-3.18-1.24 0-2.14.62-2.7 1.42zm13.636 4.98c-.24 1-1.06 1.56-2.16 1.56-1.5 0-2.56-1.16-2.58-3.06h6.28v-.54c0-2.58-1.3-4.36-3.74-4.36-2.42 0-4.04 1.98-4.04 4.64 0 2.74 1.66 4.6 4.08 4.6 2 0 3.26-1.16 3.58-2.84zm-2.18-5.12c1.48 0 2.18 1.16 2.2 2.48h-4.72c.22-1.56 1.18-2.48 2.52-2.48zm5.72 7.78h1.5v-6.02c.32-.96 1.22-1.66 2.26-1.66 1.34 0 1.96.86 1.96 2.1v5.58h1.52v-5.82c0-1.94-1.1-3.24-3.12-3.24-1.14 0-2.1.6-2.62 1.3v-1.12h-1.5zm10.206-2.24c0 1.64 1 2.42 2.44 2.42.54 0 1.06-.12 1.4-.3v-1.4c-.3.2-.74.36-1.16.36-.76 0-1.18-.38-1.18-1.24v-5.2h2.14v-1.28h-2.14v-2.34h-1.5v2.34h-1.44v1.28h1.44zm16.781 2.24v-5.92c0-1.94-1.26-3.14-3.38-3.14-1.7 0-3.02 1.02-3.32 2.52h1.48c.28-.82.88-1.22 1.82-1.22 1.28 0 1.96.8 1.96 1.9v1.12c-.38-.34-1.32-.72-2.24-.72-1.9 0-3.4 1.12-3.4 2.78 0 1.76 1.5 2.84 3.3 2.84 1.06 0 2-.46 2.34-.82v.66zm-1.44-2.2c-.26.66-1.16 1.1-2.08 1.1-1.08 0-2.12-.5-2.12-1.58 0-1.06 1.04-1.54 2.12-1.54.92 0 1.82.44 2.08 1.1zm9.824 1.6c0 1.92-.84 2.92-2.44 2.92-1.22 0-2.06-.54-2.32-1.66h-1.48c.28 1.82 1.64 2.94 3.8 2.94 2.28 0 3.96-1.38 3.96-4.3v-8.18h-1.52v1c-.44-.62-1.38-1.18-2.48-1.18-2.6 0-3.98 2.14-3.98 4.5 0 2.34 1.38 4.5 3.98 4.5 1.1 0 2.04-.58 2.48-1.2zm0-2.2c-.46.84-1.3 1.38-2.26 1.38-1.68 0-2.66-1.32-2.66-3.14 0-1.84.98-3.16 2.66-3.16.96 0 1.8.54 2.26 1.38zm8.76-6.12c-.16-.08-.48-.14-.86-.14-.98 0-1.82.58-2.2 1.34v-1.16h-1.5v8.88h1.5v-5.96c.3-1.04 1.12-1.66 2.06-1.66.38 0 .76.08 1 .24zm7.212 6.26c-.24 1-1.06 1.56-2.16 1.56-1.5 0-2.56-1.16-2.58-3.06h6.28v-.54c0-2.58-1.3-4.36-3.74-4.36-2.42 0-4.04 1.98-4.04 4.64 0 2.74 1.66 4.6 4.08 4.6 2 0 3.26-1.16 3.58-2.84zm-2.18-5.12c1.48 0 2.18 1.16 2.2 2.48h-4.72c.22-1.56 1.18-2.48 2.52-2.48zm11.359 5.12c-.24 1-1.06 1.56-2.16 1.56-1.5 0-2.56-1.16-2.58-3.06h6.28v-.54c0-2.58-1.3-4.36-3.74-4.36-2.42 0-4.04 1.98-4.04 4.64 0 2.74 1.66 4.6 4.08 4.6 2 0 3.26-1.16 3.58-2.84zm-2.18-5.12c1.48 0 2.18 1.16 2.2 2.48h-4.72c.22-1.56 1.18-2.48 2.52-2.48zm12.021.14c-.42-.84-1.28-1.42-2.4-1.42-1.1 0-1.96.52-2.4 1.22v-1.04h-1.5v8.88h1.5v-6.12c.28-.96 1.06-1.58 1.96-1.58 1.14 0 1.68.82 1.68 2.06v5.64h1.5v-6.12c.28-.96 1.06-1.58 1.96-1.58 1.14 0 1.68.82 1.68 2.06v5.64h1.52v-5.88c0-1.92-1-3.18-2.8-3.18-1.24 0-2.14.62-2.7 1.42zm13.636 4.98c-.24 1-1.06 1.56-2.16 1.56-1.5 0-2.56-1.16-2.58-3.06h6.28v-.54c0-2.58-1.3-4.36-3.74-4.36-2.42 0-4.04 1.98-4.04 4.64 0 2.74 1.66 4.6 4.08 4.6 2 0 3.26-1.16 3.58-2.84zm-2.18-5.12c1.48 0 2.18 1.16 2.2 2.48h-4.72c.22-1.56 1.18-2.48 2.52-2.48zm5.72 7.78h1.5v-6.02c.32-.96 1.22-1.66 2.26-1.66 1.34 0 1.96.86 1.96 2.1v5.58h1.52v-5.82c0-1.94-1.1-3.24-3.12-3.24-1.14 0-2.1.6-2.62 1.3v-1.12h-1.5zm10.206-2.24c0 1.64 1 2.42 2.44 2.42.54 0 1.06-.12 1.4-.3v-1.4c-.3.2-.74.36-1.16.36-.76 0-1.18-.38-1.18-1.24v-5.2h2.14v-1.28h-2.14v-2.34h-1.5v2.34h-1.44v1.28h1.44zm16.781 2.24v-5.92c0-1.94-1.26-3.14-3.38-3.14-1.7 0-3.02 1.02-3.32 2.52h1.48c.28-.82.88-1.22 1.82-1.22 1.28 0 1.96.8 1.96 1.9v1.12c-.38-.34-1.32-.72-2.24-.72-1.9 0-3.4 1.12-3.4 2.78 0 1.76 1.5 2.84 3.3 2.84 1.06 0 2-.46 2.34-.82v.66zm-1.44-2.2c-.26.66-1.16 1.1-2.08 1.1-1.08 0-2.12-.5-2.12-1.58 0-1.06 1.04-1.54 2.12-1.54.92 0 1.82.44 2.08 1.1zm4.004 2.2h1.5v-6.02c.32-.96 1.22-1.66 2.26-1.66 1.34 0 1.96.86 1.96 2.1v5.58h1.52v-5.82c0-1.94-1.1-3.24-3.12-3.24-1.14 0-2.1.6-2.62 1.3v-1.12h-1.5zm15.645 0h1.52v-13h-1.52v5.16c-.44-.64-1.4-1.22-2.5-1.22-2.6 0-4 2.12-4 4.62 0 2.52 1.4 4.62 4 4.62 1.1 0 2.06-.58 2.5-1.22zm0-2.64c-.46.92-1.34 1.46-2.28 1.46-1.7 0-2.7-1.38-2.7-3.26s1-3.26 2.7-3.26c.94 0 1.82.54 2.28 1.46zm8.593 2.64h1.5v-6.02c.32-.96 1.22-1.66 2.26-1.66 1.34 0 1.96.86 1.96 2.1v5.58h1.52v-5.82c0-1.94-1.1-3.24-3.12-3.24-1.14 0-2.1.6-2.62 1.3v-5.24h-1.5zm11.286-8.88h-1.5v8.88h1.5zm.22-2.68c0-.54-.44-.96-.98-.96-.52 0-.96.42-.96.96 0 .52.44.96.96.96.54 0 .98-.44.98-.96zm1.719 9.12c.28 1.64 1.7 2.62 3.64 2.62 1.9 0 3.3-1 3.3-2.68 0-1.24-.74-2.08-2.26-2.48l-1.72-.42c-.84-.24-1.24-.52-1.24-1.12 0-.86.82-1.28 1.7-1.28 1.08 0 1.7.46 1.96 1.26h1.5c-.32-1.56-1.48-2.52-3.44-2.52-1.8 0-3.18 1.04-3.18 2.62 0 1.38.88 2.02 2.14 2.34l1.76.46c.92.24 1.32.62 1.32 1.24 0 .9-.76 1.32-1.82 1.32-1.04 0-1.82-.44-2.1-1.36zm9.442.2c0 1.64 1 2.42 2.44 2.42.54 0 1.06-.12 1.4-.3v-1.4c-.3.2-.74.36-1.16.36-.76 0-1.18-.38-1.18-1.24v-5.2h2.14v-1.28h-2.14v-2.34h-1.5v2.34h-1.44v1.28h1.44zm13.35-2.2c0-2.72-1.66-4.62-4.08-4.62-2.44 0-4.08 1.9-4.08 4.62s1.64 4.62 4.08 4.62c2.42 0 4.08-1.9 4.08-4.62zm-1.52 0c0 1.94-.96 3.3-2.56 3.3s-2.56-1.36-2.56-3.3.96-3.3 2.56-3.3 2.56 1.36 2.56 3.3zm8.11-4.48c-.16-.08-.48-.14-.86-.14-.98 0-1.82.58-2.2 1.34v-1.16h-1.5v8.88h1.5v-5.96c.3-1.04 1.12-1.66 2.06-1.66.38 0 .76.08 1 .24zm3.366.04h-1.5v8.88h1.5zm.22-2.68c0-.54-.44-.96-.98-.96-.52 0-.96.42-.96.96 0 .52.44.96.96.96.54 0 .98-.44.98-.96zm1.82 7.12c0 2.76 1.66 4.62 4.04 4.62 2 0 3.26-1.16 3.56-2.86h-1.54c-.2.96-.96 1.54-2.02 1.54-1.52 0-2.52-1.36-2.52-3.3s1-3.3 2.52-3.3c1.06 0 1.82.58 2.02 1.54h1.54c-.3-1.7-1.56-2.86-3.56-2.86-2.38 0-4.04 1.86-4.04 4.62zm16.006 4.44v-5.92c0-1.94-1.26-3.14-3.38-3.14-1.7 0-3.02 1.02-3.32 2.52h1.48c.28-.82.88-1.22 1.82-1.22 1.28 0 1.96.8 1.96 1.9v1.12c-.38-.34-1.32-.72-2.24-.72-1.9 0-3.4 1.12-3.4 2.78 0 1.76 1.5 2.84 3.3 2.84 1.06 0 2-.46 2.34-.82v.66zm-1.44-2.2c-.26.66-1.16 1.1-2.08 1.1-1.08 0-2.12-.5-2.12-1.58 0-1.06 1.04-1.54 2.12-1.54.92 0 1.82.44 2.08 1.1zm5.504-10.8h-1.5v13h1.5zm8.593 11.96c.46.64 1.4 1.22 2.5 1.22 2.62 0 4-2.16 4-4.62s-1.38-4.62-4-4.62c-1.1 0-2.04.58-2.5 1.22v-1.04h-1.5v12.28h1.5zm0-5.2c.46-.92 1.34-1.46 2.28-1.46 1.7 0 2.7 1.38 2.7 3.26s-1 3.26-2.7 3.26c-.94 0-1.82-.54-2.28-1.46zm14.979 6.24v-5.92c0-1.94-1.26-3.14-3.38-3.14-1.7 0-3.02 1.02-3.32 2.52h1.48c.28-.82.88-1.22 1.82-1.22 1.28 0 1.96.8 1.96 1.9v1.12c-.38-.34-1.32-.72-2.24-.72-1.9 0-3.4 1.12-3.4 2.78 0 1.76 1.5 2.84 3.3 2.84 1.06 0 2-.46 2.34-.82v.66zm-1.44-2.2c-.26.66-1.16 1.1-2.08 1.1-1.08 0-2.12-.5-2.12-1.58 0-1.06 1.04-1.54 2.12-1.54.92 0 1.82.44 2.08 1.1zm6.468 5.6 4.78-12.28h-1.56l-2.58 7-2.62-7h-1.62l3.46 8.94-1.34 3.34zm11.042-12.32c-.16-.08-.48-.14-.86-.14-.98 0-1.82.58-2.2 1.34v-1.16h-1.5v8.88h1.5v-5.96c.3-1.04 1.12-1.66 2.06-1.66.38 0 .76.08 1 .24zm9.131 4.48c0-2.72-1.66-4.62-4.08-4.62-2.44 0-4.08 1.9-4.08 4.62s1.64 4.62 4.08 4.62c2.42 0 4.08-1.9 4.08-4.62zm-1.52 0c0 1.94-.96 3.3-2.56 3.3s-2.56-1.36-2.56-3.3.96-3.3 2.56-3.3 2.56 1.36 2.56 3.3zm5.051-8.56h-1.5v13h1.5zm4.18 0h-1.5v13h1.5zm11.654 4.08c-.16-.08-.48-.14-.86-.14-.98 0-1.82.58-2.2 1.34v-1.16h-1.5v8.88h1.5v-5.96c.3-1.04 1.12-1.66 2.06-1.66.38 0 .76.08 1 .24zm7.212 6.26c-.24 1-1.061 1.56-2.16 1.56-1.5 0-2.56-1.16-2.58-3.06h6.28v-.54c0-2.58-1.3-4.36-3.74-4.36-2.42 0-4.04 1.98-4.04 4.64 0 2.74 1.66 4.6 4.08 4.6 2 0 3.26-1.16 3.58-2.84zm-2.18-5.12c1.48 0 2.18 1.16 2.2 2.48h-4.72c.22-1.56 1.18-2.48 2.52-2.48zm5.119 3.34c0 2.76 1.66 4.62 4.04 4.62 2 0 3.26-1.16 3.56-2.86h-1.54c-.2.96-.96 1.54-2.02 1.54-1.52 0-2.52-1.36-2.52-3.3s1-3.3 2.52-3.3c1.06 0 1.82.58 2.02 1.54h1.54c-.3-1.7-1.56-2.86-3.56-2.86-2.38 0-4.04 1.86-4.04 4.62zm17.047 0c0-2.72-1.66-4.62-4.08-4.62-2.44 0-4.08 1.9-4.08 4.62s1.64 4.62 4.08 4.62c2.42 0 4.08-1.9 4.08-4.62zm-1.52 0c0 1.94-.96 3.3-2.56 3.3s-2.56-1.36-2.56-3.3.96-3.3 2.56-3.3 2.56 1.36 2.56 3.3zm8.111-4.48c-.16-.08-.48-.14-.86-.14-.98 0-1.82.58-2.2 1.34v-1.16h-1.5v8.88h1.5v-5.96c.3-1.04 1.12-1.66 2.06-1.66.38 0 .76.08 1 .24zm7.472 8.92h1.52v-13h-1.52v5.16c-.44-.64-1.4-1.22-2.5-1.22-2.6 0-4 2.12-4 4.62 0 2.52 1.4 4.62 4 4.62 1.1 0 2.06-.58 2.5-1.22zm0-2.64c-.46.92-1.34 1.46-2.28 1.46-1.7 0-2.7-1.38-2.7-3.26s1-3.26 2.7-3.26c.94 0 1.82.54 2.28 1.46zm3.439.2c.28 1.64 1.7 2.62 3.64 2.62 1.9 0 3.3-1 3.3-2.68 0-1.24-.74-2.08-2.26-2.48l-1.72-.42c-.84-.24-1.24-.52-1.24-1.12 0-.86.82-1.28 1.7-1.28 1.08 0 1.7.46 1.96 1.26h1.5c-.32-1.56-1.48-2.52-3.44-2.52-1.8 0-3.18 1.04-3.18 2.62 0 1.38.88 2.02 2.14 2.34l1.76.46c.92.24 1.32.62 1.32 1.24 0 .9-.76 1.32-1.82 1.32-1.04 0-1.82-.44-2.1-1.36zm13.855.2c0 1.64 1 2.42 2.44 2.42.54 0 1.06-.12 1.4-.3v-1.4c-.3.2-.74.36-1.16.36-.76 0-1.18-.38-1.18-1.24v-5.2h2.14v-1.28h-2.14v-2.34h-1.5v2.34h-1.44v1.28h1.44zm5.928 2.24h1.5v-6.02c.32-.96 1.22-1.66 2.26-1.66 1.34 0 1.96.86 1.96 2.1v5.58h1.52v-5.82c0-1.94-1.1-3.24-3.12-3.24-1.14 0-2.1.6-2.62 1.3v-5.24h-1.5zm16.225 0v-5.92c0-1.94-1.26-3.14-3.38-3.14-1.7 0-3.02 1.02-3.32 2.52h1.48c.28-.82.88-1.22 1.82-1.22 1.28 0 1.96.8 1.96 1.9v1.12c-.38-.34-1.32-.72-2.24-.72-1.9 0-3.4 1.12-3.4 2.78 0 1.76 1.5 2.84 3.3 2.84 1.06 0 2-.46 2.34-.82v.66zm-1.44-2.2c-.26.66-1.16 1.1-2.08 1.1-1.08 0-2.12-.5-2.12-1.58 0-1.06 1.04-1.54 2.12-1.54.92 0 1.82.44 2.08 1.1zm4.365-.04c0 1.64 1 2.42 2.44 2.42.54 0 1.06-.12 1.4-.3v-1.4c-.3.2-.74.36-1.16.36-.76 0-1.18-.38-1.18-1.24v-5.2h2.14v-1.28h-2.14v-2.34h-1.5v2.34h-1.44v1.28h1.44zm9.602-.2c.28 1.64 1.7 2.62 3.64 2.62 1.9 0 3.3-1 3.3-2.68 0-1.24-.74-2.08-2.26-2.48l-1.72-.42c-.84-.24-1.24-.52-1.24-1.12 0-.86.82-1.28 1.7-1.28 1.08 0 1.7.46 1.96 1.26h1.5c-.32-1.56-1.48-2.52-3.44-2.52-1.8 0-3.18 1.04-3.18 2.62 0 1.38.88 2.02 2.14 2.34l1.76.46c.92.24 1.32.62 1.32 1.24 0 .9-.76 1.32-1.82 1.32-1.04 0-1.82-.44-2.1-1.36zm9.021 2.44h1.5v-6.02c.32-.96 1.22-1.66 2.26-1.66 1.34 0 1.96.86 1.96 2.1v5.58h1.52v-5.82c0-1.94-1.1-3.24-3.12-3.24-1.14 0-2.1.6-2.62 1.3v-5.24h-1.5zm17.305-4.44c0-2.72-1.66-4.62-4.08-4.62-2.44 0-4.08 1.9-4.08 4.62s1.64 4.62 4.08 4.62c2.42 0 4.08-1.9 4.08-4.62zm-1.52 0c0 1.94-.96 3.3-2.56 3.3s-2.56-1.36-2.56-3.3.96-3.3 2.56-3.3 2.56 1.36 2.56 3.3zm9.191-4.44h-1.34l-1.82 6.78-1.96-6.78h-1.5l2.62 8.88h1.46l1.86-6.74 1.84 6.74h1.46l2.62-8.88h-1.46l-1.96 6.78zm17.772 2.52c.96-.3 1.8-1.2 1.8-2.66 0-2.12-1.52-3.26-4.06-3.26h-4.04v12.28h4.44c2.52 0 4.08-1.22 4.08-3.46 0-1.38-.9-2.56-2.22-2.9zm-4.76-.58v-3.96h2.5c1.64 0 2.54.62 2.54 1.96s-.9 2-2.54 2zm0 1.32h2.9c1.66 0 2.54.82 2.54 2.12 0 1.28-.88 2.12-2.54 2.12h-2.9zm16.68 1.18c0-2.72-1.66-4.62-4.08-4.62-2.44 0-4.08 1.9-4.08 4.62s1.64 4.62 4.08 4.62c2.42 0 4.08-1.9 4.08-4.62zm-1.52 0c0 1.94-.96 3.3-2.56 3.3s-2.56-1.36-2.56-3.3.96-3.3 2.56-3.3 2.56 1.36 2.56 3.3zm5.051 3.4c.44.64 1.4 1.22 2.5 1.22 2.6 0 4-2.1 4-4.62 0-2.5-1.4-4.62-4-4.62-1.1 0-2.06.58-2.5 1.22v-5.16h-1.52v13h1.52zm0-5.2c.46-.92 1.34-1.46 2.28-1.46 1.7 0 2.7 1.38 2.7 3.26s-1 3.26-2.7 3.26c-.94 0-1.82-.54-2.28-1.46zm7.999-1.66h1.36v-4.38h-1.36zm2.769 5.46c.28 1.64 1.7 2.62 3.64 2.62 1.9 0 3.3-1 3.3-2.68 0-1.24-.74-2.08-2.26-2.48l-1.72-.42c-.84-.24-1.24-.52-1.24-1.12 0-.86.82-1.28 1.7-1.28 1.08 0 1.7.46 1.96 1.26h1.5c-.32-1.56-1.48-2.52-3.44-2.52-1.8 0-3.18 1.04-3.18 2.62 0 1.38.88 2.02 2.14 2.34l1.76.46c.92.24 1.32.62 1.32 1.24 0 .9-.76 1.32-1.82 1.32-1.04 0-1.82-.44-2.1-1.36zm-632.799 28.4c.44.64 1.4 1.22 2.5 1.22 2.6 0 4-2.1 4-4.62 0-2.5-1.4-4.62-4-4.62-1.1 0-2.06.58-2.5 1.22v-5.16h-1.52v13h1.52zm0-5.2c.46-.92 1.34-1.46 2.28-1.46 1.7 0 2.7 1.38 2.7 3.26s-1 3.26-2.7 3.26c-.94 0-1.82-.54-2.28-1.46zm16.0981 1.8c0-2.72-1.66-4.62-4.08-4.62-2.44 0-4.08 1.9-4.08 4.62s1.64 4.62 4.08 4.62c2.42 0 4.08-1.9 4.08-4.62zm-1.52 0c0 1.94-.96 3.3-2.56 3.3s-2.56-1.36-2.56-3.3.96-3.3 2.56-3.3 2.56 1.36 2.56 3.3zm3.5508 4.44h1.5v-6.02c.32-.96 1.22-1.66 2.26-1.66 1.34 0 1.96.86 1.96 2.1v5.58h1.52v-5.82c0-1.94-1.1-3.24-3.12-3.24-1.14 0-2.1.6-2.62 1.3v-1.12h-1.5zm16.8652-8.88h-1.52v6.02c-.32.96-1.18 1.66-2.22 1.66-1.34 0-1.94-.86-1.94-2.1v-5.58h-1.52v5.82c0 1.94 1.08 3.24 3.1 3.24 1.14 0 2.08-.6 2.58-1.3v1.12h1.52zm1.9261 6.44c.28 1.64 1.7 2.62 3.64 2.62 1.9 0 3.3-1 3.3-2.68 0-1.24-.74-2.08-2.26-2.48l-1.72-.42c-.84-.24-1.24-.52-1.24-1.12 0-.86.82-1.28 1.7-1.28 1.08 0 1.7.46 1.96 1.26h1.5c-.32-1.56-1.48-2.52-3.44-2.52-1.8 0-3.18 1.04-3.18 2.62 0 1.38.88 2.02 2.14 2.34l1.76.46c.92.24 1.32.62 1.32 1.24 0 .9-.76 1.32-1.82 1.32-1.04 0-1.82-.44-2.1-1.36zm14.9348-6.44h-1.5v8.88h1.5zm.22-2.68c0-.54-.44-.96-.98-.96-.52 0-.96.42-.96.96 0 .52.44.96.96.96.54 0 .98-.44.98-.96zm1.72 9.12c.28 1.64 1.7 2.62 3.64 2.62 1.9 0 3.3-1 3.3-2.68 0-1.24-.74-2.08-2.26-2.48l-1.72-.42c-.84-.24-1.24-.52-1.24-1.12 0-.86.82-1.28 1.7-1.28 1.08 0 1.7.46 1.96 1.26h1.5c-.32-1.56-1.48-2.52-3.44-2.52-1.8 0-3.18 1.04-3.18 2.62 0 1.38.88 2.02 2.14 2.34l1.76.46c.92.24 1.32.62 1.32 1.24 0 .9-.76 1.32-1.82 1.32-1.04 0-1.82-.44-2.1-1.36zm9.021 2.44h1.5v-6.02c.32-.96 1.22-1.66 2.26-1.66 1.34 0 1.96.86 1.96 2.1v5.58h1.52v-5.82c0-1.94-1.1-3.24-3.12-3.24-1.14 0-2.1.6-2.62 1.3v-1.12h-1.5zm9.246-7.9h1.36v-4.38h-1.36zm3.928 5.66c0 1.64 1 2.42 2.44 2.42.54 0 1.06-.12 1.4-.3v-1.4c-.3.2-.74.36-1.16.36-.76 0-1.18-.38-1.18-1.24v-5.2h2.14v-1.28h-2.14v-2.34h-1.5v2.34h-1.44v1.28h1.44zm16.202 2.24h1.52v-13h-1.52v5.16c-.44-.64-1.4-1.22-2.5-1.22-2.6 0-4 2.12-4 4.62 0 2.52 1.4 4.62 4 4.62 1.1 0 2.06-.58 2.5-1.22zm0-2.64c-.46.92-1.34 1.46-2.28 1.46-1.7 0-2.7-1.38-2.7-3.26s1-3.26 2.7-3.26c.94 0 1.82.54 2.28 1.46zm11.259-6.24h-1.52v6.02c-.32.96-1.18 1.66-2.22 1.66-1.34 0-1.94-.86-1.94-2.1v-5.58h-1.52v5.82c0 1.94 1.08 3.24 3.1 3.24 1.14 0 2.08-.6 2.58-1.3v1.12h1.52zm8.266 6.22c-.24 1-1.06 1.56-2.16 1.56-1.5 0-2.56-1.16-2.58-3.06h6.28v-.54c0-2.58-1.3-4.36-3.74-4.36-2.42 0-4.04 1.98-4.04 4.64 0 2.74 1.66 4.6 4.08 4.6 2 0 3.26-1.16 3.58-2.84zm-2.18-5.12c1.48 0 2.18 1.16 2.2 2.48h-4.72c.22-1.56 1.18-2.48 2.52-2.48zm17.215-1.1h-1.52v6.02c-.32.96-1.18 1.66-2.22 1.66-1.34 0-1.94-.86-1.94-2.1v-5.58h-1.52v5.82c0 1.94 1.08 3.24 3.1 3.24 1.14 0 2.08-.6 2.58-1.3v1.12h1.52zm2.666 8.88h1.5v-6.02c.32-.96 1.22-1.66 2.26-1.66 1.34 0 1.96.86 1.96 2.1v5.58h1.52v-5.82c0-1.94-1.1-3.24-3.12-3.24-1.14 0-2.1.6-2.62 1.3v-1.12h-1.5zm10.205-2.24c0 1.64 1 2.42 2.44 2.42.54 0 1.06-.12 1.4-.3v-1.4c-.3.2-.74.36-1.16.36-.76 0-1.18-.38-1.18-1.24v-5.2h2.14v-1.28h-2.14v-2.34h-1.5v2.34h-1.44v1.28h1.44zm7.428-6.64h-1.5v8.88h1.5zm.22-2.68c0-.54-.44-.96-.98-.96-.52 0-.96.42-.96.96 0 .52.44.96.96.96.54 0 .98-.44.98-.96zm3.959-1.44h-1.5v13h1.5zm7.094 13h1.5v-6.02c.32-.96 1.22-1.66 2.26-1.66 1.34 0 1.96.86 1.96 2.1v5.58h1.52v-5.82c0-1.94-1.1-3.24-3.12-3.24-1.14 0-2.1.6-2.62 1.3v-1.12h-1.5zm15.385-2.66c-.24 1-1.06 1.56-2.16 1.56-1.5 0-2.56-1.16-2.58-3.06h6.28v-.54c0-2.58-1.3-4.36-3.74-4.36-2.42 0-4.04 1.98-4.04 4.64 0 2.74 1.66 4.6 4.08 4.6 2 0 3.26-1.16 3.58-2.84zm-2.18-5.12c1.48 0 2.18 1.16 2.2 2.48h-4.72c.22-1.56 1.18-2.48 2.52-2.48zm12.626-1.1h-1.64l-2.3 3.18-2.24-3.18h-1.72l3.1 4.34-3.28 4.54h1.62l2.48-3.46 2.46 3.46h1.7l-3.3-4.6zm2.304 6.64c0 1.64 1 2.42 2.44 2.42.54 0 1.06-.12 1.4-.3v-1.4c-.3.2-.74.36-1.16.36-.76 0-1.18-.38-1.18-1.24v-5.2h2.14v-1.28h-2.14v-2.34h-1.5v2.34h-1.44v1.28h1.44zm16.642-5.4c-.42-.84-1.28-1.42-2.4-1.42-1.1 0-1.96.52-2.4 1.22v-1.04h-1.5v8.88h1.5v-6.12c.28-.96 1.06-1.58 1.96-1.58 1.14 0 1.68.82 1.68 2.06v5.64h1.5v-6.12c.28-.96 1.06-1.58 1.96-1.58 1.14 0 1.68.82 1.68 2.06v5.64h1.52v-5.88c0-1.92-1-3.18-2.8-3.18-1.24 0-2.14.62-2.7 1.42zm15.556 3.2c0-2.72-1.66-4.62-4.08-4.62-2.44 0-4.08 1.9-4.08 4.62s1.64 4.62 4.08 4.62c2.42 0 4.08-1.9 4.08-4.62zm-1.52 0c0 1.94-.96 3.3-2.56 3.3s-2.56-1.36-2.56-3.3.96-3.3 2.56-3.3 2.56 1.36 2.56 3.3zm3.551 4.44h1.5v-6.02c.32-.96 1.22-1.66 2.26-1.66 1.34 0 1.96.86 1.96 2.1v5.58h1.52v-5.82c0-1.94-1.1-3.24-3.12-3.24-1.14 0-2.1.6-2.62 1.3v-1.12h-1.5zm10.205-2.24c0 1.64 1 2.42 2.44 2.42.54 0 1.06-.12 1.4-.3v-1.4c-.3.2-.74.36-1.16.36-.76 0-1.18-.38-1.18-1.24v-5.2h2.14v-1.28h-2.14v-2.34h-1.5v2.34h-1.44v1.28h1.44zm5.927 2.24h1.5v-6.02c.32-.96 1.22-1.66 2.26-1.66 1.34 0 1.96.86 1.96 2.1v5.58h1.52v-5.82c0-1.94-1.1-3.24-3.12-3.24-1.14 0-2.1.6-2.62 1.3v-5.24h-1.5zm9.085-.98c0 .62.48 1.08 1.08 1.08.58 0 1.06-.46 1.06-1.08s-.48-1.1-1.06-1.1c-.6 0-1.08.48-1.08 1.1z" fill="#1c1c1c"/></svg>