<svg fill="none" height="534" viewBox="0 0 782 534" width="782" xmlns="http://www.w3.org/2000/svg" xmlns:xlink="http://www.w3.org/1999/xlink"><filter id="a" color-interpolation-filters="sRGB" filterUnits="userSpaceOnUse" height="534" width="782" x="0" y="0"><feFlood flood-opacity="0" result="BackgroundImageFix"/><feColorMatrix in="SourceAlpha" type="matrix" values="0 0 0 0 0 0 0 0 0 0 0 0 0 0 0 0 0 0 127 0"/><feOffset dy="3"/><feGaussianBlur stdDeviation="8.5"/><feColorMatrix type="matrix" values="0 0 0 0 0 0 0 0 0 0 0 0 0 0 0 0 0 0 0.1 0"/><feBlend in2="BackgroundImageFix" mode="normal" result="effect1_dropShadow"/><feBlend in="SourceGraphic" in2="effect1_dropShadow" mode="normal" result="shape"/></filter><linearGradient id="b" gradientUnits="userSpaceOnUse" x1="391" x2="391" y1="5.99996" y2="594"><stop offset="0" stop-color="#ffa776"/><stop offset="1" stop-color="#ffa776" stop-opacity="0"/></linearGradient><linearGradient id="c"><stop offset="0" stop-color="#ffc58f"/><stop offset="1" stop-color="#ff7c7c"/></linearGradient><linearGradient id="d" gradientUnits="userSpaceOnUse" x1="286" x2="317.487" xlink:href="#c" y1="200.171" y2="181.201"/><linearGradient id="e" gradientUnits="userSpaceOnUse" x1="526" x2="557.487" xlink:href="#c" y1="202.171" y2="183.201"/><linearGradient id="f" gradientUnits="userSpaceOnUse" x1="750" x2="656.086" y1="386.38" y2="676.74"><stop offset="0" stop-color="#fff8f0"/><stop offset="1" stop-color="#fff3f1"/></linearGradient><mask id="g" height="500" maskUnits="userSpaceOnUse" width="748" x="17" y="14"><rect fill="#fff" height="500" rx="6" width="748" x="17" y="14"/></mask><g filter="url(#a)"><rect fill="#fff" height="500" rx="6" width="748" x="17" y="14"/></g><g mask="url(#g)"><path d="m391.002 506.377.368.207.368-.207 394.499-222.45.381-.215v-.438-292.65867-.43668l-.379-.21555-394.499-223.9281-.37-.21-.37.21-395.23811 223.9278-.3803.21545v.43708 126.37467 1.289l1.12024-.636 394.12817-223.718 281.458 159.9448v165.4102l-280.72 159.207-258.936-146.121-1.118-.631v1.284 127.114.439l.383.215zm258.565-312.613 1.119.633v-1.286-126.375-.4368l-.38-.2156-259.305-147.0681-.371-.21-.37.2101-394.49865 223.9284-.37976.215v.437 292.658.438l.38121.215 395.2382 223.189.369.209.369-.21 393.76-223.189.381-.215v-.437-127.114-1.287l-1.12.634-393.391 222.98-282.196-159.208v-164.669l282.197-159.946zm332.326 204.49-.382.215v.438 151.833l-589.961 334.398-591.8-334.187v-674.847l591.71-335.242 590.79 335.348v521.843z" opacity=".5" stroke="url(#b)" stroke-opacity=".5" stroke-width="1.5"/></g><circle cx="380" cy="216.047" fill="#ffa776" fill-opacity=".4" r="39"/><g fill="#f9fafc"><path d="m387.108 220.795h10.4486v8.40782h-10.4486z" transform="matrix(.70064904 -.71350608 .71350608 .70064904 -41.657423 342.299104)"/><path d="m383.536 217.502h10.4486v2.88173h-10.4486z" transform="matrix(.70064904 -.71350608 .71350608 .70064904 -40.37713 338.764698)"/><path d="m394.623 228.085h10.4486v2.88173h-10.4486z" transform="matrix(.70064904 -.71350608 .71350608 .70064904 -44.60926 349.843371)"/><path d="m386.542 224.914h3.58732v10.7917h-3.58732z" transform="matrix(.71519278 .69892725 -.69892725 .71519278 267.288477 -206.107603)"/></g><path d="m364 231.747c0-8.862 7.184-16.047 16.047-16.047" stroke="#f9fafc" stroke-width="5"/><circle cx="380.047" cy="200.598" fill="#f9fafc" r="7.5513"/><circle cx="259" cy="216.047" fill="#ffa776" r="39"/><path d="m266.108 220.795h10.4486v8.40782h-10.4486z" fill="#f9fafc" transform="matrix(.70064904 -.71350608 .71350608 .70064904 -77.878889 255.964869)"/><path d="m262.536 217.502h10.4486v2.88173h-10.4486z" fill="#f9fafc" transform="matrix(.70064904 -.71350608 .71350608 .70064904 -76.598595 252.430463)"/><path d="m273.623 228.085h10.4486v2.88173h-10.4486z" fill="#f9fafc" transform="matrix(.70064904 -.71350608 .71350608 .70064904 -80.830726 263.509136)"/><path d="m265.542 224.914h3.58732v10.7917h-3.58732z" fill="#f9fafc" transform="matrix(.71519278 .69892725 -.69892725 .71519278 232.826803 -121.537406)"/><path d="m243 231.747c0-8.862 7.184-16.047 16.047-16.047" stroke="#f9fafc" stroke-width="5"/><circle cx="259.047" cy="200.598" fill="#f9fafc" r="7.5513"/><circle cx="501" cy="216.047" fill="#ffa776" r="39"/><path d="m507.108 220.795h10.4486v8.40782h-10.4486z" fill="#f9fafc" transform="matrix(.70064904 -.71350608 .71350608 .70064904 -5.735309 427.919833)"/><path d="m503.536 217.502h10.4486v2.88173h-10.4486z" fill="#f9fafc" transform="matrix(.70064904 -.71350608 .71350608 .70064904 -4.455015 424.385427)"/><path d="m514.623 228.085h10.4486v2.88173h-10.4486z" fill="#f9fafc" transform="matrix(.70064904 -.71350608 .71350608 .70064904 -8.687145 435.4641)"/><path d="m506.542 224.914h3.58732v10.7917h-3.58732z" fill="#f9fafc" transform="matrix(.71519278 .69892725 -.69892725 .71519278 301.465344 -289.978873)"/><path d="m484 231.747c0-8.862 7.184-16.047 16.047-16.047" stroke="#f9fafc" stroke-width="5"/><circle cx="500.047" cy="200.598" fill="#f9fafc" r="7.5513"/><path d="m309.216 183.697v4.486l-9.181-5.194-10.048 5.692v5.876l10.048 5.667 13.982-7.923v4.513l-13.982 7.922-14.035-7.922v-10.389l14.008-7.948z" fill="url(#d)"/><path d="m290.827 189.599v4.513l9.208 5.167 14.008-7.896v-10.388l-14.008-7.948-14.035 7.948v4.486l14.008-7.949 10.021 5.693v5.902l-9.994 5.667z" fill="url(#d)"/><path clip-rule="evenodd" d="m300.035 199.279-9.208-5.167v-4.513l9.208 5.195 9.994-5.667v-5.902l-10.021-5.693-14.008 7.949v-4.486l14.035-7.948 14.008 7.948v10.388zm0 .945-10.048-5.666v-5.877l10.048-5.692 9.181 5.194v-4.486l-9.208-5.22-14.008 7.948v10.389l14.035 7.922 13.982-7.922v-4.513zm-21.035-23.309 21.038-11.915 21.005 11.919v18.554l-.026.015v5.405l-20.976 11.885-21.041-11.878z" fill="#fff" fill-rule="evenodd"/><path d="m549.216 185.697v4.486l-9.181-5.194-10.048 5.692v5.876l10.048 5.667 13.982-7.923v4.513l-13.982 7.922-14.035-7.922v-10.389l14.008-7.948z" fill="url(#e)"/><path d="m530.827 191.599v4.513l9.208 5.167 14.008-7.896v-10.388l-14.008-7.948-14.035 7.948v4.486l14.008-7.949 10.021 5.693v5.902l-9.994 5.667z" fill="url(#e)"/><path clip-rule="evenodd" d="m540.035 201.279-9.208-5.167v-4.513l9.208 5.195 9.994-5.667v-5.902l-10.021-5.693-14.008 7.949v-4.486l14.035-7.948 14.008 7.948v10.388zm0 .945-10.048-5.666v-5.877l10.048-5.692 9.181 5.194v-4.486l-9.208-5.22-14.008 7.948v10.389l14.035 7.922 13.982-7.922v-4.513zm-21.035-23.309 21.038-11.915 21.005 11.919v18.554l-.026.015v5.405l-20.976 11.885-21.041-11.878z" fill="#fff" fill-rule="evenodd"/><rect fill="url(#f)" height="136" rx="4" width="718" x="32" y="364"/><path d="m52.46 394.8c.46 2.16 2.28 3.38 4.72 3.38s4.24-1.34 4.24-3.56c0-1.74-1.1-2.8-3.06-3.3l-2.1-.54c-1.28-.34-1.96-.84-1.96-1.88 0-1.26 1.08-2.02 2.54-2.02 1.62 0 2.54.8 2.92 1.9h1.58c-.46-1.94-1.96-3.24-4.5-3.24-2.32 0-4.04 1.4-4.04 3.48 0 1.86 1.24 2.72 2.94 3.16l2.2.58c1.42.36 1.96.98 1.96 1.94 0 1.36-1.12 2.14-2.72 2.14-1.5 0-2.66-.68-3.12-2.04zm12.4972-5.68h-1.5v8.88h1.5zm.22-2.68c0-.54-.44-.96-.98-.96-.52 0-.96.42-.96.96 0 .52.44.96.96.96.54 0 .98-.44.98-.96zm2.4597 11.56h1.5v-6.02c.32-.96 1.22-1.66 2.26-1.66 1.34 0 1.96.86 1.96 2.1v5.58h1.52v-5.82c0-1.94-1.1-3.24-3.12-3.24-1.14 0-2.1.6-2.62 1.3v-1.12h-1.5zm9.1451-4.44c0 2.76 1.66 4.62 4.04 4.62 2 0 3.26-1.16 3.56-2.86h-1.54c-.2.96-.96 1.54-2.02 1.54-1.52 0-2.52-1.36-2.52-3.3s1-3.3 2.52-3.3c1.06 0 1.82.58 2.02 1.54h1.54c-.3-1.7-1.56-2.86-3.56-2.86-2.38 0-4.04 1.86-4.04 4.62zm15.1268 1.78c-.24 1-1.0601 1.56-2.16 1.56-1.5 0-2.56-1.16-2.58-3.06h6.28v-.54c0-2.58-1.3-4.36-3.74-4.36-2.42 0-4.04 1.98-4.04 4.64 0 2.74 1.66 4.6 4.08 4.6 2 0 3.26-1.16 3.58-2.84zm-2.18-5.12c1.48 0 2.18 1.16 2.2 2.48h-4.72c.22-1.56 1.18-2.48 2.52-2.48zm17.6542 3.34c0-2.72-1.66-4.62-4.08-4.62-2.44 0-4.0796 1.9-4.0796 4.62s1.6396 4.62 4.0796 4.62c2.42 0 4.08-1.9 4.08-4.62zm-1.52 0c0 1.94-.96 3.3-2.56 3.3s-2.56-1.36-2.56-3.3.96-3.3 2.56-3.3 2.56 1.36 2.56 3.3zm3.551 4.44h1.5v-6.02c.32-.96 1.22-1.66 2.26-1.66 1.34 0 1.96.86 1.96 2.1v5.58h1.52v-5.82c0-1.94-1.1-3.24-3.12-3.24-1.14 0-2.1.6-2.62 1.3v-1.12h-1.5zm15.385-2.66c-.24 1-1.06 1.56-2.16 1.56-1.5 0-2.56-1.16-2.58-3.06h6.28v-.54c0-2.58-1.3-4.36-3.74-4.36-2.42 0-4.04 1.98-4.04 4.64 0 2.74 1.66 4.6 4.08 4.6 2 0 3.26-1.16 3.58-2.84zm-2.18-5.12c1.48 0 2.18 1.16 2.2 2.48h-4.72c.22-1.56 1.18-2.48 2.52-2.48zm17.655 3.34c0-2.72-1.66-4.62-4.08-4.62-2.44 0-4.08 1.9-4.08 4.62s1.64 4.62 4.08 4.62c2.42 0 4.08-1.9 4.08-4.62zm-1.52 0c0 1.94-.96 3.3-2.56 3.3s-2.56-1.36-2.56-3.3.96-3.3 2.56-3.3 2.56 1.36 2.56 3.3zm7.991-8.54c-.34-.14-.68-.2-1.16-.2-1.56 0-2.72 1.04-2.72 2.82v1.48h-1.5v1.28h1.5v7.6h1.48v-7.6h2v-1.28h-2v-1.36c0-1.06.58-1.62 1.46-1.62.32 0 .66.06.94.24zm6.175 10.74c0 1.64 1 2.42 2.44 2.42.54 0 1.06-.12 1.4-.3v-1.4c-.3.2-.74.36-1.16.36-.76 0-1.18-.38-1.18-1.24v-5.2h2.14v-1.28h-2.14v-2.34h-1.5v2.34h-1.44v1.28h1.44zm5.928 2.24h1.5v-6.02c.32-.96 1.22-1.66 2.26-1.66 1.34 0 1.96.86 1.96 2.1v5.58h1.52v-5.82c0-1.94-1.1-3.24-3.12-3.24-1.14 0-2.1.6-2.62 1.3v-5.24h-1.5zm15.385-2.66c-.24 1-1.06 1.56-2.16 1.56-1.5 0-2.56-1.16-2.58-3.06h6.28v-.54c0-2.58-1.3-4.36-3.74-4.36-2.42 0-4.04 1.98-4.04 4.64 0 2.74 1.66 4.6 4.08 4.6 2 0 3.26-1.16 3.58-2.84zm-2.18-5.12c1.48 0 2.18 1.16 2.2 2.48h-4.72c.22-1.56 1.18-2.48 2.52-2.48zm11.635-1.1h-1.5v9.8c0 1-.42 1.36-1.2 1.36-.18 0-.4-.04-.52-.06v1.28c.16.06.46.08.64.08 1.66 0 2.58-.9 2.58-2.56zm.22-2.68c0-.54-.44-.96-.98-.96-.52 0-.96.42-.96.96 0 .52.44.96.96.96.54 0 .98-.44.98-.96zm9.5 2.68h-1.52v6.02c-.32.96-1.18 1.66-2.22 1.66-1.34 0-1.94-.86-1.94-2.1v-5.58h-1.52v5.82c0 1.94 1.08 3.24 3.1 3.24 1.14 0 2.08-.6 2.58-1.3v1.12h1.52zm7.226-.04c-.16-.08-.48-.14-.86-.14-.98 0-1.82.58-2.2 1.34v-1.16h-1.5v8.88h1.5v-5.96c.3-1.04 1.12-1.66 2.06-1.66.38 0 .76.08 1 .24zm9.132 4.48c0-2.72-1.66-4.62-4.08-4.62-2.44 0-4.08 1.9-4.08 4.62s1.64 4.62 4.08 4.62c2.42 0 4.08-1.9 4.08-4.62zm-1.52 0c0 1.94-.96 3.3-2.56 3.3s-2.56-1.36-2.56-3.3.96-3.3 2.56-3.3 2.56 1.36 2.56 3.3zm8.111-4.48c-.16-.08-.48-.14-.86-.14-.98 0-1.82.58-2.2 1.34v-1.16h-1.5v8.88h1.5v-5.96c.3-1.04 1.12-1.66 2.06-1.66.38 0 .76.08 1 .24zm1.067 6.48c.28 1.64 1.7 2.62 3.64 2.62 1.9 0 3.3-1 3.3-2.68 0-1.24-.74-2.08-2.26-2.48l-1.72-.42c-.84-.24-1.24-.52-1.24-1.12 0-.86.82-1.28 1.7-1.28 1.08 0 1.7.46 1.96 1.26h1.5c-.32-1.56-1.48-2.52-3.44-2.52-1.8 0-3.18 1.04-3.18 2.62 0 1.38.88 2.02 2.14 2.34l1.76.46c.92.24 1.32.62 1.32 1.24 0 .9-.76 1.32-1.82 1.32-1.04 0-1.82-.44-2.1-1.36zm19.296 2.44h1.52v-13h-1.52v5.16c-.44-.64-1.4-1.22-2.5-1.22-2.6 0-4 2.12-4 4.62 0 2.52 1.4 4.62 4 4.62 1.1 0 2.06-.58 2.5-1.22zm0-2.64c-.46.92-1.34 1.46-2.28 1.46-1.7 0-2.7-1.38-2.7-3.26s1-3.26 2.7-3.26c.94 0 1.82.54 2.28 1.46zm5.679-6.24h-1.5v8.88h1.5zm.22-2.68c0-.54-.44-.96-.98-.96-.52 0-.96.42-.96.96 0 .52.44.96.96.96.54 0 .98-.44.98-.96zm8.319 11.56h1.52v-13h-1.52v5.16c-.44-.64-1.4-1.22-2.5-1.22-2.6 0-4 2.12-4 4.62 0 2.52 1.4 4.62 4 4.62 1.1 0 2.06-.58 2.5-1.22zm0-2.64c-.46.92-1.34 1.46-2.28 1.46-1.7 0-2.7-1.38-2.7-3.26s1-3.26 2.7-3.26c.94 0 1.82.54 2.28 1.46zm8.593 2.64h1.5v-6.02c.32-.96 1.22-1.66 2.26-1.66 1.34 0 1.96.86 1.96 2.1v5.58h1.52v-5.82c0-1.94-1.1-3.24-3.12-3.24-1.14 0-2.1.6-2.62 1.3v-1.12h-1.5zm17.306-4.44c0-2.72-1.66-4.62-4.08-4.62-2.44 0-4.08 1.9-4.08 4.62s1.64 4.62 4.08 4.62c2.42 0 4.08-1.9 4.08-4.62zm-1.52 0c0 1.94-.96 3.3-2.56 3.3s-2.56-1.36-2.56-3.3.96-3.3 2.56-3.3 2.56 1.36 2.56 3.3zm3.97 2.2c0 1.64 1 2.42 2.44 2.42.54 0 1.06-.12 1.4-.3v-1.4c-.3.2-.74.36-1.16.36-.76 0-1.18-.38-1.18-1.24v-5.2h2.14v-1.28h-2.14v-2.34h-1.5v2.34h-1.44v1.28h1.44zm14.282 2.24 3.46-8.88h-1.58l-2.58 6.98-2.6-6.98h-1.62l3.44 8.88zm12.525-4.44c0-2.72-1.66-4.62-4.08-4.62-2.44 0-4.08 1.9-4.08 4.62s1.64 4.62 4.08 4.62c2.42 0 4.08-1.9 4.08-4.62zm-1.52 0c0 1.94-.96 3.3-2.56 3.3s-2.56-1.36-2.56-3.3.96-3.3 2.56-3.3 2.56 1.36 2.56 3.3zm3.971 2.2c0 1.64 1 2.42 2.44 2.42.54 0 1.06-.12 1.4-.3v-1.4c-.3.2-.74.36-1.16.36-.76 0-1.18-.38-1.18-1.24v-5.2h2.14v-1.28h-2.14v-2.34h-1.5v2.34h-1.44v1.28h1.44zm11.43-.42c-.24 1-1.06 1.56-2.16 1.56-1.5 0-2.56-1.16-2.58-3.06h6.28v-.54c0-2.58-1.3-4.36-3.74-4.36-2.42 0-4.04 1.98-4.04 4.64 0 2.74 1.66 4.6 4.08 4.6 2 0 3.26-1.16 3.58-2.84zm-2.18-5.12c1.48 0 2.18 1.16 2.2 2.48h-4.72c.22-1.56 1.18-2.48 2.52-2.48zm11.635-1.1h-1.5v8.88h1.5zm.22-2.68c0-.54-.44-.96-.98-.96-.52 0-.96.42-.96.96 0 .52.44.96.96.96.54 0 .98-.44.98-.96zm2.46 11.56h1.5v-6.02c.32-.96 1.22-1.66 2.26-1.66 1.34 0 1.96.86 1.96 2.1v5.58h1.52v-5.82c0-1.94-1.1-3.24-3.12-3.24-1.14 0-2.1.6-2.62 1.3v-1.12h-1.5zm18.639-12.98c-.34-.14-.68-.2-1.16-.2-1.56 0-2.72 1.04-2.72 2.82v1.48h-1.5v1.28h1.5v7.6h1.48v-7.6h2v-1.28h-2v-1.36c0-1.06.58-1.62 1.46-1.62.32 0 .66.06.94.24zm7.586 12.98v-5.92c0-1.94-1.26-3.14-3.38-3.14-1.7 0-3.02 1.02-3.32 2.52h1.48c.28-.82.88-1.22 1.82-1.22 1.28 0 1.96.8 1.96 1.9v1.12c-.38-.34-1.32-.72-2.24-.72-1.9 0-3.4 1.12-3.4 2.78 0 1.76 1.5 2.84 3.3 2.84 1.06 0 2-.46 2.34-.82v.66zm-1.44-2.2c-.26.66-1.16 1.1-2.08 1.1-1.08 0-2.12-.5-2.12-1.58 0-1.06 1.04-1.54 2.12-1.54.92 0 1.82.44 2.08 1.1zm7.787 2.2 3.46-8.88h-1.58l-2.58 6.98-2.6-6.98h-1.62l3.44 8.88zm12.526-4.44c0-2.72-1.66-4.62-4.08-4.62-2.44 0-4.08 1.9-4.08 4.62s1.64 4.62 4.08 4.62c2.42 0 4.08-1.9 4.08-4.62zm-1.52 0c0 1.94-.96 3.3-2.56 3.3s-2.56-1.36-2.56-3.3.96-3.3 2.56-3.3 2.56 1.36 2.56 3.3zm8.11-4.48c-.16-.08-.48-.14-.86-.14-.98 0-1.82.58-2.2 1.34v-1.16h-1.5v8.88h1.5v-5.96c.3-1.04 1.12-1.66 2.06-1.66.38 0 .76.08 1 .24zm13.8 4.48c0-2.72-1.66-4.62-4.08-4.62-2.44 0-4.08 1.9-4.08 4.62s1.64 4.62 4.08 4.62c2.42 0 4.08-1.9 4.08-4.62zm-1.52 0c0 1.94-.96 3.3-2.56 3.3s-2.56-1.36-2.56-3.3.96-3.3 2.56-3.3 2.56 1.36 2.56 3.3zm7.991-8.54c-.34-.14-.68-.2-1.16-.2-1.56 0-2.72 1.04-2.72 2.82v1.48h-1.5v1.28h1.5v7.6h1.48v-7.6h2v-1.28h-2v-1.36c0-1.06.58-1.62 1.46-1.62.32 0 .66.06.94.24zm9.635.7-4.8 12.28h1.6l1.4-3.7h5.06l1.42 3.7h1.6l-4.8-12.28zm.72 1.96 2 5.24h-4zm8.814-2.68h-1.5v13h1.5zm4.18 4.12h-1.5v8.88h1.5zm.22-2.68c0-.54-.44-.96-.98-.96-.52 0-.96.42-.96.96 0 .52.44.96.96.96.54 0 .98-.44.98-.96zm1.82 7.12c0 2.76 1.66 4.62 4.04 4.62 2 0 3.26-1.16 3.56-2.86h-1.54c-.2.96-.96 1.54-2.02 1.54-1.52 0-2.52-1.36-2.52-3.3s1-3.3 2.52-3.3c1.06 0 1.82.58 2.02 1.54h1.54c-.3-1.7-1.56-2.86-3.56-2.86-2.38 0-4.04 1.86-4.04 4.62zm15.127 1.78c-.24 1-1.06 1.56-2.16 1.56-1.5 0-2.56-1.16-2.58-3.06h6.28v-.54c0-2.58-1.3-4.36-3.74-4.36-2.42 0-4.04 1.98-4.04 4.64 0 2.74 1.66 4.6 4.08 4.6 2 0 3.26-1.16 3.58-2.84zm-2.18-5.12c1.48 0 2.18 1.16 2.2 2.48h-4.72c.22-1.56 1.18-2.48 2.52-2.48zm9.594 3.26h4.82v-1.4h-4.82zm17.02-4.36h-1.34l-1.82 6.78-1.96-6.78h-1.5l2.62 8.88h1.46l1.86-6.74 1.84 6.74h1.46l2.62-8.88h-1.46l-1.96 6.78zm6.938 8.88h1.5v-6.02c.32-.96 1.22-1.66 2.26-1.66 1.34 0 1.96.86 1.96 2.1v5.58h1.52v-5.82c0-1.94-1.1-3.24-3.12-3.24-1.14 0-2.1.6-2.62 1.3v-5.24h-1.5zm17.305-4.44c0-2.72-1.66-4.62-4.08-4.62-2.44 0-4.08 1.9-4.08 4.62s1.64 4.62 4.08 4.62c2.42 0 4.08-1.9 4.08-4.62zm-1.52 0c0 1.94-.96 3.3-2.56 3.3s-2.56-1.36-2.56-3.3.96-3.3 2.56-3.3 2.56 1.36 2.56 3.3zm13.605-4.44h-1.34l-1.82 6.78-1.96-6.78h-1.5l2.62 8.88h1.46l1.86-6.74 1.84 6.74h1.46l2.62-8.88h-1.46l-1.96 6.78zm14.458 4.44c0-2.72-1.66-4.62-4.08-4.62-2.44 0-4.08 1.9-4.08 4.62s1.64 4.62 4.08 4.62c2.42 0 4.08-1.9 4.08-4.62zm-1.52 0c0 1.94-.96 3.3-2.56 3.3s-2.56-1.36-2.56-3.3.96-3.3 2.56-3.3 2.56 1.36 2.56 3.3zm3.551 4.44h1.5v-6.02c.32-.96 1.22-1.66 2.26-1.66 1.34 0 1.96.86 1.96 2.1v5.58h1.52v-5.82c0-1.94-1.1-3.24-3.12-3.24-1.14 0-2.1.6-2.62 1.3v-1.12h-1.5zm14.619-2.24c0 1.64 1 2.42 2.44 2.42.54 0 1.06-.12 1.4-.3v-1.4c-.3.2-.74.36-1.16.36-.76 0-1.18-.38-1.18-1.24v-5.2h2.14v-1.28h-2.14v-2.34h-1.5v2.34h-1.44v1.28h1.44zm5.928 2.24h1.5v-6.02c.32-.96 1.22-1.66 2.26-1.66 1.34 0 1.96.86 1.96 2.1v5.58h1.52v-5.82c0-1.94-1.1-3.24-3.12-3.24-1.14 0-2.1.6-2.62 1.3v-5.24h-1.5zm15.385-2.66c-.24 1-1.06 1.56-2.16 1.56-1.5 0-2.56-1.16-2.58-3.06h6.28v-.54c0-2.58-1.3-4.36-3.74-4.36-2.42 0-4.04 1.98-4.04 4.64 0 2.74 1.66 4.6 4.08 4.6 2 0 3.26-1.16 3.58-2.84zm-2.18-5.12c1.48 0 2.18 1.16 2.2 2.48h-4.72c.22-1.56 1.18-2.48 2.52-2.48zm14.575-5.2c-.34-.14-.68-.2-1.16-.2-1.56 0-2.72 1.04-2.72 2.82v1.48h-1.5v1.28h1.5v7.6h1.48v-7.6h2v-1.28h-2v-1.36c0-1.06.58-1.62 1.46-1.62.32 0 .66.06.94.24zm2.841 4.1h-1.5v8.88h1.5zm.22-2.68c0-.54-.44-.96-.98-.96-.52 0-.96.42-.96.96 0 .52.44.96.96.96.54 0 .98-.44.98-.96zm2.46 11.56h1.5v-6.02c.32-.96 1.22-1.66 2.26-1.66 1.34 0 1.96.86 1.96 2.1v5.58h1.52v-5.82c0-1.94-1.1-3.24-3.12-3.24-1.14 0-2.1.6-2.62 1.3v-1.12h-1.5zm16.225 0v-5.92c0-1.94-1.26-3.14-3.38-3.14-1.7 0-3.02 1.02-3.32 2.52h1.48c.28-.82.88-1.22 1.82-1.22 1.28 0 1.96.8 1.96 1.9v1.12c-.38-.34-1.32-.72-2.24-.72-1.9 0-3.4 1.12-3.4 2.78 0 1.76 1.5 2.84 3.3 2.84 1.06 0 2-.46 2.34-.82v.66zm-1.44-2.2c-.26.66-1.16 1.1-2.08 1.1-1.08 0-2.12-.5-2.12-1.58 0-1.06 1.04-1.54 2.12-1.54.92 0 1.82.44 2.08 1.1zm5.504-10.8h-1.5v13h1.5zm11.654 4.08c-.16-.08-.48-.14-.86-.14-.98 0-1.82.58-2.2 1.34v-1.16h-1.5v8.88h1.5v-5.96c.3-1.04 1.12-1.66 2.06-1.66.38 0 .76.08 1 .24zm8.945.04h-1.52v6.02c-.32.96-1.18 1.66-2.22 1.66-1.34 0-1.94-.86-1.94-2.1v-5.58h-1.52v5.82c0 1.94 1.08 3.24 3.1 3.24 1.14 0 2.08-.6 2.58-1.3v1.12h1.52zm4.166-4.12h-1.5v13h1.5zm4.18 4.12h-1.5v8.88h1.5zm.22-2.68c0-.54-.44-.96-.98-.96-.52 0-.96.42-.96.96 0 .52.44.96.96.96.54 0 .98-.44.98-.96zm2.46 11.56h1.5v-6.02c.32-.96 1.22-1.66 2.26-1.66 1.34 0 1.96.86 1.96 2.1v5.58h1.52v-5.82c0-1.94-1.1-3.24-3.12-3.24-1.14 0-2.1.6-2.62 1.3v-1.12h-1.5zm15.605-.6c0 1.92-.84 2.92-2.44 2.92-1.22 0-2.06-.54-2.32-1.66h-1.48c.28 1.82 1.64 2.94 3.8 2.94 2.28 0 3.96-1.38 3.96-4.3v-8.18h-1.52v1c-.44-.62-1.38-1.18-2.48-1.18-2.6 0-3.98 2.14-3.98 4.5 0 2.34 1.38 4.5 3.98 4.5 1.1 0 2.04-.58 2.48-1.2zm0-2.2c-.46.84-1.3 1.38-2.26 1.38-1.68 0-2.66-1.32-2.66-3.14 0-1.84.98-3.16 2.66-3.16.96 0 1.8.54 2.26 1.38zm8.074-1.72h4.82v-1.4h-4.82zm11.799 2.28c0 1.64 1 2.42 2.44 2.42.54 0 1.06-.12 1.4-.3v-1.4c-.3.2-.74.36-1.16.36-.76 0-1.18-.38-1.18-1.24v-5.2h2.14v-1.28h-2.14v-2.34h-1.5v2.34h-1.44v1.28h1.44zm5.928 2.24h1.5v-6.02c.32-.96 1.22-1.66 2.26-1.66 1.34 0 1.96.86 1.96 2.1v5.58h1.52v-5.82c0-1.94-1.1-3.24-3.12-3.24-1.14 0-2.1.6-2.62 1.3v-5.24h-1.5zm15.385-2.66c-.24 1-1.06 1.56-2.16 1.56-1.5 0-2.56-1.16-2.58-3.06h6.28v-.54c0-2.58-1.3-4.36-3.74-4.36-2.42 0-4.04 1.98-4.04 4.64 0 2.74 1.66 4.6 4.08 4.6 2 0 3.26-1.16 3.58-2.84zm-2.18-5.12c1.48 0 2.18 1.16 2.2 2.48h-4.72c.22-1.56 1.18-2.48 2.52-2.48zm7.221-1.1h-1.5v8.88h1.5zm.22-2.68c0-.54-.44-.96-.98-.96-.52 0-.96.42-.96.96 0 .52.44.96.96.96.54 0 .98-.44.98-.96zm7.02 2.64c-.16-.08-.48-.14-.86-.14-.98 0-1.82.58-2.2 1.34v-1.16h-1.5v8.88h1.5v-5.96c.3-1.04 1.12-1.66 2.06-1.66.38 0 .76.08 1 .24zm-636.89 35.92v-5.92c0-1.94-1.26-3.14-3.38-3.14-1.7 0-3.02 1.02-3.32 2.52h1.48c.28-.82.88-1.22 1.82-1.22 1.28 0 1.96.8 1.96 1.9v1.12c-.38-.34-1.32-.72-2.24-.72-1.9 0-3.4 1.12-3.4 2.78 0 1.76 1.5 2.84 3.3 2.84 1.06 0 2-.46 2.34-.82v.66zm-1.44-2.2c-.26.66-1.16 1.1-2.08 1.1-1.08 0-2.12-.5-2.12-1.58 0-1.06 1.04-1.54 2.12-1.54.92 0 1.82.44 2.08 1.1zm3.3639-2.24c0 2.76 1.66 4.62 4.04 4.62 2 0 3.26-1.16 3.56-2.86h-1.54c-.2.96-.96 1.54-2.02 1.54-1.52 0-2.52-1.36-2.52-3.3s1-3.3 2.52-3.3c1.06 0 1.82.58 2.02 1.54h1.54c-.3-1.7-1.56-2.86-3.56-2.86-2.38 0-4.04 1.86-4.04 4.62zm10.0444 2.2c0 1.64 1 2.42 2.44 2.42.54 0 1.06-.12 1.4-.3v-1.4c-.3.2-.74.36-1.16.36-.76 0-1.18-.38-1.18-1.24v-5.2h2.14v-1.28h-2.14v-2.34h-1.5v2.34h-1.44v1.28h1.44zm7.4276-6.64h-1.5v8.88h1.5zm.22-2.68c0-.54-.44-.96-.98-.96-.52 0-.96.42-.96.96 0 .52.44.96.96.96.54 0 .98-.44.98-.96zm6.3997 11.56 3.46-8.88h-1.58l-2.58 6.98-2.6-6.98h-1.62l3.44 8.88zm11.3672 0v-5.92c0-1.94-1.26-3.14-3.38-3.14-1.7 0-3.02 1.02-3.32 2.52h1.48c.28-.82.88-1.22 1.82-1.22 1.28 0 1.96.8 1.96 1.9v1.12c-.38-.34-1.32-.72-2.24-.72-1.9 0-3.4 1.12-3.4 2.78 0 1.76 1.5 2.84 3.3 2.84 1.06 0 2-.46 2.34-.82v.66zm-1.44-2.2c-.26.66-1.16 1.1-2.08 1.1-1.08 0-2.12-.5-2.12-1.58 0-1.06 1.04-1.54 2.12-1.54.92 0 1.82.44 2.08 1.1zm4.3652-.04c0 1.64 1 2.42 2.44 2.42.54 0 1.06-.12 1.4-.3v-1.4c-.3.2-.74.36-1.16.36-.76 0-1.18-.38-1.18-1.24v-5.2h2.14v-1.28h-2.14v-2.34h-1.5v2.34h-1.4399v1.28h1.4399zm11.43-.42c-.24 1-1.06 1.56-2.16 1.56-1.5 0-2.56-1.16-2.58-3.06h6.28v-.54c0-2.58-1.3-4.36-3.74-4.36-2.42 0-4.04 1.98-4.04 4.64 0 2.74 1.66 4.6 4.08 4.6 2 0 3.26-1.16 3.58-2.84zm-2.18-5.12c1.48 0 2.18 1.16 2.2 2.48h-4.72c.22-1.56 1.18-2.48 2.52-2.48zm11.62 7.78h1.52v-13h-1.52v5.16c-.44-.64-1.4-1.22-2.5-1.22-2.6 0-4 2.12-4 4.62 0 2.52 1.4 4.62 4 4.62 1.1 0 2.06-.58 2.5-1.22zm0-2.64c-.46.92-1.34 1.46-2.28 1.46-1.7 0-2.7-1.38-2.7-3.26s1-3.26 2.7-3.26c.94 0 1.82.54 2.28 1.46zm12.473-9.64-4.8 12.28h1.6l1.4-3.7h5.06l1.42 3.7h1.6l-4.8-12.28zm.72 1.96 2 5.24h-4zm16.974-1.96h-1.5v9.34l-6.54-9.34h-1.5v12.28h1.52v-9.76l6.86 9.76h1.16zm1.801 8.8c.16 2.16 1.6 3.66 4.02 3.66 2.34 0 4-1.4 4-4.26v-8.2h-1.58v8.2c0 1.98-.94 2.82-2.44 2.82-1.38 0-2.22-.84-2.38-2.22zm20.624-5.4h-1.34l-1.82 6.78-1.96-6.78h-1.5l2.62 8.88h1.46l1.86-6.74 1.84 6.74h1.46l2.62-8.88h-1.46l-1.96 6.78zm8.438 0h-1.5v8.88h1.5zm.22-2.68c0-.54-.44-.96-.98-.96-.52 0-.96.42-.96.96 0 .52.44.96.96.96.54 0 .98-.44.98-.96zm3.96-1.44h-1.5v13h1.5zm4.18 0h-1.5v13h1.5zm8.594 11.96c.44.64 1.4 1.22 2.5 1.22 2.6 0 4-2.1 4-4.62 0-2.5-1.4-4.62-4-4.62-1.1 0-2.06.58-2.5 1.22v-5.16h-1.52v13h1.52zm0-5.2c.46-.92 1.34-1.46 2.28-1.46 1.7 0 2.7 1.38 2.7 3.26s-1 3.26-2.7 3.26c-.94 0-1.82-.54-2.28-1.46zm14.178 3.58c-.24 1-1.06 1.56-2.16 1.56-1.5 0-2.56-1.16-2.58-3.06h6.28v-.54c0-2.58-1.3-4.36-3.74-4.36-2.42 0-4.04 1.98-4.04 4.64 0 2.74 1.66 4.6 4.08 4.6 2 0 3.26-1.16 3.58-2.84zm-2.18-5.12c1.48 0 2.18 1.16 2.2 2.48h-4.72c.22-1.56 1.18-2.48 2.52-2.48zm15.994 7.78h1.52v-13h-1.52v5.16c-.44-.64-1.4-1.22-2.5-1.22-2.6 0-4 2.12-4 4.62 0 2.52 1.4 4.62 4 4.62 1.1 0 2.06-.58 2.5-1.22zm0-2.64c-.46.92-1.34 1.46-2.28 1.46-1.7 0-2.7-1.38-2.7-3.26s1-3.26 2.7-3.26c.94 0 1.82.54 2.28 1.46zm5.679-6.24h-1.5v8.88h1.5zm.22-2.68c0-.54-.44-.96-.98-.96-.52 0-.96.42-.96.96 0 .52.44.96.96.96.54 0 .98-.44.98-.96zm1.72 9.12c.28 1.64 1.7 2.62 3.64 2.62 1.9 0 3.3-1 3.3-2.68 0-1.24-.74-2.08-2.26-2.48l-1.72-.42c-.84-.24-1.24-.52-1.24-1.12 0-.86.82-1.28 1.7-1.28 1.08 0 1.7.46 1.96 1.26h1.5c-.32-1.56-1.48-2.52-3.44-2.52-1.8 0-3.18 1.04-3.18 2.62 0 1.38.88 2.02 2.14 2.34l1.76.46c.92.24 1.32.62 1.32 1.24 0 .9-.76 1.32-1.82 1.32-1.04 0-1.82-.44-2.1-1.36zm9.441.2c0 1.64 1 2.42 2.44 2.42.54 0 1.06-.12 1.4-.3v-1.4c-.3.2-.74.36-1.16.36-.76 0-1.18-.38-1.18-1.24v-5.2h2.14v-1.28h-2.14v-2.34h-1.5v2.34h-1.44v1.28h1.44zm10.488-6.68c-.16-.08-.48-.14-.86-.14-.98 0-1.82.58-2.2 1.34v-1.16h-1.5v8.88h1.5v-5.96c.3-1.04 1.12-1.66 2.06-1.66.38 0 .76.08 1 .24zm3.366.04h-1.5v8.88h1.5zm.22-2.68c0-.54-.44-.96-.98-.96-.52 0-.96.42-.96.96 0 .52.44.96.96.96.54 0 .98-.44.98-.96zm3.96 10.52c.44.64 1.4 1.22 2.5 1.22 2.6 0 4-2.1 4-4.62 0-2.5-1.4-4.62-4-4.62-1.1 0-2.06.58-2.5 1.22v-5.16h-1.521v13h1.521zm0-5.2c.46-.92 1.34-1.46 2.28-1.46 1.7 0 2.7 1.38 2.7 3.26s-1 3.26-2.7 3.26c-.94 0-1.82-.54-2.28-1.46zm15.619-2.64h-1.52v6.02c-.32.96-1.18 1.66-2.22 1.66-1.34 0-1.94-.86-1.94-2.1v-5.58h-1.52v5.82c0 1.94 1.08 3.24 3.1 3.24 1.14 0 2.08-.6 2.58-1.3v1.12h1.52zm3.086 6.64c0 1.64 1 2.42 2.44 2.42.54 0 1.06-.12 1.4-.3v-1.4c-.3.2-.74.36-1.16.36-.76 0-1.18-.38-1.18-1.24v-5.2h2.14v-1.28h-2.14v-2.34h-1.5v2.34h-1.44v1.28h1.44zm11.43-.42c-.24 1-1.06 1.56-2.16 1.56-1.5 0-2.56-1.16-2.58-3.06h6.28v-.54c0-2.58-1.3-4.36-3.74-4.36-2.42 0-4.04 1.98-4.04 4.64 0 2.74 1.66 4.6 4.08 4.6 2 0 3.26-1.16 3.58-2.84zm-2.18-5.12c1.48 0 2.18 1.16 2.2 2.48h-4.72c.22-1.56 1.18-2.48 2.52-2.48zm11.619 7.78h1.52v-13h-1.52v5.16c-.44-.64-1.4-1.22-2.5-1.22-2.6 0-4 2.12-4 4.62 0 2.52 1.4 4.62 4 4.62 1.1 0 2.06-.58 2.5-1.22zm0-2.64c-.46.92-1.34 1.46-2.28 1.46-1.7 0-2.7-1.38-2.7-3.26s1-3.26 2.7-3.26c.94 0 1.82.54 2.28 1.46zm9.013.4c0 1.64 1 2.42 2.44 2.42.54 0 1.06-.12 1.4-.3v-1.4c-.3.2-.74.36-1.16.36-.76 0-1.18-.38-1.18-1.24v-5.2h2.14v-1.28h-2.14v-2.34h-1.5v2.34h-1.44v1.28h1.44zm13.35-2.2c0-2.72-1.66-4.62-4.08-4.62-2.44 0-4.08 1.9-4.08 4.62s1.64 4.62 4.08 4.62c2.42 0 4.08-1.9 4.08-4.62zm-1.52 0c0 1.94-.96 3.3-2.56 3.3s-2.56-1.36-2.56-3.3.96-3.3 2.56-3.3 2.56 1.36 2.56 3.3zm10.585 7.84 4.78-12.28h-1.56l-2.58 7-2.62-7h-1.62l3.46 8.94-1.34 3.34zm13.846-7.84c0-2.72-1.66-4.62-4.08-4.62-2.44 0-4.08 1.9-4.08 4.62s1.64 4.62 4.08 4.62c2.42 0 4.08-1.9 4.08-4.62zm-1.52 0c0 1.94-.96 3.3-2.56 3.3s-2.56-1.36-2.56-3.3.96-3.3 2.56-3.3 2.56 1.36 2.56 3.3zm10.63-4.44h-1.52v6.02c-.32.96-1.18 1.66-2.22 1.66-1.34 0-1.94-.86-1.94-2.1v-5.58h-1.52v5.82c0 1.94 1.08 3.24 3.1 3.24 1.14 0 2.08-.6 2.58-1.3v1.12h1.52zm13.521 8.88v-5.92c0-1.94-1.26-3.14-3.38-3.14-1.7 0-3.02 1.02-3.32 2.52h1.48c.28-.82.88-1.22 1.82-1.22 1.28 0 1.96.8 1.96 1.9v1.12c-.38-.34-1.32-.72-2.24-.72-1.9 0-3.4 1.12-3.4 2.78 0 1.76 1.5 2.84 3.3 2.84 1.06 0 2-.46 2.34-.82v.66zm-1.44-2.2c-.26.66-1.16 1.1-2.08 1.1-1.08 0-2.12-.5-2.12-1.58 0-1.06 1.04-1.54 2.12-1.54.92 0 1.82.44 2.08 1.1zm4.003 2.2h1.5v-6.02c.32-.96 1.22-1.66 2.26-1.66 1.34 0 1.96.86 1.96 2.1v5.58h1.52v-5.82c0-1.94-1.1-3.24-3.12-3.24-1.14 0-2.1.6-2.62 1.3v-1.12h-1.5zm15.646 0h1.52v-13h-1.52v5.16c-.44-.64-1.4-1.22-2.5-1.22-2.6 0-4 2.12-4 4.62 0 2.52 1.4 4.62 4 4.62 1.1 0 2.06-.58 2.5-1.22zm0-2.64c-.46.92-1.34 1.46-2.28 1.46-1.7 0-2.7-1.38-2.7-3.26s1-3.26 2.7-3.26c.94 0 1.82.54 2.28 1.46zm9.013.4c0 1.64 1 2.42 2.44 2.42.54 0 1.06-.12 1.4-.3v-1.4c-.3.2-.74.36-1.16.36-.76 0-1.18-.38-1.18-1.24v-5.2h2.14v-1.28h-2.14v-2.34h-1.5v2.34h-1.44v1.28h1.44zm5.927 2.24h1.5v-6.02c.32-.96 1.22-1.66 2.26-1.66 1.34 0 1.96.86 1.96 2.1v5.58h1.52v-5.82c0-1.94-1.1-3.24-3.12-3.24-1.14 0-2.1.6-2.62 1.3v-5.24h-1.5zm15.386-2.66c-.24 1-1.06 1.56-2.16 1.56-1.5 0-2.56-1.16-2.58-3.06h6.28v-.54c0-2.58-1.3-4.36-3.74-4.36-2.42 0-4.04 1.98-4.04 4.64 0 2.74 1.66 4.6 4.08 4.6 2 0 3.26-1.16 3.58-2.84zm-2.18-5.12c1.48 0 2.18 1.16 2.2 2.48h-4.72c.22-1.56 1.18-2.48 2.52-2.48zm17.654 3.34c0-2.72-1.66-4.62-4.08-4.62-2.44 0-4.08 1.9-4.08 4.62s1.64 4.62 4.08 4.62c2.42 0 4.08-1.9 4.08-4.62zm-1.52 0c0 1.94-.96 3.3-2.56 3.3s-2.56-1.36-2.56-3.3.96-3.3 2.56-3.3 2.56 1.36 2.56 3.3zm3.971 2.2c0 1.64 1 2.42 2.44 2.42.54 0 1.06-.12 1.4-.3v-1.4c-.3.2-.74.36-1.16.36-.76 0-1.18-.38-1.18-1.24v-5.2h2.14v-1.28h-2.14v-2.34h-1.5v2.34h-1.44v1.28h1.44zm5.928 2.24h1.5v-6.02c.32-.96 1.22-1.66 2.26-1.66 1.34 0 1.96.86 1.96 2.1v5.58h1.52v-5.82c0-1.94-1.1-3.24-3.12-3.24-1.14 0-2.1.6-2.62 1.3v-5.24h-1.5zm15.385-2.66c-.24 1-1.06 1.56-2.16 1.56-1.5 0-2.56-1.16-2.58-3.06h6.28v-.54c0-2.58-1.3-4.36-3.74-4.36-2.42 0-4.04 1.98-4.04 4.64 0 2.74 1.66 4.6 4.08 4.6 2 0 3.26-1.16 3.58-2.84zm-2.18-5.12c1.48 0 2.18 1.16 2.2 2.48h-4.72c.22-1.56 1.18-2.48 2.52-2.48zm10.28-1.14c-.16-.08-.48-.14-.86-.14-.98 0-1.82.58-2.2 1.34v-1.16h-1.5v8.88h1.5v-5.96c.3-1.04 1.12-1.66 2.06-1.66.38 0 .76.08 1 .24zm7.78.04h-1.5v9.8c0 1-.42 1.36-1.2 1.36-.18 0-.4-.04-.52-.06v1.28c.16.06.46.08.64.08 1.66 0 2.58-.9 2.58-2.56zm.22-2.68c0-.54-.44-.96-.98-.96-.52 0-.96.42-.96.96 0 .52.44.96.96.96.54 0 .98-.44.98-.96zm9.501 2.68h-1.52v6.02c-.32.96-1.18 1.66-2.22 1.66-1.34 0-1.94-.86-1.94-2.1v-5.58h-1.52v5.82c0 1.94 1.08 3.24 3.1 3.24 1.14 0 2.08-.6 2.58-1.3v1.12h1.52zm7.226-.04c-.16-.08-.48-.14-.86-.14-.98 0-1.82.58-2.2 1.34v-1.16h-1.5v8.88h1.5v-5.96c.3-1.04 1.12-1.66 2.06-1.66.38 0 .76.08 1 .24zm9.132 4.48c0-2.72-1.66-4.62-4.08-4.62-2.44 0-4.08 1.9-4.08 4.62s1.64 4.62 4.08 4.62c2.42 0 4.08-1.9 4.08-4.62zm-1.52 0c0 1.94-.96 3.3-2.56 3.3s-2.56-1.36-2.56-3.3.96-3.3 2.56-3.3 2.56 1.36 2.56 3.3zm8.111-4.48c-.16-.08-.48-.14-.86-.14-.98 0-1.82.58-2.2 1.34v-1.16h-1.5v8.88h1.5v-5.96c.3-1.04 1.12-1.66 2.06-1.66.38 0 .76.08 1 .24zm11.92.04h-1.34l-1.82 6.78-1.96-6.78h-1.5l2.62 8.88h1.46l1.86-6.74 1.84 6.74h1.46l2.62-8.88h-1.46l-1.96 6.78zm6.938 8.88h1.5v-6.02c.32-.96 1.22-1.66 2.26-1.66 1.34 0 1.96.86 1.96 2.1v5.58h1.52v-5.82c0-1.94-1.1-3.24-3.12-3.24-1.14 0-2.1.6-2.62 1.3v-5.24h-1.5zm17.305-4.44c0-2.72-1.66-4.62-4.08-4.62-2.44 0-4.08 1.9-4.08 4.62s1.64 4.62 4.08 4.62c2.42 0 4.08-1.9 4.08-4.62zm-1.52 0c0 1.94-.96 3.3-2.56 3.3s-2.56-1.36-2.56-3.3.96-3.3 2.56-3.3 2.56 1.36 2.56 3.3zm11.905 4.44 3.46-8.88h-1.58l-2.58 6.98-2.6-6.98h-1.62l3.44 8.88zm12.525-4.44c0-2.72-1.66-4.62-4.08-4.62-2.44 0-4.08 1.9-4.08 4.62s1.64 4.62 4.08 4.62c2.42 0 4.08-1.9 4.08-4.62zm-1.52 0c0 1.94-.96 3.3-2.56 3.3s-2.56-1.36-2.56-3.3.96-3.3 2.56-3.3 2.56 1.36 2.56 3.3zm3.971 2.2c0 1.64 1 2.42 2.44 2.42.54 0 1.06-.12 1.4-.3v-1.4c-.3.2-.74.36-1.16.36-.76 0-1.18-.38-1.18-1.24v-5.2h2.14v-1.28h-2.14v-2.34h-1.5v2.34h-1.44v1.28h1.44zm11.43-.42c-.24 1-1.06 1.56-2.16 1.56-1.5 0-2.56-1.16-2.58-3.06h6.28v-.54c0-2.58-1.3-4.36-3.74-4.36-2.42 0-4.04 1.98-4.04 4.64 0 2.74 1.66 4.6 4.08 4.6 2 0 3.26-1.16 3.58-2.84zm-2.18-5.12c1.48 0 2.18 1.16 2.2 2.48h-4.72c.22-1.56 1.18-2.48 2.52-2.48zm11.619 7.78h1.52v-13h-1.52v5.16c-.44-.64-1.4-1.22-2.5-1.22-2.6 0-4 2.12-4 4.62 0 2.52 1.4 4.62 4 4.62 1.1 0 2.06-.58 2.5-1.22zm0-2.64c-.46.92-1.34 1.46-2.28 1.46-1.7 0-2.7-1.38-2.7-3.26s1-3.26 2.7-3.26c.94 0 1.82.54 2.28 1.46zm13.034-10.34c-.34-.14-.68-.2-1.16-.2-1.56 0-2.72 1.04-2.72 2.82v1.48h-1.5v1.28h1.5v7.6h1.48v-7.6h2v-1.28h-2v-1.36c0-1.06.58-1.62 1.46-1.62.32 0 .66.06.94.24zm8.724 8.54c0-2.72-1.66-4.62-4.08-4.62-2.44 0-4.08 1.9-4.08 4.62s1.64 4.62 4.08 4.62c2.42 0 4.08-1.9 4.08-4.62zm-1.52 0c0 1.94-.96 3.3-2.56 3.3s-2.56-1.36-2.56-3.3.96-3.3 2.56-3.3 2.56 1.36 2.56 3.3zm8.111-4.48c-.16-.08-.48-.14-.86-.14-.98 0-1.82.58-2.2 1.34v-1.16h-1.5v8.88h1.5v-5.96c.3-1.04 1.12-1.66 2.06-1.66.38 0 .76.08 1 .24zm10.16-3.36-4.8 12.28h1.6l1.4-3.7h5.06l1.42 3.7h1.6l-4.8-12.28zm.72 1.96 2 5.24h-4zm8.814-2.68h-1.5v13h1.5zm4.179 4.12h-1.5v8.88h1.5zm.22-2.68c0-.54-.44-.96-.98-.96-.52 0-.96.42-.96.96 0 .52.44.96.96.96.54 0 .98-.44.98-.96zm1.82 7.12c0 2.76 1.66 4.62 4.04 4.62 2 0 3.26-1.16 3.56-2.86h-1.54c-.2.96-.96 1.54-2.02 1.54-1.52 0-2.52-1.36-2.52-3.3s1-3.3 2.52-3.3c1.06 0 1.82.58 2.02 1.54h1.54c-.3-1.7-1.56-2.86-3.56-2.86-2.38 0-4.04 1.86-4.04 4.62zm15.127 1.78c-.24 1-1.06 1.56-2.16 1.56-1.5 0-2.56-1.16-2.58-3.06h6.28v-.54c0-2.58-1.3-4.36-3.74-4.36-2.42 0-4.04 1.98-4.04 4.64 0 2.74 1.66 4.6 4.08 4.6 2 0 3.26-1.16 3.58-2.84zm-2.18-5.12c1.48 0 2.18 1.16 2.2 2.48h-4.72c.22-1.56 1.18-2.48 2.52-2.48zm16.575 7.78v-5.92c0-1.94-1.26-3.14-3.38-3.14-1.7 0-3.02 1.02-3.32 2.52h1.48c.28-.82.88-1.22 1.82-1.22 1.28 0 1.96.8 1.96 1.9v1.12c-.38-.34-1.32-.72-2.24-.72-1.9 0-3.4 1.12-3.4 2.78 0 1.76 1.5 2.84 3.3 2.84 1.06 0 2-.46 2.34-.82v.66zm-1.44-2.2c-.26.66-1.16 1.1-2.08 1.1-1.08 0-2.12-.5-2.12-1.58 0-1.06 1.04-1.54 2.12-1.54.92 0 1.82.44 2.08 1.1zm3.263-.24c.28 1.64 1.7 2.62 3.64 2.62 1.9 0 3.3-1 3.3-2.68 0-1.24-.74-2.08-2.26-2.48l-1.72-.42c-.84-.24-1.24-.52-1.24-1.12 0-.86.82-1.28 1.7-1.28 1.08 0 1.7.46 1.96 1.26h1.5c-.32-1.56-1.48-2.52-3.44-2.52-1.8 0-3.18 1.04-3.18 2.62 0 1.38.88 2.02 2.14 2.34l1.76.46c.92.24 1.32.62 1.32 1.24 0 .9-.76 1.32-1.82 1.32-1.04 0-1.82-.44-2.1-1.36zm19.876 2.44v-5.92c0-1.94-1.26-3.14-3.38-3.14-1.7 0-3.02 1.02-3.32 2.52h1.48c.28-.82.88-1.22 1.82-1.22 1.28 0 1.96.8 1.96 1.9v1.12c-.38-.34-1.32-.72-2.24-.72-1.9 0-3.4 1.12-3.4 2.78 0 1.76 1.5 2.84 3.3 2.84 1.06 0 2-.46 2.34-.82v.66zm-1.44-2.2c-.26.66-1.16 1.1-2.08 1.1-1.08 0-2.12-.5-2.12-1.58 0-1.06 1.04-1.54 2.12-1.54.92 0 1.82.44 2.08 1.1zm-634.366 20.28c-.16-.08-.48-.14-.86-.14-.98 0-1.82.58-2.2 1.34v-1.16h-1.5v8.88h1.5v-5.96c.3-1.04 1.12-1.66 2.06-1.66.38 0 .76.08 1 .24zm7.2119 6.26c-.24 1-1.06 1.56-2.16 1.56-1.5 0-2.56-1.16-2.58-3.06h6.28v-.54c0-2.58-1.3-4.36-3.74-4.36-2.42 0-4.04 1.98-4.04 4.64 0 2.74 1.66 4.6 4.08 4.6 2 0 3.26-1.16 3.58-2.84zm-2.18-5.12c1.48 0 2.18 1.16 2.2 2.48h-4.72c.22-1.56 1.18-2.48 2.52-2.48zm11.3606-1.1h-1.34l-1.82 6.78-1.96-6.78h-1.5l2.62 8.88h1.46l1.86-6.74 1.84 6.74h1.46l2.62-8.88h-1.46l-1.96 6.78zm13.3195 8.88v-5.92c0-1.94-1.26-3.14-3.38-3.14-1.7 0-3.02 1.02-3.32 2.52h1.48c.28-.82.88-1.22 1.82-1.22 1.28 0 1.96.8 1.96 1.9v1.12c-.38-.34-1.32-.72-2.24-.72-1.9 0-3.4 1.12-3.4 2.78 0 1.76 1.5 2.84 3.3 2.84 1.06 0 2-.46 2.34-.82v.66zm-1.44-2.2c-.26.66-1.16 1.1-2.08 1.1-1.08 0-2.12-.5-2.12-1.58 0-1.06 1.04-1.54 2.12-1.54.92 0 1.82.44 2.08 1.1zm8.5639-6.72c-.16-.08-.48-.14-.86-.14-.98 0-1.82.58-2.2 1.34v-1.16h-1.5v8.88h1.5v-5.96c.3-1.04 1.12-1.66 2.06-1.66.38 0 .76.08 1 .24zm7.4721 8.92h1.52v-13h-1.52v5.16c-.44-.64-1.4-1.22-2.5002-1.22-2.6 0-4 2.12-4 4.62 0 2.52 1.4 4.62 4 4.62 1.1002 0 2.0602-.58 2.5002-1.22zm0-2.64c-.46.92-1.34 1.46-2.2802 1.46-1.7 0-2.7-1.38-2.7-3.26s1-3.26 2.7-3.26c.9402 0 1.8202.54 2.2802 1.46zm3.479 1.66c0 .62.48 1.08 1.08 1.08.58 0 1.06-.46 1.06-1.08s-.48-1.1-1.06-1.1c-.6 0-1.08.48-1.08 1.1zm7.792-9.9h4.28v10.88h1.58v-10.88h4.28v-1.4h-10.14zm12.088 10.88h1.5v-6.02c.32-.96 1.22-1.66 2.26-1.66 1.34 0 1.96.86 1.96 2.1v5.58h1.52v-5.82c0-1.94-1.1-3.24-3.12-3.24-1.14 0-2.1.6-2.62 1.3v-5.24h-1.5zm11.285-8.88h-1.5v8.88h1.5zm.22-2.68c0-.54-.44-.96-.98-.96-.52 0-.96.42-.96.96 0 .52.44.96.96.96.54 0 .98-.44.98-.96zm1.719 9.12c.28 1.64 1.7 2.62 3.64 2.62 1.9 0 3.3-1 3.3-2.68 0-1.24-.74-2.08-2.26-2.48l-1.72-.42c-.84-.24-1.24-.52-1.24-1.12 0-.86.82-1.28 1.7-1.28 1.08 0 1.7.46 1.96 1.26h1.5c-.32-1.56-1.48-2.52-3.44-2.52-1.8 0-3.18 1.04-3.18 2.62 0 1.38.88 2.02 2.14 2.34l1.76.46c.92.24 1.32.62 1.32 1.24 0 .9-.76 1.32-1.82 1.32-1.04 0-1.82-.44-2.1-1.36zm17.996-6.48c-.16-.08-.48-.14-.86-.14-.98 0-1.82.58-2.2 1.34v-1.16h-1.5v8.88h1.5v-5.96c.3-1.04 1.12-1.66 2.06-1.66.38 0 .76.08 1 .24zm7.212 6.26c-.24 1-1.06 1.56-2.16 1.56-1.5 0-2.56-1.16-2.58-3.06h6.28v-.54c0-2.58-1.3-4.36-3.74-4.36-2.42 0-4.04 1.98-4.04 4.64 0 2.74 1.66 4.6 4.08 4.6 2 0 3.26-1.16 3.58-2.84zm-2.18-5.12c1.48 0 2.18 1.16 2.2 2.48h-4.72c.22-1.56 1.18-2.48 2.52-2.48zm11.36-1.1h-1.34l-1.82 6.78-1.96-6.78h-1.5l2.62 8.88h1.46l1.86-6.74 1.84 6.74h1.46l2.62-8.88h-1.46l-1.96 6.78zm13.32 8.88v-5.92c0-1.94-1.26-3.14-3.38-3.14-1.7 0-3.02 1.02-3.32 2.52h1.48c.28-.82.88-1.22 1.82-1.22 1.28 0 1.96.8 1.96 1.9v1.12c-.38-.34-1.32-.72-2.24-.72-1.9 0-3.4 1.12-3.4 2.78 0 1.76 1.5 2.84 3.3 2.84 1.06 0 2-.46 2.34-.82v.66zm-1.44-2.2c-.26.66-1.16 1.1-2.08 1.1-1.08 0-2.12-.5-2.12-1.58 0-1.06 1.04-1.54 2.12-1.54.92 0 1.82.44 2.08 1.1zm8.564-6.72c-.16-.08-.48-.14-.86-.14-.98 0-1.82.58-2.2 1.34v-1.16h-1.5v8.88h1.5v-5.96c.3-1.04 1.12-1.66 2.06-1.66.38 0 .76.08 1 .24zm7.472 8.92h1.52v-13h-1.52v5.16c-.44-.64-1.4-1.22-2.5-1.22-2.6 0-4 2.12-4 4.62 0 2.52 1.4 4.62 4 4.62 1.1 0 2.06-.58 2.5-1.22zm0-2.64c-.46.92-1.34 1.46-2.28 1.46-1.7 0-2.7-1.38-2.7-3.26s1-3.26 2.7-3.26c.94 0 1.82.54 2.28 1.46zm10.093-6.24h-1.5v8.88h1.5zm.22-2.68c0-.54-.44-.96-.98-.96-.52 0-.96.42-.96.96 0 .52.44.96.96.96.54 0 .98-.44.98-.96zm1.719 9.12c.28 1.64 1.7 2.62 3.64 2.62 1.9 0 3.3-1 3.3-2.68 0-1.24-.74-2.08-2.26-2.48l-1.72-.42c-.84-.24-1.24-.52-1.24-1.12 0-.86.82-1.28 1.7-1.28 1.08 0 1.7.46 1.96 1.26h1.5c-.32-1.56-1.48-2.52-3.44-2.52-1.8 0-3.18 1.04-3.18 2.62 0 1.38.88 2.02 2.14 2.34l1.76.46c.92.24 1.32.62 1.32 1.24 0 .9-.76 1.32-1.82 1.32-1.04 0-1.82-.44-2.1-1.36zm14.936-6.44h-1.5v8.88h1.5zm.22-2.68c0-.54-.44-.96-.98-.96-.52 0-.96.42-.96.96 0 .52.44.96.96.96.54 0 .98-.44.98-.96zm2.459 11.56h1.5v-6.02c.32-.96 1.22-1.66 2.26-1.66 1.34 0 1.96.86 1.96 2.1v5.58h1.52v-5.82c0-1.94-1.1-3.24-3.12-3.24-1.14 0-2.1.6-2.62 1.3v-1.12h-1.5zm20.64 0v-5.92c0-1.94-1.26-3.14-3.38-3.14-1.7 0-3.02 1.02-3.32 2.52h1.48c.28-.82.88-1.22 1.82-1.22 1.28 0 1.96.8 1.96 1.9v1.12c-.38-.34-1.32-.72-2.24-.72-1.9 0-3.4 1.12-3.4 2.78 0 1.76 1.5 2.84 3.3 2.84 1.06 0 2-.46 2.34-.82v.66zm-1.44-2.2c-.26.66-1.16 1.1-2.08 1.1-1.08 0-2.12-.5-2.12-1.58 0-1.06 1.04-1.54 2.12-1.54.92 0 1.82.44 2.08 1.1zm9.863 2.2h1.52v-13h-1.52v5.16c-.44-.64-1.4-1.22-2.5-1.22-2.6 0-4 2.12-4 4.62 0 2.52 1.4 4.62 4 4.62 1.1 0 2.06-.58 2.5-1.22zm0-2.64c-.46.92-1.34 1.46-2.28 1.46-1.7 0-2.7-1.38-2.7-3.26s1-3.26 2.7-3.26c.94 0 1.82.54 2.28 1.46zm10.04 2.64h1.52v-13h-1.52v5.16c-.44-.64-1.4-1.22-2.5-1.22-2.6 0-4 2.12-4 4.62 0 2.52 1.4 4.62 4 4.62 1.1 0 2.06-.58 2.5-1.22zm0-2.64c-.46.92-1.34 1.46-2.28 1.46-1.7 0-2.7-1.38-2.7-3.26s1-3.26 2.7-3.26c.94 0 1.82.54 2.28 1.46zm5.679-6.24h-1.5v8.88h1.5zm.22-2.68c0-.54-.44-.96-.98-.96-.52 0-.96.42-.96.96 0 .52.44.96.96.96.54 0 .98-.44.98-.96zm2.879 9.32c0 1.64 1 2.42 2.44 2.42.54 0 1.06-.12 1.4-.3v-1.4c-.3.2-.74.36-1.16.36-.76 0-1.18-.38-1.18-1.24v-5.2h2.14v-1.28h-2.14v-2.34h-1.5v2.34h-1.44v1.28h1.44zm7.428-6.64h-1.5v8.88h1.5zm.22-2.68c0-.54-.44-.96-.98-.96-.52 0-.96.42-.96.96 0 .52.44.96.96.96.54 0 .98-.44.98-.96zm9.98 7.12c0-2.72-1.66-4.62-4.08-4.62-2.44 0-4.08 1.9-4.08 4.62s1.64 4.62 4.08 4.62c2.42 0 4.08-1.9 4.08-4.62zm-1.52 0c0 1.94-.96 3.3-2.56 3.3s-2.56-1.36-2.56-3.3.96-3.3 2.56-3.3 2.56 1.36 2.56 3.3zm3.55 4.44h1.5v-6.02c.32-.96 1.22-1.66 2.26-1.66 1.34 0 1.96.86 1.96 2.1v5.58h1.52v-5.82c0-1.94-1.1-3.24-3.12-3.24-1.14 0-2.1.6-2.62 1.3v-1.12h-1.5zm14.62-2.24c0 1.64 1 2.42 2.44 2.42.54 0 1.06-.12 1.4-.3v-1.4c-.3.2-.74.36-1.16.36-.76 0-1.18-.38-1.18-1.24v-5.2h2.14v-1.28h-2.14v-2.34h-1.5v2.34h-1.44v1.28h1.44zm13.35-2.2c0-2.72-1.66-4.62-4.08-4.62-2.44 0-4.08 1.9-4.08 4.62s1.64 4.62 4.08 4.62c2.42 0 4.08-1.9 4.08-4.62zm-1.52 0c0 1.94-.96 3.3-2.56 3.3s-2.56-1.36-2.56-3.3.96-3.3 2.56-3.3 2.56 1.36 2.56 3.3zm8.384 2.2c0 1.64 1 2.42 2.44 2.42.54 0 1.06-.12 1.4-.3v-1.4c-.3.2-.74.36-1.16.36-.76 0-1.18-.38-1.18-1.24v-5.2h2.14v-1.28h-2.14v-2.34h-1.5v2.34h-1.44v1.28h1.44zm5.928 2.24h1.5v-6.02c.32-.96 1.22-1.66 2.26-1.66 1.34 0 1.96.86 1.96 2.1v5.58h1.52v-5.82c0-1.94-1.1-3.24-3.12-3.24-1.14 0-2.1.6-2.62 1.3v-5.24h-1.5zm15.385-2.66c-.24 1-1.06 1.56-2.16 1.56-1.5 0-2.56-1.16-2.58-3.06h6.28v-.54c0-2.58-1.3-4.36-3.74-4.36-2.42 0-4.04 1.98-4.04 4.64 0 2.74 1.66 4.6 4.08 4.6 2 0 3.26-1.16 3.58-2.84zm-2.18-5.12c1.48 0 2.18 1.16 2.2 2.48h-4.72c.22-1.56 1.18-2.48 2.52-2.48zm14.695-1.14c-.16-.08-.48-.14-.86-.14-.98 0-1.82.58-2.2 1.34v-1.16h-1.5v8.88h1.5v-5.96c.3-1.04 1.12-1.66 2.06-1.66.38 0 .76.08 1 .24zm7.212 6.26c-.24 1-1.06 1.56-2.16 1.56-1.5 0-2.56-1.16-2.58-3.06h6.28v-.54c0-2.58-1.3-4.36-3.74-4.36-2.42 0-4.04 1.98-4.04 4.64 0 2.74 1.66 4.6 4.08 4.6 2 0 3.26-1.16 3.58-2.84zm-2.18-5.12c1.48 0 2.18 1.16 2.2 2.48h-4.72c.22-1.56 1.18-2.48 2.52-2.48zm11.36-1.1h-1.34l-1.82 6.78-1.96-6.78h-1.5l2.62 8.88h1.46l1.86-6.74 1.84 6.74h1.46l2.62-8.88h-1.46l-1.96 6.78zm13.32 8.88v-5.92c0-1.94-1.26-3.14-3.38-3.14-1.7 0-3.02 1.02-3.32 2.52h1.48c.28-.82.88-1.22 1.82-1.22 1.28 0 1.96.8 1.96 1.9v1.12c-.38-.34-1.32-.72-2.24-.72-1.9 0-3.4 1.12-3.4 2.78 0 1.76 1.5 2.84 3.3 2.84 1.06 0 2-.46 2.34-.82v.66zm-1.44-2.2c-.26.66-1.16 1.1-2.08 1.1-1.08 0-2.12-.5-2.12-1.58 0-1.06 1.04-1.54 2.12-1.54.92 0 1.82.44 2.08 1.1zm8.564-6.72c-.16-.08-.48-.14-.86-.14-.98 0-1.82.58-2.2 1.34v-1.16h-1.5v8.88h1.5v-5.96c.3-1.04 1.12-1.66 2.06-1.66.38 0 .76.08 1 .24zm7.472 8.92h1.52v-13h-1.52v5.16c-.44-.64-1.4-1.22-2.5-1.22-2.6 0-4 2.12-4 4.62 0 2.52 1.4 4.62 4 4.62 1.1 0 2.06-.58 2.5-1.22zm0-2.64c-.46.92-1.34 1.46-2.28 1.46-1.7 0-2.7-1.38-2.7-3.26s1-3.26 2.7-3.26c.94 0 1.82.54 2.28 1.46zm3.439.2c.28 1.64 1.7 2.62 3.64 2.62 1.9 0 3.3-1 3.3-2.68 0-1.24-.74-2.08-2.26-2.48l-1.72-.42c-.84-.24-1.24-.52-1.24-1.12 0-.86.82-1.28 1.7-1.28 1.08 0 1.7.46 1.96 1.26h1.5c-.32-1.56-1.48-2.52-3.44-2.52-1.8 0-3.18 1.04-3.18 2.62 0 1.38.88 2.02 2.14 2.34l1.76.46c.92.24 1.32.62 1.32 1.24 0 .9-.76 1.32-1.82 1.32-1.04 0-1.82-.44-2.1-1.36zm19.035-.22c-.24 1-1.06 1.56-2.16 1.56-1.5 0-2.56-1.16-2.58-3.06h6.28v-.54c0-2.58-1.3-4.36-3.74-4.36-2.42 0-4.04 1.98-4.04 4.64 0 2.74 1.66 4.6 4.08 4.6 2 0 3.26-1.16 3.58-2.84zm-2.18-5.12c1.48 0 2.18 1.16 2.2 2.48h-4.72c.22-1.56 1.18-2.48 2.52-2.48zm12.161 7.78v-5.92c0-1.94-1.26-3.14-3.38-3.14-1.7 0-3.02 1.02-3.32 2.52h1.48c.28-.82.88-1.22 1.82-1.22 1.28 0 1.96.8 1.96 1.9v1.12c-.38-.34-1.32-.72-2.24-.72-1.9 0-3.4 1.12-3.4 2.78 0 1.76 1.5 2.84 3.3 2.84 1.06 0 2-.46 2.34-.82v.66zm-1.44-2.2c-.26.66-1.16 1.1-2.08 1.1-1.08 0-2.12-.5-2.12-1.58 0-1.06 1.04-1.54 2.12-1.54.92 0 1.82.44 2.08 1.1zm8.564-6.72c-.16-.08-.48-.14-.86-.14-.98 0-1.82.58-2.2 1.34v-1.16h-1.5v8.88h1.5v-5.96c.3-1.04 1.12-1.66 2.06-1.66.38 0 .76.08 1 .24zm1.865 8.92h1.5v-6.02c.32-.96 1.22-1.66 2.26-1.66 1.34 0 1.96.86 1.96 2.1v5.58h1.52v-5.82c0-1.94-1.1-3.24-3.12-3.24-1.14 0-2.1.6-2.62 1.3v-1.12h-1.5zm15.386-2.66c-.24 1-1.06 1.56-2.16 1.56-1.5 0-2.56-1.16-2.58-3.06h6.28v-.54c0-2.58-1.3-4.36-3.74-4.36-2.42 0-4.04 1.98-4.04 4.64 0 2.74 1.66 4.6 4.08 4.6 2 0 3.26-1.16 3.58-2.84zm-2.18-5.12c1.48 0 2.18 1.16 2.2 2.48h-4.72c.22-1.56 1.18-2.48 2.52-2.48zm11.619 7.78h1.52v-13h-1.52v5.16c-.44-.64-1.4-1.22-2.5-1.22-2.6 0-4 2.12-4 4.62 0 2.52 1.4 4.62 4 4.62 1.1 0 2.06-.58 2.5-1.22zm0-2.64c-.46.92-1.34 1.46-2.28 1.46-1.7 0-2.7-1.38-2.7-3.26s1-3.26 2.7-3.26c.94 0 1.82.54 2.28 1.46zm13.033-10.34c-.34-.14-.68-.2-1.16-.2-1.56 0-2.72 1.04-2.72 2.82v1.48h-1.5v1.28h1.5v7.6h1.48v-7.6h2v-1.28h-2v-1.36c0-1.06.58-1.62 1.46-1.62.32 0 .66.06.94.24zm5.902 4.06c-.16-.08-.48-.14-.86-.14-.98 0-1.82.58-2.2 1.34v-1.16h-1.5v8.88h1.5v-5.96c.3-1.04 1.12-1.66 2.06-1.66.38 0 .76.08 1 .24zm9.132 4.48c0-2.72-1.66-4.62-4.08-4.62-2.44 0-4.08 1.9-4.08 4.62s1.64 4.62 4.08 4.62c2.42 0 4.08-1.9 4.08-4.62zm-1.52 0c0 1.94-.96 3.3-2.56 3.3s-2.56-1.36-2.56-3.3.96-3.3 2.56-3.3 2.56 1.36 2.56 3.3zm9.85-3.2c-.42-.84-1.28-1.42-2.4-1.42-1.1 0-1.96.52-2.4 1.22v-1.04h-1.5v8.88h1.5v-6.12c.28-.96 1.06-1.58 1.96-1.58 1.14 0 1.68.82 1.68 2.06v5.64h1.5v-6.12c.28-.96 1.06-1.58 1.96-1.58 1.14 0 1.68.82 1.68 2.06v5.64h1.52v-5.88c0-1.92-1-3.18-2.8-3.18-1.24 0-2.14.62-2.7 1.42zm11.57 4.44c.46 2.16 2.28 3.38 4.72 3.38s4.24-1.34 4.24-3.56c0-1.74-1.1-2.8-3.06-3.3l-2.1-.54c-1.28-.34-1.96-.84-1.96-1.88 0-1.26 1.08-2.02 2.54-2.02 1.62 0 2.54.8 2.92 1.9h1.58c-.46-1.94-1.96-3.24-4.5-3.24-2.32 0-4.04 1.4-4.04 3.48 0 1.86 1.24 2.72 2.94 3.16l2.2.58c1.42.36 1.96.98 1.96 1.94 0 1.36-1.12 2.14-2.72 2.14-1.5 0-2.66-.68-3.12-2.04zm18.136-5.68h-1.52v6.02c-.32.96-1.18 1.66-2.22 1.66-1.34 0-1.94-.86-1.94-2.1v-5.58h-1.52v5.82c0 1.94 1.08 3.24 3.1 3.24 1.14 0 2.08-.6 2.58-1.3v1.12h1.52zm4.166 7.84c.44.64 1.4 1.22 2.5 1.22 2.6 0 4-2.1 4-4.62 0-2.5-1.4-4.62-4-4.62-1.1 0-2.06.58-2.5 1.22v-5.16h-1.52v13h1.52zm0-5.2c.46-.92 1.34-1.46 2.28-1.46 1.7 0 2.7 1.38 2.7 3.26s-1 3.26-2.7 3.26c-.94 0-1.82-.54-2.28-1.46zm7.799 3.8c.28 1.64 1.7 2.62 3.64 2.62 1.9 0 3.3-1 3.3-2.68 0-1.24-.74-2.08-2.26-2.48l-1.72-.42c-.84-.24-1.24-.52-1.24-1.12 0-.86.82-1.28 1.7-1.28 1.08 0 1.7.46 1.96 1.26h1.5c-.32-1.56-1.48-2.52-3.44-2.52-1.8 0-3.18 1.04-3.18 2.62 0 1.38.88 2.02 2.14 2.34l1.76.46c.92.24 1.32.62 1.32 1.24 0 .9-.76 1.32-1.82 1.32-1.04 0-1.82-.44-2.1-1.36zm8.382-2c0 2.76 1.66 4.62 4.04 4.62 2 0 3.26-1.16 3.56-2.86h-1.54c-.2.96-.96 1.54-2.02 1.54-1.52 0-2.52-1.36-2.52-3.3s1-3.3 2.52-3.3c1.06 0 1.82.58 2.02 1.54h1.54c-.3-1.7-1.56-2.86-3.56-2.86-2.38 0-4.04 1.86-4.04 4.62zm14.125-4.48c-.16-.08-.48-.14-.86-.14-.98 0-1.82.58-2.2 1.34v-1.16h-1.5v8.88h1.5v-5.96c.3-1.04 1.12-1.66 2.06-1.66.38 0 .76.08 1 .24zm3.366.04h-1.5v8.88h1.5zm.22-2.68c0-.54-.44-.96-.98-.96-.52 0-.96.42-.96.96 0 .52.44.96.96.96.54 0 .98-.44.98-.96zm3.96 10.52c.46.64 1.4 1.22 2.5 1.22 2.62 0 4-2.16 4-4.62s-1.38-4.62-4-4.62c-1.1 0-2.04.58-2.5 1.22v-1.04h-1.5v12.28h1.5zm0-5.2c.46-.92 1.34-1.46 2.28-1.46 1.7 0 2.7 1.38 2.7 3.26s-1 3.26-2.7 3.26c-.94 0-1.82-.54-2.28-1.46zm8.959 4c0 1.64 1 2.42 2.44 2.42.54 0 1.06-.12 1.4-.3v-1.4c-.3.2-.74.36-1.16.36-.76 0-1.18-.38-1.18-1.24v-5.2h2.14v-1.28h-2.14v-2.34h-1.5v2.34h-1.44v1.28h1.44zm7.428-6.64h-1.5v8.88h1.5zm.22-2.68c0-.54-.44-.96-.98-.96-.52 0-.96.42-.96.96 0 .52.44.96.96.96.54 0 .98-.44.98-.96zm9.979 7.12c0-2.72-1.66-4.62-4.08-4.62-2.44 0-4.08 1.9-4.08 4.62s1.64 4.62 4.08 4.62c2.42 0 4.08-1.9 4.08-4.62zm-1.52 0c0 1.94-.96 3.3-2.56 3.3s-2.56-1.36-2.56-3.3.96-3.3 2.56-3.3 2.56 1.36 2.56 3.3zm3.551 4.44h1.5v-6.02c.32-.96 1.22-1.66 2.26-1.66 1.34 0 1.96.86 1.96 2.1v5.58h1.52v-5.82c0-1.94-1.1-3.24-3.12-3.24-1.14 0-2.1.6-2.62 1.3v-1.12h-1.5zm20.639 0v-5.92c0-1.94-1.26-3.14-3.38-3.14-1.7 0-3.02 1.02-3.32 2.52h1.48c.28-.82.88-1.22 1.82-1.22 1.28 0 1.96.8 1.96 1.9v1.12c-.38-.34-1.32-.72-2.24-.72-1.9 0-3.4 1.12-3.4 2.78 0 1.76 1.5 2.84 3.3 2.84 1.06 0 2-.46 2.34-.82v.66zm-1.44-2.2c-.26.66-1.16 1.1-2.08 1.1-1.08 0-2.12-.5-2.12-1.58 0-1.06 1.04-1.54 2.12-1.54.92 0 1.82.44 2.08 1.1zm4.004 2.2h1.5v-6.02c.32-.96 1.22-1.66 2.26-1.66 1.34 0 1.96.86 1.96 2.1v5.58h1.52v-5.82c0-1.94-1.1-3.24-3.12-3.24-1.14 0-2.1.6-2.62 1.3v-1.12h-1.5zm15.645 0h1.52v-13h-1.52v5.16c-.44-.64-1.4-1.22-2.5-1.22-2.6 0-4 2.12-4 4.62 0 2.52 1.4 4.62 4 4.62 1.1 0 2.06-.58 2.5-1.22zm0-2.64c-.46.92-1.34 1.46-2.28 1.46-1.7 0-2.7-1.38-2.7-3.26s1-3.26 2.7-3.26c.94 0 1.82.54 2.28 1.46zm10.293 1.22v-9.46h2.34c2.78 0 4.42 1.86 4.42 4.74s-1.64 4.72-4.42 4.72zm-1.58 1.42h3.94c3.6 0 5.96-2.4 5.96-6.14s-2.36-6.14-5.96-6.14h-3.94zm13.49-8.88h-1.5v8.88h1.5zm.22-2.68c0-.54-.44-.96-.98-.96-.52 0-.96.42-.96.96 0 .52.44.96.96.96.54 0 .98-.44.98-.96zm1.719 9.12c.28 1.64 1.7 2.62 3.64 2.62 1.9 0 3.3-1 3.3-2.68 0-1.24-.74-2.08-2.26-2.48l-1.72-.42c-.84-.24-1.24-.52-1.24-1.12 0-.86.82-1.28 1.7-1.28 1.08 0 1.7.46 1.96 1.26h1.5c-.32-1.56-1.48-2.52-3.44-2.52-1.8 0-3.18 1.04-3.18 2.62 0 1.38.88 2.02 2.14 2.34l1.76.46c.92.24 1.32.62 1.32 1.24 0 .9-.76 1.32-1.82 1.32-1.04 0-1.82-.44-2.1-1.36zm10.522 1.4c.46.64 1.4 1.22 2.5 1.22 2.62 0 4-2.16 4-4.62s-1.38-4.62-4-4.62c-1.1 0-2.04.58-2.5 1.22v-1.04h-1.5v12.28h1.5zm0-5.2c.46-.92 1.34-1.46 2.28-1.46 1.7 0 2.7 1.38 2.7 3.26s-1 3.26-2.7 3.26c-.94 0-1.82-.54-2.28-1.46zm15.619-2.64h-1.52v6.02c-.32.96-1.18 1.66-2.22 1.66-1.34 0-1.94-.86-1.94-2.1v-5.58h-1.52v5.82c0 1.94 1.08 3.24 3.1 3.24 1.14 0 2.08-.6 2.58-1.3v1.12h1.52zm3.086 6.64c0 1.64 1 2.42 2.44 2.42.54 0 1.06-.12 1.4-.3v-1.4c-.3.2-.74.36-1.16.36-.76 0-1.18-.38-1.18-1.24v-5.2h2.14v-1.28h-2.14v-2.34h-1.5v2.34h-1.44v1.28h1.44zm11.43-.42c-.24 1-1.06 1.56-2.16 1.56-1.5 0-2.56-1.16-2.58-3.06h6.28v-.54c0-2.58-1.3-4.36-3.74-4.36-2.42 0-4.04 1.98-4.04 4.64 0 2.74 1.66 4.6 4.08 4.6 2 0 3.26-1.16 3.58-2.84zm-2.18-5.12c1.48 0 2.18 1.16 2.2 2.48h-4.72c.22-1.56 1.18-2.48 2.52-2.48zm-660.685 34.78v-5.34h5.56v-1.4h-5.56v-4.14h5.92v-1.4h-7.5v12.28zm13.3727-2.66c-.24 1-1.06 1.56-2.16 1.56-1.5 0-2.56-1.16-2.58-3.06h6.28v-.54c0-2.58-1.3-4.36-3.74-4.36-2.42 0-4.04 1.98-4.04 4.64 0 2.74 1.66 4.6 4.08 4.6 2 0 3.26-1.16 3.58-2.84zm-2.18-5.12c1.48 0 2.18 1.16 2.2 2.48h-4.72c.22-1.56 1.18-2.48 2.52-2.48zm11.3596 5.12c-.24 1-1.06 1.56-2.16 1.56-1.5 0-2.56-1.16-2.58-3.06h6.28v-.54c0-2.58-1.3-4.36-3.74-4.36-2.42 0-4.04 1.98-4.04 4.64 0 2.74 1.66 4.6 4.08 4.6 2 0 3.26-1.16 3.58-2.84zm-2.18-5.12c1.48 0 2.18 1.16 2.2 2.48h-4.72c.22-1.56 1.18-2.48 2.52-2.48zm5.0197 5.34c.28 1.64 1.7 2.62 3.64 2.62 1.9 0 3.3-1 3.3-2.68 0-1.24-.74-2.08-2.26-2.48l-1.72-.42c-.84-.24-1.24-.52-1.24-1.12 0-.86.82-1.28 1.7-1.28 1.08 0 1.7.46 1.96 1.26h1.5c-.32-1.56-1.48-2.52-3.44-2.52-1.8 0-3.18 1.04-3.18 2.62 0 1.38.88 2.02 2.14 2.34l1.76.46c.92.24 1.32.62 1.32 1.24 0 .9-.76 1.32-1.82 1.32-1.04 0-1.82-.44-2.1-1.36zm7.9413 4.58h1.02l1.06-1.76c.24-.38.44-.84.44-1.26 0-.74-.46-1.16-1.06-1.16s-1.08.44-1.08 1.06c0 .58.38.92.88 1zm15.3517-2.14v-5.92c0-1.94-1.26-3.14-3.38-3.14-1.6997 0-3.0197 1.02-3.3197 2.52h1.48c.28-.82.88-1.22 1.8197-1.22 1.28 0 1.96.8 1.96 1.9v1.12c-.38-.34-1.32-.72-2.24-.72-1.8997 0-3.3997 1.12-3.3997 2.78 0 1.76 1.5 2.84 3.3 2.84 1.0597 0 1.9997-.46 2.3397-.82v.66zm-1.44-2.2c-.26.66-1.16 1.1-2.08 1.1-1.0797 0-2.1197-.5-2.1197-1.58 0-1.06 1.04-1.54 2.1197-1.54.92 0 1.82.44 2.08 1.1zm5.504-10.8h-1.5v13h1.5zm4.18 0h-1.5v13h1.5zm14.614 8.56c0-2.72-1.66-4.62-4.08-4.62-2.44 0-4.08 1.9-4.08 4.62s1.64 4.62 4.08 4.62c2.42 0 4.08-1.9 4.08-4.62zm-1.52 0c0 1.94-.96 3.3-2.56 3.3s-2.56-1.36-2.56-3.3.96-3.3 2.56-3.3 2.56 1.36 2.56 3.3zm7.99-8.54c-.34-.14-.68-.2-1.16-.2-1.56 0-2.72 1.04-2.72 2.82v1.48h-1.5v1.28h1.5v7.6h1.48v-7.6h2v-1.28h-2v-1.36c0-1.06.58-1.62 1.46-1.62.32 0 .66.06.94.24zm11.396 4.1h-1.34l-1.82 6.78-1.96-6.78h-1.5l2.62 8.88h1.46l1.86-6.74 1.84 6.74h1.46l2.62-8.88h-1.46l-1.96 6.78zm6.938 8.88h1.5v-6.02c.32-.96 1.22-1.66 2.26-1.66 1.34 0 1.96.86 1.96 2.1v5.58h1.52v-5.82c0-1.94-1.1-3.24-3.12-3.24-1.14 0-2.1.6-2.62 1.3v-5.24h-1.5zm11.285-8.88h-1.5v8.88h1.5zm.22-2.68c0-.54-.44-.96-.98-.96-.52 0-.96.42-.96.96 0 .52.44.96.96.96.54 0 .98-.44.98-.96zm1.82 7.12c0 2.76 1.66 4.62 4.04 4.62 2 0 3.26-1.16 3.56-2.86h-1.54c-.2.96-.96 1.54-2.02 1.54-1.52 0-2.52-1.36-2.52-3.3s1-3.3 2.52-3.3c1.06 0 1.82.58 2.02 1.54h1.54c-.3-1.7-1.56-2.86-3.56-2.86-2.38 0-4.04 1.86-4.04 4.62zm9.566 4.44h1.5v-6.02c.32-.96 1.22-1.66 2.26-1.66 1.34 0 1.96.86 1.96 2.1v5.58h1.52v-5.82c0-1.94-1.1-3.24-3.12-3.24-1.14 0-2.1.6-2.62 1.3v-5.24h-1.5zm19.839-8.88h-1.34l-1.82 6.78-1.96-6.78h-1.5l2.62 8.88h1.46l1.86-6.74 1.84 6.74h1.46l2.62-8.88h-1.46l-1.96 6.78zm8.438 0h-1.5v8.88h1.5zm.22-2.68c0-.54-.44-.96-.98-.96-.52 0-.96.42-.96.96 0 .52.44.96.96.96.54 0 .98-.44.98-.96zm3.96-1.44h-1.5v13h1.5zm4.179 0h-1.5v13h1.5zm13.534 13v-5.92c0-1.94-1.26-3.14-3.38-3.14-1.7 0-3.02 1.02-3.32 2.52h1.48c.28-.82.88-1.22 1.82-1.22 1.28 0 1.96.8 1.96 1.9v1.12c-.38-.34-1.32-.72-2.24-.72-1.9 0-3.4 1.12-3.4 2.78 0 1.76 1.5 2.84 3.3 2.84 1.06 0 2-.46 2.34-.82v.66zm-1.44-2.2c-.26.66-1.16 1.1-2.08 1.1-1.08 0-2.12-.5-2.12-1.58 0-1.06 1.04-1.54 2.12-1.54.92 0 1.82.44 2.08 1.1zm11.084-6.68h-1.52v6.02c-.32.96-1.18 1.66-2.22 1.66-1.34 0-1.94-.86-1.94-2.1v-5.58h-1.52v5.82c0 1.94 1.08 3.24 3.1 3.24 1.14 0 2.08-.6 2.58-1.3v1.12h1.52zm3.086 6.64c0 1.64 1 2.42 2.44 2.42.54 0 1.06-.12 1.4-.3v-1.4c-.3.2-.74.36-1.16.36-.76 0-1.18-.38-1.18-1.24v-5.2h2.14v-1.28h-2.14v-2.34h-1.5v2.34h-1.44v1.28h1.44zm13.35-2.2c0-2.72-1.66-4.62-4.08-4.62-2.44 0-4.08 1.9-4.08 4.62s1.64 4.62 4.08 4.62c2.42 0 4.08-1.9 4.08-4.62zm-1.52 0c0 1.94-.96 3.3-2.56 3.3s-2.56-1.36-2.56-3.3.96-3.3 2.56-3.3 2.56 1.36 2.56 3.3zm9.851-3.2c-.42-.84-1.28-1.42-2.4-1.42-1.1 0-1.96.52-2.4 1.22v-1.04h-1.5v8.88h1.5v-6.12c.28-.96 1.06-1.58 1.96-1.58 1.14 0 1.68.82 1.68 2.06v5.64h1.5v-6.12c.28-.96 1.06-1.58 1.96-1.58 1.14 0 1.68.82 1.68 2.06v5.64h1.52v-5.88c0-1.92-1-3.18-2.8-3.18-1.24 0-2.14.62-2.7 1.42zm14.476 7.64v-5.92c0-1.94-1.26-3.14-3.38-3.14-1.7 0-3.02 1.02-3.32 2.52h1.48c.28-.82.88-1.22 1.82-1.22 1.28 0 1.96.8 1.96 1.9v1.12c-.38-.34-1.32-.72-2.24-.72-1.9 0-3.4 1.12-3.4 2.78 0 1.76 1.5 2.84 3.3 2.84 1.06 0 2-.46 2.34-.82v.66zm-1.44-2.2c-.26.66-1.16 1.1-2.08 1.1-1.08 0-2.12-.5-2.12-1.58 0-1.06 1.04-1.54 2.12-1.54.92 0 1.82.44 2.08 1.1zm4.365-.04c0 1.64 1 2.42 2.44 2.42.54 0 1.06-.12 1.4-.3v-1.4c-.3.2-.74.36-1.16.36-.76 0-1.18-.38-1.18-1.24v-5.2h2.14v-1.28h-2.14v-2.34h-1.5v2.34h-1.44v1.28h1.44zm7.428-6.64h-1.5v8.88h1.5zm.22-2.68c0-.54-.44-.96-.98-.96-.52 0-.96.42-.96.96 0 .52.44.96.96.96.54 0 .98-.44.98-.96zm1.819 7.12c0 2.76 1.66 4.62 4.04 4.62 2 0 3.26-1.16 3.56-2.86h-1.54c-.2.96-.96 1.54-2.02 1.54-1.52 0-2.52-1.36-2.52-3.3s1-3.3 2.52-3.3c1.06 0 1.82.58 2.02 1.54h1.54c-.3-1.7-1.56-2.86-3.56-2.86-2.38 0-4.04 1.86-4.04 4.62zm16.006 4.44v-5.92c0-1.94-1.26-3.14-3.38-3.14-1.7 0-3.02 1.02-3.32 2.52h1.48c.28-.82.88-1.22 1.82-1.22 1.28 0 1.96.8 1.96 1.9v1.12c-.38-.34-1.32-.72-2.24-.72-1.9 0-3.4 1.12-3.4 2.78 0 1.76 1.5 2.84 3.3 2.84 1.06 0 2-.46 2.34-.82v.66zm-1.44-2.2c-.26.66-1.16 1.1-2.08 1.1-1.08 0-2.12-.5-2.12-1.58 0-1.06 1.04-1.54 2.12-1.54.92 0 1.82.44 2.08 1.1zm5.504-10.8h-1.5v13h1.5zm4.18 0h-1.5v13h1.5zm5.299 16.4 4.78-12.28h-1.56l-2.58 7-2.62-7h-1.62l3.46 8.94-1.34 3.34zm12.396-4.44c.44.64 1.4 1.22 2.5 1.22 2.6 0 4-2.1 4-4.62 0-2.5-1.4-4.62-4-4.62-1.1 0-2.06.58-2.5 1.22v-5.16h-1.52v13h1.52zm0-5.2c.46-.92 1.34-1.46 2.28-1.46 1.7 0 2.7 1.38 2.7 3.26s-1 3.26-2.7 3.26c-.94 0-1.82-.54-2.28-1.46zm14.178 3.58c-.24 1-1.06 1.56-2.16 1.56-1.5 0-2.56-1.16-2.58-3.06h6.28v-.54c0-2.58-1.3-4.36-3.74-4.36-2.42 0-4.04 1.98-4.04 4.64 0 2.74 1.66 4.6 4.08 4.6 2 0 3.26-1.16 3.58-2.84zm-2.18-5.12c1.48 0 2.18 1.16 2.2 2.48h-4.72c.22-1.56 1.18-2.48 2.52-2.48zm16.575 7.78v-5.92c0-1.94-1.26-3.14-3.38-3.14-1.7 0-3.02 1.02-3.32 2.52h1.48c.28-.82.88-1.22 1.82-1.22 1.28 0 1.96.8 1.96 1.9v1.12c-.38-.34-1.32-.72-2.24-.72-1.9 0-3.4 1.12-3.4 2.78 0 1.76 1.5 2.84 3.3 2.84 1.06 0 2-.46 2.34-.82v.66zm-1.44-2.2c-.26.66-1.16 1.1-2.08 1.1-1.08 0-2.12-.5-2.12-1.58 0-1.06 1.04-1.54 2.12-1.54.92 0 1.82.44 2.08 1.1zm9.864 2.2h1.52v-13h-1.52v5.16c-.44-.64-1.4-1.22-2.5-1.22-2.6 0-4 2.12-4 4.62 0 2.52 1.4 4.62 4 4.62 1.1 0 2.06-.58 2.5-1.22zm0-2.64c-.46.92-1.34 1.46-2.28 1.46-1.7 0-2.7-1.38-2.7-3.26s1-3.26 2.7-3.26c.94 0 1.82.54 2.28 1.46zm10.039 2.64h1.52v-13h-1.52v5.16c-.44-.64-1.4-1.22-2.5-1.22-2.6 0-4 2.12-4 4.62 0 2.52 1.4 4.62 4 4.62 1.1 0 2.06-.58 2.5-1.22zm0-2.64c-.46.92-1.34 1.46-2.28 1.46-1.7 0-2.7-1.38-2.7-3.26s1-3.26 2.7-3.26c.94 0 1.82.54 2.28 1.46zm9.779-.02c-.24 1-1.06 1.56-2.16 1.56-1.5 0-2.56-1.16-2.58-3.06h6.28v-.54c0-2.58-1.3-4.36-3.74-4.36-2.42 0-4.04 1.98-4.04 4.64 0 2.74 1.66 4.6 4.08 4.6 2 0 3.26-1.16 3.58-2.84zm-2.18-5.12c1.48 0 2.18 1.16 2.2 2.48h-4.72c.22-1.56 1.18-2.48 2.52-2.48zm11.62 7.78h1.52v-13h-1.52v5.16c-.44-.64-1.4-1.22-2.5-1.22-2.6 0-4 2.12-4 4.62 0 2.52 1.4 4.62 4 4.62 1.1 0 2.06-.58 2.5-1.22zm0-2.64c-.46.92-1.34 1.46-2.28 1.46-1.7 0-2.7-1.38-2.7-3.26s1-3.26 2.7-3.26c.94 0 1.82.54 2.28 1.46zm9.013.4c0 1.64 1 2.42 2.44 2.42.54 0 1.06-.12 1.4-.3v-1.4c-.3.2-.74.36-1.16.36-.76 0-1.18-.38-1.18-1.24v-5.2h2.14v-1.28h-2.14v-2.34h-1.5v2.34h-1.44v1.28h1.44zm13.35-2.2c0-2.72-1.66-4.62-4.08-4.62-2.44 0-4.08 1.9-4.08 4.62s1.64 4.62 4.08 4.62c2.42 0 4.08-1.9 4.08-4.62zm-1.52 0c0 1.94-.96 3.3-2.56 3.3s-2.56-1.36-2.56-3.3.96-3.3 2.56-3.3 2.56 1.36 2.56 3.3zm10.585 7.84 4.78-12.28h-1.56l-2.58 7-2.62-7h-1.62l3.46 8.94-1.34 3.34zm13.845-7.84c0-2.72-1.66-4.62-4.08-4.62-2.44 0-4.08 1.9-4.08 4.62s1.64 4.62 4.08 4.62c2.42 0 4.08-1.9 4.08-4.62zm-1.52 0c0 1.94-.96 3.3-2.56 3.3s-2.56-1.36-2.56-3.3.96-3.3 2.56-3.3 2.56 1.36 2.56 3.3zm10.631-4.44h-1.52v6.02c-.32.96-1.18 1.66-2.22 1.66-1.34 0-1.94-.86-1.94-2.1v-5.58h-1.52v5.82c0 1.94 1.08 3.24 3.1 3.24 1.14 0 2.08-.6 2.58-1.3v1.12h1.52zm7.226-.04c-.16-.08-.48-.14-.86-.14-.98 0-1.82.58-2.2 1.34v-1.16h-1.5v8.88h1.5v-5.96c.3-1.04 1.12-1.66 2.06-1.66.38 0 .76.08 1 .24zm5.54 6.48c.28 1.64 1.7 2.62 3.64 2.62 1.9 0 3.3-1 3.3-2.68 0-1.24-.74-2.08-2.26-2.48l-1.72-.42c-.84-.24-1.24-.52-1.24-1.12 0-.86.82-1.28 1.7-1.28 1.08 0 1.7.46 1.96 1.26h1.5c-.32-1.56-1.48-2.52-3.44-2.52-1.8 0-3.18 1.04-3.18 2.62 0 1.38.88 2.02 2.14 2.34l1.76.46c.92.24 1.32.62 1.32 1.24 0 .9-.76 1.32-1.82 1.32-1.04 0-1.82-.44-2.1-1.36zm9.441.2c0 1.64 1 2.42 2.44 2.42.54 0 1.06-.12 1.4-.3v-1.4c-.3.2-.74.36-1.16.36-.76 0-1.18-.38-1.18-1.24v-5.2h2.14v-1.28h-2.14v-2.34h-1.5v2.34h-1.44v1.28h1.44zm12.231 2.24v-5.92c0-1.94-1.26-3.14-3.38-3.14-1.7 0-3.02 1.02-3.32 2.52h1.48c.28-.82.88-1.22 1.82-1.22 1.28 0 1.96.8 1.96 1.9v1.12c-.38-.34-1.32-.72-2.24-.72-1.9 0-3.4 1.12-3.4 2.78 0 1.76 1.5 2.84 3.3 2.84 1.06 0 2-.46 2.34-.82v.66zm-1.44-2.2c-.26.66-1.16 1.1-2.08 1.1-1.08 0-2.12-.5-2.12-1.58 0-1.06 1.04-1.54 2.12-1.54.92 0 1.82.44 2.08 1.1zm9.844 2.2h1.84l-4.14-5.04 4-3.84h-1.98l-4.06 3.94v-8.06h-1.5v13h1.5v-3.18l.96-.92zm8.783-2.66c-.24 1-1.06 1.56-2.16 1.56-1.5 0-2.56-1.16-2.58-3.06h6.28v-.54c0-2.58-1.3-4.36-3.74-4.36-2.42 0-4.04 1.98-4.04 4.64 0 2.74 1.66 4.6 4.08 4.6 2 0 3.26-1.16 3.58-2.84zm-2.18-5.12c1.48 0 2.18 1.16 2.2 2.48h-4.72c.22-1.56 1.18-2.48 2.52-2.48zm11.62 7.78h1.52v-13h-1.52v5.16c-.44-.64-1.4-1.22-2.5-1.22-2.6 0-4 2.12-4 4.62 0 2.52 1.4 4.62 4 4.62 1.1 0 2.06-.58 2.5-1.22zm0-2.64c-.46.92-1.34 1.46-2.28 1.46-1.7 0-2.7-1.38-2.7-3.26s1-3.26 2.7-3.26c.94 0 1.82.54 2.28 1.46zm15.033 2.64v-5.92c0-1.94-1.26-3.14-3.38-3.14-1.7 0-3.02 1.02-3.32 2.52h1.48c.28-.82.88-1.22 1.82-1.22 1.28 0 1.96.8 1.96 1.9v1.12c-.38-.34-1.32-.72-2.24-.72-1.9 0-3.4 1.12-3.4 2.78 0 1.76 1.5 2.84 3.3 2.84 1.06 0 2-.46 2.34-.82v.66zm-1.44-2.2c-.26.66-1.16 1.1-2.08 1.1-1.08 0-2.12-.5-2.12-1.58 0-1.06 1.04-1.54 2.12-1.54.92 0 1.82.44 2.08 1.1zm4.004 2.2h1.5v-6.02c.32-.96 1.22-1.66 2.26-1.66 1.34 0 1.96.86 1.96 2.1v5.58h1.52v-5.82c0-1.94-1.1-3.24-3.12-3.24-1.14 0-2.1.6-2.62 1.3v-1.12h-1.5zm15.645 0h1.52v-13h-1.52v5.16c-.44-.64-1.4-1.22-2.5-1.22-2.6 0-4 2.12-4 4.62 0 2.52 1.4 4.62 4 4.62 1.1 0 2.06-.58 2.5-1.22zm0-2.64c-.46.92-1.34 1.46-2.28 1.46-1.7 0-2.7-1.38-2.7-3.26s1-3.26 2.7-3.26c.94 0 1.82.54 2.28 1.46zm15.033 2.64v-5.92c0-1.94-1.26-3.14-3.38-3.14-1.7 0-3.02 1.02-3.32 2.52h1.48c.28-.82.88-1.22 1.82-1.22 1.28 0 1.96.8 1.96 1.9v1.12c-.38-.34-1.32-.72-2.24-.72-1.9 0-3.4 1.12-3.4 2.78 0 1.76 1.5 2.84 3.3 2.84 1.06 0 2-.46 2.34-.82v.66zm-1.44-2.2c-.26.66-1.16 1.1-2.08 1.1-1.08 0-2.12-.5-2.12-1.58 0-1.06 1.04-1.54 2.12-1.54.92 0 1.82.44 2.08 1.1zm3.364-2.24c0 2.76 1.66 4.62 4.04 4.62 2 0 3.26-1.16 3.56-2.86h-1.54c-.2.96-.96 1.54-2.02 1.54-1.52 0-2.52-1.36-2.52-3.3s1-3.3 2.52-3.3c1.06 0 1.82.58 2.02 1.54h1.54c-.3-1.7-1.56-2.86-3.56-2.86-2.38 0-4.04 1.86-4.04 4.62zm10.044 2.2c0 1.64 1 2.42 2.44 2.42.54 0 1.06-.12 1.4-.3v-1.4c-.3.2-.74.36-1.16.36-.76 0-1.18-.38-1.18-1.24v-5.2h2.14v-1.28h-2.14v-2.34h-1.5v2.34h-1.44v1.28h1.44zm7.428-6.64h-1.5v8.88h1.5zm.22-2.68c0-.54-.44-.96-.98-.96-.52 0-.96.42-.96.96 0 .52.44.96.96.96.54 0 .98-.44.98-.96zm6.4 11.56 3.46-8.88h-1.58l-2.58 6.98-2.6-6.98h-1.62l3.44 8.88zm11.367 0v-5.92c0-1.94-1.26-3.14-3.38-3.14-1.7 0-3.02 1.02-3.32 2.52h1.48c.28-.82.88-1.22 1.82-1.22 1.28 0 1.96.8 1.96 1.9v1.12c-.38-.34-1.32-.72-2.24-.72-1.9 0-3.4 1.12-3.4 2.78 0 1.76 1.5 2.84 3.3 2.84 1.06 0 2-.46 2.34-.82v.66zm-1.44-2.2c-.26.66-1.16 1.1-2.08 1.1-1.08 0-2.12-.5-2.12-1.58 0-1.06 1.04-1.54 2.12-1.54.92 0 1.82.44 2.08 1.1zm4.365-.04c0 1.64 1 2.42 2.44 2.42.54 0 1.06-.12 1.4-.3v-1.4c-.3.2-.74.36-1.16.36-.76 0-1.18-.38-1.18-1.24v-5.2h2.14v-1.28h-2.14v-2.34h-1.5v2.34h-1.44v1.28h1.44zm11.43-.42c-.24 1-1.06 1.56-2.16 1.56-1.5 0-2.56-1.16-2.58-3.06h6.28v-.54c0-2.58-1.3-4.36-3.74-4.36-2.42 0-4.04 1.98-4.04 4.64 0 2.74 1.66 4.6 4.08 4.6 2 0 3.26-1.16 3.58-2.84zm-2.18-5.12c1.48 0 2.18 1.16 2.2 2.48h-4.72c.22-1.56 1.18-2.48 2.52-2.48zm11.62 7.78h1.52v-13h-1.52v5.16c-.44-.64-1.4-1.22-2.5-1.22-2.6 0-4 2.12-4 4.62 0 2.52 1.4 4.62 4 4.62 1.1 0 2.06-.58 2.5-1.22zm0-2.64c-.46.92-1.34 1.46-2.28 1.46-1.7 0-2.7-1.38-2.7-3.26s1-3.26 2.7-3.26c.94 0 1.82.54 2.28 1.46zm12.473-9.64-4.8 12.28h1.6l1.4-3.7h5.06l1.42 3.7h1.6l-4.8-12.28zm.72 1.96 2 5.24h-4zm16.974-1.96h-1.5v9.34l-6.54-9.34h-1.5v12.28h1.52v-9.76l6.86 9.76h1.16zm1.801 8.8c.16 2.16 1.6 3.66 4.02 3.66 2.34 0 4-1.4 4-4.26v-8.2h-1.58v8.2c0 1.98-.94 2.82-2.44 2.82-1.38 0-2.22-.84-2.38-2.22zm16.484 2.44c.44.64 1.4 1.22 2.5 1.22 2.6 0 4-2.1 4-4.62 0-2.5-1.4-4.62-4-4.62-1.1 0-2.06.58-2.5 1.22v-5.16h-1.52v13h1.52zm0-5.2c.46-.92 1.34-1.46 2.28-1.46 1.7 0 2.7 1.38 2.7 3.26s-1 3.26-2.7 3.26c-.94 0-1.82-.54-2.28-1.46zm14.979 6.24v-5.92c0-1.94-1.26-3.14-3.38-3.14-1.7 0-3.02 1.02-3.32 2.52h1.48c.28-.82.88-1.22 1.82-1.22 1.28 0 1.96.8 1.96 1.9v1.12c-.38-.34-1.32-.72-2.24-.72-1.9 0-3.4 1.12-3.4 2.78 0 1.76 1.5 2.84 3.3 2.84 1.06 0 2-.46 2.34-.82v.66zm-1.44-2.2c-.26.66-1.16 1.1-2.08 1.1-1.08 0-2.12-.5-2.12-1.58 0-1.06 1.04-1.54 2.12-1.54.92 0 1.82.44 2.08 1.1zm5.504-10.8h-1.5v13h1.5zm9.12 13v-5.92c0-1.94-1.26-3.14-3.38-3.14-1.7 0-3.02 1.02-3.32 2.52h1.48c.28-.82.88-1.22 1.82-1.22 1.28 0 1.96.8 1.96 1.9v1.12c-.38-.34-1.32-.72-2.24-.72-1.9 0-3.4 1.12-3.4 2.78 0 1.76 1.5 2.84 3.3 2.84 1.06 0 2-.46 2.34-.82v.66zm-1.44-2.2c-.26.66-1.16 1.1-2.08 1.1-1.08 0-2.12-.5-2.12-1.58 0-1.06 1.04-1.54 2.12-1.54.92 0 1.82.44 2.08 1.1zm4.004 2.2h1.5v-6.02c.32-.96 1.22-1.66 2.26-1.66 1.34 0 1.96.86 1.96 2.1v5.58h1.52v-5.82c0-1.94-1.1-3.24-3.12-3.24-1.14 0-2.1.6-2.62 1.3v-1.12h-1.5zm9.145-4.44c0 2.76 1.66 4.62 4.04 4.62 2 0 3.26-1.16 3.56-2.86h-1.54c-.2.96-.96 1.54-2.02 1.54-1.52 0-2.52-1.36-2.52-3.3s1-3.3 2.52-3.3c1.06 0 1.82.58 2.02 1.54h1.54c-.3-1.7-1.56-2.86-3.56-2.86-2.38 0-4.04 1.86-4.04 4.62zm15.127 1.78c-.24 1-1.06 1.56-2.16 1.56-1.5 0-2.56-1.16-2.58-3.06h6.28v-.54c0-2.58-1.3-4.36-3.74-4.36-2.42 0-4.04 1.98-4.04 4.64 0 2.74 1.66 4.6 4.08 4.6 2 0 3.26-1.16 3.58-2.84zm-2.18-5.12c1.48 0 2.18 1.16 2.2 2.48h-4.72c.22-1.56 1.18-2.48 2.52-2.48zm5.02 6.8c0 .62.48 1.08 1.08 1.08.58 0 1.06-.46 1.06-1.08s-.48-1.1-1.06-1.1c-.6 0-1.08.48-1.08 1.1z" fill="#1c1c1c"/></svg>