<svg fill="none" height="545" viewBox="0 0 782 545" width="782" xmlns="http://www.w3.org/2000/svg" xmlns:xlink="http://www.w3.org/1999/xlink"><filter id="a" color-interpolation-filters="sRGB" filterUnits="userSpaceOnUse" height="545" width="782" x="0" y="0"><feFlood flood-opacity="0" result="BackgroundImageFix"/><feColorMatrix in="SourceAlpha" type="matrix" values="0 0 0 0 0 0 0 0 0 0 0 0 0 0 0 0 0 0 127 0"/><feOffset dy="3"/><feGaussianBlur stdDeviation="8.5"/><feColorMatrix type="matrix" values="0 0 0 0 0 0 0 0 0 0 0 0 0 0 0 0 0 0 0.1 0"/><feBlend in2="BackgroundImageFix" mode="normal" result="effect1_dropShadow"/><feBlend in="SourceGraphic" in2="effect1_dropShadow" mode="normal" result="shape"/></filter><mask id="b" height="511" maskUnits="userSpaceOnUse" width="748" x="17" y="14"><rect fill="#fff" height="511" rx="6" width="748" x="17" y="14"/></mask><g filter="url(#a)"><rect fill="#fff" height="511" rx="6" width="748" x="17" y="14"/></g><g mask="url(#b)" stroke="#ffa776" stroke-width="1.5"><circle cx="390.5" cy="269.5" opacity=".5" r="223.216"/><circle cx="390.5" cy="269.5" opacity=".3" r="255.045"/><circle cx="390.5" cy="269.5" opacity=".15" r="286.098"/><circle cx="390.5" cy="269.5" opacity=".1" r="317.75"/></g><g fill="#ffa776"><path d="m301 269.5-3.75 4.763v-9.526z" opacity=".6"/><path d="m309 269.5-3.75 4.763v-9.526z" opacity=".7"/><path d="m317 269.5-3.75 4.763v-9.526z" opacity=".8"/><path d="m325 269.5-3.75 4.763v-9.526z"/><path d="m333 269.5-3.75 4.763v-9.526z"/><path d="m481 269.5 3.75-4.763v9.526z" opacity=".6"/><path d="m473 269.5 3.75-4.763v9.526z" opacity=".7"/><path d="m465 269.5 3.75-4.763v9.526z" opacity=".8"/><path d="m457 269.5 3.75-4.763v9.526z"/><path d="m449 269.5 3.75-4.763v9.526z"/></g><circle cx="249" cy="270" fill="#ff7c7c" r="39"/><path d="m264.581 286.877c0-8.445-6.846-15.291-15.291-15.291-8.444 0-15.29 6.846-15.29 15.291" stroke="#f9fafc" stroke-width="5"/><circle cx="249.195" cy="257.195" fill="#f9fafc" r="7.19549"/><circle cx="533" cy="270" fill="#ff7c7c" r="39"/><path d="m548.581 286.877c0-8.445-6.846-15.291-15.291-15.291-8.444 0-15.29 6.846-15.29 15.291" stroke="#f9fafc" stroke-width="5"/><circle cx="533.195" cy="257.195" fill="#f9fafc" r="7.19549"/><circle cx="390.773" cy="269.773" fill="#8987ff" r="49.7726"/><path d="m409.094 245v37.953l-9.434 2.051-2.051 9.434h-24.609v-49.438z" fill="#bfbeff"/><path d="m409.094 245v37.953l-9.434 2.051-2.051 9.434h-24.609v-49.438z" fill="#c8c7ff"/><path d="m397.609 282.953v11.485l11.485-11.485z" fill="#eef"/><rect fill="#8987ff" fill-opacity=".6" height="3" rx="1.5" width="28" x="377" y="250"/><rect fill="#8987ff" fill-opacity=".4" height="3" rx="1.5" width="28" x="377" y="257"/><rect fill="#8987ff" height="3" opacity=".3" rx="1.5" width="28" x="377" y="264"/><rect fill="#8987ff" height="3" opacity=".2" rx="1.5" width="28" x="377" y="271"/></svg>