<svg fill="none" height="276" viewBox="0 0 705 276" width="705" xmlns="http://www.w3.org/2000/svg" xmlns:xlink="http://www.w3.org/1999/xlink"><linearGradient id="a"><stop offset="0" stop-color="#ffc58f"/><stop offset="1" stop-color="#ff7c7c"/></linearGradient><linearGradient id="b" gradientUnits="userSpaceOnUse" x1="234.072" x2="350.357" xlink:href="#a" y1="172.917" y2="79.2612"/><linearGradient id="c" gradientUnits="userSpaceOnUse" x1="340.215" x2="383.12" xlink:href="#a" y1="90.9401" y2="63.8841"/><linearGradient id="d" gradientUnits="userSpaceOnUse" x1="478" x2="492.864" xlink:href="#a" y1="153.945" y2="83.7042"/><clipPath id="e"><path d="m235 0h228v276h-228z"/></clipPath><path d="m260.486 127.563 14.641 39.045c4.164.717 6.727 1.695 6.727 2.774v.02l-.007-.021.024.094c.088.452.074.943-.042 1.475l.025.001-.079.221c-.114.427-.291.878-.531 1.354-3.881 9.173-12.458 15.644-23.012 15.644-10.392 0-19.265-6.273-23.282-15.221l.236.418c-.476-.816-.799-1.56-.97-2.231-.021-.06-.043-.122-.065-.185l.021-.001c-.1-.461-.125-.886-.075-1.276l.054-.292.011-.122c.192-1.072 2.915-2.037 7.205-2.734l14.611-38.963c.703-1.89 3.8-1.89 4.508 0zm77.234-.005 14.639 39.036c3.965.676 6.498 1.588 6.781 2.598l-.04-.082c.232.445.299.959.202 1.541l-.061.295c-.084.33-.213.675-.39 1.039-3.78 9.461-12.626 16.18-23.385 16.18-10.645 0-19.697-6.583-23.567-15.88-.229-.452-.41-.885-.503-1.292l-.009-.043c-.001-.001-.001-.002-.002-.004l.001-.001-.03-.185c-.038-.329-.017-.726.061-1.191l.059-.313-.005.027c.002-.018.006-.036.01-.054l.005-.021.003.001c.265-1.044 2.933-1.984 7.103-2.669l14.62-38.982c.703-1.89 3.8-1.89 4.508 0zm-79.488 7.725-11.47 30.583c3.349-.3 7.176-.47 11.24-.47l.73.002c3.984.02 7.723.203 10.984.511zm77.234 0-11.473 30.59c3.368-.304 7.225-.477 11.322-.477l.729.002c3.952.02 7.663.2 10.906.504zm-38.278-53.0093s5.712 17.9213 5.712 21.0953c0 2.186-1.262 4.032-3.059 5.002 1.479.48 2.779 1.323 3.795 2.452 2.269-1.977 5.611-3.814 10.408-3.814 5.486 0 10.201 2.399 14.362 4.517 1.325.673 2.611 1.318 3.8 1.822.887-.94 2.124-1.541 3.511-1.541 2.688 0 4.865 2.19 4.865 4.894 0 2.705-2.177 4.895-4.865 4.895-2.181 0-3.959-1.468-4.575-3.46-1.594-.611-3.227-1.435-4.908-2.288-3.679-1.87-7.855-3.993-12.19-3.993-4.166 0-6.766 1.944-8.25 3.586.058.417.125.829.125 1.26 0 4.851-3.91 8.787-8.731 8.787-4.822 0-8.732-3.936-8.732-8.787 0-.431.067-.848.125-1.264-1.488-1.648-4.089-3.582-8.25-3.582-4.335 0-8.511 2.128-12.195 3.998-1.676.853-3.309 1.677-4.903 2.288-.616 1.992-2.394 3.46-4.575 3.46-2.688 0-4.865-2.195-4.865-4.9 0-2.704 2.177-4.894 4.865-4.894 1.387 0 2.625.605 3.511 1.541 1.189-.499 2.47-1.144 3.795-1.822 4.161-2.118 8.881-4.517 14.367-4.517 4.797 0 8.139 1.837 10.408 3.814 1.016-1.129 2.316-1.977 3.795-2.452-1.797-.97-3.059-2.811-3.059-5.002 0-3.174 5.713-21.0953 5.713-21.0953z" fill="url(#b)"/><path d="m365.456 76.3041s-5.926.5093-9.851 2.6306c0 0 15.614-.0843 22.881 6.0205 0 0-17.673-5.43-38.271 8.0545 0 0 32.761-6.2767 48.292 7.0393 0 0-5.012-9.2763-15.553-11.2728 0 0 11.993-.478 16.1 1.5185 0 0-3.547-7.642-7.568-9.4635v-5.4476c0-1.1031-6.006-6.7131-16.03-7.6597z" fill="url(#c)"/><g fill="#fff"><path d="m362.791 100.664s2.527 2.204 3.597 4.241c0 0-2.31 2.283-4.518 3.407 0 0 6.689 2.107 8.45 4.598-3.566-1.121-9.656-.701-11.123 2.328 4.072-.439 6.565.612 7.089 2.172 0 0-.968 1.395-3.932 2.015-3.157.66-3.963 1.973-3.963 3.805 0 1.833 2.397 3.509 6.751 3.373 4.347-.139 16.205-1.933 17.101-24.366-.896-2.11-11.728-6.4173-19.48-6.37z"/><path d="m385.971 125.49c5.323-8.283 8.236-15.501 8.738-21.653 7.88 8.757 7.406 19.01 6.067 26.857-.903-2.525-2.068-5.122-3.494-7.792.942 12.098-2.639 18.648-10.745 19.65-.948-5.588-1.137-11.276-.566-17.062z"/><path d="m287.615 50.3538c-1.479 2.2752-3.648 8.6015-6.505 18.9786-6.421 7.3475-12.701 17.4315-18.842 30.2521-3.032.9425-6.249 2.2735-9.65 3.9925 8.722-16.0368 17.256-28.1426 25.6-36.319 1.928-6.408 5.06-12.0428 9.397-16.9042z"/><path d="m305.197 68.2441-21.58 10.1815c6.149.1035 11.033-1.0145 14.651-3.354 3.618-2.3394 5.928-4.6153 6.929-6.8275z"/><path d="m297.235 64.5302c-.122-4.4497-.702-6.9508-1.738-7.503-1.152-.5147-1.822-1.6231-1.152-3.6472.413-1.2864.288-2.7186-.374-4.2965l5.854-3.9106 6.588 4.1528c.231 1.4654-.248 2.8168-1.436 4.0543 1.436 1.5539 1.436 3.5594-.228 5.8758.047.5738.079 1.1365.097 1.6879.027.8357-.005 2.0312-.097 3.5865z"/><path d="m378.518 133.084c-1.033 18.812 2.972 29.502 12.015 32.071 13.564 3.854 31.706 4.979 36.639 33.545 1.226 3.864.63 7.414 1.644 10.895-3.977 4.211-8.29 8.099-12.896 11.621-4.508-10.9-10.144-17.632-18.068-22.516-31.229-19.453-37.674-41.325-19.334-65.616z"/><path d="m299.898 192.951c23.102 31.549 42.53 14.748 62.752 24.364 9.246 4.397 14.289 12.469 15.131 24.215-7.884 1.836-16.098 2.805-24.538 2.805-16.366 0-31.882-3.643-45.787-10.165-.051-12.358-2.571-26.098-7.558-41.219z"/><path d="m387.21 70.1204c6.596 10.488 9.672 18.2458 9.229 23.2735-.168 1.8168-.967 3.8437-2.396 6.0809 5.019-.448 7.529-3.5345 7.529-9.2595s-4.787-12.4233-14.362-20.0949z"/><path d="m329.894 81.9397c4.242-1.1719 7.709-3.8182 10.401-7.9388-.171 2.4533-.785 4.565-1.843 6.3352 12.26-2.2052 21.775-9.6339 28.545-22.286-12.483-6.7873-25.351-2.1572-32.248 6.2865-4.598 5.6291-6.216 11.4968-4.855 17.6031z"/><path d="m23.9799 138.66c.9-.32 1.6-1.28 1.6-2.6 0-2.2-1.6-3.34-4.16-3.34h-4.3v12.28h4.7c2.56 0 4.16-1.22 4.16-3.52 0-1.3-.84-2.44-2-2.82zm-4.84-.78v-3.36h2.26c1.42 0 2.18.5 2.18 1.66s-.76 1.7-2.18 1.7zm0 1.72h2.64c1.4 0 2.16.68 2.16 1.8 0 1.1-.76 1.8-2.16 1.8h-2.64zm9.9956-6.88v12.28h8.02v-1.86h-5.98v-3.52h5.42v-1.82h-5.42v-3.24h5.98v-1.84zm10.6135 6.14c0 3.78 2.42 6.34 5.58 6.34 2.76 0 4.54-1.6 5-4.08h-2.04c-.48 1.32-1.32 2.2-2.96 2.2-2.18 0-3.48-1.9-3.48-4.46 0-2.58 1.32-4.46 3.48-4.46 1.64 0 2.48.88 2.96 2.18h2.04c-.46-2.46-2.22-4.06-5-4.06-3.16 0-5.58 2.56-5.58 6.34zm24.2736 0c0-3.68-2.36-6.34-5.68-6.34s-5.66 2.66-5.66 6.34c0 3.66 2.34 6.34 5.66 6.34s5.68-2.68 5.68-6.34zm-2.1 0c0 2.6-1.42 4.48-3.58 4.48s-3.56-1.88-3.56-4.48 1.4-4.48 3.56-4.48 3.58 1.88 3.58 4.48zm11.9943 6.14 3.3-8.54v8.54h2v-12.28h-2.32l-3.7 9.44-3.74-9.44h-2.38v12.28h1.98v-8.54l3.38 8.54zm9.0233-12.28v12.28h8.02v-1.86h-5.98v-3.52h5.42v-1.82h-5.42v-3.24h5.98v-1.84zm20.4478 0-4.7203 12.28h2.1003l1.26-3.4h4.7l1.26 3.4h2.12l-4.72-12.28zm.98 2.54 1.68 4.54h-3.36zm12.86 6.16c.18 2.18 1.52 3.78 4.16 3.78 2.52 0 4.12-1.52 4.12-4.44v-8.04h-2.08v8.04c0 1.74-.68 2.54-2.08 2.54-1.18 0-1.82-.7-1.96-1.88zm16.487 3.78c2.94 0 4.92-1.72 4.92-5.08v-7.4h-2.08v7.16c0 2.36-1 3.46-2.84 3.46s-2.84-1.1-2.84-3.46v-7.16h-2.08v7.38c0 3.38 2 5.1 4.92 5.1zm12.008-5.18 3.42 4.98h2.36l-3.56-5.06c1.94-.3 3.14-1.48 3.14-3.54 0-2.4-1.64-3.68-4.18-3.68h-4.74v12.28h2.08v-4.98zm-1.48-5.5h2.62c1.38 0 2.16.74 2.16 1.88s-.78 1.88-2.16 1.88h-2.62zm20.694 4.34c0-3.68-2.36-6.34-5.68-6.34s-5.66 2.66-5.66 6.34c0 3.66 2.34 6.34 5.66 6.34s5.68-2.68 5.68-6.34zm-2.1 0c0 2.6-1.42 4.48-3.58 4.48s-3.56-1.88-3.56-4.48 1.4-4.48 3.56-4.48 3.58 1.88 3.58 4.48zm8.714 1.16 3.42 4.98h2.36l-3.56-5.06c1.94-.3 3.14-1.48 3.14-3.54 0-2.4-1.64-3.68-4.18-3.68h-4.74v12.28h2.08v-4.98zm-1.48-5.5h2.62c1.38 0 2.16.74 2.16 1.88s-.78 1.88-2.16 1.88h-2.62z"/></g><path d="m499.971 145v-4.98h5.38v-1.82h-5.38v-3.64h5.76v-1.84h-7.84v12.28zm19.502-6.14c0-3.68-2.36-6.34-5.68-6.34s-5.66 2.66-5.66 6.34c0 3.66 2.34 6.34 5.66 6.34s5.68-2.68 5.68-6.34zm-2.1 0c0 2.6-1.42 4.48-3.58 4.48s-3.56-1.88-3.56-4.48 1.4-4.48 3.56-4.48 3.58 1.88 3.58 4.48zm8.714 1.16 3.42 4.98h2.36l-3.56-5.06c1.94-.3 3.14-1.48 3.14-3.54 0-2.4-1.64-3.68-4.18-3.68h-4.74v12.28h2.08v-4.98zm-1.48-5.5h2.62c1.38 0 2.16.74 2.16 1.88s-.78 1.88-2.16 1.88h-2.62zm19.188-1.8-4.72 12.28h2.1l1.26-3.4h4.7l1.26 3.4h2.12l-4.72-12.28zm.98 2.54 1.68 4.54h-3.36zm12.066 4.76 3.42 4.98h2.36l-3.56-5.06c1.94-.3 3.14-1.48 3.14-3.54 0-2.4-1.64-3.68-4.18-3.68h-4.74v12.28h2.08v-4.98zm-1.48-5.5h2.62c1.38 0 2.16.74 2.16 1.88s-.78 1.88-2.16 1.88h-2.62zm13.774-1.8-4.72 12.28h2.1l1.26-3.4h4.7l1.26 3.4h2.12l-4.72-12.28zm.98 2.54 1.68 4.54h-3.36zm16.358 5.18c-.26 1.72-1.38 2.92-3.24 2.92-2.28 0-3.68-1.9-3.68-4.5s1.42-4.46 3.6-4.46c1.64 0 2.46.84 2.96 2.16h2.08c-.48-2.44-2.22-4.04-5.04-4.04-3.2 0-5.7 2.56-5.7 6.34s2.48 6.34 5.78 6.34c3 0 5.22-2.18 5.22-5.58v-.96h-4.66v1.78zm15.723-1.58c0-3.68-2.36-6.34-5.68-6.34s-5.66 2.66-5.66 6.34c0 3.66 2.34 6.34 5.66 6.34s5.68-2.68 5.68-6.34zm-2.1 0c0 2.6-1.42 4.48-3.58 4.48s-3.56-1.88-3.56-4.48 1.4-4.48 3.56-4.48 3.58 1.88 3.58 4.48zm15.034-6.14h-2v8.52l-5.92-8.52h-1.96v12.28h2v-8.94l6.28 8.94h1.6zm8.472 6.14c0 3.78 2.42 6.34 5.58 6.34 2.76 0 4.54-1.6 5-4.08h-2.04c-.48 1.32-1.32 2.2-2.96 2.2-2.18 0-3.48-1.9-3.48-4.46 0-2.58 1.32-4.46 3.48-4.46 1.64 0 2.48.88 2.96 2.18h2.04c-.46-2.46-2.22-4.06-5-4.06-3.16 0-5.58 2.56-5.58 6.34zm24.273 0c0-3.68-2.36-6.34-5.68-6.34s-5.66 2.66-5.66 6.34c0 3.66 2.34 6.34 5.66 6.34s5.68-2.68 5.68-6.34zm-2.1 0c0 2.6-1.42 4.48-3.58 4.48s-3.56-1.88-3.56-4.48 1.4-4.48 3.56-4.48 3.58 1.88 3.58 4.48zm9.875 6.34c2.94 0 4.92-1.72 4.92-5.08v-7.4h-2.08v7.16c0 2.36-1 3.46-2.84 3.46s-2.84-1.1-2.84-3.46v-7.16h-2.08v7.38c0 3.38 2 5.1 4.92 5.1zm12.008-5.18 3.42 4.98h2.36l-3.56-5.06c1.94-.3 3.14-1.48 3.14-3.54 0-2.4-1.64-3.68-4.18-3.68h-4.74v12.28h2.08v-4.98zm-1.48-5.5h2.62c1.38 0 2.16.74 2.16 1.88s-.78 1.88-2.16 1.88h-2.62zm9.058.04h4.08v10.44h2.08v-10.44h4.08v-1.84h-10.24z" fill="url(#d)"/><g clip-path="url(#e)" fill="#515151"><path d="m248.335 64.9859-8.239-5.75 3.686-5.2076 1.192.8679-2.71 3.7972 2.385 1.7359 2.494-3.5802 1.192.8679-2.493 3.5802 3.361 2.2783z"/><path d="m257.984 52.7264c-1.734 2.0613-4.662 2.0613-6.938.1085-2.277-1.9528-2.711-4.7736-.868-6.8349 1.735-2.0613 4.662-2.0613 6.939-.1085 2.168 1.9528 2.602 4.7736.867 6.8349zm-6.722-5.75c-1.192 1.3019-.758 3.1463.868 4.5566 1.626 1.4104 3.469 1.5189 4.662.217 1.192-1.3019.759-3.2547-.868-4.5566-1.626-1.4104-3.469-1.5189-4.662-.217z"/><path d="m262.863 41.335 2.819 2.9292-1.193 1.1934-6.83-7.2689 2.819-2.6037c1.518-1.4104 3.144-1.5189 4.553-.1085 1.193 1.1934 1.085 2.6037.109 3.7971l4.879.9765-1.41 1.3018-4.77-1.0849zm-.867-.9764 1.518-1.4104c.867-.7595.867-1.6274.216-2.2783-.65-.651-1.517-.651-2.276.1085l-1.518 1.4103z"/><path d="m273.379 24.8444 6.939-4.6651.867 1.1934-2.818 1.8443 4.77 7.0519-1.409.9764-4.771-7.0519-2.71 1.8444z"/><path d="m289.859 21.4811 1.951 3.5802-1.518.868-4.661-8.7878 3.36-1.8443c1.844-.9764 3.47-.651 4.446 1.0849.758 1.5189.325 2.8207-.868 3.6887l4.445 2.2783-1.734.8679-4.337-2.2783zm-.651-1.1934 1.843-.9764c.976-.5424 1.301-1.3019.868-2.1698-.434-.8679-1.301-1.0849-2.277-.5424l-1.843.9764z"/><path d="m299.725 16.5991-2.277-5.533 1.518-.651 2.168 5.4245c.759 1.7359 1.843 2.2783 3.144 1.7359 1.301-.5425 1.843-1.7359 1.084-3.4717l-2.168-5.42454 1.518-.65094 2.277 5.53298c.975 2.4953 0 4.4482-2.169 5.3161-2.06.9764-4.011.3254-5.095-2.2783z"/><path d="m310.566 6.07548 8.023-2.2783.434 1.41038-3.144.86792 2.276 8.13682-1.626.4339-2.385-8.02827-3.144.97642z"/><path d="m332.9 1.08496 1.626 9.87264-1.626.3255-.759-4.33965-4.987.86793.759 4.33962-1.626.3255-1.627-9.87267 1.627-.32547.65 4.01415 4.987-.86793-.65-4.01415z"/><path d="m352.198.00003109 3.686 10.08966891h-1.734l-.976-2.8208-3.795-.10849-1.084 2.71226h-1.734l4.011-9.981129zm-2.276 5.74999891h2.71l-1.301-3.68868z"/><path d="m368.678 11.283-1.301-.1084-4.229-7.91985-.867 7.26885-1.518-.217 1.084-9.9811 1.627.216982 4.011 7.485848.759-6.9434 1.626.21699z"/><path d="m376.592 2.4953 3.253.75943c2.818.65095 4.336 3.03774 3.577 5.96699-.65 2.92928-2.927 4.44808-5.854 3.79718l-3.253-.7594zm1.301 9.0047c2.06.434 3.469-.6509 3.903-2.71225.434-2.06132-.325-3.68868-2.385-4.12264l-1.518-.32547-1.518 6.83486z"/><path d="m395.999 15.5142c-.217.9764 0 1.6273.867 2.0613 1.084.4339 1.843 0 2.385-1.3019l2.494-6.0755 1.517.651-2.493 6.0754c-.867 2.1698-2.602 2.8208-4.445 2.0614-1.952-.7595-2.494-2.3868-1.952-4.1227z"/><path d="m406.19 18.7689 2.819-5.316 1.517.7594-2.71 5.0991c-.867 1.7358-.651 2.8207.759 3.5802 1.301.6509 2.493.3254 3.361-1.4104l2.71-5.0991 1.518.7595-2.819 5.316c-1.301 2.3868-3.361 2.9292-5.421 1.7358-2.168-.9764-3.035-3.0377-1.734-5.4245z"/><path d="m418.441 27.1227c-.325 1.0849.108 1.8443 1.084 2.4952.976.651 1.951.651 2.385-.1085.434-.5424.325-1.1933-.434-1.9528l-1.192-1.3019c-.976-1.0849-1.518-2.2783-.542-3.5802.976-1.4103 2.819-1.7358 4.445-.5424 1.843 1.1934 2.277 2.8207 1.626 4.4481l-1.409-.9764c.217-.7594 0-1.6274-.976-2.2783-.867-.651-1.843-.5425-2.277.1085-.325.5424-.217 1.1934.325 1.8443l1.193 1.3019c1.084 1.1934 1.409 2.4953.651 3.6887-1.085 1.5188-2.928 1.7358-4.662.5424-1.735-1.1934-2.386-2.9292-1.735-4.6651z"/><path d="m431.668 27.5566 6.396 5.3161-.976 1.1934-2.602-2.0613-5.42 6.5094-1.301-1.0849 5.42-6.5095-2.602-2.0613z"/><path d="m436.655 45.2406-1.193-1.1934 6.939-7.1604 1.192 1.1934z"/><path d="m450.966 45.6746c1.518 1.7358 1.409 3.6887.217 5.2075l-1.085-1.3018c.543-.9765.651-1.9529-.216-2.9293-1.193-1.3019-3.036-1.0849-4.554.217-1.518 1.4104-2.06 3.1462-.867 4.5566.867.9764 1.843 1.0849 2.927.6509l1.084 1.3019c-1.734 1.0849-3.686.7595-5.204-.8679-1.734-1.9528-1.409-4.7736.868-6.8349 2.276-2.0613 5.204-1.9528 6.83 0z"/><path d="m461.048 59.0189-1.192.8679-2.819-4.0141-2.168 1.5189 2.493 3.5801-1.192.868-2.494-3.5802-2.385 1.6273 2.819 4.0142-1.193.8679-3.794-5.316 8.131-5.75z"/><path d="m246.275 215.896-5.529 9.222-1.084-1.302 1.518-2.495-2.385-3.038-2.711.759-1.084-1.301 10.191-3.147zm-5.963 1.845 1.735 2.169 2.06-3.363z"/><path d="m248.66 227.83-2.927 2.821-1.192-1.193 7.264-6.944 2.71 2.821c1.409 1.519 1.626 3.146.217 4.557-1.193 1.193-2.602 1.084-3.795.108l-.976 4.882-1.301-1.41.976-4.774zm1.085-.976 1.517 1.519c.759.759 1.627.868 2.277.217.651-.651.651-1.519-.108-2.279l-1.518-1.519z"/><path d="m264.164 234.34-3.578 10.089-1.301-1.085.976-2.712-2.927-2.495-2.602 1.41-1.301-1.085 9.432-5.099zm-5.421 2.929 2.06 1.736 1.41-3.689z"/><path d="m270.777 247.359.868-1.194 3.144 2.17-.434.651c-1.626 2.278-4.12 2.712-6.071 1.302-2.168-1.519-2.602-4.448-.867-6.944 1.734-2.495 4.661-3.037 6.721-1.519 1.843 1.302 2.277 3.255 1.41 5.1l-1.41-.977c.326-1.085.109-2.061-.975-2.821-1.41-.976-3.253-.434-4.445 1.302-1.193 1.736-1.193 3.689.325 4.665 1.192.868 2.493.651 3.469-.434z"/><path d="m280.318 257.991c-2.385-1.302-2.927-4.123-1.518-6.727 1.518-2.604 4.229-3.58 6.505-2.278 2.385 1.302 2.928 4.123 1.518 6.726-1.409 2.604-4.12 3.58-6.505 2.279zm4.337-7.703c-1.518-.868-3.253-.109-4.337 1.736-1.084 1.844-.759 3.688.759 4.556s3.253.109 4.337-1.736c.975-1.735.759-3.688-.759-4.556z"/><path d="m297.34 266.019-1.193-.543-1.843-8.679-2.927 6.727-1.518-.651 4.011-9.222 1.41.651 1.626 8.245 2.71-6.401 1.518.651z"/><path d="m318.698 272.637-1.301-.326-3.145-8.353-1.843 7.051-1.626-.434 2.494-9.655 1.518.434 2.927 7.92 1.843-6.727 1.626.434z"/><path d="m333.117 265.042-.217 1.519-4.77-.759-.434 2.604 4.337.651-.217 1.41-4.337-.651-.433 2.821 4.77.759-.217 1.519-6.396-.976 1.517-9.873z"/><path d="m337.67 265.476 8.349.543-.109 1.519-3.361-.217-.542 8.462-1.735-.108.543-8.463-3.361-.217z"/><path d="m356.86 265.91 2.169 7.269 1.517-7.377 1.627-.109-2.169 10.09-1.518.108-2.168-7.051-1.626 7.268-1.518.109-3.036-9.873 1.627-.108 2.168 7.269 1.518-7.486z"/><path d="m372.364 274.481c-2.711.434-4.879-1.41-5.313-4.339-.433-2.93 1.085-5.425 3.795-5.859s4.879 1.41 5.312 4.34c.434 2.929-1.084 5.424-3.794 5.858zm-1.301-8.679c-1.735.325-2.602 1.953-2.277 4.014s1.735 3.472 3.469 3.146c1.735-.217 2.602-1.953 2.277-4.014-.434-2.17-1.735-3.472-3.469-3.146z"/><path d="m383.531 267.972.975 3.905-1.626.434-2.493-9.655 3.686-.977c1.951-.542 3.577.109 4.011 2.062.434 1.627-.325 2.82-1.734 3.471l3.794 3.255-1.843.434-3.686-3.255zm-.434-1.411 2.06-.542c1.084-.326 1.518-.977 1.301-1.953s-.976-1.302-2.06-1.085l-2.06.543z"/><path d="m395.565 263.198 2.277-5.967 1.951-.759-2.277 5.641 5.746 3.689-1.951.759-4.554-2.929-.542 1.41 1.085 2.93-1.627.542-3.469-9.33 1.626-.543z"/><path d="m414.971 257.231c.543.76 1.301 1.085 2.169.543.976-.543 1.192-1.411.542-2.604l-3.144-5.75 1.518-.76 3.144 5.75c1.084 2.062.542 3.798-1.193 4.774-1.843.976-3.469.434-4.445-1.085z"/><path d="m423.862 250.939-3.361-4.991 1.409-.976 3.253 4.882c1.084 1.627 2.276 1.844 3.469 1.085 1.193-.868 1.409-2.062.325-3.581l-3.252-4.882 1.409-.976 3.361 4.991c1.518 2.278.976 4.339-1.084 5.641-1.952 1.41-4.012 1.085-5.529-1.193z"/><path d="m436.546 241.825 2.602 3.147-1.301 1.085-6.288-7.703 3.036-2.387c1.626-1.302 3.252-1.302 4.553.217 1.085 1.302.868 2.712-.108 3.797l4.879 1.302-1.518 1.193-4.662-1.41zm-.867-1.193 1.626-1.302c.868-.759.976-1.627.434-2.278-.542-.76-1.409-.76-2.277-.109l-1.626 1.302z"/><path d="m451.074 234.557c-1.951 1.952-4.77 1.735-6.938-.434-2.06-2.17-2.277-4.991-.326-6.944 1.952-1.953 4.771-1.736 6.939.434 2.06 2.061 2.168 4.991.325 6.944zm-6.288-6.293c-1.193 1.194-.976 3.146.542 4.665s3.361 1.736 4.662.543c1.301-1.194.976-3.147-.542-4.665-1.518-1.519-3.361-1.736-4.662-.543z"/><path d="m456.17 222.731 3.144 2.604-1.084 1.302-7.698-6.401 2.494-2.929c1.301-1.628 2.927-1.953 4.445-.76 1.301 1.085 1.409 2.387.65 3.797l4.987.434-1.192 1.519-4.879-.434zm-1.084-.868 1.301-1.627c.758-.868.65-1.736-.109-2.278-.759-.543-1.626-.434-2.277.434l-1.301 1.627z"/></g></svg>