<svg fill="none" height="132" viewBox="0 0 379 132" width="379" xmlns="http://www.w3.org/2000/svg" xmlns:xlink="http://www.w3.org/1999/xlink"><filter id="a" color-interpolation-filters="sRGB" filterUnits="userSpaceOnUse" height="116" width="116" x="10" y="12"><feFlood flood-opacity="0" result="BackgroundImageFix"/><feColorMatrix in="SourceAlpha" type="matrix" values="0 0 0 0 0 0 0 0 0 0 0 0 0 0 0 0 0 0 127 0"/><feOffset dy="4"/><feGaussianBlur stdDeviation="2.5"/><feColorMatrix type="matrix" values="0 0 0 0 0 0 0 0 0 0 0 0 0 0 0 0 0 0 0.15 0"/><feBlend in2="BackgroundImageFix" mode="normal" result="effect1_dropShadow"/><feBlend in="SourceGraphic" in2="effect1_dropShadow" mode="normal" result="shape"/></filter><linearGradient id="b" gradientUnits="userSpaceOnUse" x1="50" x2="81.1709" y1="86.149" y2="57.9817"><stop offset="0" stop-color="#ffc58f"/><stop offset="1" stop-color="#ff7c7c"/></linearGradient><rect fill="#fff" height="132" rx="66" width="379"/><rect height="130.5" rx="65.25" stroke="#d4dce3" stroke-opacity=".5" stroke-width="1.5" width="377.5" x=".75" y=".75"/><path d="m147.606 95h8.624v-1.562h-6.886v-11.946h-1.738zm16.942-2.926c-.264 1.1-1.166 1.716-2.376 1.716-1.65 0-2.816-1.276-2.838-3.366h6.908v-.594c0-2.838-1.43-4.796-4.114-4.796-2.662 0-4.444 2.178-4.444 5.104 0 3.014 1.826 5.06 4.488 5.06 2.2 0 3.586-1.276 3.938-3.124zm-2.398-5.632c1.628 0 2.398 1.276 2.42 2.728h-5.192c.242-1.716 1.298-2.728 2.772-2.728zm13.377 8.558v-6.512c0-2.134-1.386-3.454-3.718-3.454-1.87 0-3.322 1.122-3.652 2.772h1.628c.308-.902.968-1.342 2.002-1.342 1.408 0 2.156.88 2.156 2.09v1.232c-.418-.374-1.452-.792-2.464-.792-2.09 0-3.74 1.232-3.74 3.058 0 1.936 1.65 3.124 3.63 3.124 1.166 0 2.2-.506 2.574-.902v.726zm-1.584-2.42c-.286.726-1.276 1.21-2.288 1.21-1.188 0-2.332-.55-2.332-1.738 0-1.166 1.144-1.694 2.332-1.694 1.012 0 2.002.484 2.288 1.21zm9.42-7.392c-.176-.088-.528-.154-.946-.154-1.078 0-2.002.638-2.42 1.474v-1.276h-1.65v9.768h1.65v-6.556c.33-1.144 1.232-1.826 2.266-1.826.418 0 .836.088 1.1.264zm2.052 9.812h1.65v-6.622c.352-1.056 1.342-1.826 2.486-1.826 1.474 0 2.156.946 2.156 2.31v6.138h1.672v-6.402c0-2.134-1.21-3.564-3.432-3.564-1.254 0-2.31.66-2.882 1.43v-1.232h-1.65zm22.55-8.404c-.462-.924-1.408-1.562-2.64-1.562-1.21 0-2.156.572-2.64 1.342v-1.144h-1.65v9.768h1.65v-6.732c.308-1.056 1.166-1.738 2.156-1.738 1.254 0 1.848.902 1.848 2.266v6.204h1.65v-6.732c.308-1.056 1.166-1.738 2.156-1.738 1.254 0 1.848.902 1.848 2.266v6.204h1.672v-6.468c0-2.112-1.1-3.498-3.08-3.498-1.364 0-2.354.682-2.97 1.562zm17.111 3.52c0-2.992-1.826-5.082-4.488-5.082-2.684 0-4.488 2.09-4.488 5.082s1.804 5.082 4.488 5.082c2.662 0 4.488-2.09 4.488-5.082zm-1.672 0c0 2.134-1.056 3.63-2.816 3.63s-2.816-1.496-2.816-3.63 1.056-3.63 2.816-3.63 2.816 1.496 2.816 3.63zm8.922-4.928c-.176-.088-.528-.154-.946-.154-1.078 0-2.002.638-2.42 1.474v-1.276h-1.65v9.768h1.65v-6.556c.33-1.144 1.232-1.826 2.266-1.826.418 0 .836.088 1.1.264zm7.933 6.886c-.264 1.1-1.166 1.716-2.376 1.716-1.65 0-2.816-1.276-2.838-3.366h6.908v-.594c0-2.838-1.43-4.796-4.114-4.796-2.662 0-4.444 2.178-4.444 5.104 0 3.014 1.826 5.06 4.488 5.06 2.2 0 3.586-1.276 3.938-3.124zm-2.398-5.632c1.628 0 2.398 1.276 2.42 2.728h-5.192c.242-1.716 1.298-2.728 2.772-2.728z" fill="#ff9683"/><path d="m146.999 51.711c0 5.157 3.24 8.532 7.425 8.532 3.456 0 5.778-2.025 6.453-5.13h-2.106c-.675 1.944-2.052 3.213-4.347 3.213-3.186 0-5.292-2.7-5.292-6.615 0-3.942 2.133-6.615 5.292-6.615 2.295 0 3.672 1.269 4.347 3.186h2.106c-.675-3.078-2.97-5.103-6.453-5.103-4.185 0-7.425 3.375-7.425 8.532zm26.861 2.295c0-3.672-2.241-6.237-5.508-6.237-3.294 0-5.508 2.565-5.508 6.237s2.214 6.237 5.508 6.237c3.267 0 5.508-2.565 5.508-6.237zm-2.052 0c0 2.619-1.296 4.455-3.456 4.455s-3.456-1.836-3.456-4.455 1.296-4.455 3.456-4.455 3.456 1.836 3.456 4.455zm13.299-4.32c-.567-1.134-1.728-1.917-3.24-1.917-1.485 0-2.646.702-3.24 1.647v-1.404h-2.025v11.988h2.025v-8.262c.378-1.296 1.431-2.133 2.646-2.133 1.539 0 2.268 1.107 2.268 2.781v7.614h2.025v-8.262c.378-1.296 1.431-2.133 2.646-2.133 1.539 0 2.268 1.107 2.268 2.781v7.614h2.052v-7.938c0-2.592-1.35-4.293-3.78-4.293-1.674 0-2.889.837-3.645 1.917zm12.873-1.674h-2.025v11.988h2.025zm.297-3.618c0-.729-.594-1.296-1.323-1.296-.702 0-1.296.567-1.296 1.296 0 .702.594 1.296 1.296 1.296.729 0 1.323-.594 1.323-1.296zm3.321 15.606h2.025v-8.127c.432-1.296 1.647-2.241 3.051-2.241 1.809 0 2.646 1.161 2.646 2.835v7.533h2.052v-7.857c0-2.619-1.485-4.374-4.212-4.374-1.539 0-2.835.81-3.537 1.755v-1.512h-2.025zm21.067-.81c0 2.592-1.134 3.942-3.294 3.942-1.647 0-2.781-.729-3.132-2.241h-1.998c.378 2.457 2.214 3.969 5.13 3.969 3.078 0 5.346-1.863 5.346-5.805v-11.043h-2.052v1.35c-.594-.837-1.863-1.593-3.348-1.593-3.51 0-5.373 2.889-5.373 6.075 0 3.159 1.863 6.075 5.373 6.075 1.485 0 2.754-.783 3.348-1.62zm0-2.97c-.621 1.134-1.755 1.863-3.051 1.863-2.268 0-3.591-1.782-3.591-4.239 0-2.484 1.323-4.266 3.591-4.266 1.296 0 2.43.729 3.051 1.863zm10.629.486c.378 2.214 2.295 3.537 4.914 3.537 2.565 0 4.455-1.35 4.455-3.618 0-1.674-.999-2.808-3.051-3.348l-2.322-.567c-1.134-.324-1.674-.702-1.674-1.512 0-1.161 1.107-1.728 2.295-1.728 1.458 0 2.295.621 2.646 1.701h2.025c-.432-2.106-1.998-3.402-4.644-3.402-2.43 0-4.293 1.404-4.293 3.537 0 1.863 1.188 2.727 2.889 3.159l2.376.621c1.242.324 1.782.837 1.782 1.674 0 1.215-1.026 1.782-2.457 1.782-1.404 0-2.457-.594-2.835-1.836zm22.331-2.7c0-3.672-2.241-6.237-5.508-6.237-3.294 0-5.508 2.565-5.508 6.237s2.214 6.237 5.508 6.237c3.267 0 5.508-2.565 5.508-6.237zm-2.052 0c0 2.619-1.296 4.455-3.456 4.455s-3.456-1.836-3.456-4.455 1.296-4.455 3.456-4.455 3.456 1.836 3.456 4.455zm14.998 0c0-3.672-2.241-6.237-5.508-6.237-3.294 0-5.508 2.565-5.508 6.237s2.214 6.237 5.508 6.237c3.267 0 5.508-2.565 5.508-6.237zm-2.052 0c0 2.619-1.296 4.455-3.456 4.455s-3.456-1.836-3.456-4.455 1.296-4.455 3.456-4.455 3.456 1.836 3.456 4.455zm4.794 5.994h2.025v-8.127c.432-1.296 1.647-2.241 3.051-2.241 1.809 0 2.646 1.161 2.646 2.835v7.533h2.052v-7.857c0-2.619-1.485-4.374-4.212-4.374-1.539 0-2.835.81-3.537 1.755v-1.512h-2.025z" fill="#000"/><g filter="url(#a)"><circle cx="68" cy="66" fill="#fff" r="53"/></g><path d="m50 62.2876h37v27.8767h-37z" fill="url(#b)" fill-opacity=".6"/><path d="m50 62.2876h37v27.8767h-37z" stroke="#ff8a8a"/><path d="m81.4246 66.5959v-12.6712c0-7.1381-5.7865-12.9247-12.9246-12.9247s-12.9247 5.7866-12.9247 12.9247v12.6712" stroke="#ffd7b1" stroke-width="5"/></svg>