<svg fill="none" height="68" viewBox="0 0 68 68" width="68" xmlns="http://www.w3.org/2000/svg" xmlns:xlink="http://www.w3.org/1999/xlink"><linearGradient id="a"><stop offset="0" stop-color="#ffb36d"/><stop offset="1" stop-color="#f88"/></linearGradient><linearGradient id="b" gradientUnits="userSpaceOnUse" x1="51" x2="5.81581" xlink:href="#a" y1="6.26312" y2="46.0789"/><linearGradient id="c" gradientUnits="userSpaceOnUse" x1="49.4053" x2="35.5989" xlink:href="#a" y1="12.1033" y2="27.6418"/><path d="m18.6669 55.1983.0238.1088c.111.5222.2036 1.0236.2777 1.5044-2.82-1.8207-5.2825-4.1431-7.2603-6.8402.4796-.0477.915-.1164 1.3066-.2059 1.5992 2.0796 3.5059 3.9128 5.6522 5.4329zm15.212-48.60919c15.1485 0 27.4303 12.22299 27.4303 27.30249 0 6.0492-1.9764 11.6387-5.3215 16.1638l-.5105-1.291c2.9413-4.2216 4.6647-9.347 4.6647-14.8728 0-14.4329-11.7576-26.13447-26.263-26.13447-3.1927 0-6.2523.56689-9.0827 1.60501l-1.2905-.75325c3.2001-1.3021 6.7025-2.01978 10.3732-2.01978z" fill="#333" stroke="#333"/><path d="m10.4761 31.6537 3.7617 10.0128c1.0698.184 1.7283.4349 1.7283.7115v.0034c.0274.1214.0252.2544-.0065.3989l.0065.0001-.021.0589c-.029.108-.0739.2222-.1345.3426-.9967 2.3536-3.2009 4.0142-5.91358 4.0142-2.67282 0-4.95458-1.6122-5.98486-3.9107-.08828-.1656-.15011-.3185-.18577-.4591-.00536-.015-.01087-.0304-.01633-.0459l.00548-.0002c-.02795-.1289-.03301-.2469-.01519-.3541l.00971-.0481.00111-.0197c.03158-.2794.73554-.5314 1.85331-.7128l3.75344-9.9918c.18066-.4847.97628-.4847 1.15818 0zm19.8432-.0012 3.7608 10.0105c1.0199.1737 1.6712.4078 1.7428.6672l-.0068-.0135.0154.0327c.0519.124.0575.2672.0168.4295l.0001.0003c-.0215.0848-.0549.1736-.1006.2675-.9713 2.4254-3.2437 4.1481-6.0076 4.1481-2.7341 0-5.0591-1.6869-6.0538-4.0699-.0592-.1166-.1064-.2286-.1304-.3337l-.0023-.0107c-.0002-.0004-.0003-.0009-.0005-.0013l.0002-.0002-.0048-.027c-.0143-.0948-.0082-.2136.0182-.3561l.0079-.0397.0011-.0069.0025-.0128c.0644-.2689.7516-.5111 1.8276-.6874l3.7552-9.9966c.1807-.4847.9763-.4847 1.1582 0zm-6.7406 10.6839-.0029.0129h.0003zm-13.68168-8.7029-2.9464 7.8428c.86036-.0768 1.84343-.1204 2.88748-.1204l.11779.0002c1.04981.0033 2.03511.0507 2.89211.1314zm19.84318 0-2.9473 7.8447c.8653-.078 1.8559-.1223 2.9085-.1223l.1178.0002c1.0413.0033 2.0191.0499 2.8712.1295zm-9.8346-13.5939s1.4675 4.5958 1.4675 5.4099c0 .5604-.3242 1.034-.7857 1.2825.3799.123.714.3393.9751.6289.5828-.5071 1.4415-.9781 2.674-.9781 1.4094 0 2.6208.6152 3.6899 1.1583.3403.1727.6706.338.9763.4673.2277-.2411.5457-.3953.902-.3953.6905 0 1.2498.5618 1.2498 1.2553 0 .6934-.5593 1.2552-1.2498 1.2552-.5605 0-1.0171-.3766-1.1755-.8874-.4096-.1566-.829-.3678-1.2609-.5866-.9454-.4797-2.0182-1.024-3.1318-1.024-1.0704 0-1.7386.4983-2.1197.9196.0149.1069.0322.2126.0322.3232 0 1.244-1.0048 2.2531-2.2434 2.2531s-2.2434-1.0091-2.2434-2.2531c0-.1106.0173-.2175.0322-.3244-.3824-.4226-1.0506-.9184-2.1197-.9184-1.1136 0-2.1865.5456-3.1331 1.0253-.4306.2187-.8501.43-1.2596.5866-.1584.5108-.615.8873-1.1756.8873-.69042 0-1.24972-.563-1.24972-1.2564 0-.6935.5593-1.2553 1.24972-1.2553.3564 0 .6744.1554.9021.3953.3056-.1281.6348-.2933.9751-.4673 1.0691-.5431 2.2817-1.1583 3.6911-1.1583 1.2325 0 2.0912.471 2.674.9781.2611-.2896.5952-.5071.9751-.6289-.4616-.2485-.7858-.7208-.7858-1.2825 0-.8141 1.4676-5.4099 1.4676-5.4099z" fill="url(#b)"/><path d="m37.4458 18.5089s-1.5225.1306-2.5311.6747c0 0 4.0116-.0217 5.8787 1.5439 0 0-4.5405-1.3925-9.8326 2.0655 0 0 8.4169-1.6096 12.4071 1.8051 0 0-1.2876-2.3788-3.9958-2.8907 0 0 3.0813-.1226 4.1365.3894 0 0-.9114-1.9598-1.9445-2.4269v-1.397c0-.2829-1.543-1.7215-4.1183-1.9643z" fill="url(#c)"/><g fill="#454545"><path d="m36.7602 24.7556s.6493.5653.9242 1.0876c0 0-.5935.5855-1.1608.8738 0 0 1.7185.5402 2.171 1.1791-.9162-.2874-2.4809-.1797-2.8577.5969 1.046-.1126 1.6866.1571 1.8212.5571 0 0-.2487.3578-1.0102.5167-.811.1693-1.0181.5059-1.0181.9759s.6158.8997 1.7343.8649c1.117-.0357 4.1634-.4957 4.3937-6.2487-.2303-.541-3.013-1.6456-5.0047-1.6334z"/><path d="m42.1354 31.1224c1.3676-2.1243 2.1158-3.9752 2.2448-5.5528 2.0246 2.2457 1.9029 4.875 1.5589 6.8872-.232-.6475-.5313-1.3135-.8978-1.9981.2422 3.1025-.678 4.7822-2.7606 5.0391-.2436-1.4332-.292-2.8916-.1453-4.3754z"/><path d="m17.4462 11.854c-.3801.5835-.9371 2.2058-1.6712 4.867-1.7523 2.0015-3.4641 4.795-5.1353 8.3803-.81001.2732-1.66962.6506-2.57885 1.1325 2.37815-4.477 4.70195-7.8254 6.97115-10.0448.4954-1.6433 1.3001-3.0883 2.4142-4.335z"/><path d="m21.9637 16.4417-5.5444 2.611c1.5798.0265 2.8345-.2602 3.764-.8602.9295-.5999 1.523-1.1835 1.7804-1.7508z"/><path d="m19.9178 15.4895c-.0313-1.1411-.1802-1.7825-.4465-1.9241-.296-.132-.4681-.4163-.296-.9353.1061-.3299.0741-.6972-.096-1.1018l1.5041-1.0029 1.6925 1.065c.0593.3758-.0637.7223-.3689 1.0397.3689.3985.3689.9128-.0585 1.5068.0119.1472.0202.2914.0248.4328.007.2144-.0013.5209-.0248.9198z"/><path d="m40.8007 33.0698c-.2653 4.8241.7637 7.5656 3.0869 8.2244 3.4848.9882 9.6805 1.1195 9.284 8.6025.3149.9907.6027 1.9322.8633 2.8246-1.0214 1.0801-2.1294 2.0772-3.3129 2.9806-1.1586-2.7952-2.9182-4.5528-4.954-5.8052-8.0234-4.9888-9.6791-10.5978-4.9673-16.8269z"/><path d="m20.3384 48.4221c4.2014 10.5277 10.9269 3.7822 16.1223 6.2483 2.3756 1.1276 3.6715 3.1975 3.8876 6.2099-2.0254.4706-4.1359.7191-6.3043.7191-4.2047 0-8.1912-.9343-11.7636-2.6068-.0133-3.1695-.6608-6.6927-1.942-10.5705z"/><path d="m28.3084 19.9539c1.0899-.3005 1.9806-.9791 2.6721-2.0359-.0438.6292-.2017 1.1707-.4736 1.6247 3.1499-.5655 5.5945-2.4706 7.3339-5.7151-3.2071-1.7406-6.5131-.5533-8.2851 1.6121-1.1813 1.4435-1.5971 2.9483-1.2473 4.5142z"/></g></svg>