<svg fill="none" height="534" viewBox="0 0 458 534" width="458" xmlns="http://www.w3.org/2000/svg" xmlns:xlink="http://www.w3.org/1999/xlink"><linearGradient id="a"><stop offset="0" stop-color="#3d3d3d"/><stop offset="1" stop-color="#272727"/></linearGradient><linearGradient id="b" gradientUnits="userSpaceOnUse" x1="236" x2="-175" xlink:href="#a" y1="193" y2="453"/><linearGradient id="c" gradientUnits="userSpaceOnUse" x1="323.844" x2="213.098" xlink:href="#a" y1="138.946" y2="292.958"/><g opacity=".8"><path d="m146.589 433.47.187.854c.872 4.1 1.599 8.038 2.181 11.814-22.145-14.298-41.483-32.536-57.0146-53.716 3.7664-.375 7.1849-.914 10.2606-1.617 12.558 16.331 27.532 30.727 44.386 42.665zm119.459-381.7259c118.961 0 215.408 95.9859 215.408 214.4049 0 47.504-15.52 91.398-41.788 126.933l-4.01-10.137c23.098-33.153 36.632-73.402 36.632-116.796 0-113.341-92.332-205.2325-206.242-205.2325-25.072 0-49.099 4.4518-71.325 12.6041l-10.135-5.9152c25.13-10.2254 52.634-15.8613 81.46-15.8613z" fill="#272727" stroke="#272727"/><path d="m82.268 248.575 29.54 78.63c8.401 1.445 13.573 3.415 13.573 5.587v.027c.214.953.197 1.997-.052 3.132l.052.001-.165.463c-.228.848-.58 1.745-1.057 2.69-7.827 18.482-25.1361 31.523-46.4386 31.523-20.9895 0-38.908-12.66-46.9988-30.71-.6932-1.3-1.1788-2.502-1.4588-3.606-.0421-.117-.0854-.238-.1283-.36l.0431-.001c-.2195-1.013-.2592-1.94-.1193-2.781l.0762-.378.0087-.154c.2481-2.195 5.7762-4.174 14.554-5.598l29.4755-78.465c1.4187-3.806 7.6669-3.806 9.0953 0zm155.827-.01 29.534 78.612c8.009 1.364 13.124 3.203 13.685 5.24l-.053-.107.122.257c.407.974.451 2.099.131 3.374l.001.002c-.169.666-.431 1.363-.79 2.1-7.627 19.047-25.473 32.575-47.177 32.575-21.471 0-39.729-13.247-47.54-31.961-.465-.915-.836-1.795-1.024-2.62l-.019-.084c-.001-.003-.002-.007-.003-.01l.001-.002-.038-.212c-.112-.745-.064-1.677.144-2.796l.061-.312.009-.054.02-.101c.505-2.111 5.902-4.013 14.352-5.398l29.489-78.503c1.419-3.806 7.667-3.806 9.095 0zm-52.933 83.901-.023.101h.002zm-107.4416-68.344-23.1379 61.589c6.7563-.603 14.4763-.945 22.6752-.945l.925.001c8.2444.026 15.9815.398 22.7113 1.032zm155.8276 0-23.146 61.604c6.796-.612 14.575-.96 22.841-.96l.925.001c8.177.026 15.856.392 22.548 1.017zm-77.231-106.752s11.525 36.091 11.525 42.483c0 4.402-2.546 8.12-6.171 10.072 2.983.966 5.607 2.664 7.657 4.938 4.577-3.981 11.321-7.68 20.999-7.68 11.068 0 20.581 4.831 28.977 9.096 2.672 1.356 5.267 2.654 7.667 3.669 1.788-1.893 4.285-3.103 7.083-3.103 5.423 0 9.815 4.411 9.815 9.857s-4.392 9.857-9.815 9.857c-4.401 0-7.987-2.957-9.231-6.968-3.216-1.23-6.51-2.889-9.902-4.607-7.424-3.767-15.848-8.042-24.594-8.042-8.405 0-13.652 3.914-16.645 7.222.116.84.252 1.669.252 2.538 0 9.769-7.89 17.694-17.617 17.694s-17.617-7.925-17.617-17.694c0-.869.136-1.708.253-2.547-3.003-3.319-8.25-7.213-16.646-7.213-8.745 0-17.17 4.285-24.6039 8.052-3.3816 1.718-6.6757 3.377-9.8921 4.606-1.2438 4.012-4.8294 6.969-9.2313 6.969-5.4222 0-9.8143-4.421-9.8143-9.867s4.3921-9.857 9.8143-9.857c2.7986 0 5.2959 1.22 7.0838 3.103 2.4002-1.005 4.9849-2.303 7.6572-3.669 8.3953-4.265 17.9183-9.096 28.9863-9.096 9.678 0 16.422 3.699 20.999 7.68 2.05-2.274 4.674-3.981 7.657-4.938-3.625-1.952-6.17-5.66-6.17-10.072 0-6.392 11.524-42.483 11.524-42.483z" fill="url(#b)"/><path d="m294.059 145.349s-11.956 1.025-19.876 5.298c0 0 31.503-.17 46.165 12.124 0 0-35.656-10.935-77.215 16.22 0 0 66.097-12.64 97.433 14.176 0 0-10.112-18.681-31.379-22.701 0 0 24.197-.963 32.484 3.058 0 0-7.158-15.39-15.271-19.058v-10.971c0-2.221-12.117-13.519-32.341-15.425z" fill="url(#c)"/><g fill="#272727"><path d="m288.676 194.405s5.099 4.439 7.258 8.541c0 0-4.661 4.598-9.116 6.862 0 0 13.495 4.242 17.049 9.259-7.195-2.257-19.482-1.411-22.442 4.687 8.215-.884 13.245 1.234 14.302 4.376 0 0-1.953 2.809-7.933 4.057-6.369 1.33-7.995 3.973-7.995 7.663 0 3.691 4.836 7.066 13.62 6.792 8.771-.279 32.695-3.892 34.503-49.07-1.808-4.248-23.661-12.923-39.302-12.827z"/><path d="m330.886 244.402c10.74-16.682 16.615-31.217 17.628-43.606 15.899 17.635 14.944 38.283 12.242 54.085-1.822-5.085-4.172-10.315-7.05-15.691 1.901 24.363-5.325 37.554-21.679 39.571-1.913-11.254-2.293-22.707-1.141-34.359z"/><path d="m137.004 93.0882c-2.984 4.5821-7.359 17.3218-13.123 38.2198-13.761 15.718-27.2038 37.655-40.3277 65.81-6.361 2.146-13.1114 5.11-20.2515 8.893 18.6758-35.157 36.9242-61.451 54.7442-78.88 3.89-12.905 10.209-24.253 18.958-34.0428z"/><path d="m172.478 129.116-43.54 20.504c12.407.209 22.26-2.043 29.559-6.754 7.3-4.711 11.96-9.294 13.981-13.75z"/><path d="m156.414 121.638c-.247-8.962-1.416-13.998-3.507-15.11-2.324-1.037-3.676-3.269-2.324-7.3451.833-2.5908.582-5.475-.754-8.6525l11.811-7.8756 13.292 8.3633c.465 2.951-.501 5.6726-2.898 8.1648 2.898 3.1291 2.898 7.1681-.459 11.8331.093 1.155.158 2.288.195 3.399.055 1.683-.01 4.09-.195 7.223z"/><path d="m320.405 259.695c-2.083 37.883 5.998 59.412 24.242 64.586 27.366 7.76 76.02 8.791 72.906 67.554 2.473 7.78 4.733 15.174 6.78 22.182-8.021 8.482-16.723 16.312-26.016 23.406-9.098-21.95-22.917-35.753-38.904-45.588-63.007-39.176-76.009-83.223-39.008-132.14z"/><path d="m159.717 380.257c32.993 82.673 85.808 29.701 126.607 49.067 18.655 8.855 28.832 25.11 30.529 48.766-15.906 3.696-32.479 5.648-49.508 5.648-33.018 0-64.324-7.338-92.378-20.472-.104-24.89-5.189-52.557-15.25-83.009z"/><path d="m222.304 156.698c8.559-2.36 15.554-7.69 20.985-15.988-.345 4.941-1.584 9.193-3.719 12.758 24.736-4.441 43.933-19.401 57.592-44.88-25.185-13.6691-51.147-4.345-65.062 12.66-9.277 11.336-12.542 23.152-9.796 35.45z"/></g></g></svg>