<svg width="592" height="588" viewBox="0 0 592 588" fill="none" xmlns="http://www.w3.org/2000/svg">
<path d="M106.113 720.272C335.844 720.272 522.078 533.723 522.078 303.602C522.078 73.4819 335.844 -113.068 106.113 -113.068C-123.618 -113.068 -309.852 73.4819 -309.852 303.602C-309.852 533.723 -123.618 720.272 106.113 720.272Z" stroke="#FF8B87"/>
<path d="M190.715 613.108C190.245 595.247 181.127 555.86 148.414 541.195C107.522 522.865 80.7314 535.555 57.4656 537.67C34.1998 539.785 -15.152 553.181 -58.1586 433.326" stroke="#FF8B87"/>
<path d="M162.515 372.698C162.515 394.554 182.256 434.498 213.982 457.301C259.103 489.732 314.8 512.998 307.75 603.241" stroke="#FF8B87"/>
<path d="M66.6306 129.46C99.7668 125.935 167.449 94.773 173.089 -1.67444" stroke="#FF8B87"/>
<path d="M111.048 306.424C182.025 306.424 202.114 236.856 204.035 192.876" stroke="#FF8B87"/>
<path d="M-161.516 269.672L-117.56 386.891C-105.059 389.045 -97.3639 391.982 -97.3639 395.22L-97.3648 395.281L-97.3864 395.218L-97.3125 395.501C-97.0482 396.856 -97.0907 398.331 -97.44 399.927L-97.3639 399.931L-97.6024 400.595C-97.9437 401.875 -98.4748 403.23 -99.1955 404.659C-110.848 432.199 -136.597 451.625 -168.283 451.625C-199.481 451.625 -226.12 432.792 -238.178 405.93L-237.472 407.184C-238.9 404.734 -239.871 402.502 -240.383 400.487C-240.445 400.307 -240.512 400.119 -240.579 399.931L-240.515 399.927C-240.814 398.544 -240.889 397.267 -240.738 396.097L-240.579 395.22L-240.546 394.854C-239.968 391.637 -231.792 388.74 -218.914 386.646L-175.05 269.672C-172.939 263.998 -163.641 263.998 -161.516 269.672ZM70.3559 269.657L114.304 386.85C126.208 388.881 133.813 391.618 134.663 394.651L134.543 394.404C135.238 395.741 135.44 397.283 135.149 399.029L134.965 399.917C134.714 400.908 134.326 401.942 133.795 403.036C122.446 431.438 95.8895 451.61 63.589 451.61C31.6293 451.61 4.45442 431.848 -7.16255 403.935C-7.85143 402.578 -8.39621 401.278 -8.67473 400.058L-8.70261 399.929C-8.70407 399.925 -8.70554 399.921 -8.707 399.917L-8.70496 399.914L-8.79327 399.357C-8.90755 398.37 -8.84674 397.179 -8.61082 395.783L-8.43393 394.842L-8.45023 394.922C-8.44238 394.868 -8.43242 394.815 -8.42038 394.761L-8.40314 394.7L-8.39467 394.701C-7.59827 391.568 0.411194 388.746 12.9301 386.689L56.8221 269.657C58.9331 263.983 68.2304 263.983 70.3559 269.657ZM-168.283 292.849L-202.717 384.664C-192.662 383.765 -181.173 383.255 -168.971 383.255L-166.782 383.261C-154.82 383.321 -143.596 383.871 -133.804 384.795L-168.283 292.849ZM63.589 292.849L29.1445 384.686C39.2571 383.773 50.834 383.255 63.1355 383.255L65.3248 383.261C77.1895 383.32 88.3289 383.862 98.0648 384.773L63.589 292.849ZM-51.3305 133.706C-51.3305 133.706 -34.1819 187.509 -34.1819 197.039C-34.1819 203.601 -37.9702 209.144 -43.3635 212.054C-38.9245 213.494 -35.0205 216.026 -31.9696 219.416C-25.1593 213.48 -15.1246 207.965 -0.723282 207.965C15.7458 207.965 29.9013 215.167 42.394 221.525C46.3703 223.548 50.2309 225.483 53.8024 226.996C56.4629 224.173 60.1789 222.369 64.3431 222.369C72.4113 222.369 78.9469 228.945 78.9469 237.064C78.9469 245.182 72.4113 251.759 64.3431 251.759C57.7931 251.759 52.4576 247.35 50.6069 241.371C45.8209 239.537 40.9192 237.064 35.873 234.503C24.8261 228.887 12.29 222.515 -0.723282 222.515C-13.2305 222.515 -21.0385 228.349 -25.4919 233.281C-25.3184 234.532 -25.116 235.769 -25.116 237.064C-25.116 251.628 -36.8568 263.442 -51.3305 263.442C-65.8042 263.442 -77.545 251.628 -77.545 237.064C-77.545 235.769 -77.3426 234.518 -77.1691 233.267C-81.637 228.32 -89.4449 222.515 -101.938 222.515C-114.951 222.515 -127.487 228.902 -138.548 234.518C-143.58 237.078 -148.482 239.552 -153.268 241.385C-155.119 247.365 -160.454 251.773 -167.004 251.773C-175.072 251.773 -181.608 245.182 -181.608 237.064C-181.608 228.945 -175.072 222.369 -167.004 222.369C-162.84 222.369 -159.124 224.188 -156.463 226.996C-152.892 225.497 -149.046 223.562 -145.069 221.525C-132.577 215.167 -118.407 207.965 -101.938 207.965C-87.5363 207.965 -77.5016 213.48 -70.6914 219.416C-67.6405 216.026 -63.7365 213.48 -59.2975 212.054C-64.6908 209.144 -68.4791 203.615 -68.4791 197.039C-68.4791 187.509 -51.3305 133.706 -51.3305 133.706Z" fill="#FCE9DE"/>
<path d="M153.624 115.785C153.624 115.785 135.834 117.314 124.047 123.682C124.047 123.682 170.924 123.429 192.741 141.757C192.741 141.757 139.685 125.455 77.845 165.938C77.845 165.938 176.198 147.094 222.826 187.07C222.826 187.07 207.779 159.222 176.134 153.228C176.134 153.228 212.139 151.793 224.47 157.787C224.47 157.787 213.82 134.844 201.747 129.376V113.021C201.747 109.709 183.717 92.8674 153.624 90.0254V115.785Z" fill="#FCE9DE" fill-opacity="0.6"/>
<path d="M153.624 115.785C153.624 115.785 135.834 117.314 124.047 123.682C124.047 123.682 170.924 123.429 192.741 141.757C192.741 141.757 139.685 125.455 77.845 165.938C77.845 165.938 176.198 147.094 222.826 187.07C222.826 187.07 207.779 159.222 176.134 153.228C176.134 153.228 212.139 151.793 224.47 157.787C224.47 157.787 213.82 134.844 201.747 129.376V113.021C201.747 109.709 183.717 92.8674 153.624 90.0254V115.785Z" stroke="#FF8B87"/>
<path d="M145.624 188.921C145.624 188.921 153.211 195.538 156.423 201.653C156.423 201.653 149.487 208.508 142.859 211.883C142.859 211.883 162.939 218.206 168.227 225.687C157.521 222.321 139.237 223.582 134.834 232.674C147.057 231.356 154.542 234.513 156.115 239.197C156.115 239.197 153.209 243.384 144.311 245.245C134.834 247.227 132.414 251.167 132.414 256.669C132.414 262.171 139.61 267.202 152.68 266.795C165.732 266.377 201.331 260.992 204.021 193.642C201.331 187.309 168.813 174.378 145.54 174.52L145.624 188.921Z" fill="#FCE9DE" fill-opacity="0.6"/>
<path d="M145.624 188.921C145.624 188.921 153.211 195.538 156.423 201.653C156.423 201.653 149.487 208.508 142.859 211.883C142.859 211.883 162.939 218.206 168.227 225.687C157.521 222.321 139.237 223.582 134.834 232.674C147.057 231.356 154.542 234.513 156.115 239.196C156.115 239.196 153.209 243.384 144.311 245.245C134.834 247.227 132.414 251.167 132.414 256.669C132.414 262.171 139.61 267.202 152.68 266.795C165.732 266.377 201.331 260.992 204.021 193.642C201.331 187.309 168.813 174.378 145.54 174.52L145.624 188.921Z" stroke="#FF8B87"/>
<path d="M215.215 263.454C231.195 238.585 239.938 216.916 241.445 198.448C265.103 224.738 263.681 255.519 259.662 279.076C256.95 271.495 253.453 263.698 249.17 255.684C252 292.005 241.247 311.669 216.912 314.676C214.066 297.899 213.5 280.825 215.215 263.454Z" fill="#FCE9DE" fill-opacity="0.6"/>
<path d="M215.215 263.454C231.195 238.585 239.938 216.916 241.445 198.448C265.103 224.738 263.681 255.519 259.662 279.076C256.95 271.495 253.453 263.698 249.17 255.684C252 292.005 241.247 311.669 216.912 314.676C214.066 297.899 213.5 280.825 215.215 263.454Z" stroke="#FF8B87"/>
<path d="M192.837 286.253C189.737 342.728 201.761 374.822 228.908 382.535C269.629 394.104 324.097 397.481 338.906 483.244C342.587 494.844 340.796 505.502 343.842 515.952C331.901 528.594 318.953 540.266 305.125 550.841C291.591 518.115 274.67 497.905 250.881 483.244C157.126 424.84 137.778 359.176 192.837 286.253Z" fill="#FCE9DE" fill-opacity="0.6"/>
<path d="M228.91 382.535C269.631 394.104 324.099 397.482 338.908 483.244C342.588 494.844 340.798 505.502 343.844 515.952C331.903 528.594 318.955 540.267 305.127 550.841C291.592 518.115 274.672 497.905 250.882 483.244" stroke="#FF8B87"/>
<path d="M-43.1946 465.981C5.89952 589.228 84.4883 510.258 145.198 539.129C172.956 552.329 188.099 576.561 190.625 611.825C166.957 617.338 142.296 620.247 116.957 620.247C67.8249 620.247 21.2408 609.308 -20.5041 589.728C-20.6568 552.627 -28.2231 511.379 -43.1946 465.981Z" fill="#FCE9DE" fill-opacity="0.6"/>
<path d="M218.933 97.2251C238.734 128.712 247.97 152.002 246.64 167.096C246.135 172.551 243.738 178.636 239.448 185.352C254.516 184.007 262.05 174.741 262.05 157.553C262.05 140.366 247.678 120.256 218.933 97.2251Z" fill="#FCE9DE" fill-opacity="0.6"/>
<path d="M218.933 97.2251C238.734 128.712 247.97 152.002 246.64 167.096C246.135 172.551 243.738 178.636 239.448 185.352C254.516 184.007 262.05 174.741 262.05 157.553C262.05 140.366 247.678 120.256 218.933 97.2251Z" stroke="#FF8B87"/>
<path d="M46.8604 132.705C59.596 129.187 70.0042 121.242 78.0851 108.871C77.5729 116.236 75.7282 122.576 72.5511 127.891C109.358 121.27 137.924 98.9677 158.248 60.9839C120.773 40.6071 82.1422 54.5076 61.436 79.857C47.6319 96.7567 42.7734 114.373 46.8604 132.705Z" fill="#FCE9DE" fill-opacity="0.6"/>
<circle cx="63.1059" cy="378.338" r="74.0277" stroke="#FF8A87"/>
<circle cx="424.785" cy="199.967" r="166.386" stroke="#FF8A87"/>
<circle cx="245.709" cy="329.692" r="54.992" stroke="#FF8A87"/>
<path d="M61.5151 172.146C35.5274 140.584 40.0463 93.9307 71.6085 67.943C103.171 41.9553 149.824 46.4742 175.812 78.0364" stroke="#FF8A87"/>
<circle cx="64.5161" cy="237.329" r="14.8055" stroke="#FF8A87"/>
<circle cx="274.613" cy="446.02" r="44.4166" stroke="#FF8A87"/>
<circle cx="182.961" cy="372.695" r="20.4457" stroke="#FF8A87"/>
<circle cx="106.818" cy="575.744" r="44.4166" stroke="#FF8A87"/>
<path d="M240.068 185.865C242.183 183.28 246.413 175.149 246.413 163.305C246.413 148.499 233.722 111.133 203.406 81.5216" stroke="#FF8A87"/>
<path d="M215.392 250.727C212.807 269.998 212.008 316.718 229.493 349.431" stroke="#FF8A87"/>
<path d="M249.234 256.37C252.759 277.285 250.644 319.822 197.767 316.297" stroke="#FF8A87"/>
</svg>
