<svg width="72" height="50" viewBox="0 0 72 50" fill="none" xmlns="http://www.w3.org/2000/svg">
<g id="Group 84">
<g id="Group 69">
<g id="Group 43">
<path id="Path 4" fill-rule="evenodd" clip-rule="evenodd" d="M18.2788 38.1747C18.2788 38.1747 18.1461 23.6574 31.7932 22.0669C32.5746 23.9584 35.9586 32.3213 35.9586 32.3213L40.1472 22.0669C40.1472 22.0669 53.555 23.4543 53.555 38.5097C39.984 38.4294 19.1842 38.5097 19.1842 38.5097L18.2788 38.1747Z" fill="url(#paint0_linear)"/>
<path id="Oval" fill-rule="evenodd" clip-rule="evenodd" d="M35.9601 19.6815C40.0142 19.6815 43.3007 16.395 43.3007 12.3409C43.3007 8.28675 40.0142 5.00024 35.9601 5.00024C31.906 5.00024 28.6194 8.28675 28.6194 12.3409C28.6194 16.395 31.906 19.6815 35.9601 19.6815Z" fill="#FFDDD0"/>
<path id="Shape" fill-rule="evenodd" clip-rule="evenodd" d="M17.5926 43.7007C18.5264 44.7761 19.1778 46.0234 19.4913 47.3226C19.6633 48.0413 19.3071 48.7622 18.6722 49.0826L18.6746 49.0872C14.8848 51.0062 9.9725 49.7727 7.18945 46.5682C6.2556 45.4928 5.60421 44.2457 5.29072 42.9464C5.11871 42.2277 5.47487 41.5068 6.10978 41.1864C9.9178 39.2171 14.8557 40.5493 17.5926 43.7007ZM35.9363 30.6689C35.9386 33.1057 35.942 36.104 35.9363 30.6689V30.6689ZM17.137 0.914797C19.1896 4.59193 18.2051 9.45305 15.2156 12.3611C14.1895 13.3591 12.983 14.0818 11.7122 14.467C10.9518 14.6974 10.153 14.3229 9.82896 13.62C9.19999 12.4932 8.83018 11.1892 8.75807 9.81918C8.53638 5.60327 11.1864 1.30009 15.2537 0.0678886C16.0142 -0.162551 16.8131 0.2119 17.137 0.914797ZM15.0062 4.82059C14.9844 4.41002 14.9223 4.01199 14.8225 3.63329C12.5223 5.07505 11.312 8.14573 11.9995 10.7554C13.9581 9.52782 15.128 7.10963 15.0062 4.82059ZM5.74053 11.9711C5.07452 11.6013 4.21877 11.7575 3.73258 12.3731C1.09676 15.713 1.39395 20.7369 4.00112 24.0491C4.85497 25.1338 5.91657 25.9895 7.08815 26.546C7.75417 26.9158 8.60991 26.7596 9.0961 26.1439C12.6085 21.6937 10.8651 14.4053 5.74053 11.9711ZM6.27334 16.4162C7.71963 18.219 8.16103 20.8455 7.26053 22.9648C5.15763 21.2266 4.36762 18.0389 5.42424 15.552C5.72956 15.8044 6.01473 16.0939 6.27334 16.4162ZM1.79518 26.5996C1.05101 26.5745 0.370274 27.0781 0.200909 27.8286C-0.737889 31.9874 1.71155 36.4293 5.50079 38.3098C6.75485 38.9321 8.10532 39.2508 9.42852 39.2431C10.1727 39.2682 10.8534 38.7645 11.0228 38.014C12.2754 32.4654 7.54003 26.5664 1.79518 26.5996ZM4.33046 30.3711C6.38947 31.4032 7.90033 33.5934 8.01838 35.9006C5.40851 35.2001 3.34638 32.6534 3.20749 29.9413C3.58518 30.0427 3.96193 30.1864 4.33046 30.3711ZM10.1037 43.3135C9.68876 43.3113 9.28255 43.3514 8.89254 43.4317C10.2156 45.8219 13.2297 47.2322 15.8902 46.6838C14.7626 44.647 12.4095 43.326 10.1037 43.3135Z" fill="url(#paint1_linear)"/>
<path id="Shape Copy" fill-rule="evenodd" clip-rule="evenodd" d="M54.2769 43.7007C53.3431 44.7761 52.6917 46.0234 52.3782 47.3226C52.2062 48.0413 52.5623 48.7622 53.1972 49.0826L53.1948 49.0872C56.9847 51.0062 61.8969 49.7727 64.68 46.5682C65.6138 45.4928 66.2652 44.2457 66.5787 42.9464C66.7507 42.2277 66.3946 41.5068 65.7597 41.1864C61.9516 39.2171 57.0137 40.5493 54.2769 43.7007ZM35.9332 30.6689C35.9308 33.1057 35.9275 36.104 35.9332 30.6689V30.6689ZM54.7324 0.914797C52.6799 4.59193 53.6644 9.45305 56.6538 12.3611C57.6799 13.3591 58.8864 14.0818 60.1573 14.467C60.9176 14.6974 61.7165 14.3229 62.0405 13.62C62.6695 12.4932 63.0393 11.1892 63.1114 9.81918C63.3331 5.60327 60.683 1.30009 56.6157 0.0678886C55.8552 -0.162551 55.0563 0.2119 54.7324 0.914797ZM56.8633 4.82059C56.8851 4.41002 56.9472 4.01199 57.0469 3.63329C59.3472 5.07505 60.5574 8.14573 59.87 10.7554C57.9114 9.52782 56.7415 7.10963 56.8633 4.82059ZM66.1289 11.9711C66.7949 11.6013 67.6507 11.7575 68.1369 12.3731C70.7727 15.713 70.4755 20.7369 67.8683 24.0491C67.0145 25.1338 65.9529 25.9895 64.7813 26.546C64.1153 26.9158 63.2595 26.7596 62.7733 26.1439C59.2609 21.6937 61.0043 14.4053 66.1289 11.9711ZM65.5961 16.4162C64.1498 18.219 63.7084 20.8455 64.6089 22.9648C66.7118 21.2266 67.5018 18.0389 66.4452 15.552C66.1399 15.8044 65.8547 16.0939 65.5961 16.4162ZM70.0743 26.5996C70.8184 26.5745 71.4992 27.0781 71.6685 27.8286C72.6073 31.9874 70.1579 36.4293 66.3687 38.3098C65.1146 38.9321 63.7641 39.2508 62.4409 39.2431C61.6968 39.2682 61.016 38.7645 60.8467 38.014C59.5941 32.4654 64.3294 26.5664 70.0743 26.5996ZM67.539 30.3711C65.48 31.4032 63.9691 33.5934 63.8511 35.9006C66.4609 35.2001 68.5231 32.6534 68.662 29.9413C68.2843 30.0427 67.9075 30.1864 67.539 30.3711ZM61.7658 43.3135C62.1807 43.3113 62.5869 43.3514 62.9769 43.4317C61.6538 45.8219 58.6398 47.2322 55.9792 46.6838C57.1069 44.647 59.46 43.326 61.7658 43.3135Z" fill="url(#paint2_linear)"/>
</g>
</g>
</g>
<defs>
<linearGradient id="paint0_linear" x1="35.9169" y1="22.0669" x2="35.9169" y2="38.5097" gradientUnits="userSpaceOnUse">
<stop stop-color="#FFCDBA"/>
<stop offset="1" stop-color="#FFCDBA"/>
</linearGradient>
<linearGradient id="paint1_linear" x1="55.5938" y1="-22.4999" x2="-13.6207" y2="15.1864" gradientUnits="userSpaceOnUse">
<stop stop-color="#FFB36D"/>
<stop offset="1" stop-color="#FF8888"/>
</linearGradient>
<linearGradient id="paint2_linear" x1="16.2757" y1="-22.4999" x2="85.4901" y2="15.1864" gradientUnits="userSpaceOnUse">
<stop stop-color="#FFB36D"/>
<stop offset="1" stop-color="#FF8888"/>
</linearGradient>
</defs>
</svg>
