<svg width="350" height="201" viewBox="0 0 350 201" fill="none" xmlns="http://www.w3.org/2000/svg">
<mask id="mask0" mask-type="alpha" maskUnits="userSpaceOnUse" x="0" y="0" width="350" height="201">
<path d="M0 12C0 5.37259 5.37258 0 12 0H338C344.627 0 350 5.37258 350 12V201H0V12Z" fill="white"/>
</mask>
<g mask="url(#mask0)">
<path d="M0 8C0 3.58172 3.58172 0 8 0H342C346.418 0 350 3.58172 350 8V201H0V8Z" fill="url(#paint0_linear)"/>
<path d="M166.054 50.7086V102.743L179.96 93.6575L193.866 102.743V50.7086H166.054Z" fill="url(#paint1_linear)"/>
<path d="M139.589 150.291V78.0714H204.631C207.921 78.0714 214.5 76.1874 214.5 68.6514C214.5 62.3714 207.771 60.1286 204.631 60.1286M150.803 60.1286V75.8286" stroke="#F9FAFC" stroke-width="9"/>
<path d="M136 146.254H214.5V68.6514" stroke="#F9FAFC" stroke-width="9"/>
</g>
<defs>
<linearGradient id="paint0_linear" x1="365.909" y1="-4.1036" x2="-113.355" y2="621.912" gradientUnits="userSpaceOnUse">
<stop stop-color="#73BCFF"/>
<stop offset="1" stop-color="#596AFF"/>
</linearGradient>
<linearGradient id="paint1_linear" x1="195.13" y1="49.6462" x2="106.344" y2="85.2436" gradientUnits="userSpaceOnUse">
<stop stop-color="#BEE0FF"/>
<stop offset="1" stop-color="#9AA4FF"/>
</linearGradient>
</defs>
</svg>
