<svg fill="none" height="68" viewBox="0 0 68 68" width="68" xmlns="http://www.w3.org/2000/svg" xmlns:xlink="http://www.w3.org/1999/xlink"><linearGradient id="a"><stop offset="0" stop-color="#ffc58f"/><stop offset="1" stop-color="#ff7c7c"/></linearGradient><linearGradient id="b" gradientUnits="userSpaceOnUse" x1="3.68945" x2="33.5218" xlink:href="#a" y1="43.2845" y2="19.213"/><linearGradient id="c" gradientUnits="userSpaceOnUse" x1="30.96" x2="40.2725" xlink:href="#a" y1="23.404" y2="13.8069"/><path d="m18.6668 55.1984.0238.1088c.111.5221.2036 1.0236.2777 1.5043-2.82-1.8206-5.2825-4.1431-7.2603-6.8401.4796-.0478.9149-.1165 1.3065-.206 1.5992 2.0796 3.506 3.9128 5.6523 5.433zm15.212-48.60926c15.1485 0 27.4302 12.22296 27.4302 27.30246 0 6.0492-1.9764 11.6387-5.3214 16.1638l-.5105-1.2909c2.9412-4.2217 4.6647-9.3471 4.6647-14.8729 0-14.4328-11.7576-26.13444-26.263-26.13444-3.1927 0-6.2523.56689-9.0827 1.60501l-1.2905-.75325c3.2001-1.3021 6.7025-2.01978 10.3732-2.01978z" fill="#333" stroke="#333"/><path d="m10.4756 31.6538 3.7617 10.0128c1.0698.184 1.7283.4349 1.7283.7114v.0034c.0274.1214.0252.2544-.0065.3989l.0065.0002-.021.0588c-.029.108-.0739.2223-.1345.3426-.9967 2.3536-3.2009 4.0142-5.91357 4.0142-2.67281 0-4.95458-1.6122-5.98486-3.9107-.08828-.1655-.15011-.3185-.18577-.4591-.00536-.015-.01087-.0304-.01633-.0458l.00548-.0003c-.02795-.1289-.03301-.2469-.01519-.3541l.00971-.0481.00111-.0196c.03158-.2795.73554-.5314 1.85331-.7129l3.75344-9.9917c.18066-.4847.97627-.4847 1.15817 0zm19.8432-.0013 3.7608 10.0105c1.02.1737 1.6712.4079 1.7428.6673l-.0068-.0136.0155.0327c.0519.124.0574.2672.0167.4296l.0001.0002c-.0215.0848-.0549.1736-.1006.2675-.9712 2.4254-3.2437 4.1481-6.0076 4.1481-2.7341 0-5.059-1.6869-6.0538-4.0699-.0592-.1166-.1064-.2286-.1304-.3336l-.0023-.0108c-.0001-.0004-.0003-.0008-.0005-.0013l.0002-.0002-.0048-.0269c-.0143-.0949-.0082-.2136.0182-.3562l.0079-.0396.0011-.0069.0025-.0129c.0644-.2689.7516-.511 1.8276-.6874l3.7552-9.9966c.1807-.4847.9763-.4847 1.1582 0zm-6.7406 10.684-.0029.0129h.0003zm-13.68167-8.703-2.94639 7.8428c.86035-.0768 1.84342-.1203 2.88747-.1203l.1178.0002c1.04979.0033 2.03509.0506 2.89209.1314zm19.84317 0-2.9473 7.8447c.8653-.078 1.8559-.1222 2.9085-.1222l.1178.0002c1.0413.0032 2.0191.0498 2.8712.1294zm-9.8346-13.5939s1.4676 4.5959 1.4676 5.4099c0 .5605-.3242 1.034-.7858 1.2825.3799.1231.714.3393.9751.6289.5828-.5071 1.4415-.9781 2.674-.9781 1.4094 0 2.6208.6152 3.6899 1.1583.3403.1727.6706.338.9763.4673.2277-.2411.5457-.3952.902-.3952.6905 0 1.2498.5617 1.2498 1.2552s-.5593 1.2552-1.2498 1.2552c-.5605 0-1.0171-.3766-1.1755-.8873-.4096-.1566-.829-.3679-1.2609-.5866-.9454-.4798-2.0182-1.0241-3.1318-1.0241-1.0704 0-1.7386.4984-2.1197.9197.0149.1069.0322.2125.0322.3231 0 1.244-1.0048 2.2532-2.2434 2.2532s-2.2434-1.0092-2.2434-2.2532c0-.1106.0173-.2175.0322-.3244-.3824-.4225-1.0506-.9184-2.1197-.9184-1.1136 0-2.1864.5456-3.1331 1.0253-.4306.2187-.85.43-1.2596.5866-.1584.5108-.615.8874-1.1755.8874-.6905 0-1.24981-.563-1.24981-1.2565s.55931-1.2552 1.24981-1.2552c.3563 0 .6743.1553.902.3952.3057-.128.6348-.2933.9751-.4673 1.0691-.5431 2.2817-1.1583 3.6911-1.1583 1.2325 0 2.0912.471 2.674.9781.2611-.2896.5952-.5071.9751-.6289-.4615-.2485-.7857-.7208-.7857-1.2825 0-.814 1.4675-5.4099 1.4675-5.4099z" fill="url(#b)"/><path d="m37.445 18.5089s-1.5225.1306-2.5311.6746c0 0 4.0116-.0217 5.8787 1.5439 0 0-4.5405-1.3925-9.8326 2.0655 0 0 8.4169-1.6096 12.4071 1.8051 0 0-1.2876-2.3788-3.9958-2.8907 0 0 3.0813-.1226 4.1366.3894 0 0-.9115-1.9598-1.9446-2.4269v-1.397c0-.2829-1.543-1.7215-4.1183-1.9643z" fill="url(#c)"/><g fill="#fff"><path d="m36.7594 24.7557s.6493.5653.9241 1.0876c0 0-.5935.5855-1.1607.8738 0 0 1.7184.5402 2.1709 1.1791-.9162-.2875-2.4808-.1797-2.8577.5969 1.0461-.1126 1.6866.1571 1.8212.5571 0 0-.2486.3577-1.0101.5167-.8111.1693-1.0182.5059-1.0182.9759 0 .4699.6158.8997 1.7344.8649 1.1169-.0357 4.1634-.4957 4.3936-6.2487-.2302-.541-3.013-1.6456-5.0047-1.6334z"/><path d="m42.1345 31.1223c1.3676-2.1243 2.1158-3.9752 2.2448-5.5528 2.0246 2.2457 1.9029 4.8751 1.5589 6.8872-.232-.6475-.5313-1.3135-.8978-1.9981.2421 3.1025-.6781 4.7822-2.7606 5.0391-.2436-1.4331-.292-2.8916-.1453-4.3754z"/><path d="m17.4459 11.8539c-.3801.5835-.9371 2.2058-1.6712 4.867-1.7523 2.0015-3.4641 4.795-5.1353 8.3803-.81002.2732-1.66962.6506-2.57885 1.1325 2.37815-4.477 4.70195-7.8254 6.97115-10.0448.4954-1.6433 1.3001-3.0883 2.4142-4.335z"/><path d="m21.9634 16.4418-5.5445 2.611c1.5799.0265 2.8346-.2602 3.7641-.8601s1.523-1.1836 1.7804-1.7509z"/><path d="m19.9176 15.4894c-.0314-1.1411-.1802-1.7825-.4465-1.9241-.296-.132-.4681-.4162-.296-.9353.1061-.3299.0741-.6972-.096-1.1018l1.504-1.0029 1.6926 1.065c.0592.3758-.0638.7224-.369 1.0397.369.3985.369.9128-.0585 1.5068.0119.1472.0202.2915.0248.4329.0071.2143-.0012.5209-.0248.9197z"/><path d="m40.8005 33.0698c-.2652 4.8241.7637 7.5655 3.0869 8.2244 3.4849.9882 9.6805 1.1195 9.284 8.6025.3149.9906.6027 1.9322.8633 2.8246-1.0213 1.0801-2.1294 2.0772-3.3129 2.9805-1.1585-2.7952-2.9182-4.5528-4.954-5.8051-8.0234-4.9889-9.6791-10.5978-4.9673-16.8269z"/><path d="m20.3379 48.4222c4.2014 10.5277 10.9269 3.7822 16.1223 6.2483 2.3756 1.1275 3.6714 3.1975 3.8876 6.2098-2.0255.4707-4.1359.7192-6.3044.7192-4.2046 0-8.1912-.9343-11.7636-2.6068-.0132-3.1695-.6607-6.6927-1.9419-10.5705z"/><path d="m28.3083 19.954c1.0899-.3005 1.9806-.9791 2.6722-2.0359-.0439.6292-.2017 1.1707-.4736 1.6247 3.1499-.5656 5.5945-2.4706 7.3338-5.7152-3.2071-1.7405-6.513-.5532-8.285 1.6122-1.1814 1.4435-1.5971 2.9483-1.2474 4.5142z"/></g></svg>