<svg fill="none" height="112" viewBox="0 0 144 112" width="144" xmlns="http://www.w3.org/2000/svg" xmlns:xlink="http://www.w3.org/1999/xlink"><filter id="a" color-interpolation-filters="sRGB" filterUnits="userSpaceOnUse" height="54" width="144" x="0" y="58"><feFlood flood-opacity="0" result="BackgroundImageFix"/><feBlend in="SourceGraphic" in2="BackgroundImageFix" mode="normal" result="shape"/><feGaussianBlur result="effect1_foregroundBlur" stdDeviation="3"/></filter><filter id="b" color-interpolation-filters="sRGB" filterUnits="userSpaceOnUse" height="54" width="144" x="0" y="29"><feFlood flood-opacity="0" result="BackgroundImageFix"/><feBlend in="SourceGraphic" in2="BackgroundImageFix" mode="normal" result="shape"/><feGaussianBlur result="effect1_foregroundBlur" stdDeviation="3"/></filter><filter id="c" color-interpolation-filters="sRGB" filterUnits="userSpaceOnUse" height="54" width="144" x="0" y="0"><feFlood flood-opacity="0" result="BackgroundImageFix"/><feBlend in="SourceGraphic" in2="BackgroundImageFix" mode="normal" result="shape"/><feGaussianBlur result="effect1_foregroundBlur" stdDeviation="3"/></filter><linearGradient id="d"><stop offset="0" stop-color="#ff8989"/><stop offset="1" stop-color="#ffb170"/></linearGradient><linearGradient id="e" gradientUnits="userSpaceOnUse" x1="92.7402" x2="52.2836" xlink:href="#d" y1="46.2691" y2="84.9665"/><linearGradient id="f" gradientUnits="userSpaceOnUse" x1="92.7402" x2="52.2837" xlink:href="#d" y1="36.2779" y2="74.9753"/><linearGradient id="g"><stop offset="0" stop-color="#ff8989"/><stop offset="1" stop-color="#ff9172" stop-opacity="0"/></linearGradient><linearGradient id="h" gradientUnits="userSpaceOnUse" x1="93.5" x2="93.7758" xlink:href="#g" y1="88.5" y2="67.6425"/><linearGradient id="i" gradientUnits="userSpaceOnUse" x1="63" x2="63.9137" xlink:href="#g" y1="65.5" y2="41.4721"/><linearGradient id="j" gradientUnits="userSpaceOnUse" x1="94.5" x2="74.9895" y1="46" y2="-11.0798"><stop offset="0" stop-color="#ffb691"/><stop offset=".8375" stop-color="#ff9172" stop-opacity="0"/></linearGradient><g clip-rule="evenodd" fill-rule="evenodd"><path d="m79.5541 61.6807c.0031-.0019.0065-.0037.0097-.0056.0006-.0003.0009-.0005.0014-.0008.0012-.0005.0022-.0012.0031-.0017-.0057.0032-.0103.0057-.0142.0081z" fill="#2b2c2a"/><path d="m79.5541 61.6807c.0031-.0019.0065-.0037.0097-.0056.0006-.0003.0009-.0005.0014-.0008.0012-.0005.0022-.0012.0031-.0017-.0057.0032-.0103.0057-.0142.0081z" stroke="#f8f2e6" stroke-linecap="round" stroke-linejoin="round" stroke-width=".8"/><path d="m79.5733 61.6693c.0005-.0003.001-.0005.0015-.0008.01-.0059.0154-.0089.0172-.01.0006-.0002.0007-.0004.0009-.0004-.0073.0042-.014.008-.0196.0112z" fill="#2b2c2a"/><path d="m79.5733 61.6693c.0005-.0003.001-.0005.0015-.0008.01-.0059.0154-.0089.0172-.01.0006-.0002.0007-.0004.0009-.0004-.0073.0042-.014.008-.0196.0112z" stroke="#f8f2e6" stroke-linecap="round" stroke-linejoin="round" stroke-width=".8"/><path d="m69.8027 89.3385c2.9795-1.6834 25.98-14.6795 29.396-16.6097l.0014-11.0742c-3.6247 2.048-25.7731 14.5627-29.3961 16.6096-2.8352-1.6014-16.7539-9.4639-19.6006-11.0719l.0013-11.0743c3.7531-2.1204 15.8517-8.9565 19.5988-11.0737 12.0446 6.8096 7.5313 4.259 19.5963 11.0743l.0014-11.0741c-2.8354-1.6016-16.754-9.4639-19.6007-11.0721-3.1415 1.775-26.3439 14.8852-29.396 16.6096.0037 13.61.0033 8.5896.0018 22.1461 22.6692 12.8055 6.8189 3.8567 29.3964 16.6104z" stroke="#f9fafc" stroke-linecap="round" stroke-linejoin="round" stroke-width="1.5"/><path d="m80.0712 61.7027c.0028-.0017.0059-.0034.0089-.0051.0005-.0003.0008-.0005.0013-.0008.0011-.0005.002-.0011.0028-.0015-.0052.0029-.0094.0052-.013.0074z" fill="#2b2c2a"/><path d="m80.0712 61.7027c.0028-.0017.0059-.0034.0089-.0051.0005-.0003.0008-.0005.0013-.0008.0011-.0005.002-.0011.0028-.0015-.0052.0029-.0094.0052-.013.0074z" stroke="#f8f2e6" stroke-linecap="round" stroke-linejoin="round" stroke-width=".8"/><path d="m80.0885 61.6928c.0005-.0003.0009-.0005.0014-.0008.0094-.0055.0146-.0083.0163-.0094.0005-.0002.0007-.0003.0008-.0003-.0069.0039-.0133.0075-.0185.0105z" fill="#2b2c2a"/><path d="m80.0885 61.6928c.0005-.0003.0009-.0005.0014-.0008.0094-.0055.0146-.0083.0163-.0094.0005-.0002.0007-.0003.0008-.0003-.0069.0039-.0133.0075-.0185.0105z" stroke="#f8f2e6" stroke-linecap="round" stroke-linejoin="round" stroke-width=".8"/><path d="m88.9539 56.6844c-7.0374 3.9764-8.568 4.8411-8.8448 4.9977.0001-.0002-.0002.0002-.0013.0005-.0026.0015-.0096.0056-.0178.0103-.0023.0012-.0049.0027-.0075.0041-.0006.0002-.0009.0005-.0014.0008-.0056.0033-.0126.0072-.0207.0117-.0007.0003-.0012.0007-.0016.001-.0007.0004-.0012.0007-.0017.0009-.0039.0022-.0032.0018 0 0 .0003-.0002.001-.0005.0017-.0009.0002-.0002.0004-.0003.0006-.0005-.2627.1485-1.7611.995-8.7877 4.9653-10.8839-6.1534-7.2497-4.0994-17.68-9.9914 3.3804-1.91 14.3071-8.084 17.6821-9.9909 10.9234 6.1757 6.7582 3.8217 17.6801 9.9914zm-44.2034-14.986c-.0014 23.9293.0038 7.9637.001 29.9716 20.4523 11.5532 6.1518 3.4796 26.5213 14.9857 2.6889-1.5187 23.4397-13.2436 26.5224-14.9857.0013-23.9293-.004-7.9637-.0012-29.9716-20.619-11.6469-6.2833-3.5539-26.5212-14.9858-18.1361 10.2472-11.4077 6.4455-26.5223 14.9858z" stroke="#f8f2e6" stroke-linecap="round" stroke-linejoin="round" stroke-width=".8"/><path d="m71.2733 86.6557c2.6882-1.5187 23.4395-13.244 26.5215-14.9854l.0012-9.9913c-3.2702 1.8478-23.2528 13.1387-26.5214 14.9854-2.558-1.4448-15.1157-8.5384-17.684-9.9892l.0013-9.9913c3.3861-1.9131 14.3015-8.0807 17.6821-9.9908 10.8668 6.1436 6.7949 3.8425 17.6801 9.9913l.0012-9.9912c-2.5581-1.4449-15.1156-8.5384-17.6839-9.9894-2.8343 1.6015-23.7678 13.4296-26.5214 14.9854.0033 12.2791.003 7.7496.0016 19.9804 20.4524 11.5533 6.1521 3.4796 26.5217 14.9861z" fill="url(#e)" fill-opacity=".7"/><path d="m71.2733 86.6557c2.6882-1.5187 23.4395-13.244 26.5215-14.9854l.0012-9.9913c-3.2702 1.8478-23.2528 13.1387-26.5214 14.9854-2.558-1.4448-15.1157-8.5384-17.684-9.9892l.0013-9.9913c3.386-1.9131 14.3015-8.0807 17.6821-9.9908 10.8668 6.1436 6.7949 3.8425 17.6801 9.9913l.0012-9.9912c-2.5581-1.4449-15.1156-8.5384-17.6839-9.9894-2.8343 1.6015-23.7678 13.4296-26.5214 14.9854.0033 12.2791.003 7.7496.0016 19.9804 20.4524 11.5533 6.1521 3.4796 26.5217 14.9861z" stroke="#ff8a8a"/><path d="m71.2714 36.7038c2.558 1.445 15.1156 8.5386 17.6839 9.9894l-.0012 9.9912c-18.158 10.2598.4811-.2718-17.6822 9.9909-10.8641-6.1422-6.8563-3.8771-17.68-9.9914l-.0013 9.9913c2.5582 1.4449 15.1157 8.5384 17.684 9.9892 3.2691-1.8471 23.2526-13.1383 26.5214-14.9854-.0033-12.2789-.003-7.7496-.0016-19.9802-20.6194-11.6477-6.2835-3.554-26.5218-14.9862-18.1359 10.2474-11.4073 6.4455-26.5214 14.9855l-.0012 9.9911c2.7289-1.5419 23.8994-13.5038 26.5214-14.9854z" fill="url(#f)" fill-opacity=".4"/><path d="m71.2714 36.7038c2.558 1.445 15.1156 8.5386 17.6839 9.9894l-.0012 9.9912c-18.158 10.2598.4811-.2718-17.6822 9.9909-10.8641-6.1422-6.8563-3.8771-17.68-9.9914l-.0013 9.9913c2.5582 1.4449 15.1157 8.5384 17.684 9.9892 3.2691-1.8471 23.2526-13.1383 26.5214-14.9854-.0033-12.2789-.003-7.7496-.0016-19.9802-20.6194-11.6477-6.2835-3.554-26.5218-14.9862-18.1359 10.2474-11.4073 6.4455-26.5214 14.9855l-.0012 9.9911c2.7289-1.5419 23.8994-13.5038 26.5214-14.9854z" stroke="#ff8a8a"/></g><path d="m137.25 85c0 2.5559-1.629 5.1233-4.887 7.5748-3.246 2.4419-7.991 4.6729-13.921 6.5597-11.852 3.7715-28.2719 6.1155-46.442 6.1155s-34.5898-2.344-46.4416-6.1155c-5.9303-1.8868-10.6749-4.1178-13.9209-6.5597-3.25881-2.4515-4.8875-5.0189-4.8875-7.5748s1.62869-5.1233 4.8875-7.5748c3.246-2.4419 7.9906-4.6728 13.9209-6.5597 11.8518-3.7711 28.2715-6.1155 46.4416-6.1155s34.59 2.3444 46.442 6.1155c5.93 1.8869 10.675 4.1178 13.921 6.5597 3.258 2.4515 4.887 5.0189 4.887 7.5748z" opacity=".6" stroke="url(#h)" stroke-width="1.5"/><g filter="url(#a)" opacity=".6"><path d="m137.25 85c0 2.5559-1.629 5.1233-4.887 7.5748-3.246 2.4419-7.991 4.6729-13.921 6.5597-11.852 3.7715-28.2719 6.1155-46.442 6.1155s-34.5898-2.344-46.4416-6.1155c-5.9303-1.8868-10.6749-4.1178-13.9209-6.5597-3.25881-2.4515-4.8875-5.0189-4.8875-7.5748s1.62869-5.1233 4.8875-7.5748c3.246-2.4419 7.9906-4.6728 13.9209-6.5597 11.8518-3.7711 28.2715-6.1155 46.4416-6.1155s34.59 2.3444 46.442 6.1155c5.93 1.8869 10.675 4.1178 13.921 6.5597 3.258 2.4515 4.887 5.0189 4.887 7.5748z" stroke="url(#h)" stroke-width="1.5"/></g><path d="m137.25 56c0 2.5559-1.629 5.1233-4.887 7.5748-3.246 2.4419-7.991 4.6729-13.921 6.5597-11.852 3.7711-28.2719 6.1155-46.442 6.1155s-34.5898-2.3444-46.4416-6.1155c-5.9303-1.8868-10.6749-4.1178-13.9209-6.5597-3.25881-2.4515-4.8875-5.0189-4.8875-7.5748s1.62869-5.1233 4.8875-7.5748c3.246-2.4419 7.9906-4.6728 13.9209-6.5597 11.8518-3.7711 28.2715-6.1155 46.4416-6.1155s34.59 2.3444 46.442 6.1155c5.93 1.8869 10.675 4.1178 13.921 6.5597 3.258 2.4515 4.887 5.0189 4.887 7.5748z" opacity=".7" stroke="url(#i)" stroke-width="1.5"/><g filter="url(#b)" opacity=".7"><path d="m137.25 56c0 2.5559-1.629 5.1233-4.887 7.5748-3.246 2.4419-7.991 4.6729-13.921 6.5597-11.852 3.7711-28.2719 6.1155-46.442 6.1155s-34.5898-2.3444-46.4416-6.1155c-5.9303-1.8868-10.6749-4.1178-13.9209-6.5597-3.25881-2.4515-4.8875-5.0189-4.8875-7.5748s1.62869-5.1233 4.8875-7.5748c3.246-2.4419 7.9906-4.6728 13.9209-6.5597 11.8518-3.7711 28.2715-6.1155 46.4416-6.1155s34.59 2.3444 46.442 6.1155c5.93 1.8869 10.675 4.1178 13.921 6.5597 3.258 2.4515 4.887 5.0189 4.887 7.5748z" stroke="url(#i)" stroke-width="1.5"/></g><path d="m137.25 27c0 2.5559-1.629 5.1233-4.887 7.5748-3.246 2.4419-7.991 4.6729-13.921 6.5597-11.852 3.7711-28.2719 6.1155-46.442 6.1155s-34.5898-2.3444-46.4416-6.1155c-5.9303-1.8868-10.6749-4.1178-13.9209-6.5597-3.25881-2.4515-4.8875-5.0189-4.8875-7.5748s1.62869-5.1233 4.8875-7.5748c3.246-2.4419 7.9906-4.6728 13.9209-6.5597 11.8518-3.7711 28.2715-6.1155 46.4416-6.1155s34.59 2.3444 46.442 6.1155c5.93 1.8869 10.675 4.1178 13.921 6.5597 3.258 2.4515 4.887 5.0189 4.887 7.5748z" opacity=".8" stroke="url(#j)" stroke-width="1.5"/><g filter="url(#c)" opacity=".8"><path d="m137.25 27c0 2.5559-1.629 5.1233-4.887 7.5748-3.246 2.4419-7.991 4.6729-13.921 6.5597-11.852 3.7711-28.2719 6.1155-46.442 6.1155s-34.5898-2.3444-46.4416-6.1155c-5.9303-1.8868-10.6749-4.1178-13.9209-6.5597-3.25881-2.4515-4.8875-5.0189-4.8875-7.5748s1.62869-5.1233 4.8875-7.5748c3.246-2.4419 7.9906-4.6728 13.9209-6.5597 11.8518-3.7711 28.2715-6.1155 46.4416-6.1155s34.59 2.3444 46.442 6.1155c5.93 1.8869 10.675 4.1178 13.921 6.5597 3.258 2.4515 4.887 5.0189 4.887 7.5748z" stroke="url(#j)" stroke-width="1.5"/></g></svg>