<svg fill="none" height="115" viewBox="0 0 114 115" width="114" xmlns="http://www.w3.org/2000/svg" xmlns:xlink="http://www.w3.org/1999/xlink"><linearGradient id="a"><stop offset="0" stop-color="#ff8989"/><stop offset="1" stop-color="#ffb170"/></linearGradient><linearGradient id="b" gradientUnits="userSpaceOnUse" x1="49.7402" x2="9.28357" xlink:href="#a" y1="71.2691" y2="109.967"/><linearGradient id="c" gradientUnits="userSpaceOnUse" x1="49.7402" x2="9.2837" xlink:href="#a" y1="61.2779" y2="99.9753"/><linearGradient id="d" gradientUnits="userSpaceOnUse" x1="78.7402" x2="38.2836" xlink:href="#a" y1="21.2691" y2="59.9665"/><linearGradient id="e" gradientUnits="userSpaceOnUse" x1="78.7402" x2="38.2837" xlink:href="#a" y1="11.2779" y2="49.9753"/><linearGradient id="f" gradientUnits="userSpaceOnUse" x1="107.517" x2="65.6151" xlink:href="#a" y1="70.8971" y2="110.977"/><linearGradient id="g" gradientUnits="userSpaceOnUse" x1="107.517" x2="65.6153" xlink:href="#a" y1="60.5491" y2="100.629"/><g clip-rule="evenodd" fill-rule="evenodd"><path d="m37.0712 86.7027c.0028-.0017.0059-.0034.0089-.0051.0005-.0003.0008-.0005.0013-.0008.0011-.0005.002-.0011.0028-.0015-.0052.0029-.0094.0052-.013.0074z" fill="#2b2c2a"/><path d="m37.0712 86.7027c.0028-.0017.0059-.0034.0089-.0051.0005-.0003.0008-.0005.0013-.0008.0011-.0005.002-.0011.0028-.0015-.0052.0029-.0094.0052-.013.0074z" stroke="#f8f2e6" stroke-linecap="round" stroke-linejoin="round" stroke-width=".8"/><path d="m37.0885 86.6928c.0004-.0003.0009-.0005.0014-.0008.0094-.0055.0145-.0083.0163-.0094.0005-.0002.0007-.0003.0008-.0003-.0069.0039-.0133.0075-.0185.0105z" fill="#2b2c2a"/><path d="m37.0885 86.6928c.0004-.0003.0009-.0005.0014-.0008.0094-.0055.0145-.0083.0163-.0094.0005-.0002.0007-.0003.0008-.0003-.0069.0039-.0133.0075-.0185.0105z" stroke="#f8f2e6" stroke-linecap="round" stroke-linejoin="round" stroke-width=".8"/><path d="m45.9539 81.6844c-7.0374 3.9764-8.568 4.8411-8.8448 4.9977.0002-.0002-.0002.0002-.0012.0005-.0027.0015-.0097.0056-.0179.0103-.0023.0012-.0049.0027-.0075.0041-.0005.0002-.0009.0005-.0014.0008-.0056.0033-.0126.0072-.0207.0117-.0007.0003-.0012.0007-.0015.001-.0007.0004-.0013.0007-.0018.0009-.0038.0022-.0031.0018 0 0 .0004-.0002.0011-.0005.0018-.0009.0001-.0002.0003-.0003.0005-.0005-.2627.1485-1.761.995-8.7876 4.9653-10.884-6.1534-7.2498-4.0994-17.6801-9.9914 3.3805-1.91 14.3071-8.084 17.6822-9.9909 10.9233 6.1757 6.7581 3.8217 17.68 9.9914zm-44.20341-14.986c-.00138 23.9293.00387 7.9637.00107 29.9716 20.45224 11.553 6.15177 3.48 26.52124 14.986 2.6889-1.519 23.4397-13.2439 26.5224-14.986.0013-23.9293-.0039-7.9637-.0011-29.9716-20.6191-11.6469-6.2834-3.5539-26.5213-14.9858-18.1361 10.2472-11.4077 6.4455-26.52231 14.9858z" stroke="#f8f2e6" stroke-linecap="round" stroke-linejoin="round" stroke-width=".8"/><path d="m28.2733 111.656c2.6882-1.519 23.4395-13.2443 26.5215-14.9857l.0012-9.9913c-3.2702 1.8478-23.2528 13.1387-26.5214 14.985-2.558-1.444-15.1157-8.538-17.684-9.9888l.0013-9.9913c3.3861-1.9131 14.3015-8.0807 17.6821-9.9908 10.8668 6.1436 6.7949 3.8425 17.6801 9.9913l.0012-9.9912c-2.5581-1.4449-15.1156-8.5384-17.6839-9.9894-2.8343 1.6015-23.76778 13.4296-26.5214 14.9854.00332 12.2791.00297 7.7496.00157 19.9804 20.45243 11.5534 6.15213 3.4794 26.52173 14.9864z" fill="url(#b)" fill-opacity=".1"/><path d="m28.2733 111.656c2.6882-1.519 23.4395-13.2443 26.5215-14.9857l.0012-9.9913c-3.2702 1.8478-23.2528 13.1387-26.5214 14.985-2.558-1.444-15.1157-8.538-17.684-9.9888l.0013-9.9913c3.386-1.9131 14.3015-8.0807 17.6821-9.9908 10.8668 6.1436 6.7949 3.8425 17.6801 9.9913l.0012-9.9912c-2.5581-1.4449-15.1156-8.5384-17.6839-9.9894-2.8343 1.6015-23.76778 13.4296-26.5214 14.9854.00332 12.2791.00297 7.7496.00157 19.9804 20.45243 11.5534 6.15213 3.4794 26.52173 14.9864z" stroke="#ff8a8a"/><path d="m28.2714 61.7038c2.558 1.445 15.1156 8.5386 17.6839 9.9894l-.0012 9.9912c-18.158 10.2598.4811-.2718-17.6822 9.9909-10.8641-6.1422-6.8563-3.8771-17.68-9.9914l-.0013 9.9913c2.5582 1.4449 15.1157 8.5388 17.684 9.9888 3.2691-1.8467 23.2526-13.1379 26.5214-14.985-.0033-12.2789-.003-7.7496-.0016-19.9802-20.6194-11.6477-6.2835-3.554-26.5218-14.9862-18.1359 10.2474-11.4073 6.4455-26.52137 14.9855l-.00123 9.9911c2.72895-1.5419 23.8994-13.5038 26.5214-14.9854z" fill="url(#c)" fill-opacity=".2"/><path d="m28.2714 61.7038c2.558 1.445 15.1156 8.5386 17.6839 9.9894l-.0012 9.9912c-18.158 10.2598.4811-.2718-17.6822 9.9909-10.8641-6.1422-6.8563-3.8771-17.68-9.9914l-.0013 9.9913c2.5582 1.4449 15.1157 8.5388 17.684 9.9888 3.2691-1.8467 23.2526-13.1379 26.5214-14.985-.0033-12.2789-.003-7.7496-.0016-19.9802-20.6194-11.6477-6.2835-3.554-26.5218-14.9862-18.1359 10.2474-11.4073 6.4455-26.52138 14.9855l-.00122 9.9911c2.72895-1.5419 23.8994-13.5038 26.5214-14.9854z" stroke="#ff8a8a"/><path d="m66.0712 36.7027c.0028-.0017.0059-.0034.0089-.0051.0005-.0003.0008-.0005.0013-.0008.0011-.0005.002-.0011.0028-.0015-.0052.0029-.0094.0052-.013.0074z" fill="#2b2c2a"/><path d="m66.0712 36.7027c.0028-.0017.0059-.0034.0089-.0051.0005-.0003.0008-.0005.0013-.0008.0011-.0005.002-.0011.0028-.0015-.0052.0029-.0094.0052-.013.0074z" stroke="#f8f2e6" stroke-linecap="round" stroke-linejoin="round" stroke-width=".8"/><path d="m66.0885 36.6928c.0004-.0003.0009-.0005.0014-.0008.0094-.0055.0145-.0083.0163-.0094.0005-.0002.0007-.0003.0008-.0003-.0069.0039-.0133.0075-.0185.0105z" fill="#2b2c2a"/><path d="m66.0885 36.6928c.0004-.0003.0009-.0005.0014-.0008.0094-.0055.0145-.0083.0163-.0094.0005-.0002.0007-.0003.0008-.0003-.0069.0039-.0133.0075-.0185.0105z" stroke="#f8f2e6" stroke-linecap="round" stroke-linejoin="round" stroke-width=".8"/><path d="m74.9539 31.6844c-7.0374 3.9764-8.568 4.8411-8.8448 4.9977.0002-.0002-.0002.0002-.0012.0005-.0027.0015-.0097.0056-.0179.0103-.0023.0012-.0049.0027-.0075.0041-.0005.0002-.0009.0005-.0014.0008-.0056.0033-.0126.0072-.0207.0117-.0007.0003-.0012.0007-.0015.001-.0007.0004-.0013.0007-.0018.0009-.0038.0022-.0031.0018 0 0 .0004-.0002.0011-.0005.0018-.0009.0001-.0002.0003-.0003.0005-.0005-.2627.1485-1.761.995-8.7876 4.9653-10.884-6.1534-7.2498-4.0994-17.6801-9.9914 3.3805-1.91 14.3071-8.084 17.6822-9.9909 10.9233 6.1757 6.7581 3.8217 17.68 9.9914zm-44.2034-14.986c-.0014 23.9293.0039 7.9637.0011 29.9716 20.4522 11.5532 6.1517 3.4796 26.5212 14.9857 2.6889-1.5187 23.4397-13.2436 26.5224-14.9857.0013-23.9293-.0039-7.9637-.0011-29.9716-20.6191-11.64692-6.2834-3.5539-26.5213-14.98575-18.1361 10.24715-11.4077 6.44542-26.5223 14.98575z" stroke="#f8f2e6" stroke-linecap="round" stroke-linejoin="round" stroke-width=".8"/><path d="m57.2733 61.6557c2.6882-1.5187 23.4395-13.244 26.5215-14.9854l.0012-9.9913c-3.2702 1.8478-23.2528 13.1387-26.5214 14.9854-2.558-1.4448-15.1157-8.5384-17.684-9.9892l.0013-9.9913c3.3861-1.9131 14.3015-8.0807 17.6821-9.9908 10.8668 6.1436 6.7949 3.8425 17.6801 9.9913l.0012-9.9912c-2.5581-1.4449-15.1156-8.5384-17.6839-9.9894-2.8343 1.6015-23.7678 13.4296-26.5214 14.9854.0033 12.2791.003 7.7496.0016 19.9804 20.4524 11.5533 6.1521 3.4796 26.5217 14.9861z" fill="url(#d)" fill-opacity=".7"/><path d="m57.2733 61.6557c2.6882-1.5187 23.4395-13.244 26.5215-14.9854l.0012-9.9913c-3.2702 1.8478-23.2528 13.1387-26.5214 14.9854-2.558-1.4448-15.1157-8.5384-17.684-9.9892l.0013-9.9913c3.386-1.9131 14.3015-8.0807 17.6821-9.9908 10.8668 6.1436 6.7949 3.8425 17.6801 9.9913l.0012-9.9912c-2.5581-1.4449-15.1156-8.5384-17.6839-9.9894-2.8343 1.6015-23.7678 13.4296-26.5214 14.9854.0033 12.2791.003 7.7496.0016 19.9804 20.4524 11.5533 6.1521 3.4796 26.5217 14.9861z" stroke="#ff8a8a"/><path d="m57.2714 11.7038c2.558 1.445 15.1156 8.5386 17.6839 9.9894l-.0012 9.9912c-18.158 10.2598.4811-.2718-17.6822 9.9909-10.8641-6.1422-6.8563-3.8771-17.68-9.9914l-.0013 9.9913c2.5582 1.4449 15.1157 8.5384 17.684 9.9892 3.2691-1.8471 23.2526-13.1383 26.5214-14.9854-.0033-12.2789-.003-7.7496-.0016-19.9802-20.6194-11.64766-6.2835-3.554-26.5218-14.98615-18.1359 10.24735-11.4073 6.44542-26.5214 14.98545l-.0012 9.9911c2.7289-1.5419 23.8994-13.5038 26.5214-14.9854z" fill="url(#e)" fill-opacity=".4"/><path d="m57.2714 11.7038c2.558 1.445 15.1156 8.5386 17.6839 9.9894l-.0012 9.9912c-18.158 10.2598.4811-.2718-17.6822 9.9909-10.8641-6.1422-6.8563-3.8771-17.68-9.9914l-.0013 9.9913c2.5582 1.4449 15.1157 8.5384 17.684 9.9892 3.2691-1.8471 23.2526-13.1383 26.5214-14.9854-.0033-12.2789-.003-7.7496-.0016-19.9802-20.6194-11.64766-6.2835-3.554-26.5218-14.98615-18.1359 10.24735-11.4073 6.44542-26.5214 14.98545l-.0012 9.9911c2.7289-1.5419 23.8994-13.5038 26.5214-14.9854z" stroke="#ff8a8a"/><path d="m94.3952 86.8816c.0028-.0017.0059-.0034.0089-.0051.0005-.0003.0008-.0004.0013-.0007.0011-.0005.002-.0011.0028-.0016-.0052.0029-.0094.0053-.013.0074z" fill="#2b2c2a"/><path d="m94.3952 86.8816c.0028-.0017.0059-.0034.0089-.0051.0005-.0003.0008-.0004.0013-.0007.0011-.0005.002-.0011.0028-.0016-.0052.0029-.0094.0053-.013.0074z" stroke="#f8f2e6" stroke-linecap="round" stroke-linejoin="round" stroke-width=".8"/><path d="m94.4131 86.8713c.0004-.0003.0009-.0005.0014-.0008.0094-.0055.0145-.0084.0163-.0095.0005-.0001.0007-.0003.0008-.0003-.0069.004-.0133.0076-.0185.0106z" fill="#2b2c2a"/><path d="m94.4131 86.8713c.0004-.0003.0009-.0005.0014-.0008.0094-.0055.0145-.0084.0163-.0095.0005-.0001.0007-.0003.0008-.0003-.0069.004-.0133.0076-.0185.0106z" stroke="#f8f2e6" stroke-linecap="round" stroke-linejoin="round" stroke-width=".8"/><path d="m103.595 81.6844c-7.2886 4.1184-8.8739 5.014-9.1606 5.1761.0002-.0001-.0002.0002-.0013.0006-.0027.0016-.0099.0058-.0185.0106-.0023.0013-.005.0029-.0078.0043-.0005.0002-.0009.0005-.0014.0009-.0058.0033-.0131.0074-.0214.012-.0007.0004-.0013.0007-.0016.0011-.0007.0004-.0013.0007-.0018.0009-.004.0023-.0033.0019 0 0 .0003-.0002.0011-.0005.0018-.0009.0002-.0002.0003-.0004.0005-.0005-.272.1538-1.8239 1.0306-9.1014 5.1426-11.2727-6.3731-7.5087-4.2458-18.3116-10.3483 3.5013-1.9782 14.8181-8.3726 18.3137-10.3476 11.3135 6.3962 6.9995 3.9581 18.3114 10.3482zm-45.782-15.5212c-.0014 24.7839.004 8.2481.0011 31.042 21.1827 11.9658 6.3715 3.6038 27.4684 15.5208 2.7849-1.573 24.2765-13.7165 27.4695-15.5208.002-24.784-.004-8.2482-.001-31.042-21.3554-12.0629-6.508-3.6809-27.4685-15.521-18.7838 10.6132-11.8151 6.6756-27.4695 15.521z" fill="#2b2c2a"/><path d="m103.595 81.6844c-7.2887 4.1184-8.8739 5.014-9.1606 5.1762.0002-.0002-.0002.0001-.0013.0005-.0027.0016-.0099.0058-.0185.0106-.0023.0013-.005.0029-.0078.0043-.0005.0002-.0009.0005-.0014.0009-.0058.0033-.0131.0074-.0214.012-.0007.0004-.0013.0007-.0016.0011-.0007.0004-.0013.0007-.0018.0009-.004.0023-.0033.0019 0 0 .0003-.0002.0011-.0005.0018-.0009.0002-.0002.0003-.0004.0005-.0005-.272.1538-1.8239 1.0306-9.1014 5.1426-11.2727-6.3731-7.5087-4.2458-18.3116-10.3483 3.5013-1.9782 14.8181-8.3726 18.3137-10.3476 11.3135 6.3962 6.9995 3.9581 18.3114 10.3482zm-45.782-15.5212c-.0014 24.7839.004 8.2481.0011 31.042 21.1827 11.9658 6.3715 3.6038 27.4684 15.5208 2.7849-1.573 24.2765-13.7165 27.4695-15.5208.002-24.7839-.004-8.2482-.001-31.042-21.3554-12.0629-6.508-3.6809-27.4685-15.521-18.7838 10.6132-11.8151 6.6756-27.4695 15.521z" stroke="#f8f2e6" stroke-linecap="round" stroke-linejoin="round" stroke-width=".8"/><path d="m85.2831 112.726c2.7842-1.573 24.2769-13.7169 27.4689-15.5205l.001-10.3481c-3.387 1.9137-24.0832 13.6076-27.4686 15.5206-2.6494-1.496-15.6555-8.8434-18.3155-10.346l.0013-10.3482c3.507-1.9814 14.8122-8.3693 18.3136-10.3476 11.2549 6.3631 7.0376 3.9798 18.3112 10.3481l.002-10.3479c-2.65-1.4966-15.6559-8.8434-18.3159-10.3462-2.9355 1.6587-24.6166 13.9093-27.4686 15.5206.0034 12.7176.0031 8.0264.0016 20.694 21.1829 11.9662 6.3719 3.6042 27.469 15.5212z" fill="url(#f)"/><path d="m85.2831 112.726c2.7842-1.573 24.2769-13.7169 27.4689-15.5205l.001-10.3481c-3.387 1.9137-24.0832 13.6076-27.4686 15.5206-2.6494-1.496-15.6555-8.8434-18.3155-10.346l.0013-10.3482c3.507-1.9814 14.8122-8.3693 18.3136-10.3476 11.2549 6.3631 7.0376 3.9798 18.3112 10.3481l.002-10.3479c-2.65-1.4966-15.6559-8.8434-18.3159-10.3462-2.9355 1.6587-24.6166 13.9093-27.4686 15.5206.0034 12.7176.0031 8.0264.0016 20.694 21.1829 11.9662 6.3719 3.6042 27.469 15.5212z" stroke="#f9fafc" stroke-linecap="round" stroke-linejoin="round" stroke-width="1.5"/><path d="m85.2811 60.9902c2.6493 1.4966 15.6559 8.8436 18.3159 10.3462l-.002 10.348c-18.8062 10.6262.499-.2816-18.3133 10.3477-11.2522-6.3616-7.1012-4.0155-18.3115-10.3483l-.0013 10.3482c2.6495 1.4965 15.6555 8.843 18.3155 10.346 3.3859-1.913 24.0826-13.6076 27.4686-15.5206-.003-12.7175-.003-8.0264-.002-20.6939-21.3554-12.0636-6.508-3.6808-27.4686-15.5213-18.7837 10.6133-11.8148 6.6756-27.4686 15.5206l-.0013 10.348c2.8264-1.597 24.7529-13.9861 27.4686-15.5206z" fill="url(#g)"/><path d="m85.2811 60.9902c2.6493 1.4966 15.6559 8.8436 18.3159 10.3462l-.002 10.348c-18.8062 10.6262.499-.2816-18.3133 10.3477-11.2522-6.3616-7.1012-4.0155-18.3115-10.3483l-.0013 10.3482c2.6495 1.4965 15.6555 8.843 18.3155 10.346 3.3859-1.913 24.0826-13.6076 27.4686-15.5206-.003-12.7175-.003-8.0264-.002-20.6939-21.3554-12.0636-6.508-3.6808-27.4686-15.5213-18.7837 10.6133-11.8148 6.6756-27.4686 15.5206l-.0013 10.348c2.8264-1.597 24.7529-13.9861 27.4686-15.5206z" stroke="#f9fafc" stroke-linecap="round" stroke-linejoin="round" stroke-width="1.5"/></g></svg>