<svg fill="none" height="110" viewBox="0 0 126 110" width="126" xmlns="http://www.w3.org/2000/svg" xmlns:xlink="http://www.w3.org/1999/xlink"><linearGradient id="a" gradientUnits="userSpaceOnUse" x1="8.5" x2="8.5" y1="49" y2="62"><stop offset="0" stop-color="#01f8eb"/><stop offset="1" stop-color="#01c8de"/></linearGradient><linearGradient id="b"><stop offset="0" stop-color="#ff8989"/><stop offset="1" stop-color="#ffb170"/></linearGradient><linearGradient id="c" gradientUnits="userSpaceOnUse" x1="84.7402" x2="44.2836" xlink:href="#b" y1="44.2691" y2="82.9665"/><linearGradient id="d" gradientUnits="userSpaceOnUse" x1="84.7402" x2="44.2837" xlink:href="#b" y1="34.2779" y2="72.9753"/><circle cx="63" cy="55" opacity=".6" r="54.25" stroke="#ff8989" stroke-width="1.5"/><circle cx="117.5" cy="55.5" fill="#7381ff" r="6.5" stroke="#f9fafc" stroke-width="3"/><circle cx="8.5" cy="55.5" fill="url(#a)" r="6.5" stroke="#f9fafc" stroke-width="3"/><g clip-rule="evenodd" fill-rule="evenodd"><path d="m72.0712 59.7027c.0028-.0017.0059-.0034.0089-.0051.0005-.0003.0008-.0005.0013-.0008.0011-.0005.002-.0011.0028-.0015-.0052.0029-.0094.0052-.013.0074z" fill="#2b2c2a"/><path d="m72.0712 59.7027c.0028-.0017.0059-.0034.0089-.0051.0005-.0003.0008-.0005.0013-.0008.0011-.0005.002-.0011.0028-.0015-.0052.0029-.0094.0052-.013.0074z" stroke="#f8f2e6" stroke-linecap="round" stroke-linejoin="round" stroke-width=".8"/><path d="m72.0885 59.6928c.0005-.0003.0009-.0005.0014-.0008.0094-.0055.0146-.0083.0163-.0094.0005-.0002.0007-.0003.0008-.0003-.0069.0039-.0133.0075-.0185.0105z" fill="#2b2c2a"/><path d="m72.0885 59.6928c.0005-.0003.0009-.0005.0014-.0008.0094-.0055.0146-.0083.0163-.0094.0005-.0002.0007-.0003.0008-.0003-.0069.0039-.0133.0075-.0185.0105z" stroke="#f8f2e6" stroke-linecap="round" stroke-linejoin="round" stroke-width=".8"/><path d="m80.9539 54.6844c-7.0374 3.9764-8.568 4.8411-8.8448 4.9977.0001-.0002-.0002.0002-.0013.0005-.0026.0015-.0096.0056-.0178.0103-.0023.0012-.0049.0027-.0075.0041-.0006.0002-.0009.0005-.0014.0008-.0056.0033-.0126.0072-.0207.0117-.0007.0003-.0012.0007-.0016.001-.0007.0004-.0012.0007-.0017.0009-.0039.0022-.0032.0018 0 0 .0003-.0002.001-.0005.0017-.0009.0002-.0002.0004-.0003.0006-.0005-.2627.1485-1.7611.995-8.7877 4.9653-10.8839-6.1534-7.2497-4.0994-17.68-9.9914 3.3804-1.91 14.3071-8.084 17.6821-9.9908 10.9234 6.1756 6.7582 3.8216 17.6801 9.9913zm-44.2034-14.986c-.0014 23.9293.0038 7.9637.001 29.9716 20.4523 11.5532 6.1518 3.4796 26.5213 14.9857 2.6889-1.5187 23.4397-13.2436 26.5224-14.9857.0013-23.9293-.004-7.9637-.0012-29.9716-20.619-11.6469-6.2833-3.5539-26.5212-14.9858-18.1361 10.2472-11.4077 6.4455-26.5223 14.9858z" fill="#2b2c2a"/><path d="m80.9539 54.6844c-7.0374 3.9764-8.568 4.8411-8.8448 4.9977.0001-.0002-.0002.0002-.0013.0005-.0026.0015-.0096.0056-.0178.0103-.0023.0012-.0049.0027-.0075.0041-.0006.0002-.0009.0005-.0014.0008-.0056.0033-.0126.0072-.0207.0117-.0007.0003-.0012.0007-.0016.001-.0007.0004-.0012.0007-.0017.0009-.0039.0022-.0032.0018 0 0 .0003-.0002.001-.0005.0017-.0009.0002-.0002.0004-.0003.0006-.0005-.2627.1485-1.7611.995-8.7877 4.9653-10.8839-6.1534-7.2497-4.0994-17.68-9.9914 3.3804-1.91 14.3071-8.084 17.6821-9.9909 10.9234 6.1757 6.7582 3.8217 17.6801 9.9914zm-44.2034-14.986c-.0014 23.9293.0038 7.9637.001 29.9716 20.4523 11.5532 6.1518 3.4796 26.5213 14.9857 2.6889-1.5187 23.4397-13.2436 26.5224-14.9857.0013-23.9293-.004-7.9637-.0012-29.9716-20.619-11.6469-6.2833-3.5539-26.5212-14.9858-18.1361 10.2472-11.4077 6.4455-26.5223 14.9858z" stroke="#f8f2e6" stroke-linecap="round" stroke-linejoin="round" stroke-width=".8"/><path d="m63.2733 84.6557c2.6882-1.5187 23.4395-13.244 26.5215-14.9854l.0012-9.9913c-3.2702 1.8478-23.2528 13.1387-26.5214 14.9854-2.558-1.4448-15.1157-8.5384-17.684-9.9892l.0013-9.9913c3.3861-1.9131 14.3015-8.0807 17.6821-9.9908 10.8668 6.1436 6.7949 3.8425 17.6801 9.9913l.0012-9.9912c-2.5581-1.4449-15.1156-8.5384-17.6839-9.9894-2.8343 1.6015-23.7678 13.4296-26.5214 14.9854.0033 12.2791.003 7.7496.0016 19.9804 20.4524 11.5533 6.1521 3.4796 26.5217 14.9861z" fill="url(#c)"/><path d="m63.2733 84.6557c2.6882-1.5187 23.4395-13.244 26.5215-14.9854l.0012-9.9913c-3.2702 1.8478-23.2528 13.1387-26.5214 14.9854-2.558-1.4448-15.1157-8.5384-17.684-9.9892l.0013-9.9913c3.386-1.9131 14.3015-8.0807 17.6821-9.9908 10.8668 6.1436 6.7949 3.8425 17.6801 9.9913l.0012-9.9912c-2.5581-1.4449-15.1156-8.5384-17.6839-9.9894-2.8343 1.6015-23.7678 13.4296-26.5214 14.9854.0033 12.2791.003 7.7496.0016 19.9804 20.4524 11.5533 6.1521 3.4796 26.5217 14.9861z" stroke="#f9fafc" stroke-linecap="round" stroke-linejoin="round" stroke-width="1.5"/><path d="m63.2714 34.7038c2.558 1.445 15.1156 8.5386 17.6839 9.9894l-.0012 9.9912c-18.158 10.2598.4811-.2718-17.6822 9.9909-10.8641-6.1422-6.8563-3.8771-17.68-9.9914l-.0013 9.9913c2.5582 1.4449 15.1157 8.5384 17.684 9.9892 3.2691-1.8471 23.2526-13.1383 26.5214-14.9854-.0033-12.2789-.003-7.7496-.0016-19.9802-20.6194-11.6477-6.2835-3.554-26.5218-14.9862-18.1359 10.2474-11.4073 6.4455-26.5214 14.9855l-.0012 9.9911c2.7289-1.5419 23.8994-13.5038 26.5214-14.9854z" fill="url(#d)"/><path d="m63.2714 34.7038c2.558 1.445 15.1156 8.5386 17.6839 9.9894l-.0012 9.9912c-18.158 10.2598.4811-.2718-17.6822 9.9909-10.8641-6.1422-6.8563-3.8771-17.68-9.9914l-.0013 9.9913c2.5582 1.4449 15.1157 8.5384 17.684 9.9892 3.2691-1.8471 23.2526-13.1383 26.5214-14.9854-.0033-12.2789-.003-7.7496-.0016-19.9802-20.6194-11.6477-6.2835-3.554-26.5218-14.9862-18.1359 10.2474-11.4073 6.4455-26.5214 14.9855l-.0012 9.9911c2.7289-1.5419 23.8994-13.5038 26.5214-14.9854z" stroke="#f9fafc" stroke-linecap="round" stroke-linejoin="round" stroke-width="1.5"/></g></svg>