<svg fill="none" height="463" viewBox="0 0 1440 463" width="1440" xmlns="http://www.w3.org/2000/svg" xmlns:xlink="http://www.w3.org/1999/xlink"><linearGradient id="a" gradientUnits="userSpaceOnUse" x1="1440" x2="979.358" y1="76.1899" y2="915.198"><stop offset="0" stop-color="#ffb36d"/><stop offset="1" stop-color="#f88"/></linearGradient><linearGradient id="b" gradientUnits="userSpaceOnUse" x1="731.407" x2="731.407" y1="142" y2="562.16"><stop offset="0" stop-color="#fff"/><stop offset="1" stop-color="#fff" stop-opacity="0"/></linearGradient><mask id="c" height="463" maskUnits="userSpaceOnUse" width="1440" x="0" y="0"><path d="m0 0h1440v463h-1440z" fill="url(#a)"/></mask><path d="m0 0h1440v463h-1440z" fill="url(#a)"/><g mask="url(#c)"><g opacity=".7"><path d="m465.356 538.105.354 1.622c1.656 7.787 3.037 15.264 4.142 22.433-42.051-27.149-78.771-61.781-108.264-101.998 7.152-.713 13.643-1.737 19.483-3.071 23.847 31.01 52.28 58.347 84.285 81.014zm226.837-724.849c225.892 0 409.037 182.2659 409.037 407.128 0 90.204-29.47 173.553-79.35 241.031l-7.62-19.251c43.86-62.952 69.56-139.381 69.56-221.78 0-215.21951-175.325-389.711-391.627-389.711-47.609 0-93.232 8.453-135.438 23.934l-19.244-11.233c47.719-19.416 99.945-30.118 154.682-30.118z" fill="url(#b)" fill-opacity=".21"/><g fill="#fff"><path d="m333.217 207.014 56.093 149.308c15.953 2.744 25.773 6.485 25.773 10.609v.051c.408 1.81.375 3.793-.098 5.948l.098.002-.313.878c-.433 1.611-1.102 3.314-2.007 5.109-14.862 35.096-47.73 59.858-88.181 59.858-39.856 0-73.882-24.04-89.245-58.315-1.316-2.469-2.238-4.75-2.77-6.846-.08-.224-.162-.454-.244-.684l.082-.003c-.417-1.922-.492-3.682-.226-5.281l.144-.717.017-.293c.471-4.167 10.968-7.924 27.636-10.63l55.971-148.994c2.693-7.228 14.558-7.228 17.27 0zm295.897-.019 56.08 149.274c15.209 2.59 24.921 6.082 25.988 9.95l-.101-.202.23.487c.774 1.85.858 3.985.251 6.406l.001.004c-.321 1.264-.819 2.589-1.5 3.989-14.484 36.167-48.37 61.856-89.584 61.856-40.771 0-75.44-25.156-90.273-60.69-.883-1.739-1.586-3.409-1.945-4.975l-.034-.161c-.002-.006-.005-.013-.007-.019l.003-.004-.072-.401c-.213-1.415-.123-3.185.272-5.311l.117-.591.017-.103.037-.192c.96-4.009 11.208-7.62 27.253-10.25l55.996-149.067c2.694-7.227 14.559-7.227 17.271 0zm-100.514 159.317-.043.192h.004zm-204.018-129.777-43.936 116.95c12.829-1.145 27.489-1.794 43.057-1.794l1.757.003c15.655.049 30.347.755 43.127 1.959zm295.897 0-43.95 116.978c12.904-1.162 27.675-1.822 43.371-1.822l1.757.003c15.527.048 30.108.743 42.815 1.929zm-146.652-202.7093s21.884 68.5323 21.884 80.6713c0 8.358-4.834 15.419-11.717 19.125 5.665 1.835 10.647 5.059 14.54 9.377 8.691-7.561 21.496-14.584 39.874-14.584 21.017 0 39.081 9.173 55.023 17.272 5.075 2.575 10.001 5.04 14.559 6.968 3.395-3.596 8.137-5.894 13.451-5.894 10.296 0 18.636 8.377 18.636 18.718s-8.34 18.717-18.636 18.717c-8.359 0-15.167-5.615-17.529-13.232-6.108-2.335-12.363-5.485-18.802-8.747-14.097-7.153-30.095-15.27-46.702-15.27-15.96 0-25.924 7.431-31.607 13.714.221 1.593.479 3.169.479 4.818 0 18.551-14.982 33.599-33.453 33.599-18.47 0-33.453-15.048-33.453-33.599 0-1.649.259-3.243.48-4.837-5.701-6.301-15.665-13.695-31.608-13.695-16.606 0-32.604 8.135-46.719 15.289-6.422 3.261-12.677 6.412-18.784 8.747-2.362 7.617-9.171 13.232-17.529 13.232-10.296 0-18.637-8.395-18.637-18.736s8.341-18.718 18.637-18.718c5.314 0 10.056 2.317 13.451 5.894 4.558-1.909 9.466-4.374 14.54-6.968 15.942-8.099 34.025-17.272 55.041-17.272 18.378 0 31.184 7.023 39.875 14.584 3.893-4.318 8.875-7.561 14.539-9.377-6.882-3.706-11.716-10.749-11.716-19.125 0-12.139 21.883-80.6713 21.883-80.6713z" fill-opacity=".15"/><path d="m745.383-9.00036s-22.703 1.94743-37.743 10.05972c0 0 59.82-.32257 87.662 23.02264 0 0-67.706-20.76457-146.622 30.8005 0 0 125.511-24.0024 185.013 26.9175 0 0-19.202-35.4719-59.585-43.1063 0 0 45.947-1.8279 61.683 5.8065 0 0-13.591-29.2234-28.997-36.18875v-20.83195c0-4.2183-23.009-25.671-61.411-29.291z" fill-opacity=".4"/><path d="m735.161 84.1516s9.682 8.429 13.781 16.2184c0 0-8.851 8.731-17.309 13.03 0 0 25.625 8.054 32.372 17.582-13.661-4.287-36.993-2.681-42.613 8.9 15.599-1.678 25.15 2.343 27.158 8.309 0 0-3.708 5.334-15.064 7.704-12.094 2.525-15.182 7.543-15.182 14.552 0 7.008 9.183 13.416 25.862 12.897 16.656-.532 62.084-7.391 65.517-93.1786-3.433-8.0668-44.929-24.5384-74.629-24.3573z" fill-opacity=".3"/><g fill-opacity=".21"><path d="m815.313 179.089c20.393-31.677 31.551-59.278 33.473-82.8024 30.191 33.4874 28.377 72.6954 23.247 102.7004-3.46-9.655-7.922-19.587-13.388-29.795 3.611 46.263-10.111 71.31-41.165 75.141-3.633-21.37-4.355-43.118-2.167-65.244z"/><path d="m447.155-108.237c-5.667 8.701-13.974 32.8927-24.92 72.5755-26.13 29.84654-51.656 71.5015-76.577 124.9648-12.078 4.0741-24.897 9.7022-38.455 16.8877 35.463-66.7599 70.114-116.6898 103.952-149.7851 7.387-24.5048 19.387-46.0523 36-64.6429z"/><path d="m795.411 208.129c-3.956 71.936 11.388 112.815 46.031 122.64 51.965 14.736 144.353 16.694 138.441 128.278 4.696 14.773 8.987 28.813 12.873 42.12-15.23 16.106-31.754 30.975-49.401 44.446-17.276-41.682-43.515-67.891-73.873-86.566-119.643-74.392-144.333-158.032-74.071-250.918z"/><path d="m490.282 437.061c62.65 156.987 162.939 56.399 240.412 93.172 35.424 16.814 54.747 47.681 57.971 92.6-30.203 7.019-61.674 10.725-94.009 10.725-62.699 0-122.145-13.933-175.416-38.873-.198-47.262-9.853-99.8-28.958-157.624z"/><path d="m609.129 12.5495c16.252-4.48154 29.534-14.60107 39.846-30.3586-.653 9.38155-3.007 17.456981-7.062 24.22629 46.971-8.43311 83.424-36.84069 109.36-85.22279-47.823-25.9554-97.12-8.2493-123.544 24.0397-17.616 21.526-23.816 43.9645-18.6 67.3154z"/></g></g></g></g></svg>