<svg width="350" height="202" viewBox="0 0 350 202" fill="none" xmlns="http://www.w3.org/2000/svg">
<mask id="mask0" mask-type="alpha" maskUnits="userSpaceOnUse" x="0" y="0" width="350" height="202">
<path d="M0 8C0 3.58172 3.58172 0 8 0H342C346.418 0 350 3.58172 350 8V202H0V8Z" fill="white"/>
</mask>
<g mask="url(#mask0)">
<path d="M0 8C0 3.58172 3.58172 0 8 0H342C346.418 0 350 3.58172 350 8V201H0V8Z" fill="url(#paint0_linear)"/>
<path d="M175 103C146.78 103 123.435 123.874 119.564 151.024C118.94 155.398 122.582 159 127 159H223C227.418 159 231.06 155.398 230.436 151.024C226.565 123.874 203.22 103 175 103Z" fill="url(#paint1_linear)"/>
<path d="M139 130C150.046 130 159 121.046 159 110H119C119 121.046 127.954 130 139 130Z" stroke="#F9FAFC" stroke-width="9"/>
<path d="M210 130C221.046 130 230 121.046 230 110H190C190 121.046 198.954 130 210 130Z" stroke="#F9FAFC" stroke-width="9"/>
<path d="M139.5 79L152.924 110.5H126.077L139.5 79Z" stroke="#F9FAFC" stroke-width="9"/>
<path d="M211.5 79L224.923 110.5H198.077L211.5 79Z" stroke="#F9FAFC" stroke-width="9"/>
<path d="M176 87L158.68 54.75L193.321 54.75L176 87Z" fill="white"/>
</g>
<defs>
<linearGradient id="paint0_linear" x1="365.909" y1="-4.1036" x2="125.364" y2="308.146" gradientUnits="userSpaceOnUse">
<stop stop-color="#FF7777"/>
<stop offset="1" stop-color="#AC6BFF"/>
<stop offset="1" stop-color="#FF6B6B"/>
</linearGradient>
<linearGradient id="paint1_linear" x1="236.091" y1="101.857" x2="171.963" y2="197.468" gradientUnits="userSpaceOnUse">
<stop stop-color="#FF97A7"/>
<stop offset="1" stop-color="#CE94FC"/>
</linearGradient>
</defs>
</svg>
