<svg width="44" height="44" viewBox="0 0 44 44" fill="none" xmlns="http://www.w3.org/2000/svg">
<path d="M27.2992 29.1427L22.0012 34.4408L16.7032 29.1427C16.2588 28.6983 15.5384 28.6984 15.0941 29.1427C14.6498 29.5871 14.6497 30.3074 15.0941 30.7518L21.1967 36.8544C21.641 37.2987 22.3614 37.2987 22.8057 36.8544L28.9083 30.7518C29.3526 30.3075 29.3526 29.5871 28.9083 29.1427C28.464 28.6983 27.7436 28.6984 27.2992 29.1427Z" fill="#9096B6" stroke="#9096B6"/>
<path d="M21.9999 6.18725C21.3715 6.18721 20.8621 6.69665 20.8621 7.32504L20.862 36.0499C20.862 36.6783 21.3714 37.1877 21.9998 37.1877C22.3141 37.1878 22.5985 37.0604 22.8044 36.8545C23.0103 36.6486 23.1376 36.3642 23.1376 36.0499L23.1376 7.32499C23.1377 6.69664 22.6283 6.18725 21.9999 6.18725Z" fill="#9096B6" stroke="#9096B6"/>
</svg>
