<svg width="54" height="54" fill="none" xmlns="http://www.w3.org/2000/svg"><path d="M19.8 48.374l6.824-6.825a1.272 1.272 0 10-1.8-1.8L18.9 45.676l-5.925-5.925a1.272 1.272 0 10-1.8 1.8L18 48.373a1.272 1.272 0 001.8 0zM29.173 14.25l5.925-5.925 5.925 5.925a1.272 1.272 0 001.8-1.8l-6.825-6.824a1.272 1.272 0 00-1.8 0l-6.825 6.825a1.272 1.272 0 001.8 1.8z" fill="#9096B6"/><path d="M18.898 48.746c.703 0 1.273-.57 1.273-1.272V15.349a1.273 1.273 0 00-2.546 0v32.125c0 .703.57 1.272 1.273 1.272zM35.1 39.923c.702 0 1.272-.57 1.272-1.273V6.526a1.272 1.272 0 10-2.545 0V38.65c0 .703.57 1.273 1.273 1.273z" fill="#9096B6"/></svg>