<svg width="763" height="466" fill="none" xmlns="http://www.w3.org/2000/svg"><g opacity=".2" fill="#fff"><path d="M204.626 545.36l.311 1.423c1.452 6.828 2.663 13.386 3.632 19.673a359.86 359.86 0 01-94.945-89.45c6.272-.625 11.965-1.523 17.086-2.693a344.323 344.323 0 0073.916 71.047zM403.555-90.312c198.101 0 358.712 159.842 358.712 357.04 0 79.106-25.846 152.201-69.59 211.377l-6.676-16.882c38.463-55.207 61.001-122.233 61.001-194.495 0-188.742-153.756-341.766-343.447-341.766-41.751 0-81.761 7.414-118.775 20.99L267.904-63.9c41.848-17.028 87.649-26.413 135.651-26.413zM88.744 255.002l49.192 130.939c13.99 2.407 22.602 5.687 22.602 9.304v.044c.358 1.588.329 3.327-.086 5.217l.086.002-.275.769c-.379 1.413-.966 2.907-1.759 4.481-13.034 30.778-41.859 52.494-77.333 52.494-34.953 0-64.792-21.082-78.265-51.141-1.154-2.165-1.963-4.165-2.43-6.004l-.213-.599.072-.003c-.366-1.686-.432-3.229-.199-4.631l.127-.629.015-.257c.413-3.654 9.618-6.949 24.236-9.322l49.084-130.664c2.363-6.338 12.767-6.338 15.146 0zm259.493-.016l49.181 130.909c13.338 2.271 21.855 5.333 22.79 8.725l-.088-.177.202.428c.678 1.621.752 3.494.219 5.618l.002.003c-.282 1.109-.719 2.27-1.316 3.498-12.702 31.717-42.419 54.246-78.563 54.246-35.755 0-66.158-22.061-79.166-53.224-.775-1.525-1.392-2.989-1.706-4.363l-.03-.14a.325.325 0 00-.006-.017l.002-.003-.063-.352c-.187-1.241-.107-2.794.239-4.658l.103-.518.014-.09.033-.169c.842-3.516 9.829-6.683 23.9-8.989l49.107-130.727c2.363-6.339 12.767-6.339 15.146 0zm-88.148 139.716l-.038.169h.004l.034-.169zM81.171 280.892l-38.53 102.561c11.25-1.004 24.106-1.573 37.76-1.573l1.54.002c13.729.043 26.613.662 37.821 1.718l-38.59-102.708zm259.493 0l-38.543 102.586c11.317-1.02 24.271-1.598 38.036-1.598l1.54.002c13.618.043 26.404.652 37.548 1.693l-38.581-102.683zM212.055 103.121s19.191 60.101 19.191 70.746c0 7.33-4.239 13.522-10.275 16.773 4.968 1.609 9.337 4.437 12.751 8.223 7.622-6.631 18.852-12.79 34.969-12.79 18.431 0 34.272 8.045 48.253 15.147 4.45 2.259 8.771 4.42 12.768 6.111 2.977-3.153 7.136-5.169 11.796-5.169 9.029 0 16.343 7.346 16.343 16.415 0 9.069-7.314 16.415-16.343 16.415-7.33 0-13.301-4.925-15.373-11.604-5.356-2.048-10.841-4.811-16.489-7.671-12.362-6.274-26.392-13.392-40.955-13.392-13.997 0-22.735 6.517-27.719 12.027.194 1.397.42 2.779.42 4.225 0 16.269-13.139 29.465-29.337 29.465s-29.337-13.196-29.337-29.465c0-1.446.226-2.844.421-4.242-5.001-5.525-13.739-12.01-27.72-12.01-14.563 0-28.592 7.135-40.971 13.408-5.632 2.86-11.117 5.623-16.473 7.671-2.072 6.68-8.043 11.604-15.373 11.604-9.03 0-16.343-7.362-16.343-16.431s7.314-16.415 16.343-16.415c4.66 0 8.82 2.032 11.797 5.169 3.996-1.674 8.301-3.836 12.751-6.111 13.981-7.102 29.839-15.147 48.269-15.147 16.117 0 27.347 6.159 34.969 12.79a29.07 29.07 0 0112.751-8.223c-6.036-3.251-10.275-9.427-10.275-16.773 0-10.645 19.191-70.746 19.191-70.746z" fill-opacity=".5"/><path d="M450.202 65.564s-19.909 1.708-33.1 8.822c0 0 52.461-.283 76.878 20.19 0 0-59.377-18.21-128.584 27.011 0 0 110.07-21.049 162.251 23.606 0 0-16.839-31.107-52.254-37.803 0 0 40.294-1.603 54.094 5.092 0 0-11.918-25.628-25.429-31.736V62.477c0-3.7-20.178-22.513-53.856-25.687v28.774z"/><path d="M450.202 65.564s-19.909 1.708-33.1 8.822c0 0 52.461-.283 76.878 20.19 0 0-59.377-18.21-128.584 27.011 0 0 110.07-21.049 162.251 23.606 0 0-16.839-31.107-52.254-37.803 0 0 40.294-1.603 54.094 5.092 0 0-11.918-25.628-25.429-31.736V62.477c0-3.7-20.178-22.513-53.856-25.687v28.774z"/><path d="M441.237 147.255s8.491 7.392 12.086 14.223c0 0-7.762 7.657-15.18 11.427 0 0 22.472 7.064 28.39 15.42-11.981-3.76-32.443-2.351-37.37 7.805 13.679-1.472 22.055 2.054 23.816 7.286 0 0-3.252 4.678-13.211 6.756-10.605 2.214-13.314 6.616-13.314 12.762 0 6.146 8.053 11.766 22.68 11.31 14.607-.466 54.446-6.481 57.457-81.715-3.011-7.074-39.402-21.519-65.447-21.36l.093 16.086z" fill-opacity=".5"/><path d="M511.528 230.513c17.884-27.78 27.669-51.985 29.355-72.615 26.477 29.368 24.886 63.752 20.387 90.066-3.034-8.468-6.948-17.178-11.741-26.13 3.167 40.572-8.867 62.537-36.101 65.897-3.186-18.741-3.819-37.814-1.9-57.218zM188.663-21.463c-4.969 7.63-12.254 28.845-21.853 63.646-22.916 26.175-45.301 62.705-67.156 109.591-10.593 3.573-21.834 8.508-33.724 14.809 31.1-58.546 61.488-102.333 91.163-131.357 6.478-21.49 17.001-40.386 31.57-56.69zM247.738 38.533l-72.505 34.145c20.66.347 37.067-3.403 49.223-11.248 12.156-7.846 19.916-15.478 23.282-22.897zM220.986 26.078c-.411-14.922-2.357-23.31-5.84-25.162-3.871-1.725-6.121-5.443-3.871-12.23 1.388-4.315.97-9.118-1.254-14.41l19.668-13.114 22.134 13.927c.775 4.914-.833 9.446-4.825 13.597 4.825 5.21 4.825 11.936-.765 19.704.156 1.925.264 3.812.325 5.66.092 2.803-.017 6.813-.325 12.028h-25.247z" fill-opacity=".4"/><path d="M494.075 255.98c-3.469 63.086 9.987 98.937 40.368 107.552 45.572 12.924 126.593 14.64 121.409 112.497a1637.697 1637.697 0 0111.289 36.938 361.572 361.572 0 01-43.323 38.977c-15.151-36.553-38.162-59.538-64.785-75.915-104.923-65.24-126.576-138.59-64.958-220.049zM226.486 456.747c54.943 137.673 142.893 49.46 210.835 81.71 31.065 14.745 48.012 41.815 50.838 81.208-26.487 6.155-54.086 9.405-82.443 9.405-54.985 0-107.118-12.219-153.835-34.091-.173-41.448-8.64-87.522-25.395-138.232zM330.711 84.463c14.252-3.93 25.9-12.805 34.944-26.624-.573 8.228-2.638 15.31-6.193 21.246 41.191-7.395 73.16-32.308 95.905-74.738-41.94-22.762-85.172-7.234-108.345 21.082-15.448 18.878-20.885 38.556-16.311 59.034z" fill-opacity=".4"/></g></svg>