<svg width="863" height="467" fill="none" xmlns="http://www.w3.org/2000/svg"><g opacity=".54"><circle cx="431.553" cy="345.703" r="430.703" fill="url(#paint0_linear)"/><path d="M768.142 287.406c2.988-62.056-40.354-103.224-89.268-131.487L647.08 342.704c22.011-1.229 32.772 7.127 36.685 11.059 4.892 4.916 17.12 19.662 2.446 43.01 30.571-4.915 78.321-34.408 81.931-109.367z" fill="url(#paint1_linear)"/><path fill-rule="evenodd" clip-rule="evenodd" d="M351.078 69.942l-37.909-38.095c57.066-6.963 207.64 1.966 353.404 93.393 2.445 9.83 0 24.577 0 24.577l12.228 6.144c10.598 15.156 28.615 58.247 15.897 109.367-12.718 51.12-34.647 72.912-44.023 77.418-19.565 0-52.827 11.305-63.588 61.442-10.761 50.137-31.386 61.033-40.354 60.214l-215.221 2.457-141.851-83.561-20.788-173.268 40.354-54.069 72.148-58.985 51.36-20.89 18.343-6.144zm254.187 71.574c-9.49 9.885-18.365 14.628-20.898 15.914-55.418-11.788-75.383-40.458-75.383-40.458 52.273-.322 99.452 12.111 133.97 33.143 0 0-18.685-6.055-37.689-8.599z" fill="url(#paint2_linear)"/><path fill-rule="evenodd" clip-rule="evenodd" d="M597.305 404.203c-37.99 18.643-83.031 29.436-131.325 29.436-135.747 0-245.792-85.277-245.792-190.471 0-77.705 60.046-144.543 146.144-174.168C202.585 78.436 71 209.982 71 372.296c0 187.33 166.984 342.116 372.969 342.116 153.814 0 281.849-89.18 348.796-208.495-92.116 20.716-201.161-18.67-195.46-101.714z" fill="url(#paint3_linear)"/></g><defs><linearGradient id="paint0_linear" x1="431.553" y1="-21.438" x2="431.553" y2="822.191" gradientUnits="userSpaceOnUse"><stop stop-color="#fff" stop-opacity=".16"/><stop offset="1" stop-color="#fff" stop-opacity="0"/></linearGradient><linearGradient id="paint1_linear" x1="708.202" y1="224.042" x2="724.551" y2="435.057" gradientUnits="userSpaceOnUse"><stop stop-color="#fff"/><stop offset="1" stop-color="#fff"/></linearGradient><linearGradient id="paint2_linear" x1="340.423" y1="76.849" x2="562.302" y2="428.998" gradientUnits="userSpaceOnUse"><stop stop-color="#C2F5FF"/><stop offset="1" stop-color="#8EEDFF"/></linearGradient><linearGradient id="paint3_linear" x1="304.532" y1="138.218" x2="643.172" y2="633.454" gradientUnits="userSpaceOnUse"><stop stop-color="#C2F5FF"/><stop offset="1" stop-color="#F5FDFF"/></linearGradient></defs></svg>