<svg width="1440" height="465" fill="none" xmlns="http://www.w3.org/2000/svg"><path fill="url(#paint0_linear)" d="M0 0h1440v465H0z"/><mask id="a" maskUnits="userSpaceOnUse" x="0" y="0" width="1440" height="465"><path fill="url(#paint1_linear)" d="M0 0h1440v465H0z"/></mask><g opacity=".2" fill="#fff" mask="url(#a)"><path d="M516.626 544.672l.311 1.423c1.452 6.828 2.663 13.386 3.632 19.673a359.86 359.86 0 01-94.945-89.45c6.272-.625 11.965-1.523 17.086-2.693a344.323 344.323 0 0073.916 71.047zM715.556-91c198.1 0 358.714 159.842 358.714 357.04 0 79.106-25.85 152.201-69.59 211.377l-6.679-16.882C1036.46 405.328 1059 338.302 1059 266.04c0-188.742-153.754-341.766-343.444-341.766-41.752 0-81.762 7.414-118.776 20.99l-16.876-9.85C621.752-81.616 667.553-91 715.556-91zM400.744 254.314l49.192 130.94c13.99 2.406 22.602 5.687 22.602 9.303v.045c.358 1.587.329 3.326-.086 5.216l.086.002-.275.77c-.379 1.412-.966 2.906-1.759 4.48-13.034 30.778-41.859 52.494-77.333 52.494-34.953 0-64.792-21.082-78.265-51.141-1.154-2.164-1.963-4.165-2.429-6.003l-.214-.6.072-.003c-.366-1.685-.432-3.229-.199-4.631l.127-.629.015-.257c.413-3.654 9.618-6.949 24.236-9.322l49.084-130.664c2.363-6.338 12.767-6.338 15.146 0zm259.493-.016l49.181 130.909c13.338 2.271 21.855 5.334 22.79 8.726l-.089-.178.203.428c.678 1.622.752 3.494.219 5.618l.002.003c-.282 1.109-.719 2.27-1.316 3.498-12.702 31.717-42.419 54.246-78.563 54.246-35.755 0-66.158-22.061-79.166-53.223-.775-1.525-1.392-2.99-1.706-4.363l-.03-.141-.006-.017.002-.003-.063-.352c-.187-1.241-.107-2.793.239-4.657l.103-.519.014-.09.033-.169c.842-3.516 9.829-6.682 23.9-8.989l49.107-130.727c2.363-6.338 12.767-6.338 15.146 0zm-88.148 139.716l-.038.169h.004l.034-.169zm-178.918-113.81l-38.53 102.562c11.251-1.005 24.106-1.574 37.76-1.574l1.54.002c13.729.043 26.613.662 37.821 1.718l-38.591-102.708zm259.493 0L614.121 382.79c11.317-1.019 24.271-1.598 38.036-1.598l1.54.002c13.618.043 26.404.652 37.548 1.693l-38.581-102.683zM524.055 102.433s19.191 60.101 19.191 70.747c0 7.329-4.239 13.521-10.275 16.772 4.968 1.609 9.337 4.437 12.751 8.223 7.622-6.63 18.852-12.79 34.969-12.79 18.431 0 34.272 8.045 48.253 15.147 4.45 2.259 8.771 4.421 12.768 6.111 2.977-3.153 7.136-5.168 11.796-5.168 9.029 0 16.343 7.346 16.343 16.414 0 9.069-7.314 16.415-16.343 16.415-7.33 0-13.301-4.924-15.373-11.604-5.356-2.048-10.841-4.811-16.489-7.671-12.362-6.273-26.392-13.392-40.955-13.392-13.997 0-22.735 6.517-27.719 12.027.194 1.398.42 2.779.42 4.225 0 16.269-13.139 29.466-29.337 29.466s-29.337-13.197-29.337-29.466c0-1.446.226-2.844.421-4.241-5.001-5.526-13.739-12.011-27.72-12.011-14.563 0-28.592 7.135-40.971 13.408-5.632 2.861-11.117 5.623-16.473 7.671-2.072 6.68-8.043 11.604-15.373 11.604-9.029 0-16.343-7.362-16.343-16.431 0-9.068 7.314-16.414 16.343-16.414 4.66 0 8.819 2.031 11.797 5.168 3.996-1.674 8.301-3.836 12.751-6.111 13.981-7.102 29.839-15.147 48.269-15.147 16.117 0 27.347 6.16 34.969 12.79a29.08 29.08 0 0112.751-8.223c-6.036-3.251-10.275-9.426-10.275-16.772 0-10.646 19.191-70.747 19.191-70.747z" fill-opacity=".5"/><path d="M762.202 64.876s-19.909 1.708-33.1 8.822c0 0 52.461-.283 76.878 20.19 0 0-59.377-18.21-128.584 27.012 0 0 110.07-21.05 162.251 23.606 0 0-16.839-31.108-52.254-37.803 0 0 40.294-1.604 54.094 5.092 0 0-11.918-25.628-25.429-31.737V61.79c0-3.7-20.178-22.513-53.856-25.687v28.774z"/><path d="M762.202 64.876s-19.909 1.708-33.1 8.822c0 0 52.461-.283 76.878 20.19 0 0-59.377-18.21-128.584 27.011 0 0 110.07-21.049 162.251 23.606 0 0-16.839-31.107-52.254-37.803 0 0 40.294-1.603 54.094 5.092 0 0-11.918-25.628-25.429-31.736V61.789c0-3.7-20.178-22.513-53.856-25.687v28.774z"/><path d="M753.237 146.568s8.491 7.392 12.086 14.222c0 0-7.762 7.657-15.18 11.427 0 0 22.472 7.064 28.39 15.42-11.981-3.76-32.442-2.351-37.37 7.805 13.679-1.472 22.055 2.054 23.816 7.286 0 0-3.252 4.678-13.21 6.757-10.606 2.214-13.315 6.615-13.315 12.761 0 6.146 8.053 11.766 22.681 11.31 14.606-.466 54.445-6.481 57.456-81.714-3.011-7.075-39.402-21.52-65.447-21.361l.093 16.087z" fill-opacity=".5"/><path d="M823.528 229.825c17.884-27.78 27.669-51.985 29.356-72.615 26.476 29.368 24.885 63.752 20.386 90.065-3.034-8.467-6.948-17.177-11.741-26.129 3.167 40.571-8.867 62.537-36.101 65.897-3.185-18.742-3.819-37.814-1.9-57.218zM500.663-22.151c-4.969 7.63-12.254 28.845-21.853 63.646-22.916 26.175-45.301 62.705-67.156 109.591-10.593 3.573-21.834 8.508-33.724 14.809 31.1-58.546 61.488-102.333 91.163-131.357 6.478-21.49 17.001-40.386 31.57-56.69zM559.738 37.845L487.233 71.99c20.659.347 37.067-3.403 49.223-11.248 12.155-7.846 19.916-15.478 23.282-22.897zM532.986 25.39c-.411-14.922-2.357-23.31-5.84-25.161-3.871-1.726-6.121-5.443-3.871-12.231 1.388-4.315.97-9.117-1.254-14.409l19.668-13.115 22.134 13.927c.775 4.915-.834 9.447-4.825 13.597 4.825 5.21 4.825 11.936-.765 19.705.156 1.924.264 3.81.325 5.66.092 2.803-.017 6.812-.325 12.028h-25.247z" fill-opacity=".4"/><path d="M806.075 255.293c-3.469 63.085 9.987 98.936 40.368 107.551 45.572 12.924 126.593 14.64 121.409 112.497a1637.697 1637.697 0 0111.289 36.938 361.487 361.487 0 01-43.323 38.977c-15.151-36.553-38.162-59.538-64.785-75.915-104.923-65.24-126.576-138.59-64.958-220.048zM538.486 456.059c54.943 137.673 142.893 49.461 210.835 81.71 31.065 14.746 48.011 41.815 50.838 81.208-26.487 6.155-54.086 9.405-82.443 9.405-54.985 0-107.118-12.219-153.835-34.091-.173-41.447-8.64-87.522-25.395-138.232zM642.711 83.775c14.252-3.93 25.9-12.805 34.944-26.624-.573 8.228-2.638 15.31-6.193 21.246 41.191-7.396 73.16-32.308 95.905-74.738-41.94-22.762-85.172-7.234-108.345 21.082-15.448 18.878-20.885 38.556-16.311 59.034z" fill-opacity=".4"/></g><defs><linearGradient id="paint0_linear" x1="1440" y1="76.519" x2="976.3" y2="917.465" gradientUnits="userSpaceOnUse"><stop stop-color="#FFB36D"/><stop offset="1" stop-color="#F88"/></linearGradient><linearGradient id="paint1_linear" x1="1440" y1="76.519" x2="976.3" y2="917.465" gradientUnits="userSpaceOnUse"><stop stop-color="#FFB36D"/><stop offset="1" stop-color="#F88"/></linearGradient></defs></svg>