<svg width="1440" height="467" fill="none" xmlns="http://www.w3.org/2000/svg"><g clip-path="url(#clip0)"><path fill="url(#paint0_linear)" d="M-.447-1.33h1440v468h-1440z"/><mask id="a" maskUnits="userSpaceOnUse" x="-1" y="-2" width="1441" height="469"><path fill="url(#paint1_linear)" d="M-.447-1.33h1440v468h-1440z"/></mask><g opacity=".54" mask="url(#a)"><circle cx="700.297" cy="329.703" r="430.703" fill="url(#paint2_linear)"/><path d="M1036.89 271.406c2.98-62.057-40.357-103.224-89.271-131.487l-31.794 186.785c22.011-1.229 32.772 7.127 36.685 11.059 4.891 4.916 17.12 19.662 2.446 43.01 30.571-4.915 78.324-34.408 81.934-109.367z" fill="url(#paint3_linear)"/><path fill-rule="evenodd" clip-rule="evenodd" d="M619.822 53.941l-37.908-38.094c57.066-6.963 207.64 1.966 353.403 93.393 2.446 9.83 0 24.577 0 24.577l12.229 6.144c10.598 15.156 28.614 58.247 15.897 109.367-12.718 51.12-34.648 72.912-44.023 77.418-19.565 0-52.827 11.305-63.588 61.442-10.761 50.137-31.386 61.033-40.354 60.214l-215.221 2.457-141.851-83.561-20.788-173.268 40.354-54.069 72.148-58.985 51.36-20.89 18.342-6.145zm254.187 71.575c-9.489 9.885-18.364 14.628-20.897 15.914-55.418-11.788-75.383-40.458-75.383-40.458 52.272-.322 99.452 12.111 133.97 33.143 0 0-18.685-6.055-37.69-8.599z" fill="url(#paint4_linear)"/><path fill-rule="evenodd" clip-rule="evenodd" d="M853.937 388.202c-37.99 18.644-83.03 29.437-131.324 29.437-135.748 0-245.793-85.277-245.793-190.471 0-77.706 60.047-144.543 146.145-174.168-163.748 9.435-295.332 140.981-295.332 303.296 0 187.33 166.984 342.115 372.969 342.115 153.814 0 281.849-89.179 348.798-208.495-92.119 20.717-201.163-18.669-195.463-101.714z" fill="url(#paint5_linear)"/></g></g><defs><linearGradient id="paint0_linear" x1="1439.55" y1="-1.33" x2="696.061" y2="-515.586" gradientUnits="userSpaceOnUse"><stop stop-color="#01E8F7"/><stop offset="1" stop-color="#00C2FF"/></linearGradient><linearGradient id="paint1_linear" x1="1439.55" y1="-1.33" x2="696.061" y2="-515.586" gradientUnits="userSpaceOnUse"><stop stop-color="#01E8F7"/><stop offset="1" stop-color="#00C2FF"/></linearGradient><linearGradient id="paint2_linear" x1="700.297" y1="-37.438" x2="700.297" y2="806.191" gradientUnits="userSpaceOnUse"><stop stop-color="#fff" stop-opacity=".16"/><stop offset="1" stop-color="#fff" stop-opacity="0"/></linearGradient><linearGradient id="paint3_linear" x1="976.947" y1="208.042" x2="993.296" y2="419.056" gradientUnits="userSpaceOnUse"><stop stop-color="#fff"/><stop offset="1" stop-color="#fff"/></linearGradient><linearGradient id="paint4_linear" x1="609.168" y1="60.849" x2="831.047" y2="412.998" gradientUnits="userSpaceOnUse"><stop stop-color="#C2F5FF"/><stop offset="1" stop-color="#8EEDFF"/></linearGradient><linearGradient id="paint5_linear" x1="561.165" y1="122.218" x2="899.804" y2="617.453" gradientUnits="userSpaceOnUse"><stop stop-color="#C2F5FF"/><stop offset="1" stop-color="#F5FDFF"/></linearGradient><clipPath id="clip0"><path fill="#fff" d="M-.447-1.33h1440v468h-1440z"/></clipPath></defs></svg>