<svg xmlns="http://www.w3.org/2000/svg" xmlns:xlink="http://www.w3.org/1999/xlink" width="33" height="33" viewBox="0 0 33 33"><defs><linearGradient id="a" x1="16.5" x2="16.5" y2="33" gradientUnits="userSpaceOnUse"><stop offset="0" stop-color="#ff7c7c"/><stop offset="1" stop-color="#ff7c7c" stop-opacity="0"/></linearGradient></defs><circle cx="16.5" cy="16.5" r="16.5" fill="#fff"/><path d="M16.5,1.5a15,15,0,1,1-15,15,15,15,0,0,1,15-15m0-1.5A16.5,16.5,0,1,0,33,16.5,16.5,16.5,0,0,0,16.5,0Z" fill="url(#a)"/><path d="M23.46,10.35l-.81-.81L16.5,15.69,10.35,9.54l-.81.81,6.15,6.15L9.54,22.65l.81.81,6.15-6.15,6.15,6.15.81-.81L17.31,16.5Z" fill="#ff7c7c" stroke="#ff7c7c"/></svg>