<svg width="25" height="25" viewBox="0 0 256 256" fill="none" xmlns="http://www.w3.org/2000/svg">
<g clip-path="url(#clip0)">
<path d="M135.867 181.299C180.027 181.299 215.826 145.457 215.826 101.244C215.826 57.0311 180.027 21.1891 135.867 21.1891C91.7074 21.1891 55.9088 57.0311 55.9088 101.244C55.9088 145.457 91.7074 181.299 135.867 181.299Z" fill="url(#paint0_linear)"/>
<path d="M192.825 79.3994C198.554 87.1704 200.758 94.1845 200.758 103.714C200.758 115.278 195.994 125.959 187.884 134.605L192.818 153.057H207.807L223.589 135.139L227.818 108.925L228.702 93.3011L213.097 75.6513C199.229 73.9739 192.47 75.2281 192.825 79.3994Z" fill="url(#paint1_linear)"/>
<mask id="mask0" mask-type="alpha" maskUnits="userSpaceOnUse" x="15" y="55" width="210" height="202">
<path d="M18.3558 155.18L21.0864 166.039C21.0864 166.039 53.3564 232.325 125.998 256.952C125.998 256.952 194.956 229.224 224.31 181.299L180.921 145.382C180.921 145.382 161.525 160.828 132.698 160.828C103.872 160.828 64.7313 143.616 64.7313 108.131C64.7313 72.6459 105.282 59.672 105.282 59.672L88.0005 55.4338H43.8286L15.7959 123.049L18.3558 155.18Z" fill="white"/>
</mask>
<g mask="url(#mask0)">
<path d="M130.147 239.384C193.409 239.384 244.693 188.101 244.693 124.839C244.693 61.577 193.409 10.2932 130.147 10.2932C66.8857 10.2932 15.6019 61.577 15.6019 124.839C15.6019 188.101 66.8857 239.384 130.147 239.384Z" fill="url(#paint2_linear)"/>
</g>
<mask id="mask1" mask-type="alpha" maskUnits="userSpaceOnUse" x="-12" y="-20" width="275" height="205">
<path d="M262.472 80.6617C261.24 79.4299 250.14 22.287 152.017 -11.5207C148.915 -13.6435 45.354 -30.3432 61.1661 -7.77254C-29.9743 15.4958 -9.23531 77.6042 -9.23531 80.6617C-9.23531 83.7198 3.80913 129.67 12.2754 148.381C12.9803 149.97 24.2662 169.92 32.6434 180.779C27.0202 172.102 22.3295 160.48 22.3295 144.24C22.3295 98.4306 57.7675 61.1788 102.11 59.5908C103.171 59.5908 104.314 59.5908 105.375 59.6796L94.7937 49.0882C94.7937 49.0882 137.377 41.941 192.033 75.0362C192.033 75.0362 192.827 76.7135 192.033 81.6563C192.033 81.6563 217.773 92.7748 219.977 114.403C222.181 136.031 208.513 148.389 197.494 150.148C197.494 150.148 203.223 141.234 194.407 136.469C192.552 135.408 190.349 134.969 188.145 135.059C171.309 135.059 169.365 154.304 169.365 154.304C169.187 155.277 169.187 156.249 169.187 157.214C169.187 157.214 166.367 185.373 216.437 184.839C235.175 184.839 241.829 156.063 248.529 130.205C251 120.674 252.759 113.52 253.909 108.227C256.729 100.724 259.466 89.6723 262.108 81.6417L262.472 80.6617Z" fill="white"/>
</mask>
<g mask="url(#mask1)">
<path d="M128.171 241.017C190.362 241.017 240.778 189.118 240.778 125.098C240.778 61.0774 190.362 9.17868 128.171 9.17868C65.9797 9.17868 15.5638 61.0774 15.5638 125.098C15.5638 189.118 65.9797 241.017 128.171 241.017Z" fill="black"/>
</g>
<path d="M170.253 83.5945C170.958 83.2382 173.251 82.0952 175.893 79.3569C181.183 80.0616 186.385 81.739 186.385 81.739C176.776 75.9128 163.642 72.4687 149.091 72.558C149.091 72.558 154.649 80.4999 170.076 83.7653C170.076 83.7726 170.164 83.6838 170.253 83.5945Z" fill="black"/>
<path d="M127.978 8.95963C194.03 8.95963 247.577 62.5059 247.577 128.559C247.577 194.611 194.03 248.158 127.978 248.158C61.925 248.158 8.37874 194.611 8.37874 128.559C8.37874 62.5059 61.925 8.95963 127.978 8.95963ZM127.978 19.8427C67.9355 19.8427 19.2618 68.5164 19.2618 128.559C19.2618 188.601 67.9355 237.275 127.978 237.275C188.02 237.275 236.694 188.601 236.694 128.559C236.694 68.5164 188.02 19.8427 127.978 19.8427Z" fill="black"/>
</g>
<defs>
<linearGradient id="paint0_linear" x1="135.867" y1="21.1891" x2="135.867" y2="181.299" gradientUnits="userSpaceOnUse">
<stop stop-color="#00DBE2"/>
<stop offset="1" stop-color="#02A9D6"/>
</linearGradient>
<linearGradient id="paint1_linear" x1="208.293" y1="92.3758" x2="214.237" y2="166.515" gradientUnits="userSpaceOnUse">
<stop stop-color="#00FFF3"/>
<stop offset="1" stop-color="#01D3E2"/>
</linearGradient>
<linearGradient id="paint2_linear" x1="88.4261" y1="88.6646" x2="159.527" y2="287.62" gradientUnits="userSpaceOnUse">
<stop stop-color="#00FFEB"/>
<stop offset="1" stop-color="#02B4E4"/>
</linearGradient>
<clipPath id="clip0">
<rect width="256" height="256" fill="white"/>
</clipPath>
</defs>
</svg>
