<svg width="110" height="110" viewBox="0 0 110 110" fill="none" xmlns="http://www.w3.org/2000/svg">
<circle cx="55" cy="55" r="54" stroke="#FF7C7C" stroke-width="2"/>
<g opacity="0.3">
<path d="M74.8447 44.1821V53.5248L55.5276 42.707L34.3891 54.5629V66.8013L55.5276 78.6026L84.9448 62.1026V71.5L55.5276 88L26 71.5V49.8642L55.4724 33.3096L74.8447 44.1821Z" fill="url(#paint0_linear)"/>
<path d="M36.1553 56.4752V65.8725L55.5276 76.6358L85 60.1904V38.5546L55.5276 22L26 38.5546V47.8974L55.4724 31.3427L76.5557 43.1987V55.4917L55.5276 67.293L36.1553 56.4752Z" fill="url(#paint1_linear)"/>
</g>
<path d="M74.3447 52.6718L55.7719 42.2707L55.5274 42.1338L55.283 42.2709L34.1446 54.1268L33.8891 54.2701V54.5629V66.8013V67.0948L34.1454 67.2379L55.2839 79.0392L55.5282 79.1756L55.7722 79.0387L84.4448 62.9564V71.2072L55.5271 87.427L26.5 71.2066V50.1569L55.4725 33.883L74.3447 44.4749V52.6718ZM55.7175 30.9069L55.4725 30.7692L55.2275 30.9068L26.5 47.043V38.8475L55.5274 22.5733L84.5 38.8473V59.8968L55.5271 76.0635L36.6553 65.5783V57.3271L55.2838 67.7296L55.5282 67.8661L55.7723 67.7291L76.8004 55.9277L77.0557 55.7845V55.4917V43.1987V42.9062L76.8007 42.7629L55.7175 30.9069Z" stroke="url(#paint2_linear)"/>
<circle cx="74" cy="71" r="17" fill="white"/>
<circle cx="74" cy="71" r="17" fill="white"/>
<circle cx="74" cy="71" r="16.5" stroke="url(#paint3_linear)"/>
<path d="M81.6208 64.2627L80.7372 63.3793L74.0001 70.1169L67.2629 63.3793L66.3794 64.2627L73.1165 71.0003L66.3794 77.7374L67.2629 78.6207L74.0001 71.8836L80.7372 78.6207L81.6208 77.7374L74.8832 71.0003L81.6208 64.2627Z" fill="#FF7C7C" stroke="#FF7C7C"/>
<defs>
<linearGradient id="paint0_linear" x1="55.5" y1="22" x2="55.5" y2="88" gradientUnits="userSpaceOnUse">
<stop stop-color="#FF7C7C"/>
<stop offset="1" stop-color="#FF7C7C" stop-opacity="0"/>
</linearGradient>
<linearGradient id="paint1_linear" x1="55.5" y1="22" x2="55.5" y2="88" gradientUnits="userSpaceOnUse">
<stop stop-color="#FF7C7C"/>
<stop offset="1" stop-color="#FF7C7C" stop-opacity="0"/>
</linearGradient>
<linearGradient id="paint2_linear" x1="55.5" y1="32.5" x2="55.5" y2="115" gradientUnits="userSpaceOnUse">
<stop stop-color="#FF7C7C"/>
<stop offset="1" stop-color="#FF7C7C" stop-opacity="0"/>
</linearGradient>
<linearGradient id="paint3_linear" x1="74" y1="59.4091" x2="74" y2="101.909" gradientUnits="userSpaceOnUse">
<stop stop-color="#FF7C7C"/>
<stop offset="1" stop-color="#FF7C7C" stop-opacity="0"/>
</linearGradient>
</defs>
</svg>
