<svg width="24" height="24" viewBox="0 0 24 24" fill="none" xmlns="http://www.w3.org/2000/svg">
<circle cx="12" cy="12" r="12" fill="white"/>
<g clip-path="url(#clip0)">
<path d="M11.9979 1L11.845 1.5012V16.0449L11.9979 16.1921L18.9947 12.2016L11.9979 1Z" fill="#343434"/>
<path d="M11.9978 1L5.00095 12.2015L11.9978 16.1921V9.13304V1Z" fill="#8C8C8C"/>
<path d="M11.9979 17.4702L11.9117 17.5715V22.7522L11.9979 22.9949L18.999 13.4817L11.9979 17.4702Z" fill="#3C3C3B"/>
<path d="M11.9979 22.995V17.4702L5.00104 13.4817L11.9979 22.995Z" fill="#8C8C8C"/>
<path d="M11.9979 16.1921L18.9947 12.2016L11.9979 9.13306V16.1921Z" fill="#141414"/>
<path d="M5.00104 12.2016L11.9978 16.192V9.13306L5.00104 12.2016Z" fill="#393939"/>
</g>
<defs>
<clipPath id="clip0">
<rect x="5" y="1" width="14" height="22" fill="white"/>
</clipPath>
</defs>
</svg>
