<svg width="30" height="45" viewBox="0 0 30 45" fill="none" xmlns="http://www.w3.org/2000/svg">
<path d="M0.443359 25.8734L1.53135 25.4045L15.0004 19.5983L29.5574 25.8734L24.0876 37.0703L10.7161 38.9459L0.662352 28.1862L0.443359 25.8734Z" fill="#133444"/>
<path d="M26.5287 18.9684C24.125 16.0981 20.7198 14.2303 16.9906 13.7366C16.9109 13.7254 16.8313 13.7156 16.7517 13.707C15.5876 13.5728 14.4118 13.5728 13.2478 13.707C13.1682 13.7162 13.0885 13.7261 13.0089 13.7366C9.27964 14.2303 5.87447 16.0981 3.47078 18.9684L2.86556 19.9634L1.8572 21.6178L1.1196 22.833C1.10566 22.8655 1.09172 22.8991 1.07878 22.9317L1.06982 22.9544L2.69734 23.9089L13.0099 29.958L15.0007 31.1258V16.6674L13.0099 17.5637V15.3989L15.0007 14.5016L16.9916 15.3989L27.1349 19.9673L26.5287 18.9684Z" fill="#C42370"/>
<path d="M29.9999 29.4716C29.9999 34.2868 27.6926 38.792 24.115 41.6961C22.7084 42.8445 21.101 43.7268 19.3728 44.2992C17.9624 44.7633 16.486 44.9999 15 45C6.7161 45 5.09078e-06 37.6864 5.09078e-06 29.4716C-0.00100316 28.2588 0.147758 27.0505 0.442967 25.8735L15 34.4131L29.557 25.8735C29.8522 27.0505 30.001 28.2588 29.9999 29.4716Z" fill="#1C4D6B"/>
<path d="M13.2477 13.71L14.9996 14.4987L13.0088 15.396V13.6024L13.2477 13.71Z" fill="black"/>
<path d="M13.0088 17.5639L14.9996 16.6676V31.1319L13.0088 29.9641V17.5639Z" fill="black"/>
<path d="M15 16.6676V31.1319L28.9488 22.9497L15 16.6676Z" fill="#1D4259"/>
<path d="M15 0V16.6676L28.9488 22.9496L15 0Z" fill="#4B6B9A"/>
<path d="M15.0001 16.6676V31.1319L13.0093 29.9642L1.06919 22.9556L1.05127 22.9447L1.07815 22.9329C1.09109 22.9003 1.10502 22.8668 1.11896 22.8342L2.86393 19.9626L13.0093 15.3992V17.5708L15.0001 16.6676Z" fill="#343535"/>
<path d="M15.0001 16.6676V31.1319L13.0093 29.9641L1.06919 22.9605L1.05127 22.9497L1.07815 22.9378L13.0093 17.5639L15.0001 16.6676Z" fill="#3E5578"/>
<path d="M15.0001 0V16.6676L1.05127 22.9496L15.0001 0Z" fill="#6DB2D8"/>
<path d="M9.35693 43.8134C9.56498 43.9042 9.77601 43.99 9.98803 44.071C9.77169 43.99 9.56133 43.9042 9.35693 43.8134Z" fill="#335F8A"/>
<path d="M9.98291 44.0712C10.1959 44.1521 10.4099 44.2281 10.6269 44.2992C10.4099 44.2288 10.1953 44.1528 9.98291 44.0712Z" fill="#335F8A"/>
<path d="M11.1816 44.469C11.3469 44.5154 11.5131 44.5598 11.6794 44.6003C11.5128 44.5595 11.3469 44.5157 11.1816 44.469Z" fill="#335F8A"/>
<path d="M0.442967 25.8735L15 34.4131C14.8056 35.7126 14.4557 36.9844 13.9578 38.2017C12.7931 40.9933 10.44 43.9458 5.88691 41.7001C2.30739 38.794 5.09078e-06 34.2868 5.09078e-06 29.4716C-0.00100316 28.2588 0.147758 27.0505 0.442967 25.8735Z" fill="#6DB2D8"/>
<path d="M24.1133 41.697L24.0775 41.7257C24.0018 41.7869 23.9262 41.8471 23.8495 41.9063L23.8296 41.9221C23.7467 41.9879 23.6631 42.0511 23.5788 42.1116C23.4882 42.1788 23.3966 42.2459 23.3041 42.3091C23.2115 42.3722 23.1189 42.4384 23.0253 42.5016C22.9318 42.5647 22.8601 42.6121 22.7775 42.6654L22.7317 42.695C22.6441 42.7513 22.5565 42.8066 22.4689 42.8599C22.4585 42.8673 22.4475 42.8739 22.4361 42.8796C22.3455 42.9359 22.2549 42.9902 22.1633 43.0425C22.0717 43.0948 21.9642 43.156 21.8647 43.2103C21.7651 43.2646 21.6656 43.3169 21.5661 43.3682L21.5551 43.3742C21.4556 43.4255 21.356 43.4729 21.2565 43.5242C21.1569 43.5755 21.0574 43.6229 20.9499 43.6713C20.8424 43.7197 20.7428 43.77 20.6393 43.8115C20.4313 43.9023 20.2202 43.9882 20.0082 44.0691C19.7962 44.1501 19.5812 44.2261 19.3642 44.2971C19.2776 44.3258 19.191 44.3534 19.1034 44.3801C19.0158 44.4067 18.9043 44.4393 18.8097 44.4669C18.6445 44.5133 18.4783 44.5577 18.312 44.5982C18.2493 44.614 18.1856 44.6288 18.1219 44.6426L18.0154 44.6673C17.9268 44.687 17.8382 44.7058 17.7486 44.7236C17.659 44.7413 17.5854 44.7561 17.5027 44.771C17.4201 44.7858 17.3524 44.7986 17.2768 44.8104C17.2011 44.8223 17.1096 44.8371 17.0259 44.8489C16.9851 44.8558 16.9443 44.8618 16.9025 44.8667L16.7144 44.8914L16.6099 44.9042C16.5412 44.9131 16.4715 44.92 16.4018 44.9269C16.3162 44.9358 16.2316 44.9437 16.146 44.9506C16.0793 44.9555 16.0126 44.9615 15.9469 44.9654C15.8812 44.9694 15.8314 44.9733 15.7727 44.9753H15.7647C15.6971 44.9753 15.6294 44.9832 15.5657 44.9852C15.4721 44.9852 15.3775 44.9921 15.283 44.994C15.1884 44.996 15.0938 44.994 14.9983 44.994C14.9027 44.994 14.8081 44.994 14.7136 44.994C14.619 44.994 14.5245 44.994 14.4309 44.9852C14.3622 44.9852 14.2945 44.9792 14.2268 44.9753H14.2189C14.1601 44.9753 14.1024 44.9694 14.0447 44.9654C13.9869 44.9615 13.9113 44.9555 13.8456 44.9506C13.76 44.9437 13.6754 44.9358 13.5898 44.9269C13.5201 44.92 13.4504 44.9131 13.3817 44.9042L13.2822 44.8914C13.2195 44.8845 13.1567 44.8756 13.094 44.8667C13.0522 44.8667 13.0114 44.8558 12.9706 44.8489C12.8863 44.8371 12.8027 44.8243 12.7198 44.8104C12.6441 44.7986 12.5684 44.7848 12.4938 44.771C12.4191 44.7571 12.3295 44.7404 12.2479 44.7236C12.1663 44.7068 12.0697 44.687 11.9812 44.6673L11.8746 44.6426C11.8109 44.6288 11.7472 44.614 11.6845 44.5982C11.5173 44.5577 11.351 44.5133 11.1868 44.4669L10.8882 44.3801C10.8006 44.3534 10.714 44.3258 10.6274 44.2971C10.4104 44.2261 10.1964 44.1501 9.98334 44.0691C9.77032 43.9882 9.55631 43.9043 9.35722 43.8134C9.25768 43.768 9.15018 43.7207 9.04665 43.6733C8.94313 43.6259 8.8416 43.5746 8.74006 43.5262C8.63853 43.4778 8.54098 43.4275 8.44144 43.3761L8.43049 43.3702C8.33095 43.3189 8.2314 43.2656 8.13186 43.2123C8.03232 43.159 7.93278 43.1017 7.83323 43.0445C7.73369 42.9872 7.65505 42.9398 7.56547 42.8816L7.53262 42.8619C7.44502 42.8085 7.35742 42.7533 7.26983 42.697L7.22404 42.6674C7.14142 42.6141 7.0578 42.5588 6.97618 42.5035C6.89455 42.4482 6.78904 42.3762 6.69746 42.311C6.60588 42.2459 6.51331 42.1788 6.42272 42.1136C6.33214 42.0485 6.2545 41.9882 6.17188 41.9241L6.15197 41.9083C6.07532 41.8491 5.99967 41.7889 5.92402 41.7277L5.88818 41.699C10.4412 43.9447 12.7944 40.9922 13.9591 38.2007C14.4568 36.9843 14.8066 35.7135 15.0013 34.415C15.1955 35.7138 15.545 36.9849 16.0425 38.2016C17.2071 40.9903 19.5603 43.9428 24.1133 41.697Z" fill="#529BBA"/>
<path d="M18.3159 44.6003C18.4831 44.5598 18.6494 44.5154 18.8136 44.469C18.6517 44.5164 18.4858 44.5601 18.3159 44.6003Z" fill="#335F8A"/>
<path d="M19.3726 44.2992C19.5896 44.2281 19.8036 44.1521 20.0166 44.0712C19.8049 44.1528 19.5902 44.2288 19.3726 44.2992Z" fill="#335F8A"/>
<path d="M20.0171 44.071C20.2291 43.99 20.4401 43.9042 20.6482 43.8134C20.4405 43.9042 20.2301 43.99 20.0171 44.071Z" fill="#335F8A"/>
<path d="M30 29.4716C30 34.2868 27.6916 38.793 24.1131 41.6971C19.56 43.9428 17.2068 40.9903 16.0422 38.1987C15.5445 36.9824 15.1946 35.7116 15 34.4131L29.557 25.8735C29.8523 27.0505 30.001 28.2588 30 29.4716Z" fill="#4B6B9A"/>
</svg>
