<svg width="15" height="15" viewBox="0 0 15 15" fill="none" xmlns="http://www.w3.org/2000/svg">
<path d="M7.5 0C3.375 0 0 3.375 0 7.5C0 11.625 3.375 15 7.5 15C11.625 15 15 11.625 15 7.5C15 3.375 11.625 0 7.5 0ZM8.25 12.75H6.75V11.25H8.25V12.75ZM9.825 6.975L9.15 7.65C8.55003 8.17503 8.25 8.625 8.25 9.75H6.75V9.375C6.75 8.55 7.05 7.8 7.65 7.275L8.55 6.3C8.85 6.075 9 5.7 9 5.25C9 4.425 8.325 3.75 7.5 3.75C6.675 3.75 6 4.425 6 5.25H4.5C4.5 3.6 5.85 2.25 7.5 2.25C9.15 2.25 10.5 3.6 10.5 5.25C10.5 5.925 10.2 6.525 9.825 6.975Z" fill="#516DFF"/>
</svg>
