<svg width="23" height="23" viewBox="0 0 23 23" fill="none" xmlns="http://www.w3.org/2000/svg">
<path d="M11.5 23C17.873 23 23 17.873 23 11.5C23 5.12705 17.873 0 11.5 0C5.12705 0 0 5.12705 0 11.5C0 17.873 5.12705 23 11.5 23Z" fill="#2775CA"/>
<path d="M14.6625 13.3207C14.6625 11.6437 13.6562 11.0687 11.6437 10.8291C10.2062 10.6374 9.91874 10.2541 9.91874 9.58321C9.91874 8.9123 10.3979 8.48116 11.3562 8.48116C12.2187 8.48116 12.6979 8.76866 12.9375 9.48741C12.9854 9.63116 13.1292 9.72696 13.2729 9.72696H14.0395C14.2312 9.72696 14.375 9.58321 14.375 9.39162V9.34366C14.1833 8.28945 13.3208 7.47491 12.2187 7.37911V6.22911C12.2187 6.03741 12.075 5.89366 11.8354 5.8457H11.1167C10.925 5.8457 10.7812 5.98945 10.7333 6.22911V7.33116C9.29579 7.52286 8.38545 8.48116 8.38545 9.67912C8.38545 11.2604 9.34374 11.8832 11.3562 12.1229C12.6979 12.3624 13.1292 12.6499 13.1292 13.4166C13.1292 14.1833 12.4583 14.7104 11.5479 14.7104C10.302 14.7104 9.87079 14.1832 9.72704 13.4645C9.6792 13.2729 9.53545 13.177 9.3917 13.177H8.57704C8.38545 13.177 8.2417 13.3207 8.2417 13.5124V13.5604C8.43329 14.7582 9.19999 15.6207 10.7812 15.8604V17.0104C10.7812 17.202 10.925 17.3457 11.1645 17.3937H11.8833C12.075 17.3937 12.2187 17.2499 12.2667 17.0104V15.8604C13.7042 15.6207 14.6625 14.6145 14.6625 13.3207Z" fill="white"/>
<path d="M9.05621 18.3521C5.31871 17.0105 3.402 12.8417 4.79166 9.15209C5.51041 7.13959 7.09166 5.60629 9.05621 4.88754C9.24791 4.79175 9.34371 4.648 9.34371 4.40834V3.73754C9.34371 3.54584 9.24791 3.40209 9.05621 3.35425C9.00825 3.35425 8.91246 3.35425 8.8645 3.40209C4.31246 4.83959 1.82075 9.67925 3.25825 14.2313C4.12075 16.9146 6.18121 18.975 8.8645 19.8375C9.05621 19.9333 9.24791 19.8375 9.29575 19.6458C9.34371 19.598 9.34371 19.55 9.34371 19.4543V18.7833C9.34371 18.6396 9.19996 18.448 9.05621 18.3521ZM14.1354 3.40209C13.9437 3.30629 13.752 3.40209 13.7042 3.59379C13.6562 3.64175 13.6562 3.68959 13.6562 3.7855V4.45629C13.6562 4.648 13.8 4.83959 13.9437 4.9355C17.6812 6.27709 19.5979 10.4458 18.2083 14.1355C17.4895 16.148 15.9083 17.6813 13.9437 18.4C13.752 18.4958 13.6562 18.6396 13.6562 18.8792V19.55C13.6562 19.7417 13.752 19.8855 13.9437 19.9333C13.9917 19.9333 14.0875 19.9333 14.1354 19.8855C18.6875 18.448 21.1792 13.6083 19.7417 9.05629C18.8792 6.32504 16.7708 4.26459 14.1354 3.40209Z" fill="white"/>
</svg>
